<svg width="2499" height="682" viewBox="0 0 2499 682" fill="none" xmlns="http://www.w3.org/2000/svg">
  <path fill-rule="evenodd" clip-rule="evenodd" d="M1889.48 120.741C1840.98 120.953 1801.21 121.207 1801.11 121.302C1801.01 121.398 1800.92 131.273 1800.92 143.247V165.018H1909.78H2018.63V361.329V557.638H2041.14H2063.65V338.819V120L2020.66 120.177C1997.02 120.275 1937.99 120.528 1889.48 120.741ZM2105.72 339.188V556.162H2127.86H2150V339.188V122.214H2127.86H2105.72V339.188ZM350 345.461V562.066H372.14H394.28V345.461V128.856H372.14H350V345.461ZM688.93 252.657L630.443 252.85V268.344V283.838H706.827H783.21V421.476V559.114H798.709H814.207V405.609V252.103L780.812 252.283C762.444 252.382 721.098 252.551 688.93 252.657ZM1395.02 267.97V283.838H1517.53H1640.04V267.97V252.103H1517.53H1395.02V267.97ZM1665.87 404.871V557.638H1681.73H1697.6V439.043V320.447L1699.99 323.729C1701.3 325.534 1702.96 327.655 1703.68 328.442C1704.4 329.229 1704.98 330.118 1704.98 330.418C1704.98 330.719 1705.45 331.432 1706.02 332.004C1706.59 332.575 1709.96 337.165 1713.5 342.204C1717.04 347.243 1720.23 351.476 1720.58 351.611C1720.93 351.747 1721.22 352.185 1721.22 352.587C1721.22 352.988 1721.63 353.779 1722.14 354.345C1724.3 356.758 1724.91 357.616 1724.91 358.283C1724.91 358.673 1725.18 359.102 1725.52 359.238C1725.85 359.373 1728.7 363.137 1731.84 367.602C1734.99 372.066 1737.87 375.83 1738.25 375.965C1738.62 376.101 1738.93 376.682 1738.93 377.257C1738.93 377.833 1739.24 378.303 1739.62 378.303C1740 378.303 1740.5 378.909 1740.73 379.649C1740.97 380.389 1741.75 381.634 1742.46 382.416C1743.17 383.198 1746.55 387.823 1749.97 392.694C1753.38 397.565 1756.61 402.048 1757.15 402.657C1758.48 404.19 1761.89 408.889 1769.17 419.262C1772.59 424.133 1775.99 428.762 1776.72 429.549C1777.45 430.336 1778.04 431.225 1778.04 431.525C1778.04 431.826 1778.49 432.514 1779.03 433.055C1779.57 433.595 1782.96 438.185 1786.56 443.255C1790.16 448.325 1793.7 453.116 1794.43 453.903C1795.16 454.69 1795.76 455.552 1795.76 455.82C1795.76 456.087 1796.34 456.979 1797.05 457.803C1797.76 458.626 1800.83 462.875 1803.87 467.244C1806.92 471.614 1809.98 475.794 1810.67 476.532C1811.37 477.271 1812.69 479.019 1813.62 480.416C1814.55 481.813 1817.64 486.18 1820.48 490.121C1823.32 494.063 1826.48 498.522 1827.49 500.03C1828.51 501.539 1829.75 503.246 1830.25 503.822C1831.38 505.122 1834.88 509.909 1839.64 516.679C1841.63 519.52 1843.47 522.011 1843.72 522.214C1843.97 522.417 1844.89 523.757 1845.76 525.191C1846.63 526.626 1848.19 528.785 1849.22 529.988C1850.26 531.192 1851.11 532.402 1851.11 532.678C1851.11 532.954 1851.55 533.621 1852.09 534.161C1852.63 534.701 1854.84 537.631 1857 540.672C1859.16 543.712 1861.21 546.31 1861.55 546.445C1861.9 546.581 1862.18 547.018 1862.18 547.417C1862.18 548.152 1865.16 552.388 1867.53 555.01C1868.24 555.796 1868.82 556.716 1868.82 557.052C1868.82 557.388 1877.54 557.574 1888.19 557.467L1907.56 557.27L1907.75 470.369L1907.94 383.469H1892.81H1877.68L1877.49 448.875L1877.31 514.282L1873.68 509.023C1871.69 506.131 1869.78 503.764 1869.44 503.764C1869.1 503.764 1868.82 503.266 1868.82 502.657C1868.82 502.048 1868.51 501.55 1868.13 501.55C1867.75 501.55 1867.25 500.944 1867.02 500.204C1866.78 499.464 1866 498.219 1865.28 497.436C1864.55 496.655 1861.65 492.734 1858.83 488.726C1856 484.717 1852.79 480.233 1851.68 478.762C1849.02 475.23 1847.31 472.849 1841.17 464.168C1838.35 460.17 1835.44 456.257 1834.72 455.469C1833.99 454.683 1833.39 453.794 1833.39 453.493C1833.39 453.193 1832.97 452.508 1832.44 451.971C1831.92 451.436 1828.53 446.845 1824.9 441.771C1821.28 436.698 1817.72 431.903 1817 431.115C1816.27 430.328 1815.68 429.439 1815.68 429.139C1815.68 428.839 1815.25 428.154 1814.73 427.617C1814.2 427.081 1811.66 423.664 1809.08 420.023C1806.5 416.382 1803.95 412.954 1803.4 412.405C1802.85 411.857 1802.4 411.182 1802.4 410.907C1802.4 410.631 1801.65 409.534 1800.74 408.468C1799.82 407.402 1796.59 402.956 1793.54 398.586C1790.5 394.216 1787.44 390.037 1786.75 389.298C1786.05 388.56 1784.72 386.813 1783.79 385.419C1780.92 381.111 1770.53 366.668 1767.25 362.436C1766.62 361.624 1763.64 357.472 1760.63 353.21C1757.62 348.948 1754.7 344.934 1754.16 344.288C1753.61 343.643 1750.23 338.993 1746.64 333.956C1743.04 328.919 1739.9 324.631 1739.65 324.428C1739.39 324.225 1738.56 322.979 1737.79 321.661C1737.03 320.342 1736.14 319.262 1735.82 319.262C1735.5 319.262 1735.24 318.915 1735.24 318.492C1735.24 318.068 1734.41 316.826 1733.39 315.732C1732.38 314.638 1731.55 313.351 1731.55 312.874C1731.55 312.396 1731.27 311.895 1730.92 311.759C1730.58 311.624 1728.54 309.022 1726.38 305.978C1724.23 302.934 1722.19 300.332 1721.84 300.197C1721.5 300.061 1721.22 299.623 1721.22 299.221C1721.22 298.821 1720.8 298.029 1720.3 297.463C1718.13 295.05 1717.53 294.192 1717.53 293.525C1717.53 293.135 1717.26 292.706 1716.93 292.571C1716.61 292.436 1713.95 288.951 1711.04 284.827C1708.13 280.703 1705.24 276.824 1704.63 276.208C1704.01 275.591 1703.51 274.731 1703.51 274.296C1703.51 273.861 1703.25 273.506 1702.93 273.506C1702.61 273.506 1701.72 272.426 1700.95 271.107C1700.19 269.788 1699.35 268.542 1699.1 268.34C1698.84 268.137 1696.69 265.148 1694.31 261.697C1687.12 251.279 1688.66 252.103 1676.44 252.103H1665.87V404.871ZM963.696 256.347C962.392 259.962 961.606 261.94 959.959 265.756C959.433 266.974 957.45 271.956 955.551 276.827C953.653 281.697 951.605 286.845 951 288.266C949.044 292.861 948.687 293.759 947.782 296.384C947.292 297.805 946.463 299.963 945.94 301.181C944.717 304.028 944.215 305.282 940.024 315.941C938.109 320.812 936.118 325.793 935.6 327.011C935.081 328.229 934.326 330.055 933.921 331.07C932.931 333.551 924.166 355.409 923.415 357.269C923.087 358.081 920.764 363.893 918.253 370.185C912.13 385.525 912.337 385.013 911.242 387.528C910.712 388.746 908.725 393.727 906.827 398.598C904.928 403.469 902.955 408.45 902.441 409.668C901.928 410.886 900.761 413.875 899.847 416.31C898.934 418.745 897.758 421.734 897.234 422.952C896.016 425.782 895.528 426.999 891.316 437.712C889.401 442.583 887.41 447.565 886.892 448.782C885.533 451.974 884.945 453.426 879.877 466.125C877.365 472.417 875.041 478.229 874.71 479.041C874.379 479.852 872.876 483.672 871.369 487.528C868.899 493.852 867.793 496.607 865.892 501.181C865.554 501.993 864.877 503.819 864.387 505.24C863.897 506.661 863.058 508.819 862.522 510.037C861.987 511.255 861.003 513.579 860.337 515.203C859.671 516.827 858.852 518.819 858.52 519.631C858.187 520.443 856.349 525.092 854.436 529.963C850.226 540.686 849.74 541.897 848.519 544.723C846.631 549.09 843.727 556.93 843.727 557.66C843.727 558.991 877.763 558.246 878.449 556.9C878.759 556.292 880.577 551.808 882.489 546.937C885.598 539.019 886.45 536.898 888.721 531.439C889.059 530.627 890.906 525.978 892.824 521.107C894.744 516.236 896.792 511.089 897.376 509.668C897.961 508.247 898.705 506.421 899.029 505.609C899.353 504.797 899.967 503.303 900.393 502.288C903.165 495.692 909.41 480.069 909.41 479.734C909.41 479.511 910.023 477.935 910.772 476.233C911.521 474.53 912.883 471.144 913.8 468.709C914.717 466.273 915.895 463.284 916.419 462.067C917.637 459.237 918.125 458.019 922.337 447.306C925.72 438.702 927.41 434.641 928.706 432.003C929.052 431.298 929.336 430.364 929.336 429.928C929.336 429.491 930.12 427.411 931.08 425.305C932.039 423.199 934.403 417.491 936.333 412.62C938.263 407.749 940.266 402.768 940.784 401.55C942.024 398.638 942.572 397.268 946.692 386.79C948.607 381.919 950.598 376.937 951.116 375.72C951.635 374.502 952.392 372.675 952.799 371.661C953.207 370.646 955.939 363.838 958.872 356.532C961.804 349.225 964.625 342.251 965.142 341.033C966.403 338.059 966.988 336.596 971.041 326.273C975.452 315.041 976.086 313.703 976.413 314.95C976.555 315.495 977.844 318.93 979.276 322.583C980.709 326.236 982.711 331.384 983.725 334.022C984.738 336.661 985.829 339.483 986.148 340.295C986.467 341.107 987.629 344.096 988.731 346.937C989.832 349.779 991.004 352.768 991.335 353.579C991.666 354.391 993.148 358.21 994.629 362.066C996.109 365.923 997.593 369.742 997.926 370.554C998.259 371.365 999.109 373.524 999.815 375.351C1000.52 377.177 1001.36 379.336 1001.68 380.148C1001.99 380.96 1003.16 383.948 1004.26 386.79C1005.36 389.631 1006.59 392.786 1006.98 393.801C1007.38 394.816 1008.17 396.586 1008.74 397.735C1009.31 398.884 1009.78 400.3 1009.78 400.882C1009.78 401.463 1010.1 402.516 1010.49 403.221C1010.88 403.925 1012.4 407.657 1013.87 411.513C1015.35 415.369 1016.82 419.188 1017.15 420C1017.48 420.812 1018.65 423.801 1019.76 426.642C1022.69 434.211 1023.12 435.272 1024.21 437.712C1024.75 438.93 1025.71 441.5 1026.33 443.423C1026.96 445.346 1027.78 447.505 1028.16 448.22C1028.54 448.935 1029.57 451.513 1030.46 453.948C1031.35 456.384 1032.51 459.373 1033.05 460.591C1033.59 461.808 1034.75 464.797 1035.64 467.233C1036.53 469.668 1037.66 472.657 1038.17 473.875C1038.67 475.092 1039.82 478.081 1040.72 480.517C1041.62 482.952 1042.79 485.941 1043.32 487.159C1044.22 489.219 1047.42 497.349 1051.44 507.823C1053.48 513.119 1058.37 525.675 1059.21 527.749C1061.15 532.571 1067.71 549.526 1069.77 555.055L1070.87 558.007L1089.03 558.205C1109.24 558.425 1108.7 558.575 1106.16 553.455C1104.97 551.066 1105.05 551.269 1099.41 536.974C1097.09 531.089 1094.77 525.277 1094.26 524.059C1093.76 522.841 1092.43 519.52 1091.33 516.679C1088.43 509.258 1087.96 508.08 1086.91 505.609C1086.39 504.391 1084.39 499.41 1082.47 494.539C1079.35 486.618 1078.48 484.458 1076.22 479.041C1075.89 478.229 1074.04 473.579 1072.13 468.709C1070.21 463.838 1068.22 458.856 1067.7 457.639C1066.46 454.726 1065.92 453.357 1061.8 442.878C1059.88 438.008 1057.89 433.026 1057.37 431.808C1056.32 429.337 1055.85 428.159 1052.95 420.738C1051.04 415.823 1049.56 412.192 1048.16 408.93C1047.81 408.118 1045.98 403.469 1044.09 398.598C1040.54 389.44 1039.8 387.59 1038.2 383.838C1037.68 382.62 1035.69 377.639 1033.76 372.768C1030.64 364.847 1029.77 362.686 1027.52 357.269C1027.18 356.458 1025.33 351.808 1023.42 346.937C1021.5 342.066 1019.51 337.085 1018.99 335.867C1017.76 332.955 1017.21 331.585 1013.09 321.107C1011.17 316.236 1009.18 311.255 1008.66 310.037C1007.57 307.468 1006.99 306.004 1004.26 298.967C1003.16 296.125 1001.98 293.137 1001.65 292.325C1001.32 291.513 999.816 287.694 998.314 283.838C996.812 279.982 995.158 275.83 994.64 274.613C993.503 271.941 993.089 270.92 989.034 260.775L985.863 252.841H975.412H964.961L963.696 256.347ZM1138.93 405.978V559.114H1251.11H1363.28V543.616V528.118H1266.97H1170.66V390.48V252.841H1154.8H1138.93V405.978ZM435.609 409.299V561.328H451.105H466.601L466.787 443.151L466.974 324.974L472.099 332.266C474.917 336.276 477.658 339.996 478.187 340.532C478.717 341.069 479.151 341.754 479.151 342.054C479.151 342.354 479.747 343.244 480.475 344.03C481.203 344.818 484.746 349.609 488.348 354.679C491.951 359.748 495.34 364.339 495.88 364.879C496.421 365.42 496.863 366.108 496.863 366.408C496.863 366.709 497.452 367.598 498.17 368.385C498.89 369.172 502.286 373.801 505.719 378.672C511.772 387.261 515.633 392.602 517.991 395.646C518.62 396.458 521.599 400.609 524.612 404.871C527.624 409.133 530.562 413.18 531.139 413.863C531.717 414.546 532.785 416.041 533.514 417.184C534.241 418.327 535.028 419.428 535.262 419.631C535.496 419.834 538.644 424.151 542.259 429.225C545.874 434.299 549.094 438.561 549.416 438.696C549.737 438.832 550 439.333 550 439.811C550 440.289 550.83 441.575 551.845 442.669C552.86 443.763 553.69 444.854 553.69 445.092C553.69 445.331 554.52 446.421 555.535 447.515C556.55 448.61 557.38 449.782 557.38 450.119C557.38 450.457 557.818 451.17 558.353 451.706C558.888 452.241 560.939 455.04 562.911 457.926C564.883 460.812 566.77 463.173 567.105 463.173C567.438 463.173 567.712 463.528 567.712 463.961C567.712 464.669 571.101 469.638 572.209 470.553C572.455 470.756 573.452 472.129 574.427 473.604C576.418 476.614 585.459 489.248 588.552 493.341C589.664 494.812 591.159 496.853 591.873 497.878C597.274 505.618 604.34 515.371 605.132 516.178C605.658 516.714 606.089 517.399 606.089 517.7C606.089 518 606.684 518.889 607.413 519.676C608.14 520.464 611.683 525.255 615.286 530.325C618.888 535.394 622.277 539.985 622.818 540.525C623.359 541.066 623.801 541.733 623.801 542.008C623.802 542.284 624.582 543.416 625.535 544.523C626.488 545.631 629.559 549.855 632.36 553.91L637.454 561.283L657.011 561.306L676.568 561.328L676.378 474.982L676.187 388.635H661.064H645.941L645.917 453.395C645.897 509.835 645.758 517.965 644.835 516.679C644.254 515.867 643.509 514.871 643.181 514.465C642.853 514.059 639.626 509.576 636.01 504.502C632.393 499.428 629.163 495.166 628.831 495.031C628.5 494.895 628.229 494.457 628.229 494.055C628.229 493.655 627.814 492.864 627.306 492.297C625.682 490.486 624.951 489.495 620.53 483.1C618.144 479.65 615.815 476.494 615.353 476.089C614.891 475.683 613.748 474.097 612.812 472.563C611.876 471.03 610.669 469.335 610.129 468.796C609.59 468.256 608.543 466.844 607.803 465.658C606.523 463.606 604.942 461.415 594.644 447.425C592.206 444.112 588.573 439.078 586.57 436.236C584.568 433.395 582.727 430.904 582.478 430.701C582.229 430.498 581.263 429.078 580.331 427.545C579.4 426.012 578.24 424.351 577.753 423.855C577.267 423.359 574.253 419.299 571.055 414.834C567.858 410.369 564.968 406.605 564.632 406.47C564.297 406.334 564.022 405.754 564.022 405.179C564.022 404.603 563.712 404.133 563.334 404.133C562.955 404.133 562.453 403.527 562.218 402.787C561.984 402.047 561.205 400.802 560.488 400.019C559.771 399.238 556.569 394.945 553.373 390.48C550.176 386.015 547.278 382.251 546.935 382.116C546.591 381.98 546.31 381.399 546.31 380.824C546.31 380.249 546.049 379.779 545.731 379.779C545.413 379.779 544.525 378.699 543.757 377.38C542.99 376.061 542.151 374.816 541.892 374.613C541.634 374.41 539.638 371.669 537.458 368.524C535.278 365.379 533.221 362.805 532.89 362.805C532.559 362.805 532.288 362.45 532.288 362.017C532.288 361.309 528.899 356.34 527.791 355.424C527.545 355.222 526.548 353.84 525.573 352.355C522.266 347.317 510.999 331.68 509.173 329.594C508.64 328.985 505.428 324.502 502.035 319.631C498.644 314.76 495.659 310.609 495.404 310.406C495.149 310.203 491.981 305.886 488.365 300.812C484.748 295.738 481.362 291.148 480.839 290.612C480.317 290.075 479.889 289.39 479.889 289.09C479.889 288.79 479.3 287.9 478.58 287.114C477.861 286.326 474.306 281.531 470.681 276.458C467.056 271.384 463.498 266.593 462.773 265.811C462.049 265.029 461.263 263.784 461.029 263.044C460.794 262.303 460.364 261.697 460.072 261.697C459.782 261.697 458.955 260.701 458.235 259.483L456.928 257.269H446.268H435.609V409.299ZM1395.02 470.553V557.638H1517.9H1640.77V541.771V525.904H1533.76H1426.75V470.553V415.203H1533.76H1640.77V399.336V383.469H1517.9H1395.02V470.553Z" fill="#F1F1F1"/>
</svg>
