<svg viewBox="0 0 370 370" fill="none" xmlns="http://www.w3.org/2000/svg">
  <path d="M233.14 160.274C228.411 160.273 223.788 161.675 219.855 164.302C215.923 166.929 212.858 170.663 211.047 175.032C209.237 179.401 208.763 184.208 209.686 188.847C210.608 193.485 212.885 197.746 216.229 201.09C219.573 204.434 223.834 206.711 228.472 207.633C233.111 208.556 237.918 208.082 242.287 206.272C246.656 204.461 250.39 201.396 253.017 197.464C255.644 193.531 257.046 188.908 257.045 184.179C257.037 177.841 254.516 171.765 250.035 167.284C245.554 162.803 239.478 160.282 233.14 160.274ZM233.14 198.228C230.362 198.228 227.646 197.404 225.335 195.86C223.025 194.316 221.224 192.122 220.161 189.555C219.098 186.988 218.819 184.163 219.361 181.438C219.904 178.713 221.242 176.209 223.206 174.245C225.171 172.28 227.674 170.942 230.4 170.4C233.125 169.858 235.95 170.136 238.517 171.199C241.084 172.263 243.278 174.063 244.822 176.374C246.365 178.684 247.189 181.4 247.189 184.179C247.185 187.904 245.704 191.475 243.07 194.109C240.436 196.743 236.865 198.224 233.14 198.228Z" fill="white"/>
  <path d="M34.6726 152.662H47.9706L41.8316 192.296C41.8316 193.845 42.4124 194.233 42.8611 194.233C43.5741 194.233 45.5764 194.105 45.5764 194.105L45.1892 200.433C42.2753 201.18 39.2855 201.59 36.2782 201.656C33.0528 201.656 31.5039 200.301 31.5039 197.656C31.5166 197.243 31.5608 196.831 31.6361 196.424L37.3029 159.764L34.139 159.377L34.6726 152.662Z" fill="white"/>
  <path d="M51.0571 168.798H64.3551L60.6717 192.103C60.6103 193.911 61.2526 194.232 61.7059 194.232C62.4804 194.232 64.4826 194.105 64.4826 194.105L64.0907 200.433C61.1772 201.173 58.1896 201.584 55.1844 201.656C51.9591 201.656 50.4102 200.301 50.4102 197.656C50.4258 197.243 50.4684 196.831 50.5377 196.424L53.6922 175.915L50.5282 175.527L51.0571 168.798ZM66.551 158.215C66.551 161.247 64.4165 164.09 60.3506 164.09C57.3803 164.09 55.5102 162.409 55.5102 159.764C55.5102 157.875 56.7333 153.956 61.772 153.956C63.8971 153.956 66.551 154.796 66.551 158.215Z" fill="white"/>
  <path d="M89.9046 168.798H103.911C101.654 177.903 96.0341 188.632 85.4514 201.075H76.8663L71.1995 175.839L66.8125 175.513L67.3272 168.798H80.3655L84.4975 191.135H84.8612C87.959 187.329 91.1229 181.515 93.4463 176.094L89.3804 175.381L89.9046 168.798Z" fill="white"/>
  <path d="M131.391 195.134C131.391 195.134 127.84 202.303 117.318 202.303C108.346 202.303 101.891 197.392 101.891 188.037C101.891 176.094 110.542 167.636 121.252 167.636C128.482 167.636 133.903 171.513 133.903 177.553C133.903 185.237 127.254 188.013 111.184 188.141C111.184 193.241 114.664 195.371 118.796 195.371C120.307 195.407 121.806 195.1 123.181 194.474C124.556 193.847 125.771 192.917 126.735 191.753L131.391 195.134ZM111.699 182.483C122.352 182.483 125.455 181.128 125.455 177.903C125.455 175.839 123.84 174.224 120.289 174.224C116.289 174.224 112.931 176.543 111.699 182.483Z" fill="white"/>
  <path d="M263.759 126.245C260.053 126.26 256.479 127.623 253.705 130.08C243.467 126.161 232.326 125.233 221.581 127.403C210.836 129.574 200.929 134.755 193.015 142.341C185.102 149.927 179.508 159.606 176.886 170.251C174.264 180.895 174.721 192.065 178.205 202.459H206.793C205.072 199.795 203.766 196.884 202.921 193.826H186.124C186.015 193.298 185.869 192.783 185.779 192.249C185.562 190.969 185.463 189.657 185.349 188.344H201.901C201.811 187.399 201.755 186.422 201.755 185.44C201.765 183.622 201.933 181.808 202.255 180.018H185.321C185.368 179.499 185.359 178.961 185.42 178.441C185.567 177.223 185.822 176.037 186.062 174.847H203.625C204.696 171.88 206.209 169.091 208.111 166.574L208.257 166.267H188.598C188.811 165.743 188.986 165.205 189.212 164.69C194.053 153.685 202.857 144.904 213.875 140.092C224.893 135.28 237.317 134.789 248.68 138.717C248.489 139.675 248.391 140.649 248.387 141.626C248.391 145.702 250.012 149.61 252.893 152.493C255.775 155.375 259.683 156.997 263.759 157.002C266.392 156.985 268.976 156.283 271.258 154.967C275.312 160.233 278.229 166.284 279.825 172.736C281.42 179.188 281.659 185.901 280.526 192.451C279.393 199 276.913 205.243 273.243 210.784C269.572 216.325 264.792 221.044 259.204 224.643C253.615 228.241 247.341 230.64 240.778 231.689C234.214 232.737 227.505 232.411 221.074 230.733C214.643 229.054 208.63 226.059 203.417 221.937C198.203 217.814 193.901 212.655 190.785 206.784H179.801C183.034 214.437 187.875 221.305 193.996 226.922C200.118 232.539 207.375 236.773 215.277 239.338C223.179 241.903 231.54 242.739 239.793 241.788C248.047 240.837 255.999 238.122 263.11 233.827C270.221 229.532 276.326 223.758 281.009 216.896C285.692 210.034 288.845 202.245 290.253 194.057C291.661 185.87 291.291 177.475 289.169 169.443C287.047 161.411 283.222 153.929 277.954 147.505C278.924 145.171 279.303 142.633 279.057 140.116C278.811 137.6 277.947 135.184 276.543 133.082C275.138 130.979 273.237 129.256 271.007 128.065C268.776 126.874 266.287 126.253 263.759 126.255V126.245ZM263.796 147.146H263.759C262.612 147.14 261.496 146.777 260.565 146.108C259.634 145.439 258.935 144.496 258.564 143.411C258.353 142.834 258.241 142.226 258.233 141.612C258.239 140.504 258.576 139.423 259.203 138.509C259.83 137.594 260.716 136.89 261.748 136.485C262.78 136.081 263.909 135.995 264.99 136.24C266.071 136.485 267.053 137.048 267.81 137.858C268.546 138.641 269.036 139.621 269.222 140.68C269.407 141.738 269.279 142.827 268.854 143.813C268.428 144.8 267.724 145.64 266.827 146.232C265.93 146.823 264.88 147.139 263.806 147.142L263.796 147.146Z" fill="#FF990E"/>
  <path d="M327.527 197.637C328.156 193.379 328.492 189.083 328.533 184.778C328.533 132.238 285.772 89.4965 233.232 89.4965C195.033 89.4965 162.133 112.164 146.974 144.691C146.974 144.719 146.974 144.752 146.936 144.781C145.93 146.948 144.991 149.144 144.145 151.392C143.928 151.968 143.744 152.563 143.536 153.144C142.918 154.896 142.308 156.648 141.794 158.442C141.723 158.683 141.628 158.914 141.558 159.151C141 161.153 140.495 163.155 140.061 165.205C142.634 162.56 146.62 161.035 150.303 160.567C153.443 149.897 158.612 139.933 165.528 131.223C165.849 130.821 166.147 130.396 166.472 130C167.186 129.136 167.955 128.319 168.697 127.478C169.551 126.534 170.383 125.551 171.275 124.645C171.445 124.47 171.629 124.309 171.799 124.139C179.819 116.021 189.371 109.576 199.901 105.18C210.432 100.784 221.731 98.5236 233.142 98.5302C280.837 98.5302 319.683 137.338 319.707 185.052C319.663 188.783 319.366 192.506 318.819 196.197C315.268 196.464 311.874 197.77 309.059 199.951C306.244 202.132 304.133 205.093 302.988 208.465C301.843 211.837 301.715 215.471 302.619 218.916C303.524 222.36 305.421 225.462 308.076 227.836C293.115 253.738 265.207 271.239 233.232 271.239C191.383 271.239 156.499 241.904 148.58 202.44C150.613 202.826 152.682 202.998 154.752 202.955C161.457 202.912 168.815 200.551 171.166 195.125C172.083 193.019 172.276 188.622 171.166 186.03C168.805 181.454 162.799 180.51 155.965 179.003C152.438 178.229 149.071 178.238 149.071 175.74C149.071 173.813 152.376 173.067 154.875 173.067C158.048 173.067 162.496 173.695 164.999 175.565L170.099 169.058C166.194 165.988 160.182 164.364 154.709 164.364C152.694 164.349 150.686 164.597 148.736 165.101H148.674C148.674 165.101 141.973 166.654 139.111 172.104C138.299 174.12 137.921 175.631 138.469 178.309C138.904 179.74 139.656 181.054 140.669 182.155C141.682 183.255 142.93 184.113 144.32 184.665C147.627 185.869 151.013 186.843 154.454 187.579C158.482 188.481 162.133 189.09 162.133 190.913C162.133 193.803 158.204 194.162 154.823 194.143C150.242 194.114 146.322 192.533 141.775 189.784C139.673 188.367 138.616 187.305 137.879 186.275C137.993 189.911 138.309 193.536 138.823 197.137C139.341 200.876 140.079 204.582 141.033 208.234H140.944C141.293 209.651 141.751 210.987 142.167 212.361C142.389 213.108 142.582 213.863 142.828 214.6C155.224 252.657 190.948 280.278 233.142 280.278C246.312 280.277 259.336 277.533 271.387 272.222C283.438 266.91 294.251 259.147 303.136 249.427L303.835 248.662C304.88 247.5 305.896 246.313 306.881 245.101C307.353 244.53 307.825 243.958 308.269 243.378C308.954 242.499 309.615 241.597 310.272 240.695C310.928 239.793 311.636 238.806 312.288 237.834C312.633 237.319 312.963 236.795 313.298 236.271C314.186 234.892 315.05 233.499 315.872 232.072C315.878 232.057 315.886 232.043 315.896 232.03C320.333 233.136 325.024 232.533 329.037 230.339C333.049 228.146 336.09 224.524 337.555 220.192C339.02 215.86 338.802 211.135 336.944 206.957C335.086 202.778 331.725 199.451 327.527 197.637ZM320.207 223.936C320.132 223.936 320.061 223.936 319.981 223.912C317.71 223.866 315.529 223.015 313.828 221.51C312.127 220.005 311.016 217.945 310.694 215.696C310.372 213.448 310.859 211.159 312.069 209.236C313.278 207.314 315.132 205.884 317.298 205.202C318.722 204.713 320.244 204.579 321.731 204.815C323.218 205.05 324.624 205.647 325.827 206.553C327.478 207.738 328.71 209.417 329.345 211.348C329.98 213.279 329.986 215.361 329.36 217.295C328.735 219.229 327.512 220.914 325.867 222.108C324.221 223.302 322.24 223.942 320.207 223.936Z" fill="#FF990E"/>
</svg>
