<svg width="48" height="48" viewBox="0 0 48 48" fill="none" xmlns="http://www.w3.org/2000/svg">
  <rect width="48" height="48" rx="24" fill="#212121" fill-opacity="0.3" />
  <path
    d="M19.0008 24C19.0008 21.2387 21.2387 18.9996 24 18.9996C26.7613 18.9996 29.0004 21.2387 29.0004 24C29.0004 26.7613 26.7613 29.0004 24 29.0004C21.2387 29.0004 19.0008 26.7613 19.0008 24ZM16.2977 24C16.2977 28.254 19.746 31.7023 24 31.7023C28.254 31.7023 31.7023 28.254 31.7023 24C31.7023 19.746 28.254 16.2977 24 16.2977C19.746 16.2977 16.2977 19.746 16.2977 24ZM30.2072 15.9923C30.2071 16.3483 30.3125 16.6963 30.5102 16.9924C30.7079 17.2885 30.9889 17.5193 31.3177 17.6557C31.6466 17.7921 32.0085 17.8279 32.3577 17.7586C32.7069 17.6892 33.0277 17.5179 33.2795 17.2663C33.5314 17.0147 33.7029 16.694 33.7725 16.3449C33.8421 15.9957 33.8066 15.6338 33.6705 15.3048C33.5344 14.9759 33.3038 14.6947 33.0079 14.4968C32.7119 14.2989 32.364 14.1931 32.008 14.193H32.0072C31.53 14.1932 31.0724 14.3828 30.7349 14.7202C30.3974 15.0576 30.2077 15.5151 30.2072 15.9923ZM17.94 36.2096C16.4776 36.143 15.6827 35.8994 15.1544 35.6936C14.4541 35.421 13.9544 35.0963 13.4291 34.5716C12.9037 34.047 12.5785 33.5478 12.3071 32.8475C12.1012 32.3195 11.8576 31.5244 11.7911 30.0619C11.7184 28.4808 11.7038 28.0058 11.7038 24.0001C11.7038 19.9944 11.7196 19.5208 11.7911 17.9383C11.8577 16.4759 12.1031 15.6823 12.3071 15.1528C12.5797 14.4524 12.9044 13.9528 13.4291 13.4274C13.9537 12.902 14.4529 12.5768 15.1544 12.3054C15.6824 12.0995 16.4776 11.8559 17.94 11.7894C19.5211 11.7167 19.9961 11.7022 24 11.7022C28.0039 11.7022 28.4794 11.7179 30.0618 11.7894C31.5242 11.856 32.3178 12.1014 32.8474 12.3054C33.5477 12.5768 34.0474 12.9028 34.5727 13.4274C35.0981 13.952 35.4221 14.4524 35.6947 15.1528C35.9006 15.6808 36.1442 16.4759 36.2107 17.9383C36.2834 19.5208 36.298 19.9944 36.298 24.0001C36.298 28.0058 36.2834 28.4795 36.2107 30.0619C36.1441 31.5244 35.8993 32.3192 35.6947 32.8475C35.4221 33.5478 35.0974 34.0475 34.5727 34.5716C34.0481 35.0958 33.5477 35.421 32.8474 35.6936C32.3194 35.8996 31.5242 36.1432 30.0618 36.2096C28.4807 36.2824 28.0057 36.2969 24 36.2969C19.9943 36.2969 19.5206 36.2824 17.94 36.2096ZM17.8158 9.09084C16.219 9.16356 15.1278 9.41676 14.1749 9.78756C13.188 10.1705 12.3526 10.6842 11.5177 11.5177C10.6829 12.3512 10.1705 13.188 9.78756 14.1749C9.41676 15.1284 9.16356 16.219 9.09084 17.8158C9.01692 19.4152 9 19.9265 9 24C9 28.0735 9.01692 28.5848 9.09084 30.1842C9.16356 31.7812 9.41676 32.8716 9.78756 33.8251C10.1705 34.8114 10.683 35.6491 11.5177 36.4823C12.3524 37.3154 13.188 37.8284 14.1749 38.2124C15.1296 38.5832 16.219 38.8364 17.8158 38.9092C19.416 38.9819 19.9265 39 24 39C28.0735 39 28.5848 38.9831 30.1842 38.9092C31.7812 38.8364 32.8716 38.5832 33.8251 38.2124C34.8114 37.8284 35.6474 37.3158 36.4823 36.4823C37.3171 35.6488 37.8284 34.8114 38.2124 33.8251C38.5832 32.8716 38.8376 31.781 38.9092 30.1842C38.9819 28.5836 38.9988 28.0735 38.9988 24C38.9988 19.9265 38.9819 19.4152 38.9092 17.8158C38.8364 16.2188 38.5832 15.1278 38.2124 14.1749C37.8284 13.1886 37.3158 12.3526 36.4823 11.5177C35.6488 10.6829 34.8114 10.1705 33.8263 9.78756C32.8716 9.41676 31.781 9.16236 30.1854 9.09084C28.586 9.01812 28.0747 9 24.0012 9C19.9277 9 19.416 9.01692 17.8158 9.09084Z"
    fill="url(#paint0_linear_978_74775)" />
  <defs>
    <linearGradient id="paint0_linear_978_74775" x1="23.9994" y1="9" x2="23.9994" y2="39"
      gradientUnits="userSpaceOnUse">
      <stop stop-color="#1DEA1D" />
      <stop offset="1" stop-color="#6FDB95" />
    </linearGradient>
  </defs>
</svg>