<svg width="48" height="48" viewBox="0 0 48 48" fill="none" xmlns="http://www.w3.org/2000/svg">
  <rect width="48" height="48" rx="24" fill="#212121" fill-opacity="0.3" />
  <path
    d="M37.3242 35.3251C35.7492 35.2876 34.2117 35.2876 32.6367 35.3251C32.2992 35.3251 32.2242 35.2501 32.2242 34.9126C32.2242 32.1376 32.2242 29.3251 32.2242 26.5501C32.2242 25.9126 32.1867 25.2751 31.9992 24.6751C31.4367 22.7251 29.1867 22.0126 27.5742 23.3251C26.7117 24.0001 26.3742 24.9376 26.3742 26.0626C26.3742 28.6876 26.3742 31.3126 26.3742 33.9376C26.3742 34.2751 26.3367 34.6126 26.3742 34.9876C26.4117 35.2876 26.2617 35.3626 25.9992 35.3251C24.3867 35.3251 22.8117 35.3251 21.1992 35.3251C20.8992 35.3251 20.8242 35.2501 20.8242 34.9501C20.8617 32.5876 20.8617 30.2251 20.8617 27.8251C20.8617 24.9001 20.8617 21.9751 20.8242 19.0876C20.8242 18.7501 20.8992 18.6751 21.1992 18.6751C22.8117 18.6751 24.3867 18.6751 25.9992 18.6751C26.2992 18.6751 26.3742 18.7501 26.3742 19.0501C26.3742 19.6501 26.3742 20.2501 26.3742 20.9626C26.4867 20.8501 26.5242 20.8126 26.5617 20.7751C28.0242 18.6376 30.0867 18.0376 32.5242 18.4126C35.3367 18.8626 37.1367 20.8126 37.5867 23.8126C37.6992 24.5251 37.7367 25.2376 37.7367 25.9501C37.7367 28.9501 37.7367 31.9126 37.7367 34.9126C37.7367 35.2126 37.6617 35.3251 37.3242 35.3251Z"
    fill="url(#paint0_linear_978_74764)" />
  <path
    d="M17.825 26.9998C17.825 29.6248 17.825 32.2498 17.825 34.8748C17.825 35.2123 17.75 35.3248 17.4125 35.3248C15.8375 35.2873 14.2625 35.3248 12.6875 35.3248C12.3875 35.3248 12.3125 35.2498 12.3125 34.9498C12.3125 29.6623 12.3125 24.3373 12.3125 19.0498C12.3125 18.7873 12.3875 18.6748 12.6875 18.6748C14.3 18.6748 15.9125 18.6748 17.525 18.6748C17.8625 18.6748 17.9 18.7873 17.9 19.0873C17.825 21.7123 17.825 24.3373 17.825 26.9998Z"
    fill="url(#paint1_linear_978_74764)" />
  <path
    d="M18.0874 14.325C17.7124 15.825 16.1749 16.6875 14.4124 16.3875C12.5374 16.0875 11.4874 14.25 12.1624 12.45C12.6124 11.325 13.6999 10.65 15.0874 10.6875C17.1874 10.65 18.5749 12.3375 18.0874 14.325Z"
    fill="url(#paint2_linear_978_74764)" />
  <defs>
    <linearGradient id="paint0_linear_978_74764" x1="29.2805" y1="18.3081" x2="29.2805" y2="35.334"
      gradientUnits="userSpaceOnUse">
      <stop stop-color="#1DEA1D" />
      <stop offset="1" stop-color="#6FDB95" />
    </linearGradient>
    <linearGradient id="paint1_linear_978_74764" x1="15.1063" y1="18.6748" x2="15.1063" y2="35.3248"
      gradientUnits="userSpaceOnUse">
      <stop stop-color="#1DEA1D" />
      <stop offset="1" stop-color="#6FDB95" />
    </linearGradient>
    <linearGradient id="paint2_linear_978_74764" x1="15.0711" y1="10.686" x2="15.0711" y2="16.4468"
      gradientUnits="userSpaceOnUse">
      <stop stop-color="#1DEA1D" />
      <stop offset="1" stop-color="#6FDB95" />
    </linearGradient>
  </defs>
</svg>