<svg width="2499" height="681" viewBox="0 0 2499 681" fill="none" xmlns="http://www.w3.org/2000/svg">
  <mask id="mask0_969_72725" style="mask-type:luminance" maskUnits="userSpaceOnUse" x="137" y="186" width="2226"
    height="309">
    <path d="M2363 186.609H137V494.532H2363V186.609Z" fill="white" />
  </mask>
  <g mask="url(#mask0_969_72725)">
    <path
      d="M470.117 287.945C462.279 277.119 445.109 266.667 423.274 266.667C389.683 266.854 349.933 297.462 349.933 358.298C349.933 419.139 389.87 449.743 423.461 449.929C445.296 449.929 462.279 439.852 470.117 429.213V447.13H519.942V270.028H470.117V287.945ZM436.151 404.579C414.504 404.579 400.88 387.041 400.88 358.485C400.88 330.678 414.69 312.391 436.151 312.391C456.492 312.391 471.609 331.052 471.609 358.485C471.609 386.854 456.492 404.579 436.151 404.579ZM786.249 412.044V334.786C786.249 280.48 755.085 266.667 728.96 266.667C701.713 266.667 686.783 281.04 678.57 292.423C669.988 277.306 654.123 266.667 633.594 266.667C609.147 266.667 596.643 278.241 589.739 287.571V270.028H541.967V447.13H591.791V346.355C591.791 324.895 601.682 311.831 616.799 311.831C630.611 311.831 639.193 321.348 639.193 340.569V408.127C639.193 426.044 642.741 438.36 651.323 447.13H703.391C693.313 438.921 689.022 432.387 689.022 408.314V346.355C689.022 324.895 698.913 311.831 714.03 311.831C727.838 311.831 736.424 321.348 736.424 340.569V408.127C736.424 426.044 741.089 438.173 751.537 447.13H803.978C791.474 438.734 786.249 429.961 786.249 412.044ZM908.3 266.667C886.279 266.485 869.297 277.119 861.459 287.945V206.578H811.63V447.13H860.711V429.213C868.55 440.039 886.093 450.303 907.926 449.929C941.516 449.743 981.641 419.139 981.641 358.298C981.641 297.462 941.89 266.854 908.3 266.667ZM895.423 404.766C875.08 404.766 859.963 386.854 859.963 358.672C859.963 331.239 875.08 312.578 895.423 312.578C917.07 312.578 930.695 330.865 930.695 358.672C930.695 387.228 917.07 404.766 895.423 404.766ZM1078.68 266.667C1033.15 266.667 993.397 299.701 993.397 358.298C993.397 412.231 1031.84 450.116 1082.6 450.116C1106.11 450.116 1129.07 443.399 1143.25 430.895L1147.73 388.532C1131.12 400.662 1109.66 406.449 1088.2 406.449C1064.5 406.449 1047.52 394.875 1043.97 377.15H1154.08C1154.64 372.485 1154.83 367.815 1154.83 362.776C1155.01 299.701 1118.99 266.667 1078.68 266.667ZM1043.79 340.569C1046.21 320.974 1058.72 308.474 1075.14 308.474C1093.24 308.474 1104.06 322.843 1105.37 340.569H1043.79ZM1314.38 293.914L1322.22 270.215H1268.85L1235.63 390.958H1235.26L1201.48 270.215H1147.55L1207.08 447.13H1263.06L1314.38 293.914ZM1421.13 206.391H1394.82V253.981C1394.82 259.95 1393.7 264.058 1391.27 266.484C1388.85 268.91 1384.74 270.028 1378.77 270.028H1336.97L1328.94 293.727H1393.7V406.636C1393.7 418.579 1396.87 428.283 1403.22 435.747C1409.56 443.212 1419.45 447.13 1432.89 447.13H1501.75V423.431H1421.13V293.727H1501.75V270.028H1421.13V206.391ZM1671.95 290.557C1665.04 282.906 1656.83 276.932 1647.13 272.641C1637.42 268.35 1626.6 266.111 1614.66 266.111C1602.53 266.111 1591.51 268.35 1581.62 272.641C1571.73 276.932 1563.15 283.28 1556.06 291.301C1548.97 299.514 1543.37 309.218 1539.45 320.604C1535.53 331.986 1533.48 344.864 1533.48 359.046C1533.48 373.041 1535.34 385.545 1539.26 396.932C1543.18 408.314 1548.78 418.018 1555.87 426.044C1563.15 434.252 1571.73 440.412 1582 444.704C1592.26 448.995 1603.64 451.238 1616.52 451.238C1634.06 451.238 1648.99 447.317 1661.31 439.665C1673.63 432.013 1682.21 422.309 1687.62 410.366L1667.47 396.558C1662.8 406.075 1656.27 413.727 1647.5 419.139C1638.73 424.548 1628.46 427.348 1616.71 427.348C1608.49 427.348 1601.03 426.043 1594.31 423.431C1587.6 420.818 1581.81 417.083 1577.14 412.231C1572.48 407.379 1568.93 401.784 1566.32 395.062C1563.9 388.345 1562.59 381.254 1562.59 373.415V365.202H1693.6V352.142C1693.6 339.638 1691.73 328.069 1688.18 317.43C1684.08 307.166 1678.85 298.209 1671.95 290.557ZM1663.74 344.864H1562.21V342.438C1562.21 334.599 1563.52 327.508 1566.14 320.974C1568.75 314.444 1572.48 308.844 1577.14 303.992C1581.81 299.14 1587.41 295.409 1593.75 292.61C1600.1 289.81 1607.19 288.505 1614.66 288.505C1621.93 288.505 1628.65 289.81 1634.81 292.236C1640.78 294.662 1646.01 298.396 1650.3 303.061C1654.59 307.726 1657.76 313.326 1660.19 319.669C1662.61 326.013 1663.74 333.108 1663.74 340.942V344.864ZM1835.05 419.322C1827.22 424.735 1817.51 427.535 1805.57 427.535C1797.36 427.535 1790.08 426.23 1783.54 423.618C1777.2 421.005 1771.79 417.27 1767.5 412.418C1763.21 407.566 1759.85 401.971 1757.79 395.249C1755.55 388.532 1754.62 381.441 1754.62 373.602V343.555C1754.62 335.717 1755.74 328.626 1757.79 321.908C1760.03 315.191 1763.21 309.592 1767.5 304.74C1771.79 299.888 1777.2 296.157 1783.36 293.544C1789.71 290.931 1796.8 289.623 1804.82 289.623C1815.83 289.623 1824.97 292.049 1832.44 297.088C1839.9 302.127 1845.13 309.218 1848.3 318.361L1870.32 306.605C1865.28 294.475 1857.45 284.584 1846.62 277.119C1835.8 269.654 1821.99 265.737 1804.82 265.737C1792.32 265.737 1781.12 267.976 1771.23 272.267C1761.34 276.558 1753.13 282.906 1746.22 290.931C1739.32 299.14 1734.09 308.844 1730.36 320.23C1726.62 331.612 1724.95 344.303 1724.95 358.298C1724.95 372.298 1726.62 384.984 1730.17 396.371C1733.72 407.753 1738.94 417.457 1745.85 425.483C1752.75 433.508 1761.15 439.665 1771.04 444.143C1780.93 448.625 1792.32 450.864 1805.2 450.864C1823.11 450.864 1837.48 446.943 1848.68 439.291C1859.68 431.456 1867.9 421.748 1873.12 409.805L1853.53 396.371C1849.05 406.262 1842.89 413.727 1835.05 419.322ZM1984.16 265.924C1976.88 265.924 1970.35 266.854 1964.94 268.724C1959.53 270.589 1954.68 273.015 1950.76 276.002C1946.84 278.984 1943.29 282.532 1940.68 286.449C1937.88 290.371 1935.64 294.662 1933.77 298.953H1932.28V206.391H1904.85V447.13H1932.28V324.334C1932.28 318.548 1933.59 313.509 1936.01 309.218C1938.44 304.927 1941.8 301.379 1945.9 298.583C1950.01 295.783 1954.68 293.727 1959.9 292.423C1965.13 291.118 1970.54 290.371 1975.95 290.371C1989.76 290.371 2000.02 294.288 2007.11 302.127C2014.21 309.965 2017.75 322.095 2017.75 338.33V447.13H2045.19V333.478C2045.19 312.018 2039.59 295.409 2028.39 283.653C2017.57 271.893 2002.64 265.924 1984.16 265.924ZM2058.99 494.532H2083.63L2203.07 186.609H2178.25L2058.99 494.532ZM2215.57 243.529V272.641L2337.24 341.503V344.303L2215.57 413.166V441.717L2363 356.246V328.812L2215.57 243.529ZM284.429 243.529V272.641L162.753 341.503V344.303L284.429 413.166V441.717L137 356.246V328.812L284.429 243.529Z"
      fill="white" />
  </g>
</svg>
