<svg width="2499" height="681" viewBox="0 0 2499 681" fill="none" xmlns="http://www.w3.org/2000/svg">
  <path fill-rule="evenodd" clip-rule="evenodd"
    d="M360.541 88.6411C186.185 108.311 84.9135 293.845 162.369 451.703C224.756 578.856 375.634 630.522 505.742 569.293C544.428 551.089 565.669 547.005 594.023 552.332L602.088 553.847L599.943 546.365C593.951 525.452 599.418 494.174 614.234 464.567C706.024 281.15 560.859 66.0452 360.541 88.6411ZM813.238 175.598C802.46 180.015 801.797 182.669 784.347 291.764C768.772 389.159 758.904 454.955 755.149 486.457C753.413 501.01 755.601 503.948 769.573 505.825C792.008 508.836 792.593 507.683 805.504 434.942C817.18 369.139 818.958 365.82 850.368 351.183C882.213 336.34 886.046 344.872 875.745 407.688C865.926 467.596 868.982 498.868 885.504 507.424C905.443 517.741 933.846 505.976 954.503 478.842L959.355 472.465L965.274 479.5C986.076 504.244 1023.3 501.861 1053.19 473.865C1065.92 461.942 1065.32 461.997 1068.46 472.477C1078.56 506.229 1119.9 520.613 1149.51 500.672C1160.29 493.414 1161.27 493.154 1165.07 496.6C1173.77 504.479 1199.71 497.987 1201.53 487.483C1201.96 485.009 1204 471.928 1206.06 458.407C1214.83 401.015 1242.53 342.977 1263.69 337.661C1285.71 332.129 1290.4 348.848 1282.14 403.368C1274.72 452.264 1277.72 477.02 1292.88 492.159C1314.11 513.337 1346.49 508.075 1370.53 479.548L1379.96 468.356L1386.82 474.987C1410.32 497.71 1449.53 495.688 1475.45 470.42C1481.72 464.307 1487.07 459.607 1487.34 459.975C1487.61 460.343 1490.07 465.363 1492.8 471.131C1509.16 505.686 1541.04 514.9 1568.66 493.046C1595.96 471.445 1617.55 414.892 1604.71 398.631C1595.27 386.679 1575.62 393.919 1575.62 409.347C1575.62 433.101 1552.91 467.011 1539.79 462.841C1518.48 456.072 1520.28 390.166 1545.72 246.572C1554.84 195.068 1554.88 185.994 1546.03 179.405C1532.94 169.661 1516.72 175.598 1514.04 191.11C1512.39 200.668 1497.13 272.824 1491.99 295.414L1488.39 311.192L1472.29 305.774C1417.39 287.311 1363.54 338.566 1363.54 409.275C1363.54 432.082 1344.42 459.523 1328.53 459.523H1322.71L1324.13 437.735C1324.9 425.752 1326.51 408.406 1327.7 399.186C1340.83 297.212 1288.19 252.871 1227.4 314.691L1212.32 330.029L1210.9 321.147C1207.54 300.096 1186.89 292.15 1173.76 306.86C1166.68 314.794 1166.74 314.341 1162.61 392.32C1159.61 448.91 1150.37 466.226 1123.17 466.226C1099.71 466.226 1098.74 435.853 1119.55 352.178C1126.48 324.315 1129.35 308.748 1128.32 304.621C1125.29 292.554 1100.93 284.722 1092.54 293.115C1089.46 296.198 1088.18 295.866 1079.94 289.887C1025.71 250.572 958.234 308.7 948.469 403.144C946.172 425.348 941.465 435.05 924.087 453.381C908.674 469.629 907.053 461.894 915.07 410.361C930.072 313.859 907.083 285.591 838.337 316.031C831.267 319.162 827.753 319.838 827.765 318.058C827.771 316.586 832.291 289.435 837.807 257.722C848.964 193.584 849.283 189.952 844.425 183.007C839.235 175.598 822.78 171.688 813.238 175.598ZM1703.99 177.83C1694.61 181.68 1692.22 187.81 1685.72 224.881L1679.25 261.752L1665.95 262.331C1646.64 263.164 1643.07 264.425 1639.29 271.732C1629.92 289.875 1638.32 305.333 1657.55 305.333H1669.95L1668.48 312.592C1652.01 394.094 1655.94 466.178 1678.07 488.327C1699.72 510 1754.76 505.541 1787.91 479.434L1795.92 473.129L1804.64 482.064C1826.52 504.491 1859.55 501.39 1889.93 474.052L1901.53 463.614L1903.83 469.949C1920.4 515.696 1965.05 523.805 2000.91 487.579L2014.31 474.052L2022.79 483.356C2048.16 511.177 2088.28 509.137 2127.9 478.016L2141.04 467.698L2139.44 484.822C2137.42 506.404 2143.75 515.394 2160.98 515.394C2178.8 515.394 2180.62 512.359 2180.62 482.746V457.055L2191.57 470.22C2236.26 523.974 2298.35 518.194 2342.57 456.162C2363.82 426.362 2367.05 412.056 2355.14 400.707C2341.9 388.109 2335.91 390.124 2326.48 410.361C2307.23 451.697 2273.79 473.907 2248.95 461.87C2232.93 454.111 2214.17 432.426 2221.1 429.698C2270.83 410.162 2290.15 388.296 2291.92 349.584C2294.26 298.443 2249.28 285.458 2199.67 322.964L2188.44 331.453L2189.18 259.478L2189.92 187.508L2183.86 182.73C2175.28 175.972 2161.99 176.298 2154.85 183.442L2149.37 188.926L2149.33 251.037C2149.24 380.084 2146.92 396.701 2125.17 424.473C2095.95 461.785 2061.22 471.337 2048.68 445.501L2043.92 435.69L2054.11 422.265C2113.06 344.672 2149.97 234.884 2130.5 194.99C2117.79 168.949 2069 172.195 2043.31 200.794C2010.02 237.853 1986.89 346.989 1996.43 421.994C2000.38 453.025 1958.18 482.366 1945.66 457.29C1937.64 441.223 1940.27 415.761 1956.76 349.578C1968.24 303.553 1968.17 301.098 1955.18 293.417C1947.38 288.807 1932.1 288.529 1928.44 292.94C1926.13 295.722 1924.09 295.1 1914.22 288.626C1857.59 251.507 1791.99 313.261 1784.07 411.145C1781.48 443.172 1750.13 466.268 1719.64 458.612C1703.62 454.587 1700.64 405.093 1712.28 336.618L1717.41 306.449L1749.67 305.828C1785.29 305.14 1788.23 304.09 1791.9 290.75C1798.06 268.419 1790.3 262.875 1752.87 262.875C1725.17 262.875 1722.76 262.549 1723.79 258.965C1727.32 246.541 1734.5 193.15 1733.28 188.281C1730.85 178.579 1715.52 173.106 1703.99 177.83ZM464.024 211.305C472.409 219.692 472.698 230.027 464.88 241.564C451.185 261.764 399.106 323.012 380.36 340.968C369.782 351.098 370.354 361.199 381.505 361.199C386.08 361.199 431.252 312.779 470.1 266.223C485.489 247.79 500.172 231.481 502.734 229.991C522.083 218.708 541.329 242.493 528.147 261.408C510.299 287.027 463.627 342.76 431.029 377.375C422.066 386.89 414.736 395.989 414.736 397.6C414.736 401.594 419.341 405.89 423.615 405.89C428.961 405.89 486.17 345.366 515.784 308.374C530.998 289.368 542.535 285.965 554.638 296.91C569.509 310.365 567.297 314.215 502.945 386.896C452.361 444.04 451.595 445.211 461.457 450.496C468.123 454.068 470.1 452.482 500.45 419.212C529.973 386.854 533.53 384.525 544.476 390.383C556.646 396.906 552.625 413.866 532.095 442.665C452.174 554.776 289.981 541.731 227.769 418.18C191.591 346.338 218.095 228.048 265.895 248.044C280.584 254.186 282.531 262.609 275.057 287.691C263.93 325.033 266.69 340.25 285.617 345.928C305.707 351.955 306.503 351.291 380.029 267.339C435.984 203.449 434.561 204.771 447.316 204.771C455.592 204.771 458.72 205.995 464.024 211.305ZM2090 239.627C2089.64 266 2041.41 381.248 2033.88 373.712C2032.6 372.433 2039.36 335.707 2045.43 310.92C2062.49 241.322 2090.59 196.378 2090 239.627ZM1063.5 328.738C1079.78 339.417 1048.07 432.643 1023.9 445.157C1001.31 456.85 989.885 442.924 993.972 408.671C1001.46 345.867 1033.48 309.05 1063.5 328.738ZM1897.36 327.814C1907.87 333.178 1907.87 333.094 1897.89 374.605C1876.06 465.478 1814.38 479.573 1833.48 389.327C1843.96 339.797 1870.6 314.142 1897.36 327.814ZM2246.64 345.029C2263.4 356.511 2230.85 396.839 2204.76 396.93C2196.29 396.96 2195.38 393.979 2200.41 382.618C2209.42 362.224 2237.92 339.049 2246.64 345.029ZM1472.36 353.578L1482.23 359.364L1480.65 370.895C1473.85 420.877 1457.98 446.116 1433.35 446.116C1416.58 446.116 1407.88 434.139 1407.57 410.626C1406.98 364.897 1440.83 335.085 1472.36 353.578Z"
    fill="white" />
</svg>
