<svg width="696" height="590" viewBox="0 0 696 590" fill="none" xmlns="http://www.w3.org/2000/svg">
  <path d="M144.168 137.86C118.669 145.86 126.981 173.164 138.668 165.86C174.669 143.36 323.636 93.0345 414.668 165.86C424.268 165.86 428.668 158.86 429.668 155.36C428.509 151.386 402.201 130.356 418.168 128.36C438.5 125.819 454.389 158.259 438.168 171.36C379.169 220.86 186.169 224.36 122.168 174.36C110.121 164.949 107.169 137.86 132.668 128.36C135.01 127.487 144.168 127.36 144.168 137.86Z" fill="#37CE6C"/>
  <path fill-rule="evenodd" clip-rule="evenodd" d="M50.1674 137.86C48.6674 201.693 57.2704 340.016 75.1673 393.86C132.677 566.883 397.227 593.383 461.168 434.36L483.168 393.86C487.168 392.027 497.969 388.179 509.168 388.36C694.233 391.36 688.289 138.43 507.168 171.36V137.86C484.537 14.7016 75.1674 26.8832 50.1674 137.86ZM483.168 143.36V201.36C598.169 152.36 672.872 267.385 591.773 342.86C567.193 365.736 537.393 367.86 509.168 367.86C473.233 367.86 469.669 378.36 464.169 388.36C403.669 579.86 147.868 550.883 90.6686 382.86C74.3052 334.793 64.1677 168.36 75.1673 137.86C103.552 59.1539 461.168 42.3602 483.168 143.36Z" fill="#37CE6C"/>
  <path fill-rule="evenodd" clip-rule="evenodd" d="M589.168 284.36C563.568 357.501 504.117 295.838 470.668 331.86C492.733 288.86 466.357 245.614 505.168 229.1C544.945 212.175 596.733 236.36 589.168 284.36ZM561.168 284.36C571.783 245.439 517.204 232.565 505.168 263.86V297.36C515.001 302.027 556.668 300.86 561.168 284.36Z" fill="#37CE6C"/>
</svg>
