<?xml version="1.0"?>
<svg width="114" height="113" viewBox="0 0 114 113" fill="none" xmlns="http://www.w3.org/2000/svg"> <path d="M8.62012 66.2876L21.3497 37.6271L51.3478 28.4853L38.6183 57.1458L8.62012 66.2876Z" fill="url(#paint0_linear_205_35295)"></path> <path d="M74.6617 55.1751L51.418 28.6101L51.2895 28.4649L38.5472 57.088L62.0144 83.6128L74.6617 55.1751Z" fill="url(#paint1_linear_205_35295)"></path> <path d="M32.2214 92.6709L8.68715 66.363L8.55864 66.2178L38.5214 57.0587L61.9885 83.5835L32.2214 92.6709Z" fill="url(#paint2_linear_205_35295)"></path> <path d="M38.3081 57.1128L51.0377 28.4523L81.0358 19.3105L68.3063 47.971L38.3081 57.1128Z" fill="url(#paint3_linear_205_35295)"></path> <path d="M104.35 46.0003L81.106 19.4353L80.9775 19.2901L68.2352 47.9132L91.7024 74.438L104.35 46.0003Z" fill="url(#paint4_linear_205_35295)"></path> <path d="M61.9094 83.4961L38.3751 57.1882L38.2466 57.0429L68.2093 47.8839L91.6765 74.4087L61.9094 83.4961Z" fill="url(#paint5_linear_205_35295)"></path> <defs> <linearGradient id="paint0_linear_205_35295" x1="19.5699" y1="35.3457" x2="41.6738" y2="60.3296" gradientUnits="userSpaceOnUse"> <stop stop-color="#61B270"></stop> <stop offset="1" stop-color="#DDF8DA"></stop> </linearGradient> <linearGradient id="paint1_linear_205_35295" x1="33.1129" y1="29.5791" x2="87.0874" y2="90.5862" gradientUnits="userSpaceOnUse"> <stop stop-color="#61B270"></stop> <stop offset="1" stop-color="#89D890"></stop> </linearGradient> <linearGradient id="paint2_linear_205_35295" x1="2.45749" y1="45.5651" x2="44.5931" y2="106.947" gradientUnits="userSpaceOnUse"> <stop stop-color="#89D890"></stop> <stop offset="1" stop-color="#328048"></stop> </linearGradient> <linearGradient id="paint3_linear_205_35295" x1="49.2579" y1="26.1709" x2="71.3618" y2="51.1548" gradientUnits="userSpaceOnUse"> <stop stop-color="#61B270"></stop> <stop offset="1" stop-color="#DDF8DA"></stop> </linearGradient> <linearGradient id="paint4_linear_205_35295" x1="62.8008" y1="20.4043" x2="116.775" y2="81.4114" gradientUnits="userSpaceOnUse"> <stop stop-color="#61B270"></stop> <stop offset="1" stop-color="#89D890"></stop> </linearGradient> <linearGradient id="paint5_linear_205_35295" x1="32.1455" y1="36.3903" x2="74.2811" y2="97.7725" gradientUnits="userSpaceOnUse"> <stop stop-color="#89D890"></stop> <stop offset="1" stop-color="#328048"></stop> </linearGradient> </defs> </svg> 