<?xml version="1.0"?>
<svg width="217" height="170" viewBox="0 0 217 170" fill="none" xmlns="http://www.w3.org/2000/svg"> <path d="M52.2324 58.6558L92.6472 25.2792L144.336 33.9767L103.921 67.3533L52.2324 58.6558Z" fill="url(#paint0_linear_205_35288)"></path> <path d="M159.304 91.2855L144.347 34.2155L144.264 33.9024L103.857 67.2137L119.178 124.39L159.304 91.2855Z" fill="url(#paint1_linear_205_35288)"></path> <path d="M67.8589 115.721L52.2764 58.8189L52.1925 58.5058L103.841 67.1512L119.161 124.328L67.8589 115.721Z" fill="url(#paint2_linear_205_35288)"></path> <path d="M12.0557 91.5688L52.4705 58.1923L104.159 66.8898L63.7442 100.266L12.0557 91.5688Z" fill="url(#paint3_linear_205_35288)"></path> <path d="M119.127 124.199L104.171 67.1286L104.087 66.8155L63.6807 100.127L79.0011 157.303L119.127 124.199Z" fill="url(#paint4_linear_205_35288)"></path> <path d="M27.6821 148.634L12.0997 91.732L12.0158 91.4189L63.6641 100.064L78.9845 157.241L27.6821 148.634Z" fill="url(#paint5_linear_205_35288)"></path> <path d="M103.482 67.0728L143.897 33.6962L195.586 42.3937L155.171 75.7703L103.482 67.0728Z" fill="url(#paint6_linear_205_35288)"></path> <path d="M210.554 99.7025L195.597 42.6325L195.514 42.3194L155.107 75.6307L170.428 132.807L210.554 99.7025Z" fill="url(#paint7_linear_205_35288)"></path> <path d="M119.109 124.138L103.526 67.2359L103.443 66.9228L155.091 75.5682L170.411 132.745L119.109 124.138Z" fill="url(#paint8_linear_205_35288)"></path> <defs> <linearGradient id="paint0_linear_205_35288" x1="91.6866" y1="20.5394" x2="106.117" y2="74.3944" gradientUnits="userSpaceOnUse"> <stop stop-color="#E8A95F"></stop> <stop offset="1" stop-color="#FDF0D5"></stop> </linearGradient> <linearGradient id="paint1_linear_205_35288" x1="116.244" y1="22.0134" x2="151.481" y2="153.52" gradientUnits="userSpaceOnUse"> <stop stop-color="#E8A95F"></stop> <stop offset="1" stop-color="#F3C481"></stop> </linearGradient> <linearGradient id="paint2_linear_205_35288" x1="58.4686" y1="23.0639" x2="75.7175" y2="146.302" gradientUnits="userSpaceOnUse"> <stop stop-color="#F3C481"></stop> <stop offset="1" stop-color="#D9822F"></stop> </linearGradient> <linearGradient id="paint3_linear_205_35288" x1="51.5098" y1="53.4525" x2="65.9402" y2="107.307" gradientUnits="userSpaceOnUse"> <stop stop-color="#E8A95F"></stop> <stop offset="1" stop-color="#FDF0D5"></stop> </linearGradient> <linearGradient id="paint4_linear_205_35288" x1="76.0674" y1="54.9265" x2="111.304" y2="186.433" gradientUnits="userSpaceOnUse"> <stop stop-color="#E8A95F"></stop> <stop offset="1" stop-color="#F3C481"></stop> </linearGradient> <linearGradient id="paint5_linear_205_35288" x1="18.2919" y1="55.9769" x2="35.5407" y2="179.215" gradientUnits="userSpaceOnUse"> <stop stop-color="#F3C481"></stop> <stop offset="1" stop-color="#D9822F"></stop> </linearGradient> <linearGradient id="paint6_linear_205_35288" x1="142.937" y1="28.9564" x2="157.367" y2="82.8114" gradientUnits="userSpaceOnUse"> <stop stop-color="#E8A95F"></stop> <stop offset="1" stop-color="#FDF0D5"></stop> </linearGradient> <linearGradient id="paint7_linear_205_35288" x1="167.494" y1="30.4304" x2="202.731" y2="161.937" gradientUnits="userSpaceOnUse"> <stop stop-color="#E8A95F"></stop> <stop offset="1" stop-color="#F3C481"></stop> </linearGradient> <linearGradient id="paint8_linear_205_35288" x1="109.719" y1="31.4808" x2="126.967" y2="154.719" gradientUnits="userSpaceOnUse"> <stop stop-color="#F3C481"></stop> <stop offset="1" stop-color="#D9822F"></stop> </linearGradient> </defs> </svg> 