<?xml version="1.0"?>
<svg width="523" height="60" viewBox="0 0 523 60" fill="none" xmlns="http://www.w3.org/2000/svg"> <path d="M9.64599 0H523L513.354 60H0L9.64599 0Z" fill="url(#paint0_linear_204_19400)"></path> <path d="M63.002 25.4118L63.9902 19.8H73.7667L69.3549 44.8235H63.0726L66.4961 25.4118H63.002ZM78.7424 25.4118L79.7306 19.8H89.5071L85.0953 44.8235H78.8129L82.2365 25.4118H78.7424ZM103.498 34.9412C103.851 32.9177 104.545 31.1412 105.581 29.6118C106.616 28.0824 107.863 26.9059 109.322 26.0824C110.781 25.2588 112.322 24.8471 113.945 24.8471C115.24 24.8471 116.369 25.1177 117.334 25.6588C118.322 26.2 119.04 26.9294 119.487 27.8471L121.11 18.7059H127.145L122.522 44.8235H116.487L116.981 42C116.228 42.9412 115.287 43.6941 114.157 44.2588C113.028 44.8235 111.769 45.1059 110.381 45.1059C108.993 45.1059 107.757 44.7883 106.675 44.153C105.616 43.5177 104.781 42.6118 104.169 41.4353C103.581 40.2588 103.287 38.8824 103.287 37.3059C103.287 36.5765 103.357 35.7883 103.498 34.9412ZM118.251 34.9765C118.322 34.553 118.357 34.1647 118.357 33.8118C118.357 32.6588 118.016 31.753 117.334 31.0941C116.675 30.4353 115.828 30.1059 114.793 30.1059C113.593 30.1059 112.498 30.5412 111.51 31.4118C110.522 32.2588 109.898 33.4353 109.64 34.9412C109.569 35.3647 109.534 35.753 109.534 36.1059C109.534 37.2588 109.863 38.1765 110.522 38.8588C111.204 39.5177 112.051 39.8471 113.063 39.8471C114.263 39.8471 115.357 39.4118 116.345 38.5412C117.334 37.6706 117.969 36.4824 118.251 34.9765ZM141.641 24.8471C144.182 24.8471 146.194 25.5412 147.676 26.9294C149.182 28.2941 149.935 30.1647 149.935 32.5412C149.935 33.3177 149.876 34.0118 149.759 34.6235C149.665 35.1647 149.524 35.7412 149.335 36.353H135.676C135.653 36.4941 135.641 36.7177 135.641 37.0235C135.641 38.0588 135.924 38.8471 136.488 39.3883C137.053 39.9294 137.806 40.2 138.747 40.2C140.253 40.2 141.406 39.5647 142.206 38.2941H148.629C147.782 40.2941 146.406 41.9294 144.5 43.2C142.594 44.4706 140.453 45.1059 138.076 45.1059C135.535 45.1059 133.5 44.4 131.971 42.9883C130.465 41.5765 129.712 39.6588 129.712 37.2353C129.712 36.5059 129.782 35.753 129.924 34.9765C130.276 32.9294 131.006 31.1412 132.112 29.6118C133.218 28.0824 134.594 26.9059 136.241 26.0824C137.888 25.2588 139.688 24.8471 141.641 24.8471ZM143.829 33.2824C143.876 32.953 143.9 32.7294 143.9 32.6118C143.9 31.6706 143.606 30.953 143.018 30.4588C142.429 29.9412 141.653 29.6824 140.688 29.6824C139.653 29.6824 138.735 30 137.935 30.6353C137.159 31.2471 136.594 32.1294 136.241 33.2824H143.829ZM192.876 24.9177C194.994 24.9177 196.641 25.4824 197.817 26.6118C199.017 27.7177 199.617 29.2706 199.617 31.2706C199.617 31.8824 199.547 32.5647 199.406 33.3177L197.358 44.8235H191.358L193.264 34.1294C193.311 33.8941 193.335 33.5765 193.335 33.1765C193.335 32.1883 193.053 31.4353 192.488 30.9177C191.947 30.4 191.182 30.1412 190.194 30.1412C189.017 30.1412 188.029 30.4941 187.229 31.2C186.429 31.8824 185.923 32.8588 185.711 34.1294L183.806 44.8235H177.806L179.711 34.1294C179.758 33.8941 179.782 33.5765 179.782 33.1765C179.782 32.1883 179.5 31.4353 178.935 30.9177C178.394 30.4 177.629 30.1412 176.641 30.1412C175.464 30.1412 174.476 30.4941 173.676 31.2C172.876 31.8824 172.37 32.8588 172.158 34.1294V33.953L170.253 44.8235H164.217L167.676 25.1294H173.711L173.288 27.6353C174.041 26.7883 174.947 26.1294 176.006 25.6588C177.088 25.1647 178.253 24.9177 179.5 24.9177C181.006 24.9177 182.276 25.2353 183.311 25.8706C184.37 26.5059 185.123 27.4235 185.57 28.6235C186.441 27.5177 187.523 26.6235 188.817 25.9412C190.111 25.2588 191.464 24.9177 192.876 24.9177ZM204.615 34.9412C204.968 32.9177 205.662 31.1412 206.697 29.6118C207.732 28.0824 208.979 26.9059 210.438 26.0824C211.897 25.2588 213.438 24.8471 215.062 24.8471C216.45 24.8471 217.615 25.1294 218.556 25.6941C219.497 26.2588 220.179 27 220.603 27.9177L221.097 25.1294H227.132L223.638 44.8235H217.603L218.132 42.0353C217.379 42.953 216.426 43.6941 215.274 44.2588C214.121 44.8235 212.85 45.1059 211.462 45.1059C210.074 45.1059 208.838 44.7883 207.756 44.153C206.697 43.5177 205.874 42.6235 205.285 41.4706C204.697 40.2941 204.403 38.9177 204.403 37.3412C204.403 36.5883 204.474 35.7883 204.615 34.9412ZM219.368 34.9765C219.438 34.553 219.474 34.1647 219.474 33.8118C219.474 32.6588 219.132 31.753 218.45 31.0941C217.791 30.4353 216.944 30.1059 215.909 30.1059C214.709 30.1059 213.615 30.5412 212.626 31.4118C211.638 32.2588 211.015 33.4353 210.756 34.9412C210.685 35.3647 210.65 35.753 210.65 36.1059C210.65 37.2588 210.979 38.1765 211.638 38.8588C212.321 39.5177 213.168 39.8471 214.179 39.8471C215.379 39.8471 216.474 39.4118 217.462 38.5412C218.45 37.6706 219.085 36.4824 219.368 34.9765ZM239.334 28.6941C240.252 27.5177 241.299 26.6 242.475 25.9412C243.675 25.2588 244.922 24.9177 246.216 24.9177L245.087 31.3059H243.428C241.922 31.3059 240.734 31.6353 239.863 32.2941C238.993 32.9294 238.416 34.0588 238.134 35.6824L236.51 44.8235H230.475L233.934 25.1294H239.969L239.334 28.6941ZM257.501 39.953C259.054 39.953 260.219 39.2 260.995 37.6941H267.454C266.63 39.6941 265.442 41.3294 263.889 42.6C262.336 43.8706 260.536 44.6588 258.489 44.9647L258.242 46.2706C259.325 46.2706 260.242 46.5294 260.995 47.0471C261.772 47.5883 262.16 48.3883 262.16 49.4471C262.16 49.8 262.136 50.0824 262.089 50.2941C261.854 51.6353 261.195 52.6471 260.113 53.3294C259.03 54.0353 257.819 54.3883 256.477 54.3883H251.042L251.642 51.0706H256.23C256.701 51.0706 257.066 51 257.325 50.8588C257.607 50.7177 257.772 50.4824 257.819 50.153C257.889 49.8235 257.819 49.5883 257.607 49.4471C257.395 49.3294 257.054 49.2706 256.583 49.2706H254.077L254.854 44.9647C252.854 44.6353 251.277 43.8 250.125 42.4588C248.972 41.0941 248.395 39.353 248.395 37.2353C248.395 36.5059 248.466 35.753 248.607 34.9765C248.96 32.9294 249.689 31.1412 250.795 29.6118C251.901 28.0824 253.266 26.9059 254.889 26.0824C256.536 25.2588 258.325 24.8471 260.254 24.8471C262.725 24.8471 264.677 25.4941 266.113 26.7883C267.548 28.0824 268.313 29.9059 268.407 32.2588H261.983C261.725 30.753 260.807 30 259.23 30C258.125 30 257.172 30.4353 256.372 31.3059C255.572 32.153 255.03 33.3765 254.748 34.9765C254.654 35.4706 254.607 35.9883 254.607 36.5294C254.607 37.6353 254.866 38.4824 255.383 39.0706C255.901 39.6588 256.607 39.953 257.501 39.953ZM280.882 45.1059C279.188 45.1059 277.682 44.7647 276.365 44.0824C275.047 43.4 274.023 42.4353 273.294 41.1883C272.588 39.9412 272.235 38.4941 272.235 36.8471C272.235 34.6118 272.765 32.5765 273.823 30.7412C274.882 28.9059 276.341 27.4706 278.2 26.4353C280.059 25.3765 282.129 24.8471 284.412 24.8471C286.106 24.8471 287.612 25.2 288.929 25.9059C290.27 26.5883 291.306 27.553 292.035 28.8C292.765 30.0471 293.129 31.4941 293.129 33.1412C293.129 35.4 292.588 37.4471 291.506 39.2824C290.447 41.0941 288.976 42.5177 287.094 43.553C285.235 44.5883 283.165 45.1059 280.882 45.1059ZM281.729 39.9177C282.718 39.9177 283.6 39.6235 284.376 39.0353C285.176 38.4235 285.788 37.6471 286.212 36.7059C286.659 35.7412 286.882 34.7412 286.882 33.7059C286.882 32.5294 286.565 31.6235 285.929 30.9883C285.294 30.353 284.494 30.0353 283.529 30.0353C282.518 30.0353 281.623 30.3412 280.847 30.953C280.094 31.5412 279.506 32.3177 279.082 33.2824C278.659 34.2471 278.447 35.2588 278.447 36.3177C278.447 37.4706 278.753 38.3647 279.365 39C279.976 39.6118 280.765 39.9177 281.729 39.9177ZM308.029 34.9412C308.382 32.9177 309.076 31.1412 310.112 29.6118C311.147 28.0824 312.394 26.9059 313.853 26.0824C315.312 25.2588 316.853 24.8471 318.476 24.8471C319.77 24.8471 320.9 25.1177 321.864 25.6588C322.853 26.2 323.57 26.9294 324.017 27.8471L325.641 18.7059H331.676L327.053 44.8235H321.017L321.512 42C320.759 42.9412 319.817 43.6941 318.688 44.2588C317.559 44.8235 316.3 45.1059 314.912 45.1059C313.523 45.1059 312.288 44.7883 311.206 44.153C310.147 43.5177 309.312 42.6118 308.7 41.4353C308.112 40.2588 307.817 38.8824 307.817 37.3059C307.817 36.5765 307.888 35.7883 308.029 34.9412ZM322.782 34.9765C322.853 34.553 322.888 34.1647 322.888 33.8118C322.888 32.6588 322.547 31.753 321.864 31.0941C321.206 30.4353 320.359 30.1059 319.323 30.1059C318.123 30.1059 317.029 30.5412 316.041 31.4118C315.053 32.2588 314.429 33.4353 314.17 34.9412C314.1 35.3647 314.064 35.753 314.064 36.1059C314.064 37.2588 314.394 38.1765 315.053 38.8588C315.735 39.5177 316.582 39.8471 317.594 39.8471C318.794 39.8471 319.888 39.4118 320.876 38.5412C321.864 37.6706 322.5 36.4824 322.782 34.9765ZM346.172 24.8471C348.713 24.8471 350.725 25.5412 352.207 26.9294C353.713 28.2941 354.466 30.1647 354.466 32.5412C354.466 33.3177 354.407 34.0118 354.29 34.6235C354.195 35.1647 354.054 35.7412 353.866 36.353H340.207C340.184 36.4941 340.172 36.7177 340.172 37.0235C340.172 38.0588 340.454 38.8471 341.019 39.3883C341.584 39.9294 342.337 40.2 343.278 40.2C344.784 40.2 345.937 39.5647 346.737 38.2941H353.16C352.313 40.2941 350.937 41.9294 349.031 43.2C347.125 44.4706 344.984 45.1059 342.607 45.1059C340.066 45.1059 338.031 44.4 336.501 42.9883C334.995 41.5765 334.243 39.6588 334.243 37.2353C334.243 36.5059 334.313 35.753 334.454 34.9765C334.807 32.9294 335.537 31.1412 336.643 29.6118C337.748 28.0824 339.125 26.9059 340.772 26.0824C342.419 25.2588 344.219 24.8471 346.172 24.8471ZM348.36 33.2824C348.407 32.953 348.431 32.7294 348.431 32.6118C348.431 31.6706 348.137 30.953 347.548 30.4588C346.96 29.9412 346.184 29.6824 345.219 29.6824C344.184 29.6824 343.266 30 342.466 30.6353C341.69 31.2471 341.125 32.1294 340.772 33.2824H348.36ZM370.16 39C372.725 37.1647 374.772 35.6471 376.301 34.4471C377.83 33.2471 379.148 32.0235 380.254 30.7765C381.383 29.5059 382.042 28.2941 382.23 27.1412C382.301 26.8118 382.336 26.5059 382.336 26.2235C382.336 25.5412 382.148 25.0235 381.772 24.6706C381.419 24.3177 380.877 24.1412 380.148 24.1412C378.336 24.1412 377.183 25.4235 376.689 27.9883H370.83C371.442 25.0235 372.713 22.8 374.642 21.3177C376.595 19.8118 378.83 19.0588 381.348 19.0588C383.795 19.0588 385.607 19.6118 386.783 20.7177C387.983 21.8235 388.583 23.2824 388.583 25.0941C388.583 25.6588 388.536 26.1765 388.442 26.6471C388.019 29.0471 386.772 31.2824 384.701 33.353C382.654 35.4235 380.113 37.4941 377.077 39.5647H386.607L385.725 44.4706H368.007L368.783 39.9883L370.16 39ZM393.076 31.9765C393.758 28.0706 395.076 24.9765 397.029 22.6941C399.005 20.3883 401.735 19.2353 405.217 19.2353C408.017 19.2353 410.064 20 411.358 21.5294C412.676 23.0353 413.335 25.1412 413.335 27.8471C413.335 28.953 413.194 30.3294 412.911 31.9765C412.229 35.8824 410.899 38.9883 408.923 41.2941C406.947 43.5765 404.217 44.7177 400.735 44.7177C397.935 44.7177 395.888 43.9647 394.594 42.4588C393.323 40.9294 392.688 38.8118 392.688 36.1059C392.688 34.8588 392.817 33.4824 393.076 31.9765ZM406.947 31.9765C407.205 30.5177 407.335 29.3765 407.335 28.553C407.335 27.3765 407.099 26.4706 406.629 25.8353C406.158 25.2 405.358 24.8824 404.229 24.8824C402.605 24.8824 401.417 25.5059 400.664 26.753C399.935 28 399.382 29.7412 399.005 31.9765C398.747 33.4353 398.617 34.5765 398.617 35.4C398.617 36.5765 398.852 37.4824 399.323 38.1177C399.794 38.753 400.594 39.0706 401.723 39.0706C403.347 39.0706 404.523 38.4471 405.252 37.2C406.005 35.953 406.57 34.2118 406.947 31.9765ZM418.288 39C420.853 37.1647 422.9 35.6471 424.429 34.4471C425.959 33.2471 427.276 32.0235 428.382 30.7765C429.512 29.5059 430.17 28.2941 430.359 27.1412C430.429 26.8118 430.465 26.5059 430.465 26.2235C430.465 25.5412 430.276 25.0235 429.9 24.6706C429.547 24.3177 429.006 24.1412 428.276 24.1412C426.465 24.1412 425.312 25.4235 424.817 27.9883H418.959C419.57 25.0235 420.841 22.8 422.77 21.3177C424.723 19.8118 426.959 19.0588 429.476 19.0588C431.923 19.0588 433.735 19.6118 434.912 20.7177C436.112 21.8235 436.712 23.2824 436.712 25.0941C436.712 25.6588 436.665 26.1765 436.57 26.6471C436.147 29.0471 434.9 31.2824 432.829 33.353C430.782 35.4235 428.241 37.4941 425.206 39.5647H434.735L433.853 44.4706H416.135L416.912 39.9883L418.288 39ZM442.404 26.3294C442.945 23.8118 444.11 21.8706 445.898 20.5059C447.686 19.1412 449.91 18.4588 452.569 18.4588C454.898 18.4588 456.686 18.9883 457.934 20.0471C459.181 21.1059 459.804 22.4824 459.804 24.1765C459.804 24.6 459.769 25.0235 459.698 25.4471C459.416 27 458.804 28.2706 457.863 29.2588C456.922 30.2235 455.898 30.8824 454.792 31.2353V31.3765C455.851 31.753 456.675 32.3412 457.263 33.1412C457.851 33.9177 458.145 34.9059 458.145 36.1059C458.145 36.6235 458.098 37.1177 458.004 37.5883C457.604 39.8 456.534 41.6 454.792 42.9883C453.051 44.353 450.863 45.0353 448.228 45.0353C445.71 45.0353 443.722 44.4824 442.263 43.3765C440.828 42.2706 440.11 40.5883 440.11 38.3294C440.11 38.0235 440.157 37.4706 440.251 36.6706H446.11C446.063 37.0471 446.039 37.3059 446.039 37.4471C446.039 38.2706 446.275 38.9059 446.745 39.353C447.216 39.8 447.922 40.0235 448.863 40.0235C449.922 40.0235 450.769 39.6824 451.404 39C452.039 38.3177 452.357 37.4471 452.357 36.3883C452.357 35.5177 452.028 34.8941 451.369 34.5177C450.734 34.1177 449.722 33.9177 448.334 33.9177H447.204L448.086 29.0118H449.216C451.875 29.0118 453.381 28.0706 453.734 26.1883C453.781 25.9059 453.804 25.6941 453.804 25.553C453.804 24.8941 453.604 24.3883 453.204 24.0353C452.828 23.6824 452.275 23.5059 451.545 23.5059C450.651 23.5059 449.934 23.7765 449.392 24.3177C448.851 24.8588 448.475 25.5294 448.263 26.3294H442.404Z" fill="white"></path> <defs> <linearGradient id="paint0_linear_204_19400" x1="292.493" y1="60" x2="290.438" y2="-18.5506" gradientUnits="userSpaceOnUse"> <stop stop-color="#8C4BFF"></stop> <stop offset="1" stop-color="#C54BFF" stop-opacity="0.79"></stop> </linearGradient> </defs> </svg> 