<?xml version="1.0"?>
<svg width="144" height="119" viewBox="0 0 144 119" fill="none" xmlns="http://www.w3.org/2000/svg"> <g opacity="0.9"> <path d="M43.6167 33.7588L72.9843 21.5633L101.43 35.7777L72.0621 47.9731L43.6167 33.7588Z" fill="url(#paint0_linear_205_35287)"></path> <path d="M99.9479 71.6815L101.394 35.9183L101.4 35.7218L72.0494 47.881L70.7961 83.7705L99.9479 71.6815Z" fill="url(#paint1_linear_205_35287)"></path> <path d="M42.5601 69.6383L43.6127 33.8615L43.6196 33.6649L72.0509 47.8419L70.7976 83.7314L42.5601 69.6383Z" fill="url(#paint2_linear_205_35287)"></path> <path d="M14.4692 45.728L43.8369 33.5326L72.2823 47.7469L42.9146 59.9424L14.4692 45.728Z" fill="url(#paint3_linear_205_35287)"></path> <path d="M70.8005 83.6507L72.2461 47.8876L72.253 47.691L42.902 59.8502L41.6487 95.7397L70.8005 83.6507Z" fill="url(#paint4_linear_205_35287)"></path> <path d="M13.4127 81.6076L14.4653 45.8307L14.4721 45.6342L42.9034 59.8111L41.6502 95.7007L13.4127 81.6076Z" fill="url(#paint5_linear_205_35287)"></path> <path d="M71.8574 47.7329L101.225 35.5374L129.67 49.7518L100.303 61.9473L71.8574 47.7329Z" fill="url(#paint6_linear_205_35287)"></path> <path d="M128.189 85.6556L129.634 49.8925L129.641 49.6959L100.29 61.8551L99.0369 97.7446L128.189 85.6556Z" fill="url(#paint7_linear_205_35287)"></path> <path d="M70.8009 83.6124L71.8534 47.8356L71.8603 47.639L100.292 61.816L99.0383 97.7056L70.8009 83.6124Z" fill="url(#paint8_linear_205_35287)"></path> </g> <defs> <linearGradient id="paint0_linear_205_35287" x1="73.2677" y1="18.643" x2="72.0872" y2="52.4477" gradientUnits="userSpaceOnUse"> <stop stop-color="#E8A95F"></stop> <stop offset="1" stop-color="#FDF0D5"></stop> </linearGradient> <linearGradient id="paint1_linear_205_35287" x1="87.2533" y1="23.8542" x2="84.3707" y2="106.4" gradientUnits="userSpaceOnUse"> <stop stop-color="#E8A95F"></stop> <stop offset="1" stop-color="#F3C481"></stop> </linearGradient> <linearGradient id="paint2_linear_205_35287" x1="53.5473" y1="14.2158" x2="41.6951" y2="88.7744" gradientUnits="userSpaceOnUse"> <stop stop-color="#F3C481"></stop> <stop offset="1" stop-color="#D9822F"></stop> </linearGradient> <linearGradient id="paint3_linear_205_35287" x1="44.1203" y1="30.6123" x2="42.9398" y2="64.4169" gradientUnits="userSpaceOnUse"> <stop stop-color="#E8A95F"></stop> <stop offset="1" stop-color="#FDF0D5"></stop> </linearGradient> <linearGradient id="paint4_linear_205_35287" x1="58.1058" y1="35.8235" x2="55.2232" y2="118.37" gradientUnits="userSpaceOnUse"> <stop stop-color="#E8A95F"></stop> <stop offset="1" stop-color="#F3C481"></stop> </linearGradient> <linearGradient id="paint5_linear_205_35287" x1="24.3999" y1="26.185" x2="12.5477" y2="100.744" gradientUnits="userSpaceOnUse"> <stop stop-color="#F3C481"></stop> <stop offset="1" stop-color="#D9822F"></stop> </linearGradient> <linearGradient id="paint6_linear_205_35287" x1="101.508" y1="32.6172" x2="100.328" y2="66.4218" gradientUnits="userSpaceOnUse"> <stop stop-color="#E8A95F"></stop> <stop offset="1" stop-color="#FDF0D5"></stop> </linearGradient> <linearGradient id="paint7_linear_205_35287" x1="115.494" y1="37.8283" x2="112.611" y2="120.374" gradientUnits="userSpaceOnUse"> <stop stop-color="#E8A95F"></stop> <stop offset="1" stop-color="#F3C481"></stop> </linearGradient> <linearGradient id="paint8_linear_205_35287" x1="81.7881" y1="28.1899" x2="69.9358" y2="102.749" gradientUnits="userSpaceOnUse"> <stop stop-color="#F3C481"></stop> <stop offset="1" stop-color="#D9822F"></stop> </linearGradient> </defs> </svg> 