<?xml version="1.0"?>
<svg width="183" height="180" viewBox="0 0 183 180" fill="none" xmlns="http://www.w3.org/2000/svg"> <path d="M65.1182 85.585L106.95 51.0379L160.452 60.0404L118.619 94.5875L65.1182 85.585Z" fill="url(#paint0_linear_205_35284)"></path> <path d="M175.944 119.359L160.463 60.2876L160.376 59.9635L118.553 94.4431L134.411 153.625L175.944 119.359Z" fill="url(#paint1_linear_205_35284)"></path> <path d="M81.2922 144.652L65.1632 85.7541L65.0764 85.43L118.536 94.3787L134.394 153.56L81.2922 144.652Z" fill="url(#paint2_linear_205_35284)"></path> <path d="M6.23779 61.3169L48.07 26.7698L101.571 35.7724L59.7391 70.3195L6.23779 61.3169Z" fill="url(#paint3_linear_205_35284)"></path> <path d="M117.063 95.091L101.583 36.0196L101.496 35.6955L59.6728 70.175L75.5305 129.357L117.063 95.091Z" fill="url(#paint4_linear_205_35284)"></path> <path d="M22.4118 120.384L6.28286 61.486L6.19602 61.162L59.6557 70.1106L75.5134 129.292L22.4118 120.384Z" fill="url(#paint5_linear_205_35284)"></path> <defs> <linearGradient id="paint0_linear_205_35284" x1="105.956" y1="46.1319" x2="120.892" y2="101.876" gradientUnits="userSpaceOnUse"> <stop stop-color="#C193FF"></stop> <stop offset="1" stop-color="#EDDBFF"></stop> </linearGradient> <linearGradient id="paint1_linear_205_35284" x1="131.374" y1="47.6576" x2="167.847" y2="183.776" gradientUnits="userSpaceOnUse"> <stop stop-color="#AD78FF"></stop> <stop offset="1" stop-color="#C193FF"></stop> </linearGradient> <linearGradient id="paint2_linear_205_35284" x1="71.5726" y1="48.7451" x2="89.4263" y2="176.305" gradientUnits="userSpaceOnUse"> <stop stop-color="#C193FF"></stop> <stop offset="1" stop-color="#8C4BFF"></stop> </linearGradient> <linearGradient id="paint3_linear_205_35284" x1="47.0756" y1="21.8638" x2="62.0121" y2="77.6075" gradientUnits="userSpaceOnUse"> <stop stop-color="#C193FF"></stop> <stop offset="1" stop-color="#EDDBFF"></stop> </linearGradient> <linearGradient id="paint4_linear_205_35284" x1="72.4939" y1="23.3895" x2="108.967" y2="159.508" gradientUnits="userSpaceOnUse"> <stop stop-color="#AD78FF"></stop> <stop offset="1" stop-color="#C193FF"></stop> </linearGradient> <linearGradient id="paint5_linear_205_35284" x1="12.6922" y1="24.477" x2="30.546" y2="152.037" gradientUnits="userSpaceOnUse"> <stop stop-color="#C193FF"></stop> <stop offset="1" stop-color="#8C4BFF"></stop> </linearGradient> </defs> </svg> 