<svg width="569" height="60" viewBox="0 0 569 60" fill="none" xmlns="http://www.w3.org/2000/svg">
<path d="M10.4944 0H569L558.506 60H0L10.4944 0Z" fill="url(#paint0_linear_223_29974)"/>
<path d="M51.5891 45.2471C48.9068 45.2471 46.7186 44.6706 45.0244 43.5176C43.3539 42.3412 42.5186 40.6824 42.5186 38.5412C42.5186 38.3294 42.5421 38.0118 42.5891 37.5882H48.8715C48.8009 38.4824 49.0127 39.1882 49.5068 39.7059C50.0009 40.2235 50.7539 40.4824 51.7656 40.4824C52.6833 40.4824 53.4009 40.2824 53.9186 39.8824C54.4597 39.4824 54.7303 38.9176 54.7303 38.1882C54.7303 37.4353 54.3891 36.8235 53.7068 36.3529C53.048 35.8824 52.0127 35.3529 50.6009 34.7647C49.2362 34.2 48.1186 33.6706 47.248 33.1765C46.4009 32.6588 45.6597 31.9647 45.0244 31.0941C44.3891 30.2235 44.0715 29.1294 44.0715 27.8118C44.048 26.1882 44.448 24.7765 45.2715 23.5765C46.095 22.3765 47.2362 21.4588 48.695 20.8235C50.1539 20.1882 51.8244 19.8706 53.7068 19.8706C55.4009 19.8706 56.9068 20.1412 58.2244 20.6824C59.5421 21.2 60.5656 21.9647 61.295 22.9765C62.0244 23.9647 62.3891 25.1412 62.3891 26.5059C62.3891 26.8588 62.3774 27.1176 62.3539 27.2824H55.9303C55.9539 27.1882 55.9656 27.0471 55.9656 26.8588C55.9656 26.2 55.7303 25.6706 55.2597 25.2706C54.8127 24.8471 54.1891 24.6353 53.3891 24.6353C52.5421 24.6353 51.848 24.8471 51.3068 25.2706C50.7891 25.6706 50.5303 26.2235 50.5303 26.9294C50.5303 27.6353 50.8597 28.2353 51.5186 28.7294C52.1774 29.2 53.2009 29.7529 54.5891 30.3882C55.9774 31.0235 57.1068 31.6118 57.9774 32.1529C58.8715 32.6941 59.6362 33.4235 60.2715 34.3412C60.9068 35.2353 61.2244 36.3412 61.2244 37.6588C61.2244 39.1176 60.8362 40.4235 60.0597 41.5765C59.2833 42.7294 58.1656 43.6353 56.7068 44.2941C55.248 44.9294 53.5421 45.2471 51.5891 45.2471ZM66.7328 35.1176C67.0857 33.0941 67.7799 31.3176 68.8152 29.7882C69.8504 28.2588 71.0975 27.0824 72.5563 26.2588C74.0152 25.4353 75.5563 25.0235 77.1799 25.0235C78.5681 25.0235 79.7328 25.3059 80.674 25.8706C81.6152 26.4353 82.2975 27.1765 82.721 28.0941L83.2152 25.3059H89.2504L85.7563 45H79.721L80.2505 42.2118C79.4975 43.1294 78.5446 43.8706 77.3916 44.4353C76.2387 45 74.9681 45.2824 73.5799 45.2824C72.1916 45.2824 70.9563 44.9647 69.874 44.3294C68.8152 43.6941 67.9916 42.8 67.4034 41.6471C66.8152 40.4706 66.521 39.0941 66.521 37.5176C66.521 36.7647 66.5916 35.9647 66.7328 35.1176ZM81.4857 35.1529C81.5563 34.7294 81.5916 34.3412 81.5916 33.9882C81.5916 32.8353 81.2505 31.9294 80.5681 31.2706C79.9093 30.6118 79.0622 30.2824 78.0269 30.2824C76.8269 30.2824 75.7328 30.7176 74.7446 31.5882C73.7563 32.4353 73.1328 33.6118 72.874 35.1176C72.8034 35.5412 72.7681 35.9294 72.7681 36.2824C72.7681 37.4353 73.0975 38.3529 73.7563 39.0353C74.4387 39.6941 75.2857 40.0235 76.2975 40.0235C77.4975 40.0235 78.5916 39.5882 79.5799 38.7176C80.5681 37.8471 81.2034 36.6588 81.4857 35.1529ZM100.781 38.2235C100.758 38.3412 100.746 38.4941 100.746 38.6824C100.746 39.1059 100.864 39.4118 101.099 39.6C101.358 39.7882 101.77 39.8824 102.334 39.8824H104.487L103.57 45H100.499C96.5461 45 94.5697 43.3412 94.5697 40.0235C94.5697 39.5294 94.6285 38.9059 94.7461 38.1529L96.1579 30.3176H93.7579L94.6402 25.3059H97.0402L97.8873 20.5059H103.923L103.076 25.3059H107.028L106.146 30.3176H102.193L100.781 38.2235ZM132.308 25.3059L128.849 45H122.814L123.273 42.3176C122.496 43.1882 121.543 43.8941 120.414 44.4353C119.308 44.9529 118.12 45.2118 116.849 45.2118C114.873 45.2118 113.32 44.6588 112.19 43.5529C111.061 42.4235 110.496 40.8588 110.496 38.8588C110.496 38.1059 110.555 37.4235 110.673 36.8118L112.72 25.3059H118.72L116.849 36C116.778 36.3765 116.743 36.7412 116.743 37.0941C116.743 38.0824 117.014 38.8471 117.555 39.3882C118.12 39.9059 118.896 40.1647 119.884 40.1647C121.014 40.1647 121.967 39.8353 122.743 39.1765C123.543 38.4941 124.073 37.5294 124.331 36.2824L126.273 25.3059H132.308ZM144.514 28.8706C145.431 27.6941 146.478 26.7765 147.655 26.1176C148.855 25.4353 150.102 25.0941 151.396 25.0941L150.267 31.4824H148.608C147.102 31.4824 145.914 31.8118 145.043 32.4706C144.172 33.1059 143.596 34.2353 143.314 35.8588L141.69 45H135.655L139.114 25.3059H145.149L144.514 28.8706ZM153.787 35.1176C154.14 33.0941 154.834 31.3176 155.869 29.7882C156.904 28.2588 158.151 27.0824 159.61 26.2588C161.069 25.4353 162.61 25.0235 164.234 25.0235C165.528 25.0235 166.657 25.2941 167.622 25.8353C168.61 26.3765 169.328 27.1059 169.775 28.0235L171.398 18.8824H177.434L172.81 45H166.775L167.269 42.1765C166.516 43.1176 165.575 43.8706 164.445 44.4353C163.316 45 162.057 45.2824 160.669 45.2824C159.281 45.2824 158.045 44.9647 156.963 44.3294C155.904 43.6941 155.069 42.7882 154.457 41.6118C153.869 40.4353 153.575 39.0588 153.575 37.4824C153.575 36.7529 153.645 35.9647 153.787 35.1176ZM168.54 35.1529C168.61 34.7294 168.645 34.3412 168.645 33.9882C168.645 32.8353 168.304 31.9294 167.622 31.2706C166.963 30.6118 166.116 30.2824 165.081 30.2824C163.881 30.2824 162.787 30.7176 161.798 31.5882C160.81 32.4353 160.187 33.6118 159.928 35.1176C159.857 35.5412 159.822 35.9294 159.822 36.2824C159.822 37.4353 160.151 38.3529 160.81 39.0353C161.492 39.6941 162.34 40.0235 163.351 40.0235C164.551 40.0235 165.645 39.5882 166.634 38.7176C167.622 37.8471 168.257 36.6588 168.54 35.1529ZM180.212 35.1176C180.565 33.0941 181.259 31.3176 182.294 29.7882C183.329 28.2588 184.576 27.0824 186.035 26.2588C187.494 25.4353 189.035 25.0235 190.659 25.0235C192.047 25.0235 193.212 25.3059 194.153 25.8706C195.094 26.4353 195.776 27.1765 196.2 28.0941L196.694 25.3059H202.729L199.235 45H193.2L193.729 42.2118C192.976 43.1294 192.023 43.8706 190.87 44.4353C189.718 45 188.447 45.2824 187.059 45.2824C185.67 45.2824 184.435 44.9647 183.353 44.3294C182.294 43.6941 181.47 42.8 180.882 41.6471C180.294 40.4706 180 39.0941 180 37.5176C180 36.7647 180.07 35.9647 180.212 35.1176ZM194.965 35.1529C195.035 34.7294 195.07 34.3412 195.07 33.9882C195.07 32.8353 194.729 31.9294 194.047 31.2706C193.388 30.6118 192.541 30.2824 191.506 30.2824C190.306 30.2824 189.212 30.7176 188.223 31.5882C187.235 32.4353 186.612 33.6118 186.353 35.1176C186.282 35.5412 186.247 35.9294 186.247 36.2824C186.247 37.4353 186.576 38.3529 187.235 39.0353C187.918 39.6941 188.765 40.0235 189.776 40.0235C190.976 40.0235 192.07 39.5882 193.059 38.7176C194.047 37.8471 194.682 36.6588 194.965 35.1529ZM214.049 25.3059L216.449 37.6235L223.154 25.3059H229.684L212.213 54.3529H205.719L212.001 44.3294L207.343 25.3059H214.049ZM238.713 39.2824L232.996 49.5176H229.043L232.572 39.2824H238.713ZM286.625 20.2235L282.248 45H276.213L278.86 30.1412L270.672 45H265.801L262.836 30.0706L260.225 45H254.189L258.566 20.2235H265.695L269.648 37.3765L279.53 20.2235H286.625ZM289.623 35.1176C289.976 33.0941 290.67 31.3176 291.706 29.7882C292.741 28.2588 293.988 27.0824 295.447 26.2588C296.906 25.4353 298.447 25.0235 300.07 25.0235C301.459 25.0235 302.623 25.3059 303.565 25.8706C304.506 26.4353 305.188 27.1765 305.612 28.0941L306.106 25.3059H312.141L308.647 45H302.612L303.141 42.2118C302.388 43.1294 301.435 43.8706 300.282 44.4353C299.129 45 297.859 45.2824 296.47 45.2824C295.082 45.2824 293.847 44.9647 292.765 44.3294C291.706 43.6941 290.882 42.8 290.294 41.6471C289.706 40.4706 289.412 39.0941 289.412 37.5176C289.412 36.7647 289.482 35.9647 289.623 35.1176ZM304.376 35.1529C304.447 34.7294 304.482 34.3412 304.482 33.9882C304.482 32.8353 304.141 31.9294 303.459 31.2706C302.8 30.6118 301.953 30.2824 300.918 30.2824C299.718 30.2824 298.623 30.7176 297.635 31.5882C296.647 32.4353 296.023 33.6118 295.765 35.1176C295.694 35.5412 295.659 35.9294 295.659 36.2824C295.659 37.4353 295.988 38.3529 296.647 39.0353C297.329 39.6941 298.176 40.0235 299.188 40.0235C300.388 40.0235 301.482 39.5882 302.47 38.7176C303.459 37.8471 304.094 36.6588 304.376 35.1529ZM324.343 28.8706C325.26 27.6941 326.307 26.7765 327.484 26.1176C328.684 25.4353 329.931 25.0941 331.225 25.0941L330.096 31.4824H328.437C326.931 31.4824 325.743 31.8118 324.872 32.4706C324.001 33.1059 323.425 34.2353 323.143 35.8588L321.519 45H315.484L318.943 25.3059H324.978L324.343 28.8706ZM333.616 35.1529C333.969 33.1059 334.698 31.3176 335.804 29.7882C336.91 28.2588 338.274 27.0824 339.898 26.2588C341.545 25.4353 343.333 25.0235 345.263 25.0235C347.733 25.0235 349.686 25.6706 351.121 26.9647C352.557 28.2588 353.321 30.0824 353.416 32.4353H346.992C346.733 30.9294 345.816 30.1765 344.239 30.1765C343.133 30.1765 342.18 30.6118 341.38 31.4824C340.58 32.3294 340.039 33.5529 339.757 35.1529C339.663 35.6471 339.616 36.1647 339.616 36.7059C339.616 37.8118 339.874 38.6588 340.392 39.2471C340.91 39.8353 341.616 40.1294 342.51 40.1294C344.063 40.1294 345.227 39.3765 346.004 37.8706H352.463C351.545 40.1765 350.133 41.9882 348.227 43.3059C346.321 44.6235 344.145 45.2824 341.698 45.2824C339.157 45.2824 337.133 44.5882 335.627 43.2C334.145 41.7882 333.404 39.8706 333.404 37.4471C333.404 36.7176 333.474 35.9529 333.616 35.1529ZM372.491 25.0941C374.42 25.0941 375.938 25.6471 377.044 26.7529C378.173 27.8588 378.738 29.4 378.738 31.3765C378.738 32.0353 378.667 32.7412 378.526 33.4941L376.479 45H370.479L372.385 34.3059C372.456 33.9059 372.491 33.5529 372.491 33.2471C372.491 32.2588 372.209 31.4941 371.644 30.9529C371.103 30.4118 370.338 30.1412 369.35 30.1412C368.173 30.1412 367.185 30.5059 366.385 31.2353C365.585 31.9647 365.067 32.9882 364.832 34.3059V34.2353L362.926 45H356.891L361.515 18.8824H367.55L365.962 27.9176C366.738 27.0471 367.691 26.3647 368.82 25.8706C369.95 25.3529 371.173 25.0941 372.491 25.0941ZM395.971 25.5882L396.959 19.9765H406.736L402.324 45H396.042L399.465 25.5882H395.971ZM411.712 25.5882L412.7 19.9765H422.476L418.065 45H411.782L415.206 25.5882H411.712ZM437.315 39.1765C439.879 37.3412 441.926 35.8235 443.456 34.6235C444.985 33.4235 446.303 32.2 447.409 30.9529C448.538 29.6824 449.197 28.4706 449.385 27.3176C449.456 26.9882 449.491 26.6824 449.491 26.4C449.491 25.7176 449.303 25.2 448.926 24.8471C448.574 24.4941 448.032 24.3176 447.303 24.3176C445.491 24.3176 444.338 25.6 443.844 28.1647H437.985C438.597 25.2 439.868 22.9765 441.797 21.4941C443.75 19.9882 445.985 19.2353 448.503 19.2353C450.95 19.2353 452.762 19.7882 453.938 20.8941C455.138 22 455.738 23.4588 455.738 25.2706C455.738 25.8353 455.691 26.3529 455.597 26.8235C455.174 29.2235 453.926 31.4588 451.856 33.5294C449.809 35.6 447.268 37.6706 444.232 39.7412H453.762L452.879 44.6471H435.162L435.938 40.1647L437.315 39.1765ZM460.231 32.1529C460.913 28.2471 462.231 25.1529 464.184 22.8706C466.16 20.5647 468.89 19.4118 472.372 19.4118C475.172 19.4118 477.219 20.1765 478.513 21.7059C479.831 23.2118 480.49 25.3176 480.49 28.0235C480.49 29.1294 480.348 30.5059 480.066 32.1529C479.384 36.0588 478.054 39.1647 476.078 41.4706C474.101 43.7529 471.372 44.8941 467.89 44.8941C465.09 44.8941 463.043 44.1412 461.748 42.6353C460.478 41.1059 459.843 38.9882 459.843 36.2824C459.843 35.0353 459.972 33.6588 460.231 32.1529ZM474.101 32.1529C474.36 30.6941 474.49 29.5529 474.49 28.7294C474.49 27.5529 474.254 26.6471 473.784 26.0118C473.313 25.3765 472.513 25.0588 471.384 25.0588C469.76 25.0588 468.572 25.6824 467.819 26.9294C467.09 28.1765 466.537 29.9176 466.16 32.1529C465.901 33.6118 465.772 34.7529 465.772 35.5765C465.772 36.7529 466.007 37.6588 466.478 38.2941C466.948 38.9294 467.748 39.2471 468.878 39.2471C470.501 39.2471 471.678 38.6235 472.407 37.3765C473.16 36.1294 473.725 34.3882 474.101 32.1529ZM485.443 39.1765C488.008 37.3412 490.055 35.8235 491.584 34.6235C493.114 33.4235 494.431 32.2 495.537 30.9529C496.666 29.6824 497.325 28.4706 497.514 27.3176C497.584 26.9882 497.619 26.6824 497.619 26.4C497.619 25.7176 497.431 25.2 497.055 24.8471C496.702 24.4941 496.161 24.3176 495.431 24.3176C493.619 24.3176 492.466 25.6 491.972 28.1647H486.114C486.725 25.2 487.996 22.9765 489.925 21.4941C491.878 19.9882 494.114 19.2353 496.631 19.2353C499.078 19.2353 500.89 19.7882 502.066 20.8941C503.266 22 503.866 23.4588 503.866 25.2706C503.866 25.8353 503.819 26.3529 503.725 26.8235C503.302 29.2235 502.055 31.4588 499.984 33.5294C497.937 35.6 495.396 37.6706 492.361 39.7412H501.89L501.008 44.6471H483.29L484.066 40.1647L485.443 39.1765ZM509.559 26.5059C510.1 23.9882 511.265 22.0471 513.053 20.6824C514.841 19.3176 517.065 18.6353 519.724 18.6353C522.053 18.6353 523.841 19.1647 525.088 20.2235C526.335 21.2824 526.959 22.6588 526.959 24.3529C526.959 24.7765 526.924 25.2 526.853 25.6235C526.571 27.1765 525.959 28.4471 525.018 29.4353C524.077 30.4 523.053 31.0588 521.947 31.4118V31.5529C523.006 31.9294 523.83 32.5176 524.418 33.3176C525.006 34.0941 525.3 35.0824 525.3 36.2824C525.3 36.8 525.253 37.2941 525.159 37.7647C524.759 39.9765 523.688 41.7765 521.947 43.1647C520.206 44.5294 518.018 45.2118 515.383 45.2118C512.865 45.2118 510.877 44.6588 509.418 43.5529C507.983 42.4471 507.265 40.7647 507.265 38.5059C507.265 38.2 507.312 37.6471 507.406 36.8471H513.265C513.218 37.2235 513.194 37.4824 513.194 37.6235C513.194 38.4471 513.43 39.0824 513.9 39.5294C514.371 39.9765 515.077 40.2 516.018 40.2C517.077 40.2 517.924 39.8588 518.559 39.1765C519.194 38.4941 519.512 37.6235 519.512 36.5647C519.512 35.6941 519.183 35.0706 518.524 34.6941C517.888 34.2941 516.877 34.0941 515.488 34.0941H514.359L515.241 29.1882H516.371C519.03 29.1882 520.535 28.2471 520.888 26.3647C520.935 26.0824 520.959 25.8706 520.959 25.7294C520.959 25.0706 520.759 24.5647 520.359 24.2118C519.983 23.8588 519.43 23.6824 518.7 23.6824C517.806 23.6824 517.088 23.9529 516.547 24.4941C516.006 25.0353 515.63 25.7059 515.418 26.5059H509.559Z" fill="white"/>
<defs>
<linearGradient id="paint0_linear_223_29974" x1="318.219" y1="60" x2="316.33" y2="-18.5589" gradientUnits="userSpaceOnUse">
<stop stop-color="#8C4BFF"/>
<stop offset="1" stop-color="#C54BFF" stop-opacity="0.79"/>
</linearGradient>
</defs>
</svg>
