<?xml version="1.0"?>
<svg width="350" height="87" viewBox="0 0 350 87" fill="none" xmlns="http://www.w3.org/2000/svg"> <path d="M33.6647 79.1891L1.85736 47.4955C-0.619121 45.0278 -0.619121 40.9665 1.85736 38.4989L33.6647 6.80531C36.1412 4.33768 40.217 4.33768 42.6935 6.80531L74.5008 38.4989C76.9773 40.9665 76.9773 45.0278 74.5008 47.4955L42.6935 79.1891C42.0744 79.806 41.3521 80.2687 40.604 80.5771C40.5782 80.5771 35.8316 80.6028 35.8316 80.6028C35.0319 80.2944 34.2838 79.806 33.6647 79.1891Z" fill="#3DD33D"></path> <path d="M59.4873 29.9289C57.3977 29.9289 55.6694 31.6511 55.6694 33.7331C55.6694 35.4039 56.7786 36.8948 58.3522 37.3832V44.4519C58.3522 48.4618 55.8241 50.6724 50.1489 51.572C49.375 50.0812 47.7498 49.1301 45.1959 48.7445H45.1701C43.158 48.4875 41.636 47.8963 40.5267 46.9966V45.1202C41.6102 44.1691 43.1322 43.5779 45.2217 43.3209H45.2475C48.8332 42.7811 50.6648 41.0846 50.6648 38.3342V34.1958C52.3158 33.7845 53.5798 32.2937 53.5798 30.4944C53.5798 28.3866 51.8514 26.6644 49.7619 26.6644C47.6724 26.6644 45.944 28.3866 45.944 30.5201C45.944 32.3451 47.2596 33.8873 48.9622 34.2472V38.3599C48.9622 40.262 47.7756 41.2388 44.9895 41.6758C43.1838 41.8814 41.7134 42.3441 40.5525 43.0638V30.5715C41.9455 29.7489 42.8742 28.2581 42.8742 26.5616C42.8742 23.9911 40.7847 21.8834 38.1792 21.8834C35.5995 21.8834 33.4842 23.9654 33.4842 26.5616C33.4842 28.2838 34.4129 29.7746 35.8059 30.5715V41.2388C34.7482 40.7247 33.4842 40.3649 31.988 40.1849C28.5054 39.6708 28.0669 38.18 28.0669 36.9205V34.0159C29.7437 33.6303 31.0335 32.1137 31.0335 30.2887C31.0335 28.2067 29.3051 26.4845 27.2156 26.4845C25.1261 26.4845 23.3977 28.181 23.3977 30.263C23.3977 32.088 24.6875 33.5789 26.3643 33.9902V36.8948C26.3643 39.6451 28.1701 41.3159 31.7558 41.83C33.4842 42.0871 34.7998 42.4726 35.8059 43.1667V49.1558C33.4068 47.6392 30.3886 46.6368 26.6223 46.1741C20.818 45.3001 18.2384 43.1152 18.2384 39.0282V37.4089C19.7604 36.8948 20.8438 35.481 20.8438 33.7845C20.8438 31.7025 19.1155 29.9803 17.0259 29.9803C14.9364 29.9803 13.208 31.7025 13.208 33.7845C13.208 35.4553 14.2915 36.8948 15.8135 37.4089V39.0282C15.8135 42.01 16.9227 44.3491 19.1412 45.9684C20.818 47.228 23.1655 48.0505 26.2869 48.5132H26.3127C30.4918 49.053 33.5874 50.2354 35.8317 52.0861V80.6695C37.3537 81.2607 39.0821 81.235 40.6041 80.6438V67.8686C41.6876 66.9433 43.1838 66.3778 45.2475 66.1207H45.2733C48.859 65.5809 50.6906 63.8845 50.6906 61.1341V60.5172C51.7999 60.1573 52.6254 59.1034 52.6254 57.8953C52.6254 56.6872 51.7999 55.6076 50.6906 55.2735V53.9368C53.6314 53.4484 55.8757 52.6259 57.5009 51.4178C59.7194 49.7984 60.8287 47.4593 60.8287 44.4776V37.3832C62.2217 36.8434 63.2794 35.4296 63.2794 33.7588C63.2794 32.7563 62.8924 31.8053 62.1959 31.0599C61.4736 30.3401 60.5191 29.9289 59.4873 29.9289ZM47.3112 30.5201C47.3112 29.1834 48.3947 28.1038 49.7103 28.1038C51.0518 28.1038 52.1094 29.1834 52.1094 30.5201C52.1094 31.8567 51.026 32.9106 49.7103 32.9106C48.4205 32.9106 47.3112 31.8053 47.3112 30.5201ZM27.164 32.6535C25.8484 32.6535 24.7649 31.5739 24.7649 30.263C24.7649 28.9264 25.8484 27.8725 27.164 27.8725C28.4796 27.8725 29.5631 28.9521 29.5631 30.263C29.5631 31.5739 28.4539 32.6535 27.164 32.6535ZM16.9743 36.1236C15.6587 36.1236 14.5752 35.0697 14.5752 33.7331C14.5752 32.3965 15.6587 31.3426 16.9743 31.3426C18.29 31.3426 19.3734 32.4222 19.3734 33.7331C19.3734 35.044 18.2642 36.1236 16.9743 36.1236ZM38.1276 29.7746C36.3218 29.7746 34.8514 28.3095 34.8514 26.5102C34.8514 24.6851 36.3218 23.22 38.1276 23.22C39.9334 23.22 41.4038 24.6851 41.4038 26.4845C41.4038 28.2838 39.9334 29.7746 38.1276 29.7746ZM40.5009 49.053C41.6876 49.7213 43.1322 50.184 44.9121 50.4153C46.5631 50.6724 47.6724 51.1093 48.2657 51.8548C45.1701 52.4203 42.5646 53.3713 40.5009 54.7337V49.053ZM48.9106 55.2735C47.8014 55.6333 46.9759 56.6872 46.9759 57.8953C46.9759 59.1548 47.8014 60.183 48.9106 60.5172V61.1341C48.8848 63.0362 47.724 64.013 44.9379 64.4499C43.158 64.6556 41.7134 65.1183 40.5525 65.8123V57.7411C42.5646 55.9675 45.2991 54.8108 48.9106 54.1939V55.2735ZM59.4873 36.1493C58.1458 36.1493 57.0882 35.0697 57.0882 33.7588C57.0882 32.4479 58.1716 31.3683 59.4873 31.3683C60.1322 31.3683 60.7513 31.6254 61.2156 32.0623C61.68 32.525 61.8864 33.1162 61.8864 33.7331C61.8864 35.0697 60.8029 36.1493 59.4873 36.1493Z" fill="white"></path> <path d="M98.8317 60.2702H86.3584L92.1205 24.4409H104.357C107.848 24.4409 110.746 25.1756 113.051 26.6452C115.367 28.1148 116.999 30.22 117.948 32.9608C118.897 35.69 119.067 38.9499 118.457 42.7404C117.869 46.4027 116.7 49.5459 114.949 52.1701C113.197 54.7827 110.955 56.7887 108.221 58.1883C105.486 59.5762 102.357 60.2702 98.8317 60.2702ZM94.7474 53.7796H99.2554C101.436 53.7796 103.345 53.3597 104.984 52.52C106.633 51.6802 107.983 50.3856 109.034 48.6362C110.096 46.8867 110.847 44.6473 111.288 41.9182C111.706 39.3289 111.678 37.2295 111.203 35.62C110.74 33.9988 109.842 32.815 108.509 32.0686C107.175 31.3105 105.424 30.9314 103.255 30.9314H98.4249L94.7474 53.7796Z" fill="white"></path> <path d="M132.739 60.795C130.073 60.795 127.864 60.2352 126.113 59.1155C124.362 57.9842 123.13 56.3863 122.418 54.322C121.718 52.2459 121.599 49.7908 122.062 46.9567C122.514 44.1925 123.424 41.7665 124.791 39.6788C126.169 37.5911 127.898 35.9641 129.977 34.7978C132.056 33.6315 134.372 33.0483 136.925 33.0483C138.643 33.0483 140.196 33.334 141.586 33.9055C142.987 34.4654 144.15 35.3168 145.077 36.4598C146.003 37.5911 146.636 39.0082 146.975 40.711C147.325 42.4138 147.32 44.4082 146.958 46.6942L146.636 48.7411H124.672L125.367 44.1225H140.552C140.721 43.0495 140.654 42.0989 140.349 41.2708C140.044 40.4428 139.535 39.7955 138.823 39.3289C138.112 38.8507 137.236 38.6116 136.196 38.6116C135.134 38.6116 134.14 38.8799 133.214 39.4164C132.287 39.9529 131.508 40.6585 130.875 41.5333C130.254 42.3963 129.852 43.3352 129.672 44.3499L128.875 48.9336C128.649 50.3448 128.694 51.517 129.011 52.45C129.338 53.3831 129.903 54.0829 130.705 54.5494C131.508 55.0043 132.525 55.2317 133.756 55.2317C134.558 55.2317 135.31 55.1151 136.01 54.8818C136.722 54.6485 137.355 54.3045 137.908 53.8496C138.462 53.3831 138.914 52.8057 139.264 52.1176L145.856 52.5725C145.246 54.2287 144.32 55.6749 143.077 56.9112C141.834 58.1358 140.337 59.0922 138.586 59.7803C136.846 60.4568 134.897 60.795 132.739 60.795Z" fill="white"></path> <path d="M177.421 33.3982L163.982 60.2702H155.847L151.085 33.3982H158.44L160.745 52.625H161.016L169.507 33.3982H177.421Z" fill="white"></path> <path d="M176.913 60.2702L182.675 24.4409H196.368C198.989 24.4409 201.142 24.9599 202.825 25.9979C204.52 27.0243 205.706 28.453 206.384 30.2841C207.073 32.1036 207.231 34.2029 206.859 36.5822C206.474 38.9732 205.638 41.0784 204.35 42.8979C203.074 44.7057 201.413 46.1169 199.368 47.1316C197.323 48.1463 194.962 48.6536 192.284 48.6536H183.556L184.522 42.583H192.064C193.487 42.583 194.702 42.3322 195.707 41.8307C196.724 41.3175 197.532 40.6119 198.131 39.7138C198.73 38.8041 199.119 37.7602 199.3 36.5822C199.492 35.3809 199.43 34.3371 199.114 33.4507C198.797 32.5643 198.215 31.8761 197.368 31.3863C196.532 30.8848 195.408 30.634 193.996 30.634H189.047L184.251 60.2702H176.913Z" fill="white"></path> <path d="M207.812 60.2702L213.574 24.4409H227.268C229.889 24.4409 232.047 24.919 233.741 25.8754C235.447 26.8318 236.645 28.1906 237.334 29.9517C238.035 31.7012 238.199 33.7656 237.826 36.1449C237.442 38.5242 236.611 40.5652 235.334 42.268C234.069 43.9709 232.42 45.283 230.386 46.2044C228.363 47.1141 226.019 47.569 223.353 47.569H214.184L215.201 41.4808H223.166C224.567 41.4808 225.765 41.2825 226.759 40.886C227.753 40.4894 228.539 39.8946 229.115 39.1015C229.702 38.3084 230.086 37.3229 230.267 36.1449C230.459 34.9436 230.391 33.9405 230.064 33.1358C229.736 32.3193 229.143 31.7012 228.284 31.2813C227.426 30.8498 226.296 30.634 224.895 30.634H219.946L215.15 60.2702H207.812ZM229.166 43.965L235.182 60.2702H227.081L221.251 43.965H229.166Z" fill="white"></path> <path d="M271.529 47.5675C270.595 47.8768 270.071 48.6176 269.974 49.8552C269.631 54.5063 268.844 58.383 267.61 61.4859C266.567 64.0999 264.642 66.0842 261.853 67.503C258.443 69.1279 256.122 69.3991 254.792 68.2087C253.46 67.0184 252.667 64.0193 252.347 59.2324L252.476 55.2192L252.781 46.4679L253.229 37.7398C253.191 37.6111 253.169 37.547 253.212 37.462L253.321 36.9297C253.542 35.6509 253.97 34.375 254.586 33.0369C255.621 31.0635 257.148 29.5656 259.144 28.6925C260.393 28.0666 261.636 27.8679 262.834 27.9677C264.446 28.0726 265.349 28.7665 265.478 30.0708C265.606 31.5885 266.385 32.3236 267.855 32.1917C269.366 32.1883 270.076 31.3857 269.97 29.9321C269.672 26.9817 268.225 24.9786 265.526 24.028C263.136 23.1882 260.549 23.264 257.767 24.2559C253.34 25.9327 250.425 29.5919 249.1 35.2776C248.925 36.0443 248.777 38.2206 248.613 41.891L247.985 55.358C247.542 65.4316 249.502 71.3061 253.931 72.9604C256.651 73.9749 259.778 73.6493 263.188 72.0247C266.35 70.4822 268.731 68.418 270.393 65.8116C272.478 62.5694 273.753 57.8223 274.341 51.5301L278.263 50.232C279.696 49.7577 280.141 48.7597 279.684 47.2806C279.223 45.8018 278.319 45.3211 276.888 45.7951L271.529 47.5675ZM289.328 33.0282C291.123 31.5123 292.573 31.3162 293.802 32.3985C293.987 32.5501 294.08 33.512 294.122 35.1997C294.144 35.2637 294.182 35.3924 294.139 35.4775L294.075 35.7115C292.163 36.6281 289.628 37.5376 286.432 38.5243C286.832 36.052 287.825 34.1634 289.328 33.0282ZM297.805 49.9349C297.785 49.8705 297.785 49.8705 297.785 49.8705L297.92 46.9898C297.899 47.1387 297.961 47.1181 297.963 46.9047C298.101 43.8099 298.154 40.8851 298.227 38.2381C301.536 36.2918 304.088 33.8878 305.939 31.0061C306.678 29.8401 306.417 29.0045 305.185 28.3489C303.95 27.6938 302.996 27.9384 302.258 29.1043C301.229 30.6505 299.888 32.0866 298.261 33.2633C297.999 30.8683 296.984 29.1478 295.112 28.2072C292.417 26.83 289.619 27.3304 286.717 29.7087C283.691 32.1281 282.156 36.0392 281.992 41.4822C281.986 42.1226 282.31 42.7243 282.926 43.1588C283.522 43.529 284.098 43.6216 284.722 43.4153C288.831 42.2685 291.946 41.2379 294.065 40.324L293.979 42.4796C293.938 44.3368 293.811 46.3639 293.725 48.5195C293.505 51.5704 292.899 54.04 292.05 55.9519C290.777 58.7126 288.987 59.8016 286.719 59.134C285.975 58.9544 285.571 58.0952 285.525 56.6216C285.447 56.1507 285.537 55.554 285.669 54.8722L285.747 53.5704C285.8 50.6456 285.845 48.3616 285.946 46.6972C286.003 45.3311 285.37 44.6189 284.024 44.7096C282.616 44.821 281.865 45.4952 281.746 46.8817C281.473 50.8717 281.453 54.5654 281.622 57.9841C281.736 60.7826 283.265 62.6162 286.193 63.4199C288.772 64.1977 291.304 63.2887 293.797 60.6919C296.055 58.4553 297.357 54.9048 297.824 49.9994C297.824 49.9994 297.824 49.9994 297.805 49.9349ZM324.209 45.7362C323.867 46.8422 323.154 47.6451 322.053 48.0805C321.201 48.4334 320.037 48.8894 318.585 49.299L319.026 39.439C319.211 35.8324 319.33 32.6732 319.362 29.8976C319.419 26.5459 319.237 24.4082 318.711 23.3769C317.861 21.744 316.527 20.7671 314.585 20.4877C312.932 20.2547 311.252 20.5975 309.526 21.4525C308.509 21.9311 307.611 22.5825 306.855 23.4706C306.263 22.8867 305.52 22.7071 304.585 23.0164C303.651 23.3254 303.106 24.0023 303.094 25.0697C302.914 32.0074 302.589 42.4669 302.122 56.4478C302.085 57.8781 302.78 58.57 304.209 58.5227C305.617 58.4114 306.287 57.6933 306.344 56.3274L306.6 46.3156C306.815 41.9195 306.893 38.6319 306.96 36.4118C306.962 36.1984 307.024 36.1778 306.981 36.2629C307.241 29.7955 309.02 26.016 312.426 24.8181C313.733 24.3856 314.58 24.6729 314.941 25.6169C315.122 26.1955 315.172 27.2423 315.195 28.8655C315.133 34.2036 314.881 42.0158 314.291 52.2797C314.257 53.2833 314.665 53.9284 315.634 54.1751C316.046 54.3934 316.522 54.3779 317.083 54.1923C321.899 52.6697 324.849 51.5517 325.806 50.8801C327.787 49.5157 328.667 46.601 328.595 42.1581C328.568 40.7487 327.873 40.0571 326.527 40.1478C325.1 40.1947 324.368 40.9332 324.454 42.3223C324.458 43.8813 324.403 45.0338 324.209 45.7362ZM329.547 3.76688C327.851 5.60427 326.74 8.87929 326.191 13.5279L325.789 16.2136C325.724 16.2346 325.724 16.2346 325.724 16.2346C321.91 17.0003 319.665 17.9559 319.03 19.2295C318.397 20.5028 318.739 21.3825 319.971 22.0378C321.206 22.693 322.098 22.469 322.733 21.1951C322.628 21.3008 322.772 21.3241 323.085 21.2209C323.519 21.0766 324.286 20.8939 325.366 20.6075L325.49 20.5665C325.572 20.6101 325.572 20.6101 325.572 20.6101L325.324 27.9955C325.222 31.6456 325.154 34.0789 325.056 35.3165C325.019 36.7469 324.933 38.9025 324.923 41.7422L324.706 48.1245C324.546 53.1409 324.19 57.3004 323.76 60.5624C323.371 63.953 323.101 65.9568 322.947 66.5745C322.342 68.831 321.148 70.2899 319.423 70.9312C318.136 71.4281 317.732 72.3417 318.151 73.6921C318.57 75.0423 319.393 75.4792 320.681 74.9822C323.464 73.9904 325.412 71.8568 326.545 68.6458C327.333 66.5414 327.886 63.4516 328.18 59.3127C328.306 59.0581 328.372 58.8237 328.374 58.6103C328.919 52.4029 331.231 47.2417 335.354 43.0414C336.504 41.8807 337.945 40.766 339.736 39.677C340.424 39.237 340.963 38.9873 341.379 38.7788C342.606 38.3021 342.989 37.3244 342.57 35.974C342.213 34.6032 341.389 34.1663 340.102 34.6635C335.55 36.595 331.811 39.8176 328.905 44.3952C329.02 41.4498 329.025 39.2505 329.081 37.8844C329.368 30.8409 329.598 24.9503 329.838 20.1912C329.819 20.127 329.84 19.9778 329.823 19.6999C329.885 19.6795 329.947 19.6589 330.093 19.6818C330.217 19.6406 330.341 19.5994 330.425 19.6428C334.363 18.8359 336.55 17.4741 337.11 15.5164C337.601 14.2195 337.155 13.4454 335.751 13.1297C334.411 12.7933 333.516 13.2313 333.17 14.5511C333.236 14.3167 333.214 14.2526 333.028 14.3144C333.028 14.3144 332.966 14.335 332.861 14.4405C332.756 14.5462 332.632 14.5871 332.57 14.6077C332.216 14.7956 331.574 14.9374 330.745 15.141L330.059 15.3679C330.253 12.6797 330.714 10.4003 331.354 8.6998C332.247 6.48957 334.434 5.12778 337.875 4.48554C339.18 4.26638 339.604 3.41724 339.184 2.06694C338.765 0.716637 337.903 0.151057 336.598 0.370222C333.549 0.953384 331.159 2.09906 329.547 3.76688Z" fill="#37CE6C"></path> </svg> 