<svg viewBox="0 0 1280 1281" fill="none" xmlns="http://www.w3.org/2000/svg">
  <path d="M756.167 580.656C744.765 580.654 733.617 584.033 724.135 590.367C714.654 596.701 707.263 605.704 702.898 616.238C698.534 626.772 697.391 638.364 699.615 649.548C701.839 660.732 707.33 671.005 715.393 679.068C723.456 687.13 733.728 692.621 744.912 694.845C756.096 697.069 767.688 695.927 778.222 691.562C788.756 687.197 797.76 679.807 804.093 670.325C810.427 660.843 813.806 649.696 813.804 638.293C813.786 623.012 807.708 608.363 796.903 597.558C786.097 586.753 771.448 580.674 756.167 580.656ZM756.167 672.167C749.468 672.167 742.919 670.18 737.348 666.458C731.778 662.736 727.436 657.445 724.872 651.256C722.308 645.066 721.637 638.255 722.944 631.684C724.251 625.114 727.478 619.078 732.215 614.34C736.952 609.603 742.988 606.377 749.559 605.07C756.13 603.763 762.941 604.434 769.13 606.998C775.32 609.561 780.61 613.903 784.332 619.474C788.054 625.044 790.041 631.593 790.041 638.293C790.032 647.274 786.46 655.885 780.11 662.235C773.759 668.586 765.148 672.158 756.167 672.167Z" fill="white"/>
  <path d="M277.628 562.301H309.692L294.89 657.865C294.89 661.599 296.29 662.533 297.372 662.533C299.091 662.533 303.919 662.226 303.919 662.226L302.985 677.483C295.96 679.284 288.751 680.273 281.5 680.432C273.723 680.432 269.988 677.164 269.988 670.788C270.019 669.791 270.125 668.797 270.307 667.816L283.97 579.426L276.342 578.492L277.628 562.301Z" fill="white"/>
  <path d="M317.138 601.207H349.201L340.32 657.397C340.172 661.758 341.721 662.532 342.814 662.532C344.681 662.532 349.509 662.225 349.509 662.225L348.564 677.482C341.539 679.268 334.336 680.257 327.09 680.431C319.313 680.431 315.578 677.163 315.578 670.787C315.616 669.791 315.719 668.798 315.886 667.815L323.491 618.365L315.863 617.432L317.138 601.207ZM354.496 575.69C354.496 583 349.349 589.855 339.546 589.855C332.384 589.855 327.875 585.801 327.875 579.425C327.875 574.87 330.824 565.42 342.973 565.42C348.097 565.42 354.496 567.447 354.496 575.69Z" fill="white"/>
  <path d="M410.799 601.207H444.571C439.128 623.16 425.579 649.029 400.062 679.031H379.362L365.699 618.184L355.121 617.398L356.362 601.207H387.799L397.762 655.063H398.639C406.108 645.886 413.737 631.87 419.339 618.799L409.535 617.079L410.799 601.207Z" fill="white"/>
  <path d="M510.828 664.708C510.828 664.708 502.266 681.992 476.898 681.992C455.264 681.992 439.699 670.15 439.699 647.594C439.699 618.799 460.559 598.406 486.382 598.406C503.815 598.406 516.886 607.754 516.886 622.317C516.886 640.842 500.854 647.537 462.107 647.845C462.107 660.142 470.499 665.277 480.462 665.277C484.104 665.365 487.718 664.626 491.034 663.115C494.349 661.604 497.278 659.362 499.602 656.555L510.828 664.708ZM463.348 634.204C489.035 634.204 496.516 630.936 496.516 623.16C496.516 618.184 492.622 614.29 484.06 614.29C474.416 614.29 466.32 619.881 463.348 634.204Z" fill="white"/>
  <path d="M829.994 498.607C821.059 498.643 812.443 501.93 805.753 507.853C781.069 498.403 754.206 496.165 728.298 501.399C702.39 506.633 678.503 519.124 659.423 537.416C640.343 555.707 626.855 579.045 620.532 604.71C614.209 630.374 615.312 657.307 623.712 682.368H692.643C688.493 675.945 685.344 668.926 683.307 661.554H642.806C642.544 660.279 642.191 659.038 641.975 657.752C641.451 654.666 641.212 651.501 640.939 648.335H680.847C680.631 646.058 680.494 643.701 680.494 641.333C680.52 636.949 680.923 632.576 681.701 628.261H640.871C640.985 627.009 640.962 625.711 641.11 624.458C641.463 621.521 642.078 618.663 642.658 615.794H685.003C687.587 608.639 691.233 601.914 695.82 595.845L696.173 595.105H648.773C649.285 593.841 649.706 592.543 650.253 591.302C661.926 564.768 683.153 543.596 709.718 531.994C736.283 520.392 766.241 519.208 793.638 528.678C793.178 530.988 792.941 533.337 792.933 535.692C792.942 545.52 796.849 554.943 803.797 561.893C810.745 568.843 820.167 572.753 829.994 572.765C836.345 572.724 842.575 571.033 848.076 567.858C857.852 580.556 864.886 595.146 868.732 610.703C872.579 626.26 873.155 642.446 870.423 658.237C867.691 674.029 861.711 689.081 852.862 702.441C844.012 715.802 832.486 727.181 819.012 735.857C805.538 744.533 790.41 750.318 774.585 752.845C758.76 755.373 742.582 754.588 727.076 750.541C711.57 746.494 697.072 739.272 684.501 729.332C671.93 719.393 661.559 706.952 654.044 692.798H627.56C635.356 711.25 647.029 727.809 661.788 741.352C676.547 754.896 694.047 765.106 713.099 771.29C732.152 777.475 752.312 779.489 772.211 777.196C792.111 774.903 811.284 768.356 828.431 758.001C845.577 747.645 860.296 733.723 871.588 717.178C882.88 700.633 890.481 681.852 893.876 662.111C897.271 642.37 896.379 622.129 891.263 602.762C886.146 583.396 876.924 565.356 864.221 549.868C866.561 544.239 867.474 538.119 866.88 532.052C866.287 525.986 864.205 520.159 860.819 515.09C857.433 510.021 852.847 505.867 847.47 502.995C842.093 500.124 836.09 498.625 829.994 498.63V498.607ZM830.086 549.002H829.994C827.23 548.988 824.539 548.113 822.294 546.499C820.05 544.885 818.364 542.612 817.47 539.996C816.96 538.606 816.691 537.139 816.673 535.658C816.685 532.986 817.5 530.379 819.01 528.175C820.521 525.971 822.659 524.272 825.147 523.297C827.634 522.321 830.358 522.116 832.964 522.706C835.57 523.296 837.939 524.654 839.764 526.606C841.537 528.494 842.72 530.859 843.167 533.41C843.614 535.961 843.306 538.588 842.28 540.966C841.254 543.345 839.555 545.371 837.393 546.797C835.23 548.223 832.698 548.985 830.108 548.991L830.086 549.002Z" fill="#FF990E"/>
  <path d="M983.74 670.743C985.256 660.475 986.066 650.116 986.165 639.738C986.165 513.056 883.064 410 756.382 410C664.279 410 584.952 464.653 548.402 543.081C548.402 543.15 548.402 543.229 548.311 543.298C545.886 548.524 543.62 553.818 541.582 559.238C541.058 560.627 540.614 562.062 540.113 563.462C538.622 567.687 537.153 571.911 535.912 576.238C535.741 576.818 535.513 577.376 535.342 577.946C533.999 582.773 532.781 587.601 531.733 592.543C537.939 586.166 547.548 582.489 556.43 581.361C563.999 555.634 576.463 531.61 593.139 510.608C593.913 509.64 594.63 508.615 595.416 507.659C597.135 505.575 598.991 503.605 600.779 501.579C602.839 499.301 604.843 496.933 606.995 494.747C607.405 494.326 607.849 493.939 608.259 493.529C627.595 473.954 650.627 458.416 676.017 447.816C701.408 437.216 728.651 431.766 756.165 431.782C871.165 431.782 964.828 525.353 964.884 640.399C964.778 649.394 964.063 658.371 962.744 667.27C954.182 667.914 945.998 671.061 939.211 676.321C932.424 681.58 927.333 688.72 924.573 696.85C921.812 704.98 921.503 713.743 923.684 722.048C925.866 730.353 930.441 737.833 936.84 743.557C900.769 806.01 833.477 848.207 756.382 848.207C655.478 848.207 571.368 777.476 552.274 682.322C557.178 683.253 562.165 683.669 567.155 683.563C583.324 683.461 601.063 677.768 606.734 664.685C608.942 659.607 609.409 649.006 606.734 642.755C601.04 631.722 586.557 629.445 570.082 625.813C561.576 623.946 553.458 623.968 553.458 617.945C553.458 613.3 561.428 611.5 567.451 611.5C575.103 611.5 585.829 613.015 591.863 617.524L604.16 601.834C594.744 594.433 580.249 590.516 567.053 590.516C562.195 590.481 557.353 591.078 552.649 592.292H552.501C552.501 592.292 536.344 596.038 529.444 609.178C527.486 614.04 526.575 617.683 527.896 624.139C528.945 627.589 530.758 630.759 533.2 633.412C535.643 636.065 538.652 638.134 542.003 639.465C549.976 642.368 558.141 644.715 566.438 646.49C576.15 648.665 584.952 650.134 584.952 654.529C584.952 661.497 575.479 662.362 567.326 662.317C556.282 662.248 546.831 658.434 535.866 651.807C530.799 648.392 528.249 645.83 526.473 643.348C526.749 652.112 527.509 660.855 528.75 669.536C529.997 678.552 531.776 687.487 534.079 696.293H533.862C534.705 699.709 535.809 702.931 536.811 706.245C537.346 708.044 537.813 709.865 538.405 711.642C568.294 803.402 654.43 870 756.165 870C787.919 869.998 819.324 863.383 848.38 850.576C877.436 837.769 903.506 819.051 924.931 795.614L926.616 793.77C929.136 790.969 931.584 788.107 933.96 785.185C935.098 783.807 936.237 782.429 937.307 781.029C938.958 778.911 940.552 776.736 942.135 774.561C943.718 772.387 945.426 770.007 946.997 767.661C947.828 766.42 948.625 765.156 949.433 763.893C951.574 760.568 953.658 757.209 955.639 753.77C955.654 753.734 955.673 753.699 955.696 753.668C966.395 756.335 977.705 754.88 987.38 749.592C997.056 744.304 1004.39 735.57 1007.92 725.125C1011.45 714.68 1010.93 703.288 1006.45 693.213C1001.97 683.138 993.861 675.117 983.74 670.743ZM966.091 734.152C965.909 734.152 965.738 734.152 965.545 734.095C960.07 733.984 954.812 731.932 950.711 728.303C946.609 724.674 943.931 719.706 943.154 714.286C942.377 708.865 943.551 703.344 946.468 698.709C949.385 694.075 953.854 690.628 959.078 688.983C962.51 687.802 966.18 687.481 969.765 688.049C973.35 688.617 976.742 690.056 979.641 692.24C983.622 695.097 986.593 699.145 988.124 703.801C989.656 708.456 989.668 713.477 988.161 718.14C986.653 722.803 983.704 726.867 979.737 729.745C975.77 732.623 970.992 734.166 966.091 734.152Z" fill="#FF990E"/>
</svg>
