<svg viewBox="0 0 79 79" fill="none" xmlns="http://www.w3.org/2000/svg">
  <path d="M34.5459 76.4945L1.90598 43.8805C-0.635326 41.3413 -0.635326 37.162 1.90598 34.6227L34.5459 2.00872C37.0872 -0.530574 41.2697 -0.530574 43.8111 2.00872L76.4509 34.6227C78.9923 37.162 78.9923 41.3413 76.4509 43.8805L43.8111 76.4945C43.1757 77.1294 42.4345 77.6055 41.6668 77.9229C41.6404 77.9229 36.7695 77.9494 36.7695 77.9494C35.9489 77.6319 35.1812 77.1294 34.5459 76.4945Z" fill="#4CAF50"/>
  <path d="M61.0444 25.8038C58.9001 25.8038 57.1265 27.576 57.1265 29.7185C57.1265 31.4378 58.2648 32.972 59.8796 33.4746V40.7486C59.8796 44.8749 57.2854 47.1497 51.4615 48.0755C50.6674 46.5413 48.9996 45.5626 46.3789 45.1659H46.3524C44.2876 44.9014 42.7258 44.293 41.5875 43.3672V41.4363C42.6993 40.4576 44.2612 39.8492 46.4054 39.5847H46.4319C50.1115 39.0293 51.991 37.2835 51.991 34.4533V30.1947C53.6852 29.7714 54.9823 28.2373 54.9823 26.3857C54.9823 24.2167 53.2087 22.4445 51.0645 22.4445C48.9202 22.4445 47.1466 24.2167 47.1466 26.4122C47.1466 28.2902 48.4967 29.8772 50.2438 30.2476V34.4797C50.2438 36.4371 49.0261 37.4422 46.1671 37.8919C44.3141 38.1035 42.8052 38.5796 41.614 39.3202V26.4651C43.0435 25.6186 43.9964 24.0845 43.9964 22.3387C43.9964 19.6936 41.8522 17.5247 39.1785 17.5247C36.5314 17.5247 34.3607 19.6672 34.3607 22.3387C34.3607 24.1109 35.3136 25.6451 36.7431 26.4651V37.4422C35.6578 36.9132 34.3607 36.5429 32.8253 36.3577C29.2516 35.8287 28.8015 34.2945 28.8015 32.9985V30.0095C30.5222 29.6127 31.8458 28.0521 31.8458 26.1741C31.8458 24.0316 30.0722 22.2594 27.928 22.2594C25.7837 22.2594 24.0101 24.0051 24.0101 26.1477C24.0101 28.0257 25.3337 29.5598 27.0544 29.983V32.972C27.0544 35.8023 28.9074 37.5216 32.587 38.0506C34.3607 38.3151 35.7107 38.7119 36.7431 39.426V45.5891C34.2812 44.0285 31.184 42.9969 27.3191 42.5208C21.3629 41.6215 18.7157 39.3731 18.7157 35.1674V33.501C20.2776 32.972 21.3894 31.5172 21.3894 29.7714C21.3894 27.6289 19.6158 25.8567 17.4716 25.8567C15.3273 25.8567 13.5537 27.6289 13.5537 29.7714C13.5537 31.4908 14.6655 32.972 16.2274 33.501V35.1674C16.2274 38.2357 17.3657 40.6428 19.6423 42.3092C21.3629 43.6053 23.7719 44.4517 26.975 44.9278H27.0015C31.2899 45.4833 34.4665 46.7 36.7696 48.6045L36.7696 78.0179C38.3314 78.6263 40.1051 78.5999 41.6669 77.9915V64.8454C42.7787 63.8931 44.3141 63.3112 46.4319 63.0467H46.4583C50.1379 62.4912 52.0174 60.7455 52.0174 57.9152V57.2804C53.1557 56.9101 54.0028 55.8256 54.0028 54.5824C54.0028 53.3392 53.1557 52.2283 52.0174 51.8844V50.509C55.0352 50.0064 57.3383 49.16 59.006 47.9168C61.2826 46.2504 62.4209 43.8433 62.4209 40.775V33.4746C63.8504 32.9191 64.9358 31.4643 64.9358 29.745C64.9358 28.7134 64.5387 27.7347 63.8239 26.9676C63.0827 26.227 62.1033 25.8038 61.0444 25.8038ZM48.5496 26.4122C48.5496 25.0367 49.6614 23.9258 51.0115 23.9258C52.388 23.9258 53.4734 25.0367 53.4734 26.4122C53.4734 27.7876 52.3616 28.8721 51.0115 28.8721C49.6879 28.8721 48.5496 27.7347 48.5496 26.4122ZM27.875 28.6076C26.525 28.6076 25.4131 27.4967 25.4131 26.1477C25.4131 24.7722 26.525 23.6877 27.875 23.6877C29.2251 23.6877 30.3369 24.7987 30.3369 26.1477C30.3369 27.4967 29.1986 28.6076 27.875 28.6076ZM17.4186 32.1785C16.0685 32.1785 14.9567 31.094 14.9567 29.7185C14.9567 28.3431 16.0685 27.2586 17.4186 27.2586C18.7687 27.2586 19.8805 28.3695 19.8805 29.7185C19.8805 31.0675 18.7422 32.1785 17.4186 32.1785ZM39.1256 25.6451C37.2726 25.6451 35.7637 24.1374 35.7637 22.2858C35.7637 20.4078 37.2726 18.9001 39.1256 18.9001C40.9786 18.9001 42.4875 20.4078 42.4875 22.2594C42.4875 24.1109 40.9786 25.6451 39.1256 25.6451ZM41.561 45.4833C42.7787 46.171 44.2612 46.6471 46.0877 46.8852C47.7819 47.1497 48.9202 47.5994 49.5291 48.3664C46.3524 48.9484 43.6788 49.9271 41.561 51.329V45.4833ZM50.1909 51.8844C49.0526 52.2547 48.2055 53.3392 48.2055 54.5824C48.2055 55.8785 49.0526 56.9365 50.1909 57.2804V57.9152C50.1644 59.8726 48.9732 60.8777 46.1142 61.3274C44.2876 61.539 42.8052 62.0151 41.614 62.7293V54.4237C43.6788 52.5986 46.4848 51.4083 50.1909 50.7735V51.8844ZM61.0444 32.2049C59.6678 32.2049 58.5825 31.094 58.5825 29.745C58.5825 28.396 59.6943 27.2851 61.0444 27.2851C61.7062 27.2851 62.3415 27.5496 62.818 27.9992C63.2945 28.4753 63.5063 29.0837 63.5063 29.7185C63.5063 31.094 62.3944 32.2049 61.0444 32.2049Z" fill="white"/>
</svg>
