<svg width="512" height="127" viewBox="0 0 512 127" fill="none" xmlns="http://www.w3.org/2000/svg">
<path d="M49.3877 116.174L2.72484 69.6782C-0.90828 66.0581 -0.90828 60.1 2.72484 56.4798L49.3877 9.98378C53.0208 6.36364 59.0003 6.36364 62.6335 9.98378L109.296 56.4798C112.929 60.1 112.929 66.0581 109.296 69.6782L62.6335 116.174C61.7252 117.079 60.6655 117.758 59.568 118.211C59.5302 118.211 52.5667 118.248 52.5667 118.248C51.3935 117.796 50.296 117.079 49.3877 116.174Z" fill="#3DD33D"/>
<path d="M87.2706 43.9071C84.2052 43.9071 81.6696 46.4336 81.6696 49.4881C81.6696 51.9392 83.2969 54.1264 85.6055 54.8429V65.2131C85.6055 71.0958 81.8966 74.3388 73.5707 75.6586C72.4354 73.4715 70.0512 72.0762 66.3045 71.5106H66.2667C63.3148 71.1335 61.0819 70.2662 59.4546 68.9463V66.1935C61.0441 64.7982 63.2769 63.9309 66.3424 63.5538H66.3802C71.6407 62.7619 74.3276 60.2731 74.3276 56.2381V50.1669C76.7497 49.5635 78.6041 47.3764 78.6041 44.7367C78.6041 41.6445 76.0685 39.1179 73.0031 39.1179C69.9376 39.1179 67.402 41.6445 67.402 44.7744C67.402 47.4518 69.3321 49.7144 71.8299 50.2423V56.2759C71.8299 59.0664 70.089 60.4993 66.0017 61.1404C63.3526 61.4421 61.1954 62.1209 59.4924 63.1767V44.8498C61.536 43.6431 62.8985 41.4559 62.8985 38.9671C62.8985 35.1961 59.833 32.1039 56.0107 32.1039C52.2262 32.1039 49.1229 35.1584 49.1229 38.9671C49.1229 41.4937 50.4853 43.6808 52.5289 44.8498V60.4993C50.9773 59.7451 49.1229 59.2172 46.9279 58.9532C41.8188 58.1991 41.1754 56.0119 41.1754 54.1641V49.9029C43.6354 49.3373 45.5276 47.1124 45.5276 44.435C45.5276 41.3805 42.992 38.854 39.9265 38.854C36.8611 38.854 34.3255 41.3428 34.3255 44.3973C34.3255 47.0747 36.2177 49.2619 38.6777 49.8652V54.1264C38.6777 58.1613 41.3268 60.6125 46.5873 61.3667C49.1229 61.7438 51.053 62.3094 52.5289 63.3276V72.1139C49.0093 69.8891 44.5815 68.4184 39.0561 67.7396C30.541 66.4575 26.7565 63.2522 26.7565 57.2563V54.8806C28.9893 54.1264 30.5788 52.0524 30.5788 49.5635C30.5788 46.509 28.0432 43.9825 24.9778 43.9825C21.9123 43.9825 19.3767 46.509 19.3767 49.5635C19.3767 52.0147 20.9662 54.1264 23.1991 54.8806V57.2563C23.1991 61.6306 24.8264 65.0622 28.0811 67.4379C30.541 69.2857 33.9849 70.4924 38.5641 71.1712H38.602C44.7329 71.9631 49.2743 73.6977 52.5668 76.4128L52.5668 118.346C54.7996 119.213 57.3352 119.176 59.5681 118.308V99.5666C61.1576 98.209 63.3526 97.3794 66.3802 97.0023H66.418C71.6785 96.2104 74.3655 93.7216 74.3655 89.6866V88.7816C75.9928 88.2537 77.2039 86.7076 77.2039 84.9352C77.2039 83.1629 75.9928 81.5791 74.3655 81.0888V79.1279C78.6798 78.4114 81.9723 77.2047 84.3566 75.4324C87.6112 73.0567 89.2386 69.6251 89.2386 65.2508V54.8429C91.2822 54.051 92.8339 51.977 92.8339 49.5258C92.8339 48.0551 92.2662 46.6599 91.2444 45.5663C90.1847 44.5104 88.7844 43.9071 87.2706 43.9071ZM69.4078 44.7744C69.4078 42.8135 70.9973 41.2297 72.9274 41.2297C74.8953 41.2297 76.447 42.8135 76.447 44.7744C76.447 46.7353 74.8575 48.2814 72.9274 48.2814C71.0351 48.2814 69.4078 46.6599 69.4078 44.7744ZM39.8509 47.9043C37.9208 47.9043 36.3313 46.3205 36.3313 44.3973C36.3313 42.4364 37.9208 40.8903 39.8509 40.8903C41.7809 40.8903 43.3704 42.4741 43.3704 44.3973C43.3704 46.3205 41.7431 47.9043 39.8509 47.9043ZM24.9021 52.9951C22.972 52.9951 21.3825 51.449 21.3825 49.4881C21.3825 47.5272 22.972 45.9811 24.9021 45.9811C26.8322 45.9811 28.4217 47.5649 28.4217 49.4881C28.4217 51.4113 26.7943 52.9951 24.9021 52.9951ZM55.935 43.6808C53.2858 43.6808 51.1287 41.5314 51.1287 38.8917C51.1287 36.2143 53.2858 34.0648 55.935 34.0648C58.5841 34.0648 60.7413 36.2143 60.7413 38.854C60.7413 41.4937 58.5841 43.6808 55.935 43.6808ZM59.4167 71.9631C61.1576 72.9435 63.2769 73.6223 65.8882 73.9617C68.3103 74.3388 69.9376 74.9799 70.8081 76.0734C66.2667 76.9031 62.4443 78.2983 59.4167 80.2969V71.9631ZM71.7542 81.0888C70.1269 81.6168 68.9158 83.1629 68.9158 84.9352C68.9158 86.783 70.1269 88.2914 71.7542 88.7816V89.6866C71.7163 92.4772 70.0133 93.9101 65.9261 94.5512C63.3148 94.8529 61.1954 95.5317 59.4924 96.5498V84.709C62.4443 82.107 66.4559 80.4101 71.7542 79.505V81.0888ZM87.2706 53.0328C85.3027 53.0328 83.7511 51.449 83.7511 49.5258C83.7511 47.6026 85.3405 46.0188 87.2706 46.0188C88.2168 46.0188 89.125 46.3959 89.8063 47.037C90.4875 47.7158 90.7902 48.5831 90.7902 49.4881C90.7902 51.449 89.2007 53.0328 87.2706 53.0328Z" fill="white"/>
<path d="M144.323 88.4193H126.024L134.477 35.856H152.428C157.55 35.856 161.801 36.9339 165.183 39.0898C168.581 41.2458 170.976 44.3342 172.368 48.3552C173.76 52.359 174.009 57.1414 173.114 62.7023C172.252 68.075 170.536 72.6863 167.967 76.5361C165.398 80.3689 162.108 83.3119 158.097 85.3651C154.086 87.4013 149.494 88.4193 144.323 88.4193ZM138.331 78.8974H144.944C148.143 78.8974 150.945 78.2814 153.348 77.0494C155.768 75.8175 157.749 73.9182 159.29 71.3516C160.848 68.7851 161.95 65.4999 162.597 61.496C163.21 57.6975 163.169 54.6176 162.473 52.2563C161.793 49.878 160.475 48.1413 158.519 47.0462C156.564 45.934 153.994 45.3779 150.812 45.3779H143.726L138.331 78.8974Z" fill="white"/>
<path d="M194.067 89.1893C190.155 89.1893 186.915 88.368 184.345 86.7254C181.776 85.0657 179.97 82.7215 178.925 79.693C177.898 76.6473 177.724 73.0456 178.403 68.8877C179.066 64.8325 180.401 61.2736 182.406 58.2108C184.428 55.148 186.964 52.7611 190.014 51.0501C193.064 49.339 196.462 48.4835 200.208 48.4835C202.727 48.4835 205.006 48.9027 207.045 49.7411C209.1 50.5624 210.808 51.8115 212.167 53.4883C213.526 55.148 214.454 57.2269 214.951 59.7251C215.465 62.2232 215.457 65.1491 214.927 68.5027L214.454 71.5056H182.232L183.252 64.7299H205.528C205.777 63.1557 205.678 61.7612 205.23 60.5464C204.783 59.3315 204.037 58.3819 202.992 57.6975C201.948 56.9959 200.664 56.6452 199.139 56.6452C197.581 56.6452 196.122 57.0387 194.763 57.8258C193.404 58.6129 192.26 59.6481 191.332 60.9314C190.42 62.1975 189.832 63.5749 189.567 65.0635L188.398 71.788C188.067 73.8583 188.133 75.5779 188.597 76.9468C189.078 78.3156 189.906 79.3422 191.083 80.0266C192.26 80.694 193.752 81.0276 195.559 81.0276C196.735 81.0276 197.838 80.8565 198.865 80.5143C199.91 80.1721 200.838 79.6673 201.65 79C202.462 78.3156 203.125 77.4686 203.639 76.4591L213.31 77.1264C212.415 79.5561 211.056 81.6778 209.233 83.4915C207.41 85.2881 205.214 86.6912 202.644 87.7007C200.092 88.6931 197.233 89.1893 194.067 89.1893Z" fill="white"/>
<path d="M259.617 48.9968L239.901 88.4193H227.967L220.981 48.9968H231.771L235.152 77.2034H235.55L248.006 48.9968H259.617Z" fill="white"/>
<path d="M258.871 88.4193L267.325 35.856H287.414C291.259 35.856 294.417 36.6174 296.886 38.1402C299.373 39.6459 301.113 41.742 302.107 44.4283C303.119 47.0975 303.351 50.1774 302.804 53.668C302.24 57.1756 301.014 60.264 299.124 62.9333C297.251 65.5854 294.814 67.6558 291.814 69.1444C288.814 70.633 285.35 71.3773 281.422 71.3773H268.617L270.035 62.4713H281.099C283.187 62.4713 284.969 62.1034 286.444 61.3677C287.936 60.6148 289.121 59.5796 289.999 58.2621C290.878 56.9275 291.45 55.3961 291.715 53.668C291.997 51.9056 291.905 50.3742 291.441 49.0738C290.977 47.7734 290.124 46.7639 288.881 46.0452C287.654 45.3095 286.005 44.9416 283.933 44.9416H276.673L269.637 88.4193H258.871Z" fill="white"/>
<path d="M304.202 88.4193L312.655 35.856H332.744C336.59 35.856 339.756 36.5575 342.242 37.9605C344.745 39.3636 346.502 41.357 347.513 43.9407C348.541 46.5072 348.781 49.5358 348.234 53.0263C347.67 56.5169 346.452 59.5112 344.579 62.0093C342.723 64.5074 340.303 66.4324 337.319 67.7841C334.352 69.1187 330.913 69.786 327.001 69.786H313.551L315.042 60.8544H326.728C328.783 60.8544 330.54 60.5635 331.999 59.9817C333.457 59.4 334.609 58.5273 335.454 57.3638C336.316 56.2003 336.88 54.7545 337.145 53.0263C337.427 51.2639 337.327 49.7924 336.847 48.6118C336.366 47.4141 335.496 46.5072 334.236 45.8912C332.977 45.2582 331.319 44.9416 329.264 44.9416H322.004L314.968 88.4193H304.202ZM335.529 64.4989L344.355 88.4193H332.471L323.918 64.4989H335.529Z" fill="white"/>
<path d="M397.678 69.7838C396.308 70.2376 395.539 71.3243 395.396 73.1399C394.893 79.9634 393.738 85.6507 391.928 90.2028C390.398 94.0377 387.574 96.9487 383.482 99.0301C378.479 101.414 375.075 101.812 373.124 100.065C371.17 98.3192 370.006 93.9194 369.537 86.8968L369.727 81.0092L370.174 68.1706L370.831 55.3661C370.775 55.1773 370.743 55.0833 370.806 54.9585L370.965 54.1776C371.29 52.3016 371.917 50.4298 372.821 48.4667C374.34 45.5716 376.58 43.3741 379.509 42.0933C381.341 41.1751 383.164 40.8836 384.922 41.0299C387.286 41.1839 388.611 42.2018 388.801 44.1153C388.989 46.3419 390.131 47.4203 392.287 47.2267C394.504 47.2217 395.546 46.0443 395.391 43.9117C394.953 39.5835 392.831 36.6449 388.871 35.2502C385.365 34.0182 381.57 34.1294 377.487 35.5845C370.994 38.0445 366.717 43.4127 364.773 51.754C364.516 52.8787 364.299 56.0714 364.059 61.4561L363.137 81.2128C362.487 95.9913 365.363 104.609 371.86 107.036C375.851 108.525 380.438 108.047 385.441 105.664C390.079 103.401 393.572 100.373 396.012 96.5487C399.069 91.7923 400.94 84.8282 401.802 75.5971L407.557 73.6928C409.66 72.997 410.312 71.5328 409.641 69.3629C408.966 67.1935 407.638 66.4882 405.539 67.1835L397.678 69.7838ZM423.79 48.4539C426.422 46.2301 428.551 45.9423 430.354 47.5301C430.624 47.7525 430.761 49.1637 430.823 51.6396C430.854 51.7336 430.911 51.9224 430.848 52.0472L430.754 52.3905C427.948 53.7352 424.23 55.0694 419.54 56.5169C420.128 52.89 421.584 50.1194 423.79 48.4539ZM436.225 73.2569C436.197 73.1624 436.197 73.1624 436.197 73.1624L436.394 68.9362C436.363 69.1547 436.454 69.1245 436.457 68.8114C436.66 64.2713 436.738 59.9804 436.845 56.097C441.699 53.2418 445.444 49.715 448.159 45.4874C449.242 43.7769 448.861 42.5509 447.052 41.5892C445.24 40.6281 443.841 40.9869 442.758 42.6974C441.248 44.9658 439.282 47.0725 436.894 48.7988C436.511 45.2853 435.021 42.7612 432.275 41.3813C428.321 39.3609 424.216 40.0949 419.959 43.5841C415.52 47.1334 413.268 52.8712 413.027 60.8563C413.019 61.7959 413.494 62.6785 414.397 63.3161C415.272 63.8591 416.117 63.9949 417.032 63.6924C423.061 62.0099 427.631 60.498 430.739 59.1572L430.613 62.3196C430.552 65.0442 430.366 68.018 430.24 71.1805C429.918 75.6563 429.028 79.2793 427.783 82.0841C425.916 86.1341 423.289 87.7318 419.962 86.7524C418.87 86.4889 418.278 85.2285 418.21 83.0666C418.096 82.3758 418.227 81.5003 418.422 80.5001L418.536 78.5903C418.614 74.2995 418.68 70.9488 418.828 68.507C418.911 66.5029 417.983 65.458 416.009 65.5911C413.943 65.7545 412.841 66.7437 412.667 68.7777C412.267 74.6312 412.237 80.0501 412.484 85.0655C412.651 89.1711 414.895 91.8609 419.191 93.04C422.974 94.1811 426.689 92.8475 430.345 89.0379C433.659 85.7567 435.569 80.548 436.254 73.3515C436.254 73.3515 436.254 73.3515 436.225 73.2569ZM474.962 67.0972C474.461 68.7197 473.415 69.8977 471.799 70.5364C470.548 71.0541 468.842 71.723 466.711 72.3239L467.357 57.8589C467.629 52.5678 467.804 47.9331 467.851 43.8611C467.934 38.9441 467.667 35.808 466.895 34.295C465.648 31.8994 463.691 30.4663 460.842 30.0564C458.418 29.7146 455.954 30.2176 453.421 31.4719C451.928 32.174 450.612 33.1296 449.503 34.4325C448.635 33.5758 447.543 33.3124 446.173 33.7661C444.803 34.2195 444.002 35.2126 443.985 36.7785C443.721 46.9563 443.244 62.301 442.559 82.8116C442.505 84.91 443.524 85.925 445.621 85.8557C447.687 85.6923 448.67 84.6388 448.753 82.635L449.129 67.9472C449.444 61.4979 449.559 56.6749 449.656 53.4179C449.659 53.1048 449.75 53.0745 449.687 53.1994C450.068 43.7115 452.679 38.1667 457.676 36.4093C459.593 35.7749 460.836 36.1964 461.365 37.5812C461.63 38.4301 461.704 39.9658 461.738 42.347C461.647 50.1783 461.278 61.6392 460.411 76.6968C460.362 78.1691 460.961 79.1155 462.382 79.4774C462.986 79.7977 463.684 79.775 464.507 79.5027C471.573 77.2689 475.901 75.6289 477.305 74.6436C480.211 72.6419 481.502 68.3658 481.396 61.8479C481.356 59.7803 480.337 58.7656 478.362 58.8988C476.269 58.9676 475.194 60.051 475.322 62.0889C475.327 64.3759 475.247 66.0667 474.962 67.0972ZM482.792 5.52616C480.305 8.2217 478.675 13.0263 477.87 19.8461L477.279 23.7861C477.185 23.8169 477.185 23.8169 477.185 23.8169C471.59 24.9403 468.296 26.3421 467.364 28.2106C466.435 30.0785 466.936 31.3692 468.745 32.3305C470.557 33.2917 471.864 32.9631 472.796 31.0943C472.642 31.2493 472.853 31.2834 473.312 31.1321C473.95 30.9204 475.075 30.6523 476.659 30.2321L476.842 30.172C476.961 30.236 476.961 30.236 476.961 30.236L476.597 41.0708C476.448 46.4257 476.348 49.9954 476.205 51.811C476.15 53.9094 476.024 57.0718 476.009 61.2378L475.691 70.6009C475.456 77.9602 474.933 84.0624 474.303 88.8479C473.732 93.8221 473.336 96.7618 473.11 97.668C472.223 100.978 470.471 103.119 467.941 104.059C466.052 104.789 465.459 106.129 466.074 108.11C466.689 110.091 467.897 110.732 469.786 110.003C473.868 108.547 476.726 105.417 478.388 100.707C479.546 97.6195 480.356 93.0866 480.787 87.0146C480.972 86.6411 481.069 86.2972 481.072 85.9841C481.871 76.8775 485.263 69.3058 491.313 63.1437C492.999 61.441 495.114 59.8057 497.741 58.2081C498.749 57.5626 499.541 57.1962 500.151 56.8903C501.952 56.191 502.513 54.7567 501.898 52.7756C501.374 50.7645 500.166 50.1236 498.278 50.853C491.599 53.6866 486.114 58.4142 481.851 65.1299C482.02 60.8088 482.026 57.5823 482.109 55.5782C482.531 45.2451 482.868 36.6033 483.22 29.6214C483.192 29.5272 483.223 29.3083 483.197 28.9007C483.289 28.8708 483.38 28.8406 483.594 28.8741C483.776 28.8137 483.958 28.7532 484.081 28.817C489.858 27.6331 493.066 25.6353 493.887 22.7633C494.609 20.8607 493.954 19.7251 491.894 19.2619C489.929 18.7684 488.615 19.4109 488.108 21.3471C488.205 21.0032 488.173 20.9092 487.9 20.9999C487.9 20.9999 487.809 21.0301 487.655 21.1848C487.501 21.3399 487.319 21.4 487.227 21.4302C486.709 21.7059 485.766 21.9139 484.55 22.2126L483.544 22.5454C483.829 18.6017 484.505 15.2576 485.443 12.763C486.754 9.52048 489.962 7.52266 495.011 6.58047C496.925 6.25894 497.546 5.01321 496.931 3.03225C496.316 1.0513 495.052 0.221564 493.138 0.543089C488.664 1.39862 485.157 3.07938 482.792 5.52616Z" fill="#3DD33D"/>
</svg>
