<svg width="2499" height="681" viewBox="0 0 2499 681" fill="none" xmlns="http://www.w3.org/2000/svg">
  <path
    d="M2108.92 330.603H2015.86L2062.41 249.881C2068.08 240.065 2071.06 228.932 2071.06 217.6C2071.06 206.268 2068.08 195.136 2062.41 185.319L2043.78 153.078L1960 298.335C1954.31 308.149 1951.31 319.287 1951.29 330.629C1951.28 341.972 1954.25 353.117 1959.92 362.945C1965.58 372.772 1973.73 380.934 1983.55 386.608C1993.37 392.283 2004.52 395.271 2015.86 395.27H2183.6L2164.96 363.002C2159.3 353.146 2151.14 344.959 2141.3 339.27C2131.45 333.581 2120.28 330.591 2108.92 330.603Z"
    fill="url(#paint0_linear_867_62399)" />
  <path
    d="M2295.38 169.214C2289.77 159.36 2281.63 151.177 2271.81 145.502C2261.99 139.828 2250.84 136.866 2239.5 136.92H2071.67L2090.31 169.214C2095.98 179.017 2104.12 187.158 2113.92 192.821C2123.73 198.485 2134.85 201.471 2146.17 201.481H2239.28L2192.73 282.177C2187.07 291.993 2184.09 303.126 2184.09 314.458C2184.09 325.79 2187.07 336.922 2192.73 346.739L2211.34 379.006L2295.15 233.723C2300.9 223.958 2303.96 212.836 2304 201.5C2304.04 190.164 2301.07 179.021 2295.38 169.214Z"
    fill="url(#paint1_linear_867_62399)" />
  <path d="M433 315.448L342.63 536.603H285.001L195 315.448H261.539L313.763 468.693L365.881 315.448H433Z" fill="white" />
  <path
    d="M520.386 209.389C524.102 213.123 527.017 217.577 528.953 222.477C530.888 227.377 531.804 232.621 531.643 237.887C531.76 243.061 530.822 248.204 528.887 253.004C526.952 257.804 524.059 262.159 520.386 265.805C514.888 271.132 507.977 274.769 500.474 276.284C492.97 277.8 485.189 277.13 478.055 274.354C470.921 271.578 464.733 266.813 460.227 260.624C455.721 254.436 453.086 247.084 452.635 239.442C452.635 238.862 452.635 238.282 452.635 237.702C452.477 232.448 453.394 227.218 455.33 222.331C457.265 217.444 460.179 213.004 463.891 209.283C467.541 205.608 471.901 202.715 476.705 200.78C481.509 198.844 486.657 197.908 491.836 198.027C497.119 197.861 502.381 198.785 507.292 200.739C512.204 202.694 516.661 205.638 520.386 209.389ZM462.204 315.445H521.098V536.6H462.204V315.445Z"
    fill="white" />
  <path d="M788.816 315.448L698.313 536.603H640.843L550.895 315.448H617.381L669.526 468.693L721.723 315.448H788.816Z"
    fill="white" />
  <path
    d="M842.441 530.011C825.982 520.506 812.625 506.443 803.978 489.518C794.575 471.838 789.865 450.686 789.848 426.064C789.83 401.441 794.54 380.29 803.978 362.609C812.657 345.709 826.043 331.682 842.52 322.222C858.803 312.95 877.245 308.14 895.983 308.276C913.206 308.276 927.952 311.624 940.219 318.32C952.393 324.927 962.565 334.689 969.666 346.581H970.641V315.447H1029.3V536.602H970.852V505.441H969.903C962.814 517.353 952.629 527.119 940.43 533.702C928.128 540.433 913.391 543.79 896.22 543.772C877.397 543.985 858.849 539.239 842.441 530.011ZM954.244 471.091C965.264 459.614 970.773 444.605 970.773 426.064C970.773 407.522 965.264 392.522 954.244 381.063C943.26 369.604 928.813 363.857 910.904 363.822C892.995 363.787 878.549 369.534 867.564 381.063C856.562 392.557 851.061 407.557 851.061 426.064C851.061 444.57 856.562 459.579 867.564 471.091C878.584 482.585 893.03 488.332 910.904 488.332C928.778 488.332 943.225 482.62 954.244 471.196V471.091Z"
    fill="white" />
  <path
    d="M1415.21 315.448L1338.08 536.603H1285.9L1235.13 392.058L1184.38 536.682H1132.16L1055.07 315.554H1116.37L1159 460.547L1207.34 315.554H1262.92L1311.29 461.628L1353.92 315.554L1415.21 315.448Z"
    fill="white" />
  <path
    d="M1610.12 339.146C1628.94 359.761 1638.36 388.901 1638.38 426.564V438.058H1473.11C1474.64 454.983 1481.1 468.164 1492.49 477.602C1503.88 487.039 1518.16 491.749 1535.35 491.732C1559.29 491.732 1581.32 481.644 1601.44 461.468L1631.13 504.096C1618.75 515.581 1604.75 525.191 1589.58 532.62C1574.26 540.107 1556.21 543.85 1535.46 543.85C1511.52 543.85 1490.62 538.991 1472.74 529.272C1455.17 519.851 1440.7 505.551 1431.06 488.094C1420.87 469.207 1415.75 447.995 1416.22 426.537C1415.8 405.074 1420.74 383.846 1430.59 364.77C1439.75 347.323 1453.7 332.86 1470.82 323.091C1487.99 313.214 1508.07 308.275 1531.06 308.275C1564.92 308.275 1591.28 318.566 1610.12 339.146ZM1492.04 366.695C1482.62 374.059 1476.79 385.227 1474.56 400.201H1579.04C1578.09 386.247 1573.06 375.315 1563.96 367.406C1554.85 359.498 1542.94 355.605 1528.21 355.728C1513.55 355.728 1501.48 359.339 1492.04 366.695Z"
    fill="white" />
  <path
    d="M1765.99 533.833C1753.81 527.221 1743.64 517.461 1736.52 505.572H1735.57V536.707H1676.57V201.508H1735.46V346.501H1736.41C1743.52 334.607 1753.7 324.846 1765.89 318.241C1778.22 311.597 1793 308.276 1810.23 308.276C1828.99 308.133 1847.45 312.953 1863.74 322.248C1880.24 331.73 1893.63 345.784 1902.31 362.714C1911.75 380.447 1916.47 401.599 1916.47 426.169C1916.47 450.739 1911.76 471.89 1902.34 489.623C1893.65 506.557 1880.25 520.612 1863.74 530.09C1847.44 539.371 1828.98 544.191 1810.23 544.062C1794.86 544.372 1779.66 540.857 1765.99 533.833ZM1838.78 470.985C1849.8 459.526 1855.31 444.517 1855.31 425.958C1855.31 407.399 1849.8 392.39 1838.78 380.931C1827.76 369.402 1813.31 363.637 1795.44 363.637C1777.56 363.637 1763.12 369.375 1752.1 380.852C1741.08 392.346 1735.57 407.355 1735.57 425.879C1735.57 444.403 1741.08 459.412 1752.1 470.906C1763.12 482.4 1777.56 488.147 1795.44 488.147C1813.31 488.147 1827.76 482.47 1838.78 471.117V470.985Z"
    fill="white" />
  <defs>
    <linearGradient id="paint0_linear_867_62399" x1="1958.3" y1="336.807" x2="2111.65" y2="248.281"
      gradientUnits="userSpaceOnUse">
      <stop stop-color="#0064FF" />
      <stop offset="1" stop-color="#00C8FF" />
    </linearGradient>
    <linearGradient id="paint1_linear_867_62399" x1="2139.36" y1="232.203" x2="2292.81" y2="143.605"
      gradientUnits="userSpaceOnUse">
      <stop stop-color="#00C8FF" />
      <stop offset="1" stop-color="#0064FF" />
    </linearGradient>
  </defs>
</svg>
