<svg width="128" height="128" viewBox="0 0 128 128" fill="none" xmlns="http://www.w3.org/2000/svg">
  <g clip-path="url(#clip0_1011_72692)">
    <path
      d="M57.416 115.758L11.9074 70.2856C8.36419 66.7451 8.36419 60.9182 11.9074 57.3777L57.416 11.9053C60.9592 8.36489 66.7908 8.36489 70.334 11.9053L115.843 57.3777C119.386 60.9182 119.386 66.7451 115.843 70.2856L70.334 115.758C69.4482 116.643 68.4148 117.307 67.3444 117.749C67.3075 117.749 60.5163 117.786 60.5163 117.786C59.3721 117.344 58.3018 116.643 57.416 115.758Z"
      fill="#4CAF50" />
    <path
      d="M94.3618 45.0819C91.3722 45.0819 88.8993 47.5528 88.8993 50.54C88.8993 52.9372 90.4864 55.0762 92.7378 55.7769V65.9188C92.7378 71.672 89.1208 74.8436 81.0008 76.1344C79.8936 73.9954 77.5683 72.6309 73.9144 72.0777H73.8774C70.9986 71.7089 68.8209 70.8606 67.2339 69.5699V66.8776C68.784 65.5131 70.9617 64.6649 73.9513 64.2961H73.9882C79.1185 63.5216 81.739 61.0876 81.739 57.1415V51.2039C84.1012 50.6138 85.9097 48.4748 85.9097 45.8932C85.9097 42.8691 83.4368 40.3982 80.4472 40.3982C77.4576 40.3982 74.9847 42.8691 74.9847 45.9301C74.9847 48.5485 76.8671 50.7613 79.303 51.2776V57.1783C79.303 59.9074 77.6052 61.3088 73.6191 61.9358C71.0355 62.2308 68.9317 62.8947 67.2708 63.9273V46.0038C69.2638 44.8237 70.5926 42.6847 70.5926 40.2506C70.5926 36.5627 67.603 33.5386 63.8752 33.5386C60.1843 33.5386 57.1578 36.5258 57.1578 40.2506C57.1578 42.7216 58.4865 44.8606 60.4796 46.0038V61.3088C58.9663 60.5712 57.1578 60.0549 55.0171 59.7968C50.0344 59.0592 49.4069 56.9202 49.4069 55.1131V50.9457C51.806 50.3925 53.6514 48.2166 53.6514 45.5982C53.6514 42.6109 51.1785 40.14 48.1889 40.14C45.1993 40.14 42.7264 42.5741 42.7264 45.5613C42.7264 48.1797 44.5719 50.3187 46.9709 50.9088V55.0762C46.9709 59.0223 49.5546 61.4195 54.6849 62.1571C57.1578 62.5259 59.0401 63.0791 60.4796 64.0748V72.6677C57.047 70.4918 52.7287 69.0535 47.34 68.3897C39.0356 67.1358 35.3447 64.001 35.3447 58.1372V55.8138C37.5223 55.0762 39.0725 53.0478 39.0725 50.6138C39.0725 47.6265 36.5996 45.1556 33.61 45.1556C30.6203 45.1556 28.1475 47.6265 28.1475 50.6138C28.1475 53.011 29.6976 55.0762 31.8752 55.8138V58.1372C31.8752 62.4152 33.4623 65.7713 36.6365 68.0947C39.0356 69.9018 42.3943 71.0819 46.8602 71.7457H46.8971C52.8763 72.5202 57.3054 74.2167 60.5165 76.872L60.5165 117.882C62.6941 118.73 65.167 118.693 67.3446 117.845L67.3446 99.516C68.8948 98.1883 71.0355 97.377 73.9882 97.0082H74.0251C79.1554 96.2337 81.7759 93.7997 81.7759 89.8536V88.9685C83.363 88.4521 84.5441 86.9401 84.5441 85.2068C84.5441 83.4734 83.363 81.9245 81.7759 81.445V79.5273C85.9835 78.8266 89.1946 77.6465 91.5198 75.9131C94.694 73.5897 96.2811 70.2337 96.2811 65.9557V55.7769C98.2742 55.0024 99.7874 52.9741 99.7874 50.5769C99.7874 49.1386 99.2338 47.7741 98.2372 46.7046C97.2038 45.6719 95.8382 45.0819 94.3618 45.0819ZM76.9409 45.9301C76.9409 44.0124 78.491 42.4634 80.3734 42.4634C82.2927 42.4634 83.8059 44.0124 83.8059 45.9301C83.8059 47.8478 82.2557 49.3599 80.3734 49.3599C78.528 49.3599 76.9409 47.7741 76.9409 45.9301ZM48.1151 48.9911C46.2328 48.9911 44.6826 47.4421 44.6826 45.5613C44.6826 43.6436 46.2328 42.1315 48.1151 42.1315C49.9975 42.1315 51.5476 43.6804 51.5476 45.5613C51.5476 47.4421 49.9606 48.9911 48.1151 48.9911ZM33.5361 53.9698C31.6538 53.9698 30.1036 52.4578 30.1036 50.54C30.1036 48.6223 31.6538 47.1102 33.5361 47.1102C35.4185 47.1102 36.9687 48.6592 36.9687 50.54C36.9687 52.4209 35.3816 53.9698 33.5361 53.9698ZM63.8013 44.8606C61.2177 44.8606 59.1139 42.7584 59.1139 40.1769C59.1139 37.5584 61.2177 35.4563 63.8013 35.4563C66.385 35.4563 68.4888 37.5584 68.4888 40.14C68.4888 42.7216 66.385 44.8606 63.8013 44.8606ZM67.197 72.5202C68.8948 73.4791 70.9617 74.1429 73.5084 74.4748C75.8705 74.8436 77.4576 75.4706 78.3065 76.5401C73.8774 77.3514 70.1497 78.716 67.197 80.6706V72.5202ZM79.2292 81.445C77.6421 81.9614 76.4611 83.4734 76.4611 85.2068C76.4611 87.0139 77.6421 88.489 79.2292 88.9685V89.8536C79.1923 92.5827 77.5314 93.9841 73.5453 94.611C70.9986 94.9061 68.9317 95.5699 67.2708 96.5656V84.9855C70.1497 82.4408 74.062 80.7812 79.2292 79.8961V81.445ZM94.3618 54.0067C92.4426 54.0067 90.9293 52.4578 90.9293 50.5769C90.9293 48.6961 92.4795 47.1471 94.3618 47.1471C95.2845 47.1471 96.1704 47.5159 96.8347 48.1429C97.4991 48.8067 97.7943 49.6549 97.7943 50.54C97.7943 52.4578 96.2442 54.0067 94.3618 54.0067Z"
      fill="white" />
  </g>
  <defs>
    <clipPath id="clip0_1011_72692">
      <rect width="128" height="128" fill="white" />
    </clipPath>
  </defs>
</svg>
