<svg viewBox="0 0 145 145" fill="none" xmlns="http://www.w3.org/2000/svg">
<g clip-path="url(#clip0_543_33138)">
<path d="M45.2344 75.056C45.2344 86.864 38.7554 87.169 39.2164 94.988C39.7294 103.647 46.4974 103.667 46.4974 109.62C46.4974 115.571 40.2734 122.244 45.7874 128.653C70.0314 128.653 72.3974 128.653 72.3974 128.653V56.445L45.2344 75.056Z" fill="#262421"/>
<path d="M99.538 74.665C99.538 86.473 106.018 86.778 105.556 94.597C105.044 103.256 98.276 103.276 98.276 109.229C98.276 115.18 104.499 121.853 98.986 128.262C74.741 128.262 72.375 128.262 72.375 128.262V56.055L99.538 74.665Z" fill="#262421"/>
<path d="M72.3874 92.549C88.7544 92.549 102.022 79.1946 102.022 62.721C102.022 46.2475 88.7544 32.893 72.3874 32.893C56.0205 32.893 42.7524 46.2475 42.7524 62.721C42.7524 79.1946 56.0205 92.549 72.3874 92.549Z" fill="#262421"/>
<path d="M107.053 116.94C102.387 108.107 72.3872 102.564 72.3872 102.564C72.3872 102.564 42.3872 108.107 37.7212 116.94C34.2722 129.198 31.3872 144.773 31.3872 144.773H72.3872H113.387C113.387 144.773 111.438 128.073 107.053 116.94Z" fill="#F1C9A5"/>
<path d="M72.3872 102.564C72.3872 102.564 102.387 108.107 107.053 116.94C111.439 128.073 113.387 144.773 113.387 144.773H72.3872V102.564Z" fill="#E4B692"/>
<path d="M80.5542 84.606H64.2202V111.942H80.5542V84.606Z" fill="#F1C9A5"/>
<path d="M80.5542 84.606H72.3872V111.942H80.5542V84.606Z" fill="#E4B692"/>
<path opacity="0.1" d="M64.2202 97.273C65.6892 101.49 71.6172 103.907 75.9712 103.907C77.5462 103.907 79.0792 103.643 80.5542 103.16V84.606H64.2202V97.273Z" fill="#DDAC8C"/>
<path d="M93.3872 67.357C93.3872 50.283 83.9852 40.574 72.3872 40.574C60.7892 40.574 51.3872 50.283 51.3872 67.357C51.3872 84.431 60.7892 98.274 72.3872 98.274C83.9842 98.274 93.3872 84.432 93.3872 67.357Z" fill="#F1C9A5"/>
<path d="M90.19 79.195C86.383 78.771 83.813 74.412 84.458 69.463C85.095 64.51 88.7 60.833 92.509 61.254C96.314 61.676 98.88 66.033 98.238 70.986C97.599 75.939 93.997 79.613 90.19 79.195Z" fill="#E4B692"/>
<path d="M46.6851 70.986C46.0421 66.033 48.6091 61.675 52.4121 61.254C56.2221 60.833 59.8281 64.51 60.4671 69.463C61.1091 74.412 58.5371 78.772 54.7331 79.195C50.9251 79.613 47.3231 75.939 46.6851 70.986Z" fill="#F1C9A5"/>
<path d="M93.3872 67.357C93.3872 50.283 83.9852 40.574 72.3872 40.574V98.274C83.9842 98.274 93.3872 84.432 93.3872 67.357Z" fill="#E4B692"/>
<path d="M95.1203 65.43C95.1203 65.379 95.1233 65.33 95.1233 65.28C95.1233 52.035 86.1563 38.058 73.6053 38.058C61.0543 38.058 49.6743 52.034 49.6743 65.279C49.6743 65.33 49.6773 65.379 49.6773 65.429H95.1203V65.43Z" fill="url(#paint0_linear_543_33138)"/>
<path d="M113.387 144.773C113.387 144.773 111.439 128.073 107.053 116.94C104.494 112.095 94.3192 108.244 85.6472 105.751L72.3562 116.183L58.5312 105.923C49.9962 108.42 40.2212 112.207 37.7212 116.941C34.2722 129.199 31.3872 144.774 31.3872 144.774H72.3872H113.387V144.773Z" fill="#4CAF50"/>
</g>
<defs>
<linearGradient id="paint0_linear_543_33138" x1="72.3988" y1="38.058" x2="72.3988" y2="65.43" gradientUnits="userSpaceOnUse">
<stop stop-color="#262421"/>
<stop offset="0.192708" stop-color="#262421"/>
<stop offset="0.546875" stop-color="#262421"/>
<stop offset="1" stop-color="#262421" stop-opacity="0.96"/>
</linearGradient>
<clipPath id="clip0_543_33138">
<rect width="144.773" height="144.773" fill="white"/>
</clipPath>
</defs>
</svg>
