<svg width="512" height="512" viewBox="0 0 512 512" fill="none" xmlns="http://www.w3.org/2000/svg">
  <rect width="512" height="512" fill="white" />
  <circle cx="255" cy="255" r="74" fill="white" />
  <g style="mix-blend-mode:luminosity">
    <path
      d="M248.905 311.062L198.919 262.792C195.027 259.033 195.027 252.848 198.919 249.089L248.905 200.819C252.797 197.06 259.203 197.06 263.095 200.819L313.081 249.089C316.973 252.848 316.973 259.033 313.081 262.792L263.095 311.062C262.122 312.002 260.986 312.707 259.811 313.176C259.77 313.176 252.311 313.216 252.311 313.216C251.054 312.746 249.878 312.002 248.905 311.062Z"
      fill="black" />
    <path
      d="M289.487 236.037C286.203 236.037 283.487 238.66 283.487 241.831C283.487 244.376 285.23 246.646 287.703 247.39V258.156C287.703 264.263 283.73 267.63 274.811 269C273.595 266.73 271.041 265.281 267.027 264.694H266.987C263.824 264.302 261.433 263.402 259.689 262.032V259.174C261.392 257.725 263.784 256.825 267.068 256.433H267.108C272.743 255.611 275.622 253.028 275.622 248.839V242.536C278.216 241.909 280.203 239.639 280.203 236.898C280.203 233.688 277.487 231.065 274.203 231.065C270.919 231.065 268.203 233.688 268.203 236.937C268.203 239.717 270.27 242.066 272.946 242.614V248.878C272.946 251.775 271.081 253.262 266.703 253.928C263.865 254.241 261.554 254.946 259.73 256.042V237.016C261.919 235.763 263.378 233.492 263.378 230.908C263.378 226.993 260.095 223.783 256 223.783C251.946 223.783 248.622 226.954 248.622 230.908C248.622 233.531 250.081 235.802 252.27 237.016V253.262C250.608 252.479 248.622 251.931 246.27 251.657C240.797 250.874 240.108 248.604 240.108 246.685V242.262C242.743 241.674 244.77 239.365 244.77 236.585C244.77 233.414 242.054 230.791 238.77 230.791C235.487 230.791 232.77 233.375 232.77 236.546C232.77 239.325 234.797 241.596 237.433 242.222V246.646C237.433 250.835 240.27 253.38 245.905 254.163C248.622 254.554 250.689 255.142 252.27 256.199V265.32C248.5 263.011 243.757 261.484 237.838 260.779C228.716 259.448 224.662 256.12 224.662 249.896V247.429C227.054 246.646 228.757 244.493 228.757 241.909C228.757 238.738 226.041 236.115 222.757 236.115C219.473 236.115 216.757 238.738 216.757 241.909C216.757 244.454 218.46 246.646 220.851 247.429V249.896C220.851 254.437 222.595 257.999 226.081 260.466C228.716 262.384 232.405 263.637 237.311 264.342H237.351C243.919 265.164 248.784 266.965 252.311 269.783V313.317C254.703 314.217 257.419 314.178 259.811 313.278V293.821C261.514 292.411 263.865 291.55 267.108 291.159H267.149C272.784 290.337 275.662 287.753 275.662 283.564V282.624C277.405 282.076 278.703 280.471 278.703 278.631C278.703 276.791 277.405 275.147 275.662 274.638V272.602C280.284 271.858 283.811 270.605 286.365 268.765C289.851 266.299 291.595 262.736 291.595 258.195V247.39C293.784 246.568 295.446 244.415 295.446 241.87C295.446 240.343 294.838 238.895 293.743 237.759C292.608 236.663 291.108 236.037 289.487 236.037ZM270.351 236.937C270.351 234.902 272.054 233.257 274.122 233.257C276.23 233.257 277.892 234.902 277.892 236.937C277.892 238.973 276.189 240.578 274.122 240.578C272.095 240.578 270.351 238.895 270.351 236.937ZM238.689 240.187C236.622 240.187 234.919 238.542 234.919 236.546C234.919 234.51 236.622 232.905 238.689 232.905C240.757 232.905 242.46 234.549 242.46 236.546C242.46 238.542 240.716 240.187 238.689 240.187ZM222.676 245.472C220.608 245.472 218.905 243.867 218.905 241.831C218.905 239.795 220.608 238.19 222.676 238.19C224.743 238.19 226.446 239.834 226.446 241.831C226.446 243.828 224.703 245.472 222.676 245.472ZM255.919 235.802C253.081 235.802 250.77 233.57 250.77 230.83C250.77 228.05 253.081 225.819 255.919 225.819C258.757 225.819 261.068 228.05 261.068 230.791C261.068 233.531 258.757 235.802 255.919 235.802ZM259.649 265.164C261.514 266.182 263.784 266.886 266.581 267.239C269.176 267.63 270.919 268.296 271.851 269.431C266.987 270.292 262.892 271.741 259.649 273.816V265.164ZM272.865 274.638C271.122 275.186 269.824 276.791 269.824 278.631C269.824 280.549 271.122 282.115 272.865 282.624V283.564C272.824 286.461 271 287.948 266.622 288.614C263.824 288.927 261.554 289.632 259.73 290.689V278.396C262.892 275.695 267.189 273.933 272.865 272.994V274.638ZM289.487 245.511C287.378 245.511 285.716 243.867 285.716 241.87C285.716 239.873 287.419 238.229 289.487 238.229C290.5 238.229 291.473 238.621 292.203 239.286C292.933 239.991 293.257 240.891 293.257 241.831C293.257 243.867 291.554 245.511 289.487 245.511Z"
      fill="white" />
  </g>
  <path fill-rule="evenodd" clip-rule="evenodd"
    d="M42 86.5V132H87.5H133V86.5V41H87.5H42V86.5ZM159 54V67H152.5H146V80V93H152.5H159V106V119H152.5H146V125.5V132H152.5H159V125.5V119H165.5H172V132V145H165.5H159V158V171H152.5H146V158V145H133H120V151.5V158H126.5H133V164.5V171H120H107V184V197H100.5H94V184V171H87.5H81V184V197H74.5H68V190.5V184H61.5H55V190.5V197H48.5H42V203.5V210H48.5H55V223V236H48.5H42V255.5V275H48.5H55V281.5V288H61.5H68V294.5V301H61.5H55V307.5V314H48.5H42V340V366H55H68V359.5V353H74.5H81V346.5V340H87.5H94V346.5V353H100.5H107V359.5V366H126.5H146V379V392H152.5H159V398.5V405H152.5H146V418V431H172H198V437.5V444H191.5H185V450.5V457H172H159V463.5V470H172H185V463.5V457H198H211V463.5V470H217.5H224V463.5V457H217.5H211V450.5V444H224H237V450.5V457H250H263V444V431H256.5H250V424.5V418H269.5H289V424.5V431H282.5H276V437.5V444H282.5H289V450.5V457H282.5H276V463.5V470H289H302V463.5V457H308.5H315V463.5V470H321.5H328V463.5V457H334.5H341V463.5V470H347.5H354V463.5V457H360.5H367V463.5V470H380H393V457V444H399.5H406V457V470H425.5H445V457V444H458H471V437.5V431H464.5H458V424.5V418H464.5H471V411.5V405H464.5H458V411.5V418H451.5H445V405V392H438.5H432V385.5V379H438.5H445V366V353H438.5H432V340V327H438.5H445V333.5V340H451.5H458V353V366H464.5H471V340V314H458H445V307.5V301H438.5H432V294.5V288H451.5H471V275V262H464.5H458V268.5V275H451.5H445V262V249H438.5H432V236V223H451.5H471V197V171H464.5H458V190.5V210H445H432V203.5V197H438.5H445V190.5V184H438.5H432V190.5V197H425.5H419V184V171H432H445V158V145H432H419V151.5V158H399.5H380V177.5V197H386.5H393V203.5V210H399.5H406V203.5V197H412.5H419V203.5V210H425.5H432V216.5V223H425.5H419V229.5V236H406H393V242.5V249H386.5H380V255.5V262H373.5H367V255.5V249H360.5H354V236V223H367H380V216.5V210H367H354V203.5V197H347.5H341V203.5V210H347.5H354V216.5V223H347.5H341V262V301H347.5H354V307.5V314H367H380V320.5V327H367H354V333.5V340H360.5H367V346.5V353H360.5H354V359.5V366H341H328V372.5V379H321.5H315V385.5V392H308.5H302V385.5V379H289H276V372.5V366H269.5H263V359.5V353H282.5H302V346.5V340H276H250V353V366H243.5H237V372.5V379H250H263V385.5V392H243.5H224V385.5V379H217.5H211V366V353H217.5H224V346.5V340H211H198V359.5V379H191.5H185V372.5V366H178.5H172V320.5V275H165.5H159V268.5V262H165.5H172V249V236H165.5H159V242.5V249H133H107V242.5V236H120H133V229.5V223H139.5H146V216.5V210H139.5H133V203.5V197H126.5H120V190.5V184H126.5H133V177.5V171H139.5H146V184V197H152.5H159V203.5V210H165.5H172V197V184H165.5H159V177.5V171H172H185V164.5V158H191.5H198V164.5V171H204.5H211V164.5V158H217.5H224V151.5V145H237H250V158V171H263H276V164.5V158H282.5H289V164.5V171H295.5H302V164.5V158H308.5H315V164.5V171H334.5H354V177.5V184H360.5H367V177.5V171H360.5H354V164.5V158H360.5H367V138.5V119H360.5H354V112.5V106H360.5H367V99.5V93H347.5H328V86.5V80H347.5H367V73.5V67H360.5H354V60.5V54H360.5H367V47.5V41H360.5H354V47.5V54H347.5H341V47.5V41H328H315V47.5V54H308.5H302V47.5V41H295.5H289V47.5V54H282.5H276V47.5V41H269.5H263V47.5V54H269.5H276V60.5V67H269.5H263V80V93H256.5H250V67V41H243.5H237V47.5V54H230.5H224V47.5V41H211H198V47.5V54H191.5H185V47.5V41H172H159V54ZM380 86.5V132H425.5H471V86.5V41H425.5H380V86.5ZM120 86.5V119H87.5H55V86.5V54H87.5H120V86.5ZM185 60.5V67H191.5H198V73.5V80H191.5H185V86.5V93H191.5H198V99.5V106H191.5H185V112.5V119H191.5H198V125.5V132H204.5H211V125.5V119H217.5H224V125.5V132H217.5H211V138.5V145H198H185V151.5V158H178.5H172V151.5V145H178.5H185V132V119H178.5H172V99.5V80H178.5H185V73.5V67H178.5H172V60.5V54H178.5H185V60.5ZM224 60.5V67H217.5H211V60.5V54H217.5H224V60.5ZM341 60.5V67H334.5H328V73.5V80H321.5H315V73.5V67H321.5H328V60.5V54H334.5H341V60.5ZM458 86.5V119H425.5H393V86.5V54H425.5H458V86.5ZM68 86.5V106H87.5H107V86.5V67H87.5H68V86.5ZM406 86.5V106H425.5H445V86.5V67H425.5H406V86.5ZM237 86.5V93H230.5H224V86.5V80H230.5H237V86.5ZM315 106V119H321.5H328V112.5V106H334.5H341V112.5V119H347.5H354V138.5V158H334.5H315V151.5V145H308.5H302V151.5V158H295.5H289V151.5V145H282.5H276V151.5V158H269.5H263V151.5V145H256.5H250V138.5V132H243.5H237V125.5V119H243.5H250V112.5V106H256.5H263V99.5V93H289H315V106ZM263 112.5V119H256.5H250V125.5V132H256.5H263V125.5V119H269.5H276V125.5V132H282.5H289V138.5V145H295.5H302V138.5V132H308.5H315V125.5V119H308.5H302V125.5V132H295.5H289V125.5V119H282.5H276V112.5V106H269.5H263V112.5ZM328 125.5V132H334.5H341V125.5V119H334.5H328V125.5ZM81 151.5V158H94H107V151.5V145H94H81V151.5ZM55 164.5V171H61.5H68V164.5V158H61.5H55V164.5ZM406 177.5V184H399.5H393V177.5V171H399.5H406V177.5ZM68 203.5V210H61.5H55V203.5V197H61.5H68V203.5ZM94 203.5V210H100.5H107V203.5V197H113.5H120V203.5V210H126.5H133V216.5V223H120H107V229.5V236H100.5H94V223V210H87.5H81V203.5V197H87.5H94V203.5ZM81 255.5V262H74.5H68V255.5V249H74.5H81V255.5ZM107 262V275H113.5H120V268.5V262H126.5H133V268.5V275H126.5H120V281.5V288H126.5H133V294.5V301H139.5H146V294.5V288H152.5H159V294.5V301H152.5H146V307.5V314H152.5H159V340V366H152.5H146V353V340H139.5H133V346.5V353H120H107V346.5V340H100.5H94V333.5V327H81H68V340V353H61.5H55V333.5V314H74.5H94V307.5V301H87.5H81V294.5V288H74.5H68V281.5V275H74.5H81V281.5V288H87.5H94V268.5V249H100.5H107V262ZM432 255.5V262H425.5H419V255.5V249H425.5H432V255.5ZM406 268.5V275H419H432V281.5V288H425.5H419V294.5V301H425.5H432V307.5V314H425.5H419V307.5V301H412.5H406V294.5V288H399.5H393V275V262H399.5H406V268.5ZM367 288V301H360.5H354V288V275H360.5H367V288ZM94 294.5V301H100.5H107V294.5V288H100.5H94V294.5ZM120 307.5V314H126.5H133V320.5V327H120H107V333.5V340H120H133V333.5V327H139.5H146V320.5V314H139.5H133V307.5V301H126.5H120V307.5ZM393 307.5V314H386.5H380V307.5V301H386.5H393V307.5ZM406 333.5V340H399.5H393V333.5V327H399.5H406V333.5ZM315 346.5V353H321.5H328V346.5V340H321.5H315V346.5ZM432 359.5V366H425.5H419V359.5V353H425.5H432V359.5ZM406 385.5V405H386.5H367V385.5V366H386.5H406V385.5ZM42 424.5V470H87.5H133V424.5V379H87.5H42V424.5ZM172 385.5V392H185H198V385.5V379H204.5H211V392V405H217.5H224V411.5V418H230.5H237V411.5V405H243.5H250V411.5V418H243.5H237V424.5V431H224H211V418V405H204.5H198V411.5V418H185H172V405V392H165.5H159V385.5V379H165.5H172V385.5ZM380 385.5V392H386.5H393V385.5V379H386.5H380V385.5ZM458 385.5V392H464.5H471V385.5V379H464.5H458V385.5ZM120 424.5V457H87.5H55V424.5V392H87.5H120V424.5ZM302 398.5V405H308.5H315V398.5V392H328H341V398.5V405H347.5H354V411.5V418H360.5H367V424.5V431H360.5H354V444V457H347.5H341V450.5V444H334.5H328V450.5V457H321.5H315V450.5V444H308.5H302V437.5V431H308.5H315V437.5V444H321.5H328V424.5V405H321.5H315V411.5V418H308.5H302V411.5V405H282.5H263V398.5V392H282.5H302V398.5ZM432 398.5V405H425.5H419V398.5V392H425.5H432V398.5ZM68 424.5V444H87.5H107V424.5V405H87.5H68V424.5ZM341 424.5V431H347.5H354V424.5V418H347.5H341V424.5ZM406 424.5V431H412.5H419V424.5V418H425.5H432V424.5V431H438.5H445V437.5V444H438.5H432V450.5V457H425.5H419V450.5V444H412.5H406V437.5V431H393H380V424.5V418H393H406V424.5ZM380 450.5V457H373.5H367V450.5V444H373.5H380V450.5Z"
    fill="black" />
</svg>
