<svg viewBox="0 0 84 84" fill="none" xmlns="http://www.w3.org/2000/svg">
  <g filter="url(#filter0_f_135_10703)">
    <path d="M25.5312 26.8508L43.9525 10.5235L68.3546 13.7584L49.9333 30.0858L25.5312 26.8508Z"
      fill="url(#paint0_linear_135_10703)" />
    <path d="M76.3191 40.4104L68.3642 13.8703L68.3197 13.7247L49.9015 30.0213L58.0291 56.6054L76.3191 40.4104Z"
      fill="url(#paint1_linear_135_10703)" />
    <path d="M33.801 53.3777L25.5549 26.9266L25.5104 26.781L49.8927 29.9922L58.0203 56.5763L33.801 53.3777Z"
      fill="url(#paint2_linear_135_10703)" />
    <path d="M7.01172 43.3375L25.433 27.0101L49.835 30.2451L31.4138 46.5724L7.01172 43.3375Z"
      fill="url(#paint3_linear_135_10703)" />
    <path d="M57.7996 56.897L49.8447 30.357L49.8002 30.2114L31.382 46.508L39.5095 73.0921L57.7996 56.897Z"
      fill="url(#paint4_linear_135_10703)" />
    <path d="M15.2814 69.8643L7.03535 43.4132L6.99085 43.2677L31.3732 46.4788L39.5007 73.0629L15.2814 69.8643Z"
      fill="url(#paint5_linear_135_10703)" />
  </g>
  <defs>
    <filter id="filter0_f_135_10703" x="0.0263672" y="0.000152588" width="83.3848" height="83.5754"
      filterUnits="userSpaceOnUse" color-interpolation-filters="sRGB">
      <feFlood flood-opacity="0" result="BackgroundImageFix" />
      <feBlend mode="normal" in="SourceGraphic" in2="BackgroundImageFix" result="shape" />
      <feGaussianBlur stdDeviation="2" result="effect1_foregroundBlur_135_10703" />
    </filter>
    <linearGradient id="paint0_linear_135_10703" x1="43.4239" y1="8.31467" x2="51.0794" y2="33.3544"
      gradientUnits="userSpaceOnUse">
      <stop stop-color="#65C9E7" />
      <stop offset="1" stop-color="#CCF6FB" />
    </linearGradient>
    <linearGradient id="paint1_linear_135_10703" x1="54.9743" y1="8.60399" x2="73.6677" y2="69.7476"
      gradientUnits="userSpaceOnUse">
      <stop stop-color="#3EA4CF" />
      <stop offset="1" stop-color="#65C9E7" />
    </linearGradient>
    <linearGradient id="paint2_linear_135_10703" x1="27.8751" y1="10.0438" x2="37.9905" y2="67.6017"
      gradientUnits="userSpaceOnUse">
      <stop stop-color="#65C9E7" />
      <stop offset="1" stop-color="#0C75AF" />
    </linearGradient>
    <linearGradient id="paint3_linear_135_10703" x1="24.9044" y1="24.8013" x2="32.5598" y2="49.8411"
      gradientUnits="userSpaceOnUse">
      <stop stop-color="#65C9E7" />
      <stop offset="1" stop-color="#CCF6FB" />
    </linearGradient>
    <linearGradient id="paint4_linear_135_10703" x1="36.4547" y1="25.0906" x2="55.1482" y2="86.2343"
      gradientUnits="userSpaceOnUse">
      <stop stop-color="#3EA4CF" />
      <stop offset="1" stop-color="#65C9E7" />
    </linearGradient>
    <linearGradient id="paint5_linear_135_10703" x1="9.35559" y1="26.5305" x2="19.471" y2="84.0884"
      gradientUnits="userSpaceOnUse">
      <stop stop-color="#65C9E7" />
      <stop offset="1" stop-color="#0C75AF" />
    </linearGradient>
  </defs>
</svg>
