<svg viewBox="0 0 241 222" fill="none" xmlns="http://www.w3.org/2000/svg">
  <g opacity="0.9">
    <path d="M67.9697 88.0215L104.188 56.4805L151.741 63.2073L115.523 94.7484L67.9697 88.0215Z"
      fill="url(#paint0_linear_146_10941)" />
    <path d="M166.826 115.341L151.757 63.4258L151.673 63.141L115.461 94.6221L130.866 146.626L166.826 115.341Z"
      fill="url(#paint1_linear_146_10941)" />
    <path d="M83.6512 139.916L68.0135 88.1698L67.9291 87.885L115.444 94.5651L130.849 146.569L83.6512 139.916Z"
      fill="url(#paint2_linear_146_10941)" />
    <path d="M31.957 119.134L68.1749 87.5926L115.728 94.3194L79.5104 125.86L31.957 119.134Z"
      fill="url(#paint3_linear_146_10941)" />
    <path d="M130.813 146.453L115.745 94.5379L115.66 94.2531L79.4488 125.734L94.8531 177.738L130.813 146.453Z"
      fill="url(#paint4_linear_146_10941)" />
    <path d="M47.6386 171.028L32.0008 119.282L31.9164 118.997L79.4317 125.677L94.836 177.681L47.6386 171.028Z"
      fill="url(#paint5_linear_146_10941)" />
    <path d="M115.114 94.5016L151.332 62.9606L198.886 69.6875L162.668 101.229L115.114 94.5016Z"
      fill="url(#paint6_linear_146_10941)" />
    <path d="M213.97 121.821L198.902 69.9059L198.817 69.6211L162.606 101.102L178.01 153.106L213.97 121.821Z"
      fill="url(#paint7_linear_146_10941)" />
    <path d="M130.796 146.396L115.158 94.6499L115.074 94.3651L162.589 101.045L177.993 153.049L130.796 146.396Z"
      fill="url(#paint8_linear_146_10941)" />
  </g>
  <defs>
    <linearGradient id="paint0_linear_146_10941" x1="103.194" y1="52.1621" x2="117.703" y2="101.145"
      gradientUnits="userSpaceOnUse">
      <stop stop-color="#E8A95F" />
      <stop offset="1" stop-color="#FDF0D5" />
    </linearGradient>
    <linearGradient id="paint1_linear_146_10941" x1="125.723" y1="52.9232" x2="161.153" y2="172.533"
      gradientUnits="userSpaceOnUse">
      <stop stop-color="#E8A95F" />
      <stop offset="1" stop-color="#F3C481" />
    </linearGradient>
    <linearGradient id="paint2_linear_146_10941" x1="72.8277" y1="55.271" x2="91.5829" y2="167.739"
      gradientUnits="userSpaceOnUse">
      <stop stop-color="#F3C481" />
      <stop offset="1" stop-color="#D9822F" />
    </linearGradient>
    <linearGradient id="paint3_linear_146_10941" x1="67.1813" y1="83.2742" x2="81.6907" y2="132.257"
      gradientUnits="userSpaceOnUse">
      <stop stop-color="#E8A95F" />
      <stop offset="1" stop-color="#FDF0D5" />
    </linearGradient>
    <linearGradient id="paint4_linear_146_10941" x1="89.7104" y1="84.0353" x2="125.14" y2="203.645"
      gradientUnits="userSpaceOnUse">
      <stop stop-color="#E8A95F" />
      <stop offset="1" stop-color="#F3C481" />
    </linearGradient>
    <linearGradient id="paint5_linear_146_10941" x1="36.815" y1="86.383" x2="55.5702" y2="198.851"
      gradientUnits="userSpaceOnUse">
      <stop stop-color="#F3C481" />
      <stop offset="1" stop-color="#D9822F" />
    </linearGradient>
    <linearGradient id="paint6_linear_146_10941" x1="150.339" y1="58.6422" x2="164.848" y2="107.625"
      gradientUnits="userSpaceOnUse">
      <stop stop-color="#E8A95F" />
      <stop offset="1" stop-color="#FDF0D5" />
    </linearGradient>
    <linearGradient id="paint7_linear_146_10941" x1="172.868" y1="59.4033" x2="208.298" y2="179.013"
      gradientUnits="userSpaceOnUse">
      <stop stop-color="#E8A95F" />
      <stop offset="1" stop-color="#F3C481" />
    </linearGradient>
    <linearGradient id="paint8_linear_146_10941" x1="119.972" y1="61.7511" x2="138.727" y2="174.219"
      gradientUnits="userSpaceOnUse">
      <stop stop-color="#F3C481" />
      <stop offset="1" stop-color="#D9822F" />
    </linearGradient>
  </defs>
</svg>
