<svg width="360" height="94" viewBox="0 0 360 94" fill="none" xmlns="http://www.w3.org/2000/svg">
  <path
    d="M139.524 62.1926H128.12V30.0238H139.618C142.854 30.0238 145.639 30.6678 147.974 31.9558C150.309 33.2333 152.105 35.0711 153.362 37.4691C154.629 39.8671 155.263 42.7363 155.263 46.0767C155.263 49.4277 154.629 52.3074 153.362 54.7158C152.105 57.1243 150.299 58.9725 147.943 60.2605C145.597 61.5485 142.791 62.1926 139.524 62.1926ZM134.921 56.3651H139.241C141.252 56.3651 142.943 56.0091 144.314 55.297C145.697 54.5745 146.733 53.4592 147.425 51.9513C148.126 50.4329 148.477 48.4747 148.477 46.0767C148.477 43.6997 148.126 41.7572 147.425 40.2493C146.733 38.7414 145.702 37.6314 144.33 36.9193C142.958 36.2073 141.267 35.8512 139.257 35.8512H134.921V56.3651Z"
    fill="#ffffff" />
  <path
    d="M171.17 62.6638C168.688 62.6638 166.552 62.1611 164.762 61.1559C162.981 60.1401 161.61 58.7055 160.646 56.852C159.683 54.9881 159.201 52.7838 159.201 50.2392C159.201 47.7574 159.683 45.5793 160.646 43.7049C161.61 41.8305 162.966 40.3697 164.714 39.3226C166.474 38.2754 168.537 37.7518 170.903 37.7518C172.495 37.7518 173.977 38.0084 175.348 38.5215C176.731 39.0241 177.935 39.7833 178.961 40.7991C179.998 41.8148 180.804 43.0923 181.38 44.6317C181.956 46.1605 182.244 47.9512 182.244 50.0036V51.8414H161.871V47.6946H175.945C175.945 46.7312 175.736 45.8778 175.317 45.1343C174.898 44.3908 174.317 43.8096 173.573 43.3908C172.84 42.9614 171.987 42.7468 171.013 42.7468C169.997 42.7468 169.097 42.9824 168.311 43.4536C167.537 43.9144 166.929 44.5374 166.489 45.3228C166.05 46.0977 165.824 46.9616 165.814 47.9145V51.8571C165.814 53.0508 166.034 54.0823 166.474 54.9514C166.924 55.8206 167.558 56.4908 168.374 56.962C169.191 57.4332 170.16 57.6688 171.28 57.6688C172.024 57.6688 172.704 57.5641 173.322 57.3547C173.94 57.1452 174.469 56.8311 174.909 56.4122C175.348 55.9934 175.683 55.4803 175.914 54.8729L182.103 55.2813C181.788 56.7683 181.144 58.0667 180.171 59.1767C179.207 60.2763 177.961 61.1349 176.432 61.7527C174.914 62.3601 173.16 62.6638 171.17 62.6638Z"
    fill="#ffffff" />
  <path
    d="M208.456 38.066L200.021 62.1926H192.481L184.046 38.066H191.115L196.125 55.3284H196.377L201.372 38.066H208.456Z"
    fill="#ffffff" />
  <path
    d="M212.006 62.1926V30.0238H224.697C227.137 30.0238 229.216 30.4898 230.933 31.4217C232.65 32.3432 233.959 33.626 234.86 35.27C235.771 36.9036 236.226 38.7885 236.226 40.9247C236.226 43.0609 235.766 44.9458 234.844 46.5794C233.923 48.213 232.588 49.4853 230.839 50.3963C229.1 51.3073 226.996 51.7628 224.524 51.7628H216.435V46.3124H223.425C224.734 46.3124 225.812 46.0872 226.661 45.6369C227.519 45.1762 228.158 44.5427 228.577 43.7363C229.006 42.9196 229.221 41.9823 229.221 40.9247C229.221 39.8566 229.006 38.9246 228.577 38.1288C228.158 37.3225 227.519 36.6994 226.661 36.2596C225.802 35.8093 224.713 35.5842 223.393 35.5842H218.807V62.1926H212.006Z"
    fill="#ffffff" />
  <path
    d="M246.75 62.6481C245.211 62.6481 243.839 62.381 242.635 61.847C241.431 61.3025 240.478 60.5014 239.776 59.4438C239.085 58.3757 238.74 57.0458 238.74 55.4541C238.74 54.1137 238.986 52.988 239.478 52.077C239.97 51.1659 240.64 50.4329 241.488 49.8779C242.337 49.3229 243.3 48.9041 244.379 48.6213C245.468 48.3386 246.609 48.1397 247.803 48.0245C249.206 47.8779 250.337 47.7417 251.196 47.6161C252.054 47.4799 252.677 47.281 253.065 47.0192C253.452 46.7574 253.646 46.37 253.646 45.8568V45.7626C253.646 44.7678 253.332 43.9981 252.703 43.4536C252.086 42.9091 251.206 42.6368 250.065 42.6368C248.86 42.6368 247.902 42.9038 247.19 43.4379C246.478 43.9615 246.007 44.6212 245.777 45.417L239.588 44.9144C239.902 43.4484 240.52 42.1813 241.441 41.1132C242.363 40.0346 243.551 39.2074 245.007 38.6314C246.473 38.045 248.169 37.7518 250.096 37.7518C251.436 37.7518 252.719 37.9089 253.944 38.223C255.18 38.5372 256.274 39.0241 257.227 39.6838C258.191 40.3435 258.95 41.1917 259.505 42.2284C260.06 43.2546 260.337 44.4851 260.337 45.9197V62.1926H253.991V58.8469H253.803C253.416 59.6008 252.897 60.2658 252.248 60.8417C251.599 61.4072 250.819 61.8522 249.908 62.1768C248.997 62.491 247.944 62.6481 246.75 62.6481ZM248.667 58.0301C249.651 58.0301 250.52 57.8364 251.274 57.4489C252.028 57.051 252.62 56.5169 253.049 55.8468C253.478 55.1766 253.693 54.4174 253.693 53.5692V51.0089C253.484 51.145 253.196 51.2707 252.829 51.3859C252.473 51.4906 252.07 51.59 251.62 51.6843C251.169 51.7681 250.719 51.8466 250.269 51.9199C249.819 51.9827 249.41 52.0403 249.044 52.0927C248.258 52.2079 247.572 52.3911 246.986 52.6424C246.4 52.8938 245.944 53.2341 245.619 53.6634C245.295 54.0823 245.133 54.6059 245.133 55.2342C245.133 56.1452 245.462 56.8416 246.122 57.3233C246.792 57.7945 247.64 58.0301 248.667 58.0301Z"
    fill="#ffffff" />
  <path
    d="M265.529 62.1926V38.066H272.016V42.2756H272.267C272.707 40.7781 273.445 39.6472 274.482 38.8827C275.518 38.1078 276.712 37.7204 278.063 37.7204C278.398 37.7204 278.759 37.7413 279.147 37.7832C279.534 37.8251 279.875 37.8827 280.168 37.956V43.8934C279.854 43.7992 279.419 43.7154 278.864 43.6421C278.309 43.5688 277.801 43.5321 277.341 43.5321C276.356 43.5321 275.477 43.7468 274.702 44.1761C273.937 44.595 273.33 45.1814 272.88 45.9354C272.44 46.6893 272.22 47.5585 272.22 48.5428V62.1926H265.529Z"
    fill="#ffffff" />
  <path
    d="M289.816 62.6481C288.277 62.6481 286.905 62.381 285.701 61.847C284.497 61.3025 283.544 60.5014 282.842 59.4438C282.151 58.3757 281.805 57.0458 281.805 55.4541C281.805 54.1137 282.051 52.988 282.544 52.077C283.036 51.1659 283.706 50.4329 284.554 49.8779C285.402 49.3229 286.366 48.9041 287.444 48.6213C288.533 48.3386 289.675 48.1397 290.869 48.0245C292.272 47.8779 293.403 47.7417 294.261 47.6161C295.12 47.4799 295.743 47.281 296.131 47.0192C296.518 46.7574 296.712 46.37 296.712 45.8568V45.7626C296.712 44.7678 296.398 43.9981 295.769 43.4536C295.151 42.9091 294.272 42.6368 293.13 42.6368C291.926 42.6368 290.968 42.9038 290.256 43.4379C289.544 43.9615 289.073 44.6212 288.842 45.417L282.654 44.9144C282.968 43.4484 283.586 42.1813 284.507 41.1132C285.429 40.0346 286.617 39.2074 288.073 38.6314C289.539 38.045 291.235 37.7518 293.162 37.7518C294.502 37.7518 295.785 37.9089 297.01 38.223C298.246 38.5372 299.34 39.0241 300.293 39.6838C301.256 40.3435 302.016 41.1917 302.571 42.2284C303.126 43.2546 303.403 44.4851 303.403 45.9197V62.1926H297.057V58.8469H296.869C296.481 59.6008 295.963 60.2658 295.314 60.8417C294.665 61.4072 293.884 61.8522 292.973 62.1768C292.062 62.491 291.01 62.6481 289.816 62.6481ZM291.732 58.0301C292.717 58.0301 293.586 57.8364 294.34 57.4489C295.094 57.051 295.686 56.5169 296.115 55.8468C296.544 55.1766 296.759 54.4174 296.759 53.5692V51.0089C296.549 51.145 296.261 51.2707 295.895 51.3859C295.539 51.4906 295.136 51.59 294.685 51.6843C294.235 51.7681 293.785 51.8466 293.335 51.9199C292.884 51.9827 292.476 52.0403 292.109 52.0927C291.324 52.2079 290.638 52.3911 290.052 52.6424C289.465 52.8938 289.01 53.2341 288.685 53.6634C288.361 54.0823 288.198 54.6059 288.198 55.2342C288.198 56.1452 288.528 56.8416 289.188 57.3233C289.858 57.7945 290.706 58.0301 291.732 58.0301Z"
    fill="#ffffff" />
  <path
    d="M315.286 48.2444V62.1926H308.594V38.066H314.972V42.3227H315.254C315.788 40.9195 316.684 39.8095 317.94 38.9927C319.197 38.1654 320.721 37.7518 322.511 37.7518C324.187 37.7518 325.647 38.1183 326.894 38.8513C328.14 39.5843 329.108 40.6315 329.799 41.9928C330.491 43.3437 330.836 44.9563 330.836 46.8307V62.1926H324.145V48.0245C324.155 46.548 323.778 45.3961 323.014 44.5688C322.249 43.7311 321.197 43.3122 319.857 43.3122C318.956 43.3122 318.16 43.506 317.469 43.8934C316.788 44.2809 316.254 44.8463 315.867 45.5898C315.49 46.3228 315.296 47.2077 315.286 48.2444Z"
    fill="#ffffff" />
  <path
    d="M342.99 62.6481C341.45 62.6481 340.079 62.381 338.874 61.847C337.67 61.3025 336.717 60.5014 336.016 59.4438C335.324 58.3757 334.979 57.0458 334.979 55.4541C334.979 54.1137 335.225 52.988 335.717 52.077C336.209 51.1659 336.88 50.4329 337.728 49.8779C338.576 49.3229 339.539 48.9041 340.618 48.6213C341.707 48.3386 342.848 48.1397 344.042 48.0245C345.445 47.8779 346.576 47.7417 347.435 47.6161C348.294 47.4799 348.917 47.281 349.304 47.0192C349.692 46.7574 349.885 46.37 349.885 45.8568V45.7626C349.885 44.7678 349.571 43.9981 348.943 43.4536C348.325 42.9091 347.445 42.6368 346.304 42.6368C345.1 42.6368 344.142 42.9038 343.43 43.4379C342.717 43.9615 342.246 44.6212 342.016 45.417L335.827 44.9144C336.141 43.4484 336.759 42.1813 337.681 41.1132C338.602 40.0346 339.791 39.2074 341.246 38.6314C342.712 38.045 344.409 37.7518 346.335 37.7518C347.676 37.7518 348.959 37.9089 350.184 38.223C351.419 38.5372 352.514 39.0241 353.467 39.6838C354.43 40.3435 355.189 41.1917 355.744 42.2284C356.299 43.2546 356.577 44.4851 356.577 45.9197V62.1926H350.231V58.8469H350.042C349.655 59.6008 349.137 60.2658 348.487 60.8417C347.838 61.4072 347.058 61.8522 346.147 62.1768C345.236 62.491 344.183 62.6481 342.99 62.6481ZM344.906 58.0301C345.89 58.0301 346.759 57.8364 347.513 57.4489C348.267 57.051 348.859 56.5169 349.288 55.8468C349.718 55.1766 349.932 54.4174 349.932 53.5692V51.0089C349.723 51.145 349.435 51.2707 349.068 51.3859C348.712 51.4906 348.309 51.59 347.859 51.6843C347.409 51.7681 346.958 51.8466 346.508 51.9199C346.058 51.9827 345.649 52.0403 345.283 52.0927C344.498 52.2079 343.812 52.3911 343.225 52.6424C342.639 52.8938 342.183 53.2341 341.859 53.6634C341.534 54.0823 341.372 54.6059 341.372 55.2342C341.372 56.1452 341.702 56.8416 342.361 57.3233C343.032 57.7945 343.88 58.0301 344.906 58.0301ZM344.183 34.9559L347.513 27.809H353.702L348.911 34.9559H344.183Z"
    fill="#ffffff" />
  <g clip-path="url(#clip0_1517_1349)">
    <path
      d="M41.1687 89.4003L2.27138 51.8548C-0.757126 48.9315 -0.757126 44.1203 2.27138 41.1971L41.1687 3.65149C44.1972 0.728231 49.1816 0.728231 52.2101 3.65149L91.1075 41.1971C94.136 44.1203 94.136 48.9315 91.1075 51.8548L52.2101 89.4003C51.453 90.1311 50.5697 90.6792 49.6548 91.0447C49.6233 91.0447 43.8187 91.0751 43.8187 91.0751C42.8407 90.7097 41.9258 90.1311 41.1687 89.4003Z"
      fill="#4CAF50" />
    <path
      d="M72.7465 31.0446C70.1912 31.0446 68.0776 33.0848 68.0776 35.5513C68.0776 37.5306 69.4341 39.2967 71.3585 39.8753V48.2492C71.3585 52.9995 68.2669 55.6182 61.3265 56.684C60.3801 54.9178 58.3927 53.7912 55.2695 53.3344H55.238C52.7773 53.0299 50.9161 52.3295 49.5595 51.2638V49.0409C50.8845 47.9142 52.7458 47.2138 55.3011 46.9093H55.3326C59.7176 46.2699 61.9575 44.2601 61.9575 41.0019V36.0994C63.9765 35.6122 65.5223 33.846 65.5223 31.7145C65.5223 29.2175 63.4086 27.1774 60.8533 27.1774C58.298 27.1774 56.1844 29.2175 56.1844 31.7449C56.1844 33.9069 57.7933 35.734 59.8754 36.1603V41.0324C59.8754 43.2857 58.4242 44.4428 55.0172 44.9605C52.8089 45.2041 51.0107 45.7522 49.5911 46.6048V31.8058C51.2946 30.8314 52.4303 29.0653 52.4303 27.0556C52.4303 24.0105 49.875 21.5135 46.6888 21.5135C43.5341 21.5135 40.9472 23.98 40.9472 27.0556C40.9472 29.0957 42.0829 30.8619 43.7865 31.8058V44.4428C42.493 43.8338 40.9472 43.4075 39.1175 43.1944C34.8587 42.5854 34.3224 40.8192 34.3224 39.3271V35.8862C36.3729 35.4295 37.9503 33.6329 37.9503 31.4709C37.9503 29.0044 35.8366 26.9642 33.2813 26.9642C30.726 26.9642 28.6124 28.9739 28.6124 31.4404C28.6124 33.6024 30.1897 35.3686 32.2403 35.8558V39.2967C32.2403 42.5549 34.4486 44.5342 38.8336 45.1432C40.9472 45.4477 42.5561 45.9045 43.7865 46.7266V53.8216C40.8526 52.025 37.1616 50.8375 32.5558 50.2894C25.4577 49.254 22.303 46.6657 22.303 41.8241V39.9057C24.1643 39.2967 25.4893 37.6219 25.4893 35.6122C25.4893 33.1457 23.3756 31.1055 20.8203 31.1055C18.265 31.1055 16.1514 33.1457 16.1514 35.6122C16.1514 37.5915 17.4763 39.2967 19.3376 39.9057V41.8241C19.3376 45.3564 20.6941 48.1274 23.4072 50.0458C25.4577 51.5378 28.3285 52.5122 32.1457 53.0604H32.1772C37.2878 53.6998 41.0734 55.1005 43.818 57.293V91.154C45.6793 91.8544 47.7929 91.824 49.6542 91.1236V75.9896C50.9792 74.8934 52.8089 74.2235 55.3326 73.919H55.3642C59.7492 73.2795 61.989 71.2698 61.989 68.0116V67.2808C63.3455 66.8545 64.355 65.606 64.355 64.1748C64.355 62.7436 63.3455 61.4647 61.989 61.0689V59.4854C65.5854 58.9069 68.33 57.9325 70.3174 56.5013C73.0304 54.5829 74.387 51.8119 74.387 48.2796V39.8753C76.0905 39.2358 77.3839 37.561 77.3839 35.5817C77.3839 34.3941 76.9107 33.2675 76.0589 32.3844C75.1756 31.5318 74.0084 31.0446 72.7465 31.0446ZM57.8564 31.7449C57.8564 30.1615 59.1814 28.8826 60.7902 28.8826C62.4307 28.8826 63.7241 30.1615 63.7241 31.7449C63.7241 33.3284 62.3991 34.5769 60.7902 34.5769C59.2129 34.5769 57.8564 33.2675 57.8564 31.7449ZM33.2182 34.2723C31.6094 34.2723 30.2844 32.9934 30.2844 31.4404C30.2844 29.857 31.6094 28.6085 33.2182 28.6085C34.8271 28.6085 36.1521 29.8875 36.1521 31.4404C36.1521 32.9934 34.7956 34.2723 33.2182 34.2723ZM20.7572 38.3832C19.1483 38.3832 17.8234 37.1347 17.8234 35.5513C17.8234 33.9678 19.1483 32.7194 20.7572 32.7194C22.3661 32.7194 23.6911 33.9983 23.6911 35.5513C23.6911 37.1042 22.3346 38.3832 20.7572 38.3832ZM46.6257 30.8619C44.4174 30.8619 42.6192 29.1262 42.6192 26.9947C42.6192 24.8327 44.4174 23.097 46.6257 23.097C48.834 23.097 50.6321 24.8327 50.6321 26.9642C50.6321 29.0957 48.834 30.8619 46.6257 30.8619ZM49.528 53.6998C50.9792 54.4915 52.7458 55.0396 54.9225 55.3137C56.9415 55.6182 58.298 56.1359 59.0236 57.0189C55.238 57.6888 52.0517 58.8155 49.528 60.4294V53.6998ZM59.8123 61.0689C58.4558 61.4952 57.4463 62.7436 57.4463 64.1748C57.4463 65.6669 58.4558 66.8849 59.8123 67.2808V68.0116C59.7807 70.2649 58.3611 71.4221 54.9541 71.9397C52.7773 72.1833 51.0107 72.7314 49.5911 73.5536V63.9921C52.0517 61.891 55.3957 60.5208 59.8123 59.7899V61.0689ZM72.7465 38.4136C71.1061 38.4136 69.8127 37.1347 69.8127 35.5817C69.8127 34.0287 71.1376 32.7498 72.7465 32.7498C73.5352 32.7498 74.2923 33.0543 74.8602 33.572C75.428 34.1201 75.6804 34.8205 75.6804 35.5513C75.6804 37.1347 74.3554 38.4136 72.7465 38.4136Z"
      fill="white" />
  </g>
  <defs>
    <clipPath id="clip0_1517_1349">
      <rect width="93.3788" height="93.3788" fill="white" />
    </clipPath>
  </defs>
</svg>
