<svg width="153" height="201" viewBox="0 0 153 201" fill="none" xmlns="http://www.w3.org/2000/svg">
  <path d="M71.686 96.9688L114.921 56.5783L173.758 62.8159L130.523 103.206L71.686 96.9688Z"
    fill="url(#paint0_linear_135_10697)" />
  <path d="M194.572 126.354L173.788 63.0842L173.672 62.7372L130.442 103.054L151.643 166.419L194.572 126.354Z"
    fill="url(#paint1_linear_135_10697)" />
  <path d="M93.2248 160.187L71.7467 97.1495L71.6306 96.8025L130.419 102.984L151.62 166.349L93.2248 160.187Z"
    fill="url(#paint2_linear_135_10697)" />
  <path d="M7.78809 74.3621L51.0235 33.9716L109.86 40.2092L66.625 80.5997L7.78809 74.3621Z"
    fill="url(#paint3_linear_135_10697)" />
  <path d="M130.674 103.748L109.89 40.4774L109.774 40.1304L66.5437 80.4468L87.7453 143.812L130.674 103.748Z"
    fill="url(#paint4_linear_135_10697)" />
  <path d="M29.3268 137.581L7.84877 74.5427L7.73267 74.1957L66.5207 80.3773L87.7224 143.742L29.3268 137.581Z"
    fill="url(#paint5_linear_135_10697)" />
  <defs>
    <linearGradient id="paint0_linear_135_10697" x1="113.512" y1="51.3042" x2="133.482" y2="110.988"
      gradientUnits="userSpaceOnUse">
      <stop stop-color="#C193FF" />
      <stop offset="1" stop-color="#EDDBFF" />
    </linearGradient>
    <linearGradient id="paint1_linear_135_10697" x1="141.283" y1="51.2727" x2="190.047" y2="197.013"
      gradientUnits="userSpaceOnUse">
      <stop stop-color="#AD78FF" />
      <stop offset="1" stop-color="#C193FF" />
    </linearGradient>
    <linearGradient id="paint2_linear_135_10697" x1="76.2595" y1="56.4375" x2="104.186" y2="194.101"
      gradientUnits="userSpaceOnUse">
      <stop stop-color="#C193FF" />
      <stop offset="1" stop-color="#8C4BFF" />
    </linearGradient>
    <linearGradient id="paint3_linear_135_10697" x1="49.6145" y1="28.6975" x2="69.5845" y2="88.3815"
      gradientUnits="userSpaceOnUse">
      <stop stop-color="#C193FF" />
      <stop offset="1" stop-color="#EDDBFF" />
    </linearGradient>
    <linearGradient id="paint4_linear_135_10697" x1="77.385" y1="28.6659" x2="126.149" y2="174.406"
      gradientUnits="userSpaceOnUse">
      <stop stop-color="#AD78FF" />
      <stop offset="1" stop-color="#C193FF" />
    </linearGradient>
    <linearGradient id="paint5_linear_135_10697" x1="12.3616" y1="33.8307" x2="40.2885" y2="171.495"
      gradientUnits="userSpaceOnUse">
      <stop stop-color="#C193FF" />
      <stop offset="1" stop-color="#8C4BFF" />
    </linearGradient>
  </defs>
</svg>
