<svg viewBox="0 0 349 87" xmlns="http://www.w3.org/2000/svg">
  <path d="M33.6647 79.1891L1.85736 47.4955C-0.61912 45.0278 -0.61912 40.9665 1.85736 38.4989L33.6647 6.80531C36.1412 4.33768 40.217 4.33768 42.6935 6.80531L74.5008 38.4989C76.9773 40.9665 76.9773 45.0278 74.5008 47.4955L42.6935 79.1891C42.0744 79.806 41.3521 80.2687 40.604 80.5771C40.5782 80.5771 35.8316 80.6028 35.8316 80.6028C35.0319 80.2944 34.2838 79.806 33.6647 79.1891Z" fill="#3DD33D"/>
  <path d="M59.4873 29.9288C57.3977 29.9288 55.6694 31.651 55.6694 33.7331C55.6694 35.4038 56.7786 36.8947 58.3522 37.3831V44.4518C58.3522 48.4617 55.8241 50.6723 50.1489 51.572C49.375 50.0811 47.7498 49.13 45.1959 48.7445H45.1701C43.158 48.4874 41.636 47.8962 40.5267 46.9966V45.1201C41.6102 44.1691 43.1322 43.5779 45.2217 43.3208H45.2475C48.8332 42.781 50.6648 41.0845 50.6648 38.3342V34.1957C52.3158 33.7845 53.5798 32.2936 53.5798 30.4943C53.5798 28.3865 51.8514 26.6643 49.7619 26.6643C47.6724 26.6643 45.944 28.3865 45.944 30.52C45.944 32.345 47.2596 33.8873 48.9622 34.2471V38.3599C48.9622 40.262 47.7756 41.2388 44.9895 41.6757C43.1838 41.8814 41.7133 42.3441 40.5525 43.0638V30.5714C41.9455 29.7489 42.8742 28.258 42.8742 26.5615C42.8742 23.9911 40.7847 21.8833 38.1792 21.8833C35.5995 21.8833 33.4842 23.9654 33.4842 26.5615C33.4842 28.2837 34.4129 29.7746 35.8059 30.5714V41.2388C34.7482 40.7247 33.4842 40.3648 31.988 40.1849C28.5054 39.6708 28.0669 38.1799 28.0669 36.9204V34.0158C29.7437 33.6302 31.0335 32.1137 31.0335 30.2887C31.0335 28.2066 29.3051 26.4844 27.2156 26.4844C25.1261 26.4844 23.3977 28.1809 23.3977 30.263C23.3977 32.088 24.6875 33.5788 26.3643 33.9901V36.8947C26.3643 39.6451 28.1701 41.3159 31.7558 41.83C33.4842 42.087 34.7998 42.4726 35.8059 43.1666V49.1557C33.4068 47.6392 30.3886 46.6367 26.6223 46.174C20.818 45.3001 18.2384 43.1152 18.2384 39.0282V37.4088C19.7604 36.8947 20.8438 35.481 20.8438 33.7845C20.8438 31.7024 19.1154 29.9802 17.0259 29.9802C14.9364 29.9802 13.208 31.7024 13.208 33.7845C13.208 35.4553 14.2915 36.8947 15.8135 37.4088V39.0282C15.8135 42.0099 16.9227 44.349 19.1412 45.9684C20.818 47.2279 23.1655 48.0504 26.2869 48.5131H26.3127C30.4918 49.0529 33.5874 50.2353 35.8317 52.086V80.6694C37.3537 81.2606 39.0821 81.2349 40.6041 80.6437V67.8686C41.6876 66.9432 43.1838 66.3777 45.2475 66.1207H45.2733C48.859 65.5809 50.6906 63.8844 50.6906 61.134V60.5171C51.7999 60.1572 52.6254 59.1034 52.6254 57.8952C52.6254 56.6871 51.7999 55.6075 50.6906 55.2734V53.9368C53.6314 53.4484 55.8757 52.6258 57.5009 51.4177C59.7194 49.7983 60.8287 47.4592 60.8287 44.4775V37.3831C62.2217 36.8433 63.2794 35.4296 63.2794 33.7588C63.2794 32.7563 62.8924 31.8052 62.1959 31.0598C61.4736 30.3401 60.5191 29.9288 59.4873 29.9288ZM47.3112 30.52C47.3112 29.1834 48.3947 28.1038 49.7103 28.1038C51.0518 28.1038 52.1094 29.1834 52.1094 30.52C52.1094 31.8566 51.026 32.9105 49.7103 32.9105C48.4205 32.9105 47.3112 31.8052 47.3112 30.52ZM27.164 32.6535C25.8484 32.6535 24.7649 31.5739 24.7649 30.263C24.7649 28.9263 25.8484 27.8724 27.164 27.8724C28.4796 27.8724 29.5631 28.952 29.5631 30.263C29.5631 31.5739 28.4539 32.6535 27.164 32.6535ZM16.9743 36.1236C15.6587 36.1236 14.5752 35.0697 14.5752 33.7331C14.5752 32.3964 15.6587 31.3425 16.9743 31.3425C18.29 31.3425 19.3734 32.4221 19.3734 33.7331C19.3734 35.044 18.2642 36.1236 16.9743 36.1236ZM38.1276 29.7746C36.3218 29.7746 34.8514 28.3094 34.8514 26.5101C34.8514 24.6851 36.3218 23.2199 38.1276 23.2199C39.9334 23.2199 41.4038 24.6851 41.4038 26.4844C41.4038 28.2837 39.9334 29.7746 38.1276 29.7746ZM40.5009 49.0529C41.6876 49.7212 43.1322 50.1839 44.9121 50.4153C46.5631 50.6723 47.6724 51.1093 48.2657 51.8547C45.1701 52.4202 42.5646 53.3713 40.5009 54.7336V49.0529ZM48.9106 55.2734C47.8014 55.6333 46.9759 56.6871 46.9759 57.8952C46.9759 59.1548 47.8014 60.1829 48.9106 60.5171V61.134C48.8848 63.0361 47.724 64.0129 44.9379 64.4499C43.158 64.6555 41.7133 65.1182 40.5525 65.8122V57.741C42.5646 55.9674 45.2991 54.8107 48.9106 54.1938V55.2734ZM59.4873 36.1493C58.1458 36.1493 57.0882 35.0697 57.0882 33.7588C57.0882 32.4478 58.1716 31.3682 59.4873 31.3682C60.1322 31.3682 60.7513 31.6253 61.2156 32.0623C61.68 32.5249 61.8864 33.1161 61.8864 33.7331C61.8864 35.0697 60.8029 36.1493 59.4873 36.1493Z" fill="white"/>
  <path d="M98.8314 60.2702H86.3582L92.1203 24.4409H104.356C107.847 24.4409 110.745 25.1757 113.05 26.6453C115.366 28.1148 116.999 30.22 117.948 32.9609C118.897 35.6901 119.067 38.9499 118.457 42.7405C117.869 46.4027 116.7 49.5459 114.948 52.1702C113.197 54.7827 110.954 56.7888 108.22 58.1884C105.486 59.5763 102.356 60.2702 98.8314 60.2702ZM94.7471 53.7797H99.2551C101.436 53.7797 103.345 53.3598 104.983 52.5201C106.633 51.6803 107.983 50.3857 109.034 48.6362C110.096 46.8867 110.847 44.6474 111.288 41.9182C111.706 39.329 111.678 37.2296 111.203 35.6201C110.74 33.9989 109.842 32.8151 108.508 32.0686C107.175 31.3105 105.424 30.9315 103.255 30.9315H98.4247L94.7471 53.7797Z" fill="white"/>
  <path d="M132.739 60.7951C130.073 60.7951 127.864 60.2353 126.113 59.1156C124.361 57.9843 123.13 56.3864 122.418 54.322C121.717 52.246 121.599 49.7909 122.062 46.9567C122.514 44.1925 123.424 41.7666 124.791 39.6789C126.169 37.5912 127.898 35.9642 129.977 34.7978C132.055 33.6315 134.372 33.0484 136.925 33.0484C138.642 33.0484 140.196 33.3341 141.585 33.9056C142.986 34.4654 144.15 35.3168 145.077 36.4598C146.003 37.5912 146.636 39.0082 146.975 40.7111C147.325 42.4139 147.319 44.4083 146.958 46.6943L146.636 48.7412H124.672L125.367 44.1226H140.552C140.721 43.0495 140.653 42.099 140.348 41.2709C140.043 40.4428 139.535 39.7955 138.823 39.329C138.111 38.8508 137.236 38.6117 136.196 38.6117C135.134 38.6117 134.14 38.88 133.213 39.4165C132.287 39.953 131.507 40.6586 130.875 41.5333C130.253 42.3964 129.852 43.3353 129.671 44.35L128.875 48.9336C128.649 50.3449 128.694 51.517 129.011 52.4501C129.338 53.3831 129.903 54.0829 130.705 54.5495C131.507 55.0043 132.524 55.2317 133.756 55.2317C134.558 55.2317 135.309 55.1151 136.01 54.8819C136.722 54.6486 137.354 54.3045 137.908 53.8497C138.462 53.3831 138.913 52.8058 139.264 52.1177L145.856 52.5725C145.246 54.2287 144.32 55.675 143.077 56.9112C141.834 58.1359 140.337 59.0923 138.586 59.7804C136.846 60.4569 134.897 60.7951 132.739 60.7951Z" fill="white"/>
  <path d="M177.421 33.3983L163.981 60.2702H155.847L151.084 33.3983H158.44L160.745 52.625H161.016L169.506 33.3983H177.421Z" fill="white"/>
  <path d="M176.912 60.2702L182.674 24.4409H196.368C198.989 24.4409 201.141 24.9599 202.825 25.998C204.52 27.0243 205.706 28.4531 206.384 30.2842C207.073 32.1036 207.231 34.203 206.858 36.5823C206.474 38.9733 205.638 41.0785 204.35 42.8979C203.073 44.7057 201.413 46.117 199.368 47.1317C197.323 48.1464 194.961 48.6537 192.284 48.6537H183.556L184.522 42.583H192.063C193.487 42.583 194.701 42.3323 195.707 41.8307C196.724 41.3176 197.532 40.6119 198.13 39.7139C198.729 38.8041 199.119 37.7603 199.3 36.5823C199.492 35.381 199.43 34.3371 199.113 33.4507C198.797 32.5643 198.215 31.8762 197.368 31.3863C196.532 30.8848 195.408 30.6341 193.995 30.6341H189.047L184.251 60.2702H176.912Z" fill="white"/>
  <path d="M207.812 60.2702L213.574 24.4409H227.267C229.888 24.4409 232.046 24.9191 233.741 25.8755C235.447 26.8319 236.645 28.1906 237.334 29.9518C238.035 31.7013 238.198 33.7656 237.826 36.1449C237.441 38.5242 236.611 40.5653 235.334 42.2681C234.069 43.9709 232.419 45.283 230.386 46.2044C228.363 47.1142 226.019 47.569 223.352 47.569H214.184L215.201 41.4808H223.166C224.567 41.4808 225.765 41.2826 226.759 40.886C227.753 40.4895 228.538 39.8946 229.115 39.1016C229.702 38.3085 230.086 37.3229 230.267 36.1449C230.459 34.9436 230.391 33.9406 230.064 33.1358C229.736 32.3194 229.143 31.7013 228.284 31.2814C227.425 30.8498 226.296 30.6341 224.895 30.6341H219.946L215.15 60.2702H207.812ZM229.165 43.9651L235.182 60.2702H227.081L221.251 43.9651H229.165Z" fill="white"/>
  <path d="M271.529 47.5674C270.595 47.8767 270.07 48.6175 269.973 49.855C269.63 54.5062 268.843 58.3829 267.609 61.4858C266.566 64.0998 264.641 66.0841 261.852 67.5029C258.442 69.1278 256.121 69.399 254.792 68.2086C253.46 67.0183 252.666 64.0192 252.346 59.2323L252.476 55.2191L252.78 46.4678L253.229 37.7397C253.19 37.611 253.168 37.5469 253.211 37.4618L253.32 36.9296C253.542 35.6508 253.969 34.3749 254.585 33.0368C255.621 31.0633 257.147 29.5655 259.144 28.6924C260.393 28.0665 261.635 27.8678 262.833 27.9676C264.445 28.0725 265.348 28.7664 265.478 30.0707C265.605 31.5884 266.384 32.3235 267.854 32.1915C269.365 32.1881 270.076 31.3855 269.969 29.9319C269.671 26.9816 268.225 24.9785 265.526 24.0279C263.135 23.1881 260.549 23.2639 257.766 24.2558C253.34 25.9326 250.424 29.5918 249.099 35.2775C248.924 36.0442 248.776 38.2204 248.612 41.8909L247.984 55.3579C247.541 65.4315 249.501 71.306 253.93 72.9603C256.651 73.9747 259.777 73.6492 263.187 72.0246C266.349 70.4821 268.73 68.4179 270.393 65.8114C272.477 62.5693 273.752 57.8222 274.34 51.53L278.262 50.2319C279.696 49.7576 280.141 48.7596 279.683 47.2805C279.223 45.8017 278.318 45.321 276.887 45.7949L271.529 47.5674ZM289.328 33.0281C291.122 31.5122 292.573 31.316 293.802 32.3984C293.986 32.55 294.079 33.5119 294.121 35.1995C294.143 35.2636 294.181 35.3923 294.139 35.4774L294.075 35.7114C292.162 36.628 289.627 37.5374 286.431 38.5242C286.832 36.0519 287.824 34.1633 289.328 33.0281ZM297.804 49.9348C297.785 49.8703 297.785 49.8703 297.785 49.8703L297.919 46.9896C297.898 47.1386 297.96 47.118 297.962 46.9046C298.1 43.8098 298.153 40.885 298.226 38.2379C301.535 36.2917 304.088 33.8877 305.938 31.0059C306.677 29.84 306.417 29.0044 305.184 28.3488C303.949 27.6937 302.995 27.9382 302.257 29.1042C301.228 30.6504 299.888 32.0864 298.26 33.2632C297.998 30.8682 296.983 29.1477 295.111 28.2071C292.416 26.8299 289.618 27.3302 286.716 29.7086C283.691 32.128 282.155 36.0391 281.991 41.482C281.985 42.1225 282.31 42.7241 282.925 43.1587C283.521 43.5288 284.098 43.6215 284.721 43.4152C288.83 42.2684 291.945 41.2378 294.064 40.3239L293.978 42.4795C293.937 44.3367 293.81 46.3638 293.724 48.5194C293.504 51.5703 292.898 54.0399 292.049 55.9517C290.777 58.7124 288.986 59.8014 286.718 59.1338C285.974 58.9542 285.571 58.0951 285.524 56.6215C285.446 56.1506 285.536 55.5539 285.668 54.872L285.746 53.5703C285.799 50.6454 285.844 48.3615 285.946 46.6971C286.002 45.331 285.369 44.6187 284.024 44.7095C282.616 44.8208 281.864 45.4951 281.745 46.8816C281.473 50.8716 281.453 54.5653 281.621 57.984C281.735 60.7825 283.264 62.6161 286.193 63.4198C288.772 64.1976 291.304 63.2885 293.796 60.6917C296.055 58.4551 297.357 54.9047 297.823 49.9993C297.823 49.9993 297.823 49.9993 297.804 49.9348ZM324.208 45.7361C323.867 46.842 323.154 47.645 322.053 48.0804C321.2 48.4333 320.037 48.8892 318.584 49.2988L319.025 39.4389C319.21 35.8323 319.329 32.6731 319.361 29.8974C319.418 26.5458 319.236 24.4081 318.71 23.3768C317.86 21.7438 316.526 20.7669 314.584 20.4876C312.932 20.2546 311.252 20.5974 309.525 21.4524C308.508 21.931 307.61 22.5824 306.855 23.4705C306.263 22.8866 305.519 22.707 304.585 23.0163C303.651 23.3253 303.105 24.0022 303.093 25.0696C302.913 32.0073 302.589 42.4668 302.121 56.4477C302.084 57.878 302.779 58.5699 304.209 58.5226C305.617 58.4113 306.287 57.6931 306.343 56.3273L306.6 46.3155C306.814 41.9193 306.892 38.6318 306.959 36.4117C306.961 36.1983 307.023 36.1777 306.98 36.2628C307.24 29.7954 309.019 26.0159 312.426 24.818C313.733 24.3855 314.579 24.6728 314.94 25.6168C315.121 26.1954 315.171 27.2422 315.194 28.8654C315.133 34.2035 314.881 42.0157 314.29 52.2796C314.257 53.2831 314.665 53.9283 315.633 54.175C316.045 54.3933 316.521 54.3778 317.082 54.1922C321.898 52.6696 324.848 51.5516 325.805 50.88C327.787 49.5156 328.667 46.6008 328.594 42.1579C328.567 40.7486 327.872 40.057 326.526 40.1477C325.099 40.1946 324.367 40.9331 324.454 42.3222C324.457 43.8811 324.403 45.0336 324.208 45.7361ZM329.546 3.76676C327.85 5.60415 326.739 8.87916 326.191 13.5278L325.788 16.2135C325.723 16.2344 325.723 16.2344 325.723 16.2344C321.91 17.0002 319.665 17.9558 319.029 19.2294C318.396 20.5027 318.738 21.3824 319.971 22.0377C321.206 22.6929 322.097 22.4689 322.732 21.195C322.627 21.3007 322.771 21.324 323.084 21.2208C323.519 21.0765 324.286 20.8938 325.365 20.6073L325.49 20.5664C325.571 20.61 325.571 20.61 325.571 20.61L325.323 27.9954C325.222 31.6455 325.153 34.0788 325.056 35.3164C325.018 36.7467 324.932 38.9024 324.922 41.7421L324.705 48.1244C324.545 53.1407 324.189 57.3002 323.759 60.5623C323.37 63.9528 323.1 65.9567 322.946 66.5744C322.342 68.8308 321.147 70.2897 319.423 70.9311C318.135 71.428 317.731 72.3416 318.15 73.692C318.569 75.0422 319.393 75.479 320.68 74.9821C323.463 73.9902 325.411 71.8567 326.544 68.6457C327.333 66.5413 327.885 63.4515 328.179 59.3126C328.305 59.058 328.371 58.8236 328.373 58.6102C328.918 52.4027 331.23 47.2416 335.354 43.0412C336.503 41.8806 337.945 40.7659 339.735 39.6769C340.423 39.2369 340.962 38.9872 341.378 38.7787C342.606 38.302 342.988 37.3243 342.569 35.9739C342.212 34.6031 341.389 34.1662 340.101 34.6634C335.549 36.5949 331.81 39.8174 328.904 44.3951C329.019 41.4496 329.024 39.2504 329.08 37.8842C329.368 30.8408 329.598 24.9502 329.838 20.1911C329.818 20.1268 329.839 19.9777 329.822 19.6998C329.884 19.6794 329.946 19.6588 330.092 19.6817C330.216 19.6405 330.341 19.5992 330.424 19.6427C334.362 18.8357 336.549 17.474 337.109 15.5163C337.601 14.2194 337.154 13.4453 335.75 13.1296C334.41 12.7932 333.515 13.2312 333.169 14.5509C333.235 14.3165 333.214 14.2525 333.027 14.3143C333.027 14.3143 332.965 14.3349 332.86 14.4403C332.755 14.546 332.631 14.587 332.569 14.6076C332.216 14.7955 331.573 14.9373 330.744 15.1409L330.058 15.3677C330.253 12.6796 330.714 10.4001 331.353 8.69968C332.247 6.48945 334.433 5.12766 337.874 4.48542C339.179 4.26626 339.603 3.41711 339.184 2.06681C338.765 0.716514 337.903 0.150935 336.598 0.3701C333.549 0.953261 331.158 2.09894 329.546 3.76676Z" fill="#37CE6C"/>
</svg>
