<svg width="2499" height="681" viewBox="0 0 2499 681" fill="none" xmlns="http://www.w3.org/2000/svg">
<path d="M454.019 62.7022V298.473L414.499 328.535L257.769 211.326L454.019 62.7022Z" fill="#00335E"/>
<path d="M485.771 60L714.448 227.201L555.691 345.087L485.771 295.771V60Z" fill="#00335E"/>
<path d="M488.135 621.391V397.78L403.014 335.966L251.689 444.394L488.135 621.391Z" fill="#006D99"/>
<path d="M713.772 472.092L516.509 618.351V391.362L562.447 357.922L713.772 472.092Z" fill="#006D99"/>
<path d="M394.57 328.535L250 219.095V431.558L394.57 328.535Z" fill="#006D99"/>
<path d="M720.528 238.686L570.553 349.478L720.528 460.945V238.686Z" fill="#006D99"/>
<path d="M1667.91 406.063C1636.99 406.063 1614.68 379.096 1614.68 349.073C1614.68 318.924 1638.68 293.369 1668.82 293.369C1684.16 293.369 1703.11 300.679 1713.1 312.889L1702.41 320.962C1675.94 297.803 1629.08 305.138 1629.08 349.073C1629.08 387.119 1659.34 395.633 1687.14 388.353C1702.25 384.135 1701.83 371.798 1701.39 357.738H1668.52V344.932H1714.59C1714.59 344.932 1714.56 372.029 1714.59 383.932C1710.3 400.433 1681.39 406.063 1667.91 406.063Z" fill="white"/>
<path d="M1757.93 402.51V295.636H1810.14C1816.35 295.636 1822.05 297.112 1827.24 300.064C1832.43 303.016 1836.55 307.036 1839.61 312.125C1842.66 317.215 1844.19 322.915 1844.19 329.225C1844.19 335.23 1842.56 340.778 1839.3 345.867C1836.15 350.956 1831.87 355.028 1826.48 358.081C1821.18 361.135 1815.33 362.661 1808.92 362.661H1774.41V402.51H1757.93ZM1829.07 402.51L1798.23 354.264L1815.48 350.447L1849.38 402.663L1829.07 402.51ZM1774.41 346.783H1809.22C1812.58 346.783 1815.59 346.02 1818.23 344.493C1820.98 342.864 1823.12 340.727 1824.65 338.08C1826.27 335.332 1827.09 332.33 1827.09 329.073C1827.09 325.714 1826.17 322.711 1824.34 320.065C1822.61 317.418 1820.17 315.332 1817.01 313.805C1813.96 312.278 1810.5 311.515 1806.63 311.515H1774.41V346.783Z" fill="white"/>
<path d="M1935.72 404.037C1927.37 404.037 1919.74 402.663 1912.82 399.914C1905.9 397.166 1899.84 393.299 1894.65 388.311C1889.46 383.324 1885.44 377.522 1882.59 370.906C1879.84 364.188 1878.47 356.911 1878.47 349.073C1878.47 341.236 1879.84 334.009 1882.59 327.393C1885.44 320.675 1889.46 314.823 1894.65 309.835C1899.84 304.848 1905.9 300.98 1912.82 298.232C1919.74 295.484 1927.37 294.11 1935.72 294.11C1943.97 294.11 1951.55 295.484 1958.47 298.232C1965.49 300.98 1971.55 304.899 1976.64 309.988C1981.83 314.975 1985.85 320.828 1988.7 327.546C1991.55 334.162 1992.97 341.338 1992.97 349.073C1992.97 356.809 1991.55 364.035 1988.7 370.753C1985.85 377.369 1981.83 383.222 1976.64 388.311C1971.55 393.299 1965.49 397.166 1958.47 399.914C1951.55 402.663 1943.97 404.037 1935.72 404.037ZM1935.72 388.006C1941.62 388.006 1947.02 387.039 1951.9 385.105C1956.89 383.171 1961.17 380.474 1964.73 377.013C1968.39 373.451 1971.19 369.328 1973.13 364.646C1975.16 359.862 1976.18 354.671 1976.18 349.073C1976.18 343.475 1975.16 338.335 1973.13 333.653C1971.19 328.869 1968.39 324.747 1964.73 321.286C1961.17 317.724 1956.89 314.975 1951.9 313.041C1947.02 311.108 1941.62 310.141 1935.72 310.141C1929.82 310.141 1924.37 311.108 1919.38 313.041C1914.5 314.975 1910.22 317.724 1906.56 321.286C1902.9 324.747 1900.1 328.869 1898.16 333.653C1896.23 338.335 1895.26 343.475 1895.26 349.073C1895.26 354.671 1896.23 359.862 1898.16 364.646C1900.1 369.328 1902.9 373.451 1906.56 377.013C1910.22 380.474 1914.5 383.171 1919.38 385.105C1924.37 387.039 1929.82 388.006 1935.72 388.006Z" fill="white"/>
<path d="M2075.6 403.426C2066.33 403.426 2058.14 401.441 2051.02 397.472C2043.89 393.502 2038.29 388.057 2034.22 381.135C2030.25 374.112 2028.27 366.224 2028.27 357.47V295.484H2044.76V356.402C2044.76 362.305 2046.13 367.598 2048.88 372.28C2051.73 376.962 2055.44 380.677 2060.02 383.425C2064.71 386.174 2069.9 387.548 2075.6 387.548C2081.6 387.548 2086.95 386.174 2091.63 383.425C2096.41 380.677 2100.18 376.962 2102.93 372.28C2105.78 367.598 2107.2 362.305 2107.2 356.402V295.484H2122.93V357.47C2122.93 366.224 2120.89 374.112 2116.82 381.135C2112.85 388.057 2107.3 393.502 2100.18 397.472C2093.05 401.441 2084.86 403.426 2075.6 403.426Z" fill="white"/>
<path d="M2166.18 402.51V295.636H2217.17C2223.18 295.636 2228.63 297.112 2233.51 300.064C2238.5 302.914 2242.47 306.833 2245.42 311.82C2248.47 316.807 2250 322.355 2250 328.462C2250 334.671 2248.42 340.32 2245.27 345.409C2242.21 350.498 2238.09 354.57 2232.9 357.623C2227.81 360.677 2222.16 362.203 2215.95 362.203H2182.67V402.51H2166.18ZM2182.67 346.325H2215.19C2218.34 346.325 2221.25 345.511 2223.89 343.882C2226.64 342.254 2228.83 340.116 2230.46 337.47C2232.09 334.722 2232.9 331.719 2232.9 328.462C2232.9 325.306 2232.09 322.457 2230.46 319.912C2228.83 317.367 2226.64 315.332 2223.89 313.805C2221.25 312.278 2218.34 311.515 2215.19 311.515H2182.67V346.325Z" fill="white"/>
<path fill-rule="evenodd" clip-rule="evenodd" d="M833.684 235.642V458.914H1008.32C1046.15 454.523 1074.86 420.407 1075.87 346.096C1073.17 272.46 1052.53 236.448 1008.32 235.642H833.684ZM881.648 412.976V281.918H1008.32C1015.41 286.984 1024.53 309.278 1025.88 346.096C1024.87 390.683 1014.4 410.95 1004.6 412.976H881.648Z" fill="white"/>
<path fill-rule="evenodd" clip-rule="evenodd" d="M1118.43 235.642V458.914H1289.69C1355.13 452.331 1381.9 378.189 1341.37 335.287C1373.12 293.406 1347.45 232.606 1289.69 235.642H1118.43ZM1166.06 314.686V281.918H1289.69C1301.83 281.562 1306.8 283.629 1307.93 297.122C1307.93 308.268 1302.85 315.519 1289.69 314.686H1166.06ZM1166.06 393.389V360.62H1289.69C1301.83 360.265 1309.5 370.776 1310.63 384.269C1311.98 400.482 1302.85 413.809 1289.69 412.976H1166.06V393.389Z" fill="white"/>
<path d="M1400.48 272.464L1427.5 309.282L1453.51 292.731V458.243H1501.48V236.997H1453.51L1400.48 272.464Z" fill="white"/>
</svg>
