<svg viewBox="0 0 1280 1280" fill="none" xmlns="http://www.w3.org/2000/svg">
  <g clip-path="url(#clip0_720_47747)">
    <path
      d="M569.983 586.271L275.938 337.383C263.928 327.332 249.851 320.049 234.709 316.052C219.567 312.054 203.73 311.44 188.324 314.253C172.917 317.066 158.319 323.237 145.567 332.328C132.814 341.419 122.22 353.206 114.536 366.853C106.853 380.5 102.268 395.671 101.109 411.289C99.9497 426.907 102.244 442.589 107.828 457.22C113.413 471.852 122.15 485.074 133.421 495.948C144.691 506.822 158.218 515.081 173.04 520.138H174.107L176.88 520.991L547.796 633.987C550.487 634.959 553.325 635.464 556.187 635.48C561.954 635.45 567.555 633.541 572.14 630.043C576.725 626.544 580.044 621.646 581.596 616.092C583.147 610.537 582.846 604.628 580.738 599.26C578.629 593.891 574.829 589.357 569.912 586.343L569.983 586.271Z"
      fill="url(#paint0_linear_720_47747)" />
    <path
      d="M628.934 175.392C629.019 161.394 625.307 147.635 618.195 135.578C611.083 123.521 600.836 113.618 588.544 106.921C576.252 100.224 562.374 96.984 548.387 97.5458C534.4 98.1077 520.827 102.45 509.112 110.112L150.001 328.138C137.79 336.097 127.34 346.473 119.296 358.627C111.252 370.782 105.784 384.455 103.229 398.805C100.675 413.154 101.088 427.875 104.444 442.059C107.8 456.242 114.027 469.588 122.741 481.271C131.455 492.954 142.47 502.728 155.108 509.989C167.746 517.249 181.738 521.843 196.22 523.486C210.703 525.129 225.368 523.787 239.311 519.542C253.254 515.297 266.18 508.239 277.289 498.805L599.21 236.476L601.77 234.343C610.279 227.055 617.111 218.014 621.8 207.838C626.489 197.663 628.922 186.595 628.934 175.392V175.392Z"
      fill="url(#paint1_linear_720_47747)" />
    <path
      d="M1151.17 645.222L606.32 120.493C598.943 113.089 590.145 107.253 580.456 103.333C570.767 99.4138 560.386 97.4926 549.935 97.685C539.485 97.8774 529.182 100.179 519.643 104.453C510.105 108.726 501.528 114.883 494.428 122.553C487.328 130.224 481.851 139.25 478.326 149.089C474.802 158.929 473.301 169.379 473.915 179.813C474.53 190.247 477.246 200.449 481.901 209.808C486.556 219.166 493.054 227.487 501.005 234.271L502 235.124L1080.84 722.804C1088.48 729.211 1097.79 733.303 1107.67 734.599C1117.56 735.895 1127.61 734.342 1136.64 730.121C1145.67 725.901 1153.31 719.189 1158.65 710.775C1164 702.361 1166.83 692.595 1166.82 682.627C1166.82 675.666 1165.43 668.776 1162.75 662.355C1160.06 655.934 1156.13 650.11 1151.17 645.222Z"
      fill="url(#paint2_linear_720_47747)" />
    <path
      d="M1166.89 682.84C1166.96 673.169 1164.35 663.667 1159.34 655.394C1154.33 647.12 1147.12 640.397 1138.52 635.975C1129.92 631.553 1120.26 629.604 1110.62 630.345C1100.97 631.086 1091.73 634.489 1083.9 640.173L424.631 962.307C411.485 968.912 399.848 978.165 390.451 989.485C381.054 1000.8 374.1 1013.94 370.026 1028.08C365.953 1042.22 364.847 1057.04 366.78 1071.63C368.712 1086.21 373.64 1100.24 381.255 1112.83C388.87 1125.41 399.006 1136.29 411.027 1144.77C423.047 1153.25 436.693 1159.16 451.105 1162.11C465.517 1165.07 480.384 1165.01 494.772 1161.94C509.16 1158.87 522.758 1152.86 534.711 1144.28L1144.35 725.862C1151.31 721.051 1156.99 714.622 1160.92 707.129C1164.84 699.635 1166.89 691.3 1166.89 682.84V682.84Z"
      fill="url(#paint3_linear_720_47747)" />
    <path d="M416.666 417.667H843.333V844.334H416.666V417.667Z" fill="black" />
    <path d="M463.102 764.334H623.102V791.001H463.102V764.334Z" fill="white" />
    <path
      d="M456.418 527.676L468.294 516.44C469.424 518.224 470.96 519.714 472.777 520.789C474.594 521.865 476.64 522.495 478.747 522.627C483.298 522.627 486.285 519.427 486.285 513.24V471.143H504.631V513.383C504.906 516.784 504.465 520.205 503.338 523.426C502.212 526.647 500.424 529.596 498.089 532.085C495.678 534.439 492.817 536.283 489.677 537.505C486.536 538.727 483.182 539.302 479.814 539.196C475.263 539.379 470.738 538.421 466.652 536.409C462.565 534.397 459.047 531.395 456.418 527.676V527.676Z"
      fill="white" />
    <path
      d="M512.879 471.143H566.426V486.716H530.87V496.885H562.799V511.107H531.155V521.703H566.71V537.347H512.666L512.879 471.143Z"
      fill="white" />
    <path d="M592.524 487.285H572.613V471.143H630.995V487.285H611.013V537.703H592.524V487.285Z" fill="white" />
    <path
      d="M463.814 564.014H495.246C498.509 563.745 501.792 564.129 504.905 565.142C508.019 566.156 510.899 567.778 513.379 569.916C514.792 571.333 515.905 573.02 516.651 574.878C517.396 576.735 517.759 578.724 517.717 580.725C517.77 583.97 516.803 587.149 514.954 589.816C513.104 592.482 510.464 594.501 507.406 595.587C511.189 596.28 514.6 598.302 517.025 601.288C519.45 604.273 520.729 608.026 520.632 611.871C520.632 623.889 511.317 631 495.388 631H463.814V564.014ZM499.37 584.565C499.37 580.867 496.383 578.876 490.979 578.876H481.806V590.538H490.694C496.241 590.538 499.512 588.618 499.512 584.778L499.37 584.565ZM492.97 603.48H481.806V615.783H493.326C499.014 615.783 502.143 613.578 502.143 609.667C502.001 605.898 499.299 603.48 493.112 603.48H492.97Z"
      fill="white" />
    <path
      d="M526.533 564.014H556.044C559.95 563.696 563.881 564.161 567.606 565.382C571.33 566.603 574.773 568.556 577.733 571.125C579.729 573.165 581.284 575.594 582.299 578.261C583.315 580.929 583.769 583.777 583.635 586.627C583.763 591.054 582.511 595.41 580.052 599.093C577.592 602.775 574.048 605.601 569.911 607.179L585.84 631.001H564.506L551.066 610.805H544.88V631.001H526.391L526.533 564.014ZM554.977 596.014C561.164 596.014 564.933 592.956 564.933 588.05C564.933 582.716 561.022 580.014 554.906 580.014H545.022V596.156L554.977 596.014Z"
      fill="white" />
    <path
      d="M609.307 563.516H627.085L655.529 630.644H635.69L630.925 618.627H605.112L600.347 631H581.076L609.307 563.516ZM625.521 604.262L618.054 585.418L610.516 604.262H625.521Z"
      fill="white" />
    <path d="M658.445 563.801H676.934V630.432H658.445V563.801Z" fill="white" />
    <path
      d="M683.76 563.801H701.111L725.075 599.356V563.801H743.351V630.432H727.209L702.106 593.881V630.432H683.76V563.801Z"
      fill="white" />
    <path
      d="M746.408 620.547L756.648 608.245C762.646 613.26 770.166 616.092 777.981 616.281C783.03 616.281 785.662 614.503 785.662 611.659C785.662 608.743 783.528 607.321 774.355 605.187C760.133 601.916 749.253 598.076 749.253 584.352C749.253 571.979 759.066 563.019 775.066 563.019C784.956 562.648 794.657 565.798 802.444 571.907L793.555 584.565C788.176 580.501 781.663 578.214 774.924 578.023C770.444 578.023 768.239 579.801 768.239 582.29C768.239 585.347 770.515 586.699 779.83 588.761C795.119 592.103 804.577 597.081 804.577 609.525C804.577 623.107 793.839 630.859 777.697 630.859C766.36 631.341 755.237 627.675 746.408 620.547V620.547Z"
      fill="white" />
  </g>
  <defs>
    <linearGradient id="paint0_linear_720_47747" x1="222.107" y1="425.916" x2="578.587" y2="599.285"
      gradientUnits="userSpaceOnUse">
      <stop offset="0.21" stop-color="#FE2857" />
      <stop offset="1" stop-color="#293896" />
    </linearGradient>
    <linearGradient id="paint1_linear_720_47747" x1="113.592" y1="487.783" x2="579.867" y2="141.969"
      gradientUnits="userSpaceOnUse">
      <stop stop-color="#FE2857" />
      <stop offset="0.01" stop-color="#FE2857" />
      <stop offset="0.86" stop-color="#FF318C" />
    </linearGradient>
    <linearGradient id="paint2_linear_720_47747" x1="517.431" y1="144.458" x2="1129.7" y2="700.404"
      gradientUnits="userSpaceOnUse">
      <stop offset="0.02" stop-color="#FF318C" />
      <stop offset="0.21" stop-color="#FE2857" />
      <stop offset="0.86" stop-color="#FDB60D" />
    </linearGradient>
    <linearGradient id="paint3_linear_720_47747" x1="1095.49" y1="629.578" x2="381.609" y2="1120.96"
      gradientUnits="userSpaceOnUse">
      <stop offset="0.01" stop-color="#FDB60D" />
      <stop offset="0.86" stop-color="#FCF84A" />
    </linearGradient>
    <clipPath id="clip0_720_47747">
      <rect width="1280" height="1280" fill="white" />
    </clipPath>
  </defs>
</svg>
