<svg viewBox="0 0 1280 1281" fill="none" xmlns="http://www.w3.org/2000/svg">
  <path d="M504.176 507.26H530.243C531.615 507.26 532.758 508.403 532.758 509.775V771.818C532.758 773.19 531.615 774.333 530.243 774.333H504.176C502.804 774.333 501.66 773.19 501.66 771.818V509.775C501.66 508.403 502.804 507.26 504.176 507.26ZM683.901 722.885V729.516C683.901 732.488 683.444 736.376 682.301 741.406C681.386 746.208 678.871 751.238 674.526 756.04C670.41 760.842 664.237 765.187 655.776 768.845C647.316 772.275 635.883 774.104 621.249 774.104C606.615 774.104 595.182 772.275 586.721 768.845C578.261 765.415 572.316 761.071 567.971 756.04C563.856 751.238 561.112 746.208 560.197 741.177C559.282 736.147 558.596 732.488 558.596 729.516V725.629V580.202C558.596 578.83 559.74 577.687 561.112 577.687H587.179C588.551 577.687 589.694 578.83 589.694 580.202V719.912C589.694 724.485 590.38 727.915 591.066 730.431C591.752 733.174 593.124 735.69 594.953 737.976C597.011 740.491 599.984 742.321 604.099 743.921C607.987 745.522 613.474 746.437 620.334 746.437C627.423 746.437 633.139 745.522 637.255 743.921C641.371 742.321 644.572 740.491 646.63 738.205C648.917 735.918 650.288 733.632 650.974 730.888C651.66 728.144 652.575 726.086 652.575 719.684V580.202C652.575 578.83 653.718 577.687 655.09 577.687H681.157C682.529 577.687 683.673 578.83 683.673 580.202L683.901 722.885ZM773.078 577.915H790.685C792.285 577.915 793.429 579.516 792.971 580.888L787.026 603.754C786.798 604.897 785.654 605.583 784.74 605.583H772.392C765.761 605.583 760.502 606.498 756.386 608.327C752.499 610.156 749.069 611.985 747.011 614.501C744.953 617.016 743.581 619.302 742.895 621.818C742.209 624.562 741.981 626.848 741.981 629.135V632.336V771.818C741.981 773.19 740.837 774.333 739.465 774.333H713.17C711.798 774.333 710.654 773.19 710.654 771.818V631.193V622.732C710.654 619.988 711.112 616.101 712.255 611.071C713.17 606.04 715.685 601.238 720.029 596.208C724.145 591.406 730.319 587.062 738.779 583.403C746.782 579.745 758.444 577.915 773.078 577.915ZM413.398 577.915C434.663 577.915 450.441 582.031 460.502 590.491C470.334 598.952 475.365 609.47 475.365 622.046V639.196V718.998V729.516C475.365 733.86 474.45 738.662 472.849 743.921C471.249 749.181 468.276 753.982 463.703 758.327C459.13 762.671 452.727 766.33 444.724 769.302C436.721 772.275 426.203 773.647 413.398 773.647C400.365 773.647 390.075 772.046 382.072 769.302C374.069 766.559 367.667 762.671 363.093 758.327C358.52 753.982 355.319 749.181 353.947 743.921C352.346 738.662 351.432 733.86 351.432 729.516V712.366C351.432 703.22 353.947 694.76 358.52 687.214C363.322 679.668 369.953 674.181 378.642 671.208C382.987 669.607 387.788 668.235 393.505 666.177C398.993 664.12 404.481 662.519 409.74 660.461C414.999 658.632 419.343 657.031 423.459 655.659C427.346 654.059 429.862 653.373 430.776 652.915C431.691 652.458 433.063 651.772 434.435 650.857C436.035 649.943 437.407 648.571 439.008 647.199C440.609 645.37 441.752 643.54 442.667 641.482C443.81 639.196 444.267 636.681 444.267 633.708V626.848C444.267 624.333 443.81 622.046 442.667 619.302C441.752 616.559 439.923 614.501 437.636 612.214C435.349 609.927 431.92 608.327 428.032 606.955C424.145 605.583 419.115 604.897 412.941 604.897C400.822 604.897 392.819 607.412 388.246 612.443C384.587 616.787 382.301 622.046 381.843 628.22C381.843 629.592 380.7 630.507 379.328 630.507H353.718C352.346 630.507 351.203 629.363 351.203 627.991V621.589C351.203 615.415 352.346 609.699 354.633 604.44C356.92 599.181 360.578 594.379 365.837 590.263C370.868 586.376 377.27 582.946 385.273 580.888C393.048 579.287 402.423 577.915 413.398 577.915ZM444.724 674.409C444.267 676.924 442.895 678.525 441.066 679.897C439.008 681.269 437.407 681.955 435.578 682.641C431.92 684.013 427.804 685.385 423.688 686.757C419.572 688.357 415.456 689.729 411.798 690.873C407.453 692.473 403.109 693.845 399.45 695.217C396.478 696.589 393.734 698.19 390.99 700.248C388.703 702.306 386.874 704.592 385.045 707.793C383.215 710.995 382.301 714.653 382.301 719.226C382.301 728.373 384.587 735.232 388.932 739.806C393.276 744.15 401.508 746.665 413.398 746.665C425.517 746.665 433.749 744.15 438.322 739.577C442.667 734.775 444.953 728.144 444.953 719.455L444.724 674.409ZM866.828 577.915C888.093 577.915 903.871 582.031 913.932 590.491C923.764 598.952 928.795 609.47 928.795 622.046V639.196V718.998V729.516C928.795 733.86 927.88 738.662 926.279 743.921C924.679 749.181 921.706 753.982 917.133 758.327C912.56 762.671 906.157 766.33 898.154 769.302C890.151 772.275 879.633 773.647 866.828 773.647C853.795 773.647 843.505 772.046 835.502 769.302C827.499 766.559 821.096 762.671 816.523 758.327C811.95 753.982 808.749 749.181 807.377 743.921C805.776 738.662 804.862 733.86 804.862 729.516V712.366C804.862 703.22 807.377 694.76 811.95 687.214C816.752 679.668 823.383 674.181 832.072 671.208C836.416 669.607 841.218 668.235 846.935 666.177C852.423 664.12 857.91 662.519 863.17 660.461C868.429 658.632 872.773 657.031 876.889 655.659C880.776 654.059 883.291 653.373 884.206 652.915C885.121 652.458 886.493 651.772 887.865 650.857C889.465 649.943 890.837 648.571 892.438 647.199C894.038 645.37 895.182 643.54 896.096 641.482C897.24 639.196 897.697 636.681 897.697 633.708V626.848C897.697 624.333 897.24 622.046 896.096 619.302C895.182 616.559 893.352 614.501 891.066 612.214C888.551 609.927 885.349 608.327 881.462 606.955C877.575 605.583 872.545 604.897 866.371 604.897C854.252 604.897 846.249 607.412 841.676 612.443C838.017 616.787 835.731 622.046 835.273 628.22C835.273 629.592 834.13 630.507 832.758 630.507H806.462C805.09 630.507 803.947 629.363 803.947 627.991V621.589C803.947 615.415 805.09 609.699 807.377 604.44C809.663 599.181 813.322 594.379 818.581 590.263C823.612 586.376 830.014 582.946 838.017 580.888C846.477 579.287 855.852 577.915 866.828 577.915ZM897.926 674.409C897.468 676.924 896.096 678.525 894.267 679.897C892.209 681.269 890.609 681.955 888.779 682.641C885.121 684.013 881.005 685.385 876.889 686.757C872.773 688.357 868.657 689.729 864.999 690.873C860.654 692.473 856.31 693.845 852.651 695.217C849.679 696.589 846.935 698.19 844.191 700.248C841.904 702.306 840.075 704.592 838.246 707.793C836.416 710.766 835.502 714.653 835.502 719.226C835.502 728.373 837.788 735.232 842.133 739.806C846.477 744.15 854.709 746.665 866.599 746.665C878.718 746.665 886.95 744.15 891.523 739.577C895.868 734.775 898.154 728.144 898.154 719.455L897.926 674.409Z" fill="white"/>
</svg>
