<?xml version="1.0"?>
<svg width="523" height="60" viewBox="0 0 523 60" fill="none" xmlns="http://www.w3.org/2000/svg"> <path d="M9.64599 0H523L513.354 60H0L9.64599 0Z" fill="url(#paint0_linear_199_27466)"></path> <path d="M63.001 25.4117L63.9893 19.8H73.7657L69.354 44.8235H63.0716L66.4951 25.4117H63.001ZM78.7414 25.4117L79.7296 19.8H89.5061L85.0943 44.8235H78.812L82.2355 25.4117H78.7414ZM103.497 34.9411C103.85 32.9176 104.545 31.1411 105.58 29.6117C106.615 28.0823 107.862 26.9058 109.321 26.0823C110.78 25.2588 112.321 24.847 113.945 24.847C115.239 24.847 116.368 25.1176 117.333 25.6588C118.321 26.2 119.039 26.9294 119.486 27.847L121.109 18.7058H127.145L122.521 44.8235H116.486L116.98 42C116.227 42.9411 115.286 43.6941 114.156 44.2588C113.027 44.8235 111.768 45.1058 110.38 45.1058C108.992 45.1058 107.756 44.7882 106.674 44.1529C105.615 43.5176 104.78 42.6117 104.168 41.4353C103.58 40.2588 103.286 38.8823 103.286 37.3058C103.286 36.5764 103.356 35.7882 103.497 34.9411ZM118.25 34.9764C118.321 34.5529 118.356 34.1647 118.356 33.8117C118.356 32.6588 118.015 31.7529 117.333 31.0941C116.674 30.4353 115.827 30.1058 114.792 30.1058C113.592 30.1058 112.497 30.5411 111.509 31.4117C110.521 32.2588 109.897 33.4353 109.639 34.9411C109.568 35.3647 109.533 35.7529 109.533 36.1058C109.533 37.2588 109.862 38.1764 110.521 38.8588C111.203 39.5176 112.05 39.847 113.062 39.847C114.262 39.847 115.356 39.4117 116.345 38.5411C117.333 37.6705 117.968 36.4823 118.25 34.9764ZM141.64 24.847C144.181 24.847 146.193 25.5411 147.675 26.9294C149.181 28.2941 149.934 30.1647 149.934 32.5411C149.934 33.3176 149.875 34.0117 149.758 34.6235C149.664 35.1647 149.523 35.7411 149.334 36.3529H135.675C135.652 36.4941 135.64 36.7176 135.64 37.0235C135.64 38.0588 135.923 38.847 136.487 39.3882C137.052 39.9294 137.805 40.2 138.746 40.2C140.252 40.2 141.405 39.5647 142.205 38.2941H148.628C147.781 40.2941 146.405 41.9294 144.499 43.2C142.593 44.4705 140.452 45.1058 138.075 45.1058C135.534 45.1058 133.499 44.4 131.97 42.9882C130.464 41.5764 129.711 39.6588 129.711 37.2353C129.711 36.5058 129.781 35.7529 129.923 34.9764C130.275 32.9294 131.005 31.1411 132.111 29.6117C133.217 28.0823 134.593 26.9058 136.24 26.0823C137.887 25.2588 139.687 24.847 141.64 24.847ZM143.828 33.2823C143.875 32.9529 143.899 32.7294 143.899 32.6117C143.899 31.6705 143.605 30.9529 143.017 30.4588C142.428 29.9411 141.652 29.6823 140.687 29.6823C139.652 29.6823 138.734 30 137.934 30.6353C137.158 31.247 136.593 32.1294 136.24 33.2823H143.828ZM192.875 24.9176C194.993 24.9176 196.64 25.4823 197.816 26.6117C199.016 27.7176 199.616 29.2705 199.616 31.2705C199.616 31.8823 199.546 32.5647 199.405 33.3176L197.357 44.8235H191.357L193.263 34.1294C193.31 33.8941 193.334 33.5764 193.334 33.1764C193.334 32.1882 193.052 31.4353 192.487 30.9176C191.946 30.4 191.181 30.1411 190.193 30.1411C189.016 30.1411 188.028 30.4941 187.228 31.2C186.428 31.8823 185.922 32.8588 185.71 34.1294L183.805 44.8235H177.805L179.71 34.1294C179.757 33.8941 179.781 33.5764 179.781 33.1764C179.781 32.1882 179.499 31.4353 178.934 30.9176C178.393 30.4 177.628 30.1411 176.64 30.1411C175.463 30.1411 174.475 30.4941 173.675 31.2C172.875 31.8823 172.369 32.8588 172.157 34.1294V33.9529L170.252 44.8235H164.216L167.675 25.1294H173.71L173.287 27.6353C174.04 26.7882 174.946 26.1294 176.005 25.6588C177.087 25.1647 178.252 24.9176 179.499 24.9176C181.005 24.9176 182.275 25.2353 183.31 25.8705C184.369 26.5058 185.122 27.4235 185.569 28.6235C186.44 27.5176 187.522 26.6235 188.816 25.9411C190.11 25.2588 191.463 24.9176 192.875 24.9176ZM204.614 34.9411C204.967 32.9176 205.661 31.1411 206.696 29.6117C207.731 28.0823 208.978 26.9058 210.437 26.0823C211.896 25.2588 213.437 24.847 215.061 24.847C216.449 24.847 217.614 25.1294 218.555 25.6941C219.496 26.2588 220.178 27 220.602 27.9176L221.096 25.1294H227.131L223.637 44.8235H217.602L218.131 42.0353C217.378 42.9529 216.425 43.6941 215.273 44.2588C214.12 44.8235 212.849 45.1058 211.461 45.1058C210.073 45.1058 208.837 44.7882 207.755 44.1529C206.696 43.5176 205.873 42.6235 205.284 41.4705C204.696 40.2941 204.402 38.9176 204.402 37.3411C204.402 36.5882 204.473 35.7882 204.614 34.9411ZM219.367 34.9764C219.437 34.5529 219.473 34.1647 219.473 33.8117C219.473 32.6588 219.131 31.7529 218.449 31.0941C217.79 30.4353 216.943 30.1058 215.908 30.1058C214.708 30.1058 213.614 30.5411 212.625 31.4117C211.637 32.2588 211.014 33.4353 210.755 34.9411C210.684 35.3647 210.649 35.7529 210.649 36.1058C210.649 37.2588 210.978 38.1764 211.637 38.8588C212.32 39.5176 213.167 39.847 214.178 39.847C215.378 39.847 216.473 39.4117 217.461 38.5411C218.449 37.6705 219.084 36.4823 219.367 34.9764ZM239.333 28.6941C240.251 27.5176 241.298 26.6 242.474 25.9411C243.674 25.2588 244.921 24.9176 246.215 24.9176L245.086 31.3058H243.427C241.921 31.3058 240.733 31.6353 239.862 32.2941C238.992 32.9294 238.415 34.0588 238.133 35.6823L236.509 44.8235H230.474L233.933 25.1294H239.968L239.333 28.6941ZM257.5 39.9529C259.053 39.9529 260.218 39.2 260.994 37.6941H267.453C266.629 39.6941 265.441 41.3294 263.888 42.6C262.335 43.8705 260.535 44.6588 258.488 44.9647L258.241 46.2705C259.324 46.2705 260.241 46.5294 260.994 47.047C261.771 47.5882 262.159 48.3882 262.159 49.447C262.159 49.8 262.135 50.0823 262.088 50.2941C261.853 51.6353 261.194 52.647 260.112 53.3294C259.029 54.0353 257.818 54.3882 256.476 54.3882H251.041L251.641 51.0705H256.229C256.7 51.0705 257.065 51 257.324 50.8588C257.606 50.7176 257.771 50.4823 257.818 50.1529C257.888 49.8235 257.818 49.5882 257.606 49.447C257.394 49.3294 257.053 49.2705 256.582 49.2705H254.076L254.853 44.9647C252.853 44.6353 251.276 43.8 250.124 42.4588C248.971 41.0941 248.394 39.3529 248.394 37.2353C248.394 36.5058 248.465 35.7529 248.606 34.9764C248.959 32.9294 249.688 31.1411 250.794 29.6117C251.9 28.0823 253.265 26.9058 254.888 26.0823C256.535 25.2588 258.324 24.847 260.253 24.847C262.724 24.847 264.676 25.4941 266.112 26.7882C267.547 28.0823 268.312 29.9058 268.406 32.2588H261.982C261.724 30.7529 260.806 30 259.229 30C258.124 30 257.171 30.4353 256.371 31.3058C255.571 32.1529 255.029 33.3764 254.747 34.9764C254.653 35.4705 254.606 35.9882 254.606 36.5294C254.606 37.6353 254.865 38.4823 255.382 39.0705C255.9 39.6588 256.606 39.9529 257.5 39.9529ZM280.881 45.1058C279.187 45.1058 277.681 44.7647 276.364 44.0823C275.046 43.4 274.022 42.4353 273.293 41.1882C272.587 39.9411 272.234 38.4941 272.234 36.847C272.234 34.6117 272.764 32.5764 273.822 30.7411C274.881 28.9058 276.34 27.4705 278.199 26.4353C280.058 25.3764 282.128 24.847 284.411 24.847C286.105 24.847 287.611 25.2 288.928 25.9058C290.27 26.5882 291.305 27.5529 292.034 28.8C292.764 30.047 293.128 31.4941 293.128 33.1411C293.128 35.4 292.587 37.447 291.505 39.2823C290.446 41.0941 288.975 42.5176 287.093 43.5529C285.234 44.5882 283.164 45.1058 280.881 45.1058ZM281.728 39.9176C282.717 39.9176 283.599 39.6235 284.375 39.0353C285.175 38.4235 285.787 37.647 286.211 36.7058C286.658 35.7411 286.881 34.7411 286.881 33.7058C286.881 32.5294 286.564 31.6235 285.928 30.9882C285.293 30.3529 284.493 30.0353 283.528 30.0353C282.517 30.0353 281.622 30.3411 280.846 30.9529C280.093 31.5411 279.505 32.3176 279.081 33.2823C278.658 34.247 278.446 35.2588 278.446 36.3176C278.446 37.4705 278.752 38.3647 279.364 39C279.975 39.6117 280.764 39.9176 281.728 39.9176ZM308.028 34.9411C308.381 32.9176 309.075 31.1411 310.111 29.6117C311.146 28.0823 312.393 26.9058 313.852 26.0823C315.311 25.2588 316.852 24.847 318.475 24.847C319.769 24.847 320.899 25.1176 321.864 25.6588C322.852 26.2 323.569 26.9294 324.016 27.847L325.64 18.7058H331.675L327.052 44.8235H321.016L321.511 42C320.758 42.9411 319.816 43.6941 318.687 44.2588C317.558 44.8235 316.299 45.1058 314.911 45.1058C313.522 45.1058 312.287 44.7882 311.205 44.1529C310.146 43.5176 309.311 42.6117 308.699 41.4353C308.111 40.2588 307.816 38.8823 307.816 37.3058C307.816 36.5764 307.887 35.7882 308.028 34.9411ZM322.781 34.9764C322.852 34.5529 322.887 34.1647 322.887 33.8117C322.887 32.6588 322.546 31.7529 321.864 31.0941C321.205 30.4353 320.358 30.1058 319.322 30.1058C318.122 30.1058 317.028 30.5411 316.04 31.4117C315.052 32.2588 314.428 33.4353 314.169 34.9411C314.099 35.3647 314.064 35.7529 314.064 36.1058C314.064 37.2588 314.393 38.1764 315.052 38.8588C315.734 39.5176 316.581 39.847 317.593 39.847C318.793 39.847 319.887 39.4117 320.875 38.5411C321.864 37.6705 322.499 36.4823 322.781 34.9764ZM346.171 24.847C348.712 24.847 350.724 25.5411 352.206 26.9294C353.712 28.2941 354.465 30.1647 354.465 32.5411C354.465 33.3176 354.406 34.0117 354.289 34.6235C354.195 35.1647 354.053 35.7411 353.865 36.3529H340.206C340.183 36.4941 340.171 36.7176 340.171 37.0235C340.171 38.0588 340.453 38.847 341.018 39.3882C341.583 39.9294 342.336 40.2 343.277 40.2C344.783 40.2 345.936 39.5647 346.736 38.2941H353.159C352.312 40.2941 350.936 41.9294 349.03 43.2C347.124 44.4705 344.983 45.1058 342.606 45.1058C340.065 45.1058 338.03 44.4 336.5 42.9882C334.995 41.5764 334.242 39.6588 334.242 37.2353C334.242 36.5058 334.312 35.7529 334.453 34.9764C334.806 32.9294 335.536 31.1411 336.642 29.6117C337.747 28.0823 339.124 26.9058 340.771 26.0823C342.418 25.2588 344.218 24.847 346.171 24.847ZM348.359 33.2823C348.406 32.9529 348.43 32.7294 348.43 32.6117C348.43 31.6705 348.136 30.9529 347.547 30.4588C346.959 29.9411 346.183 29.6823 345.218 29.6823C344.183 29.6823 343.265 30 342.465 30.6353C341.689 31.247 341.124 32.1294 340.771 33.2823H348.359ZM370.159 39C372.724 37.1647 374.771 35.647 376.3 34.447C377.829 33.247 379.147 32.0235 380.253 30.7764C381.382 29.5058 382.041 28.2941 382.229 27.1411C382.3 26.8117 382.335 26.5058 382.335 26.2235C382.335 25.5411 382.147 25.0235 381.771 24.6705C381.418 24.3176 380.877 24.1411 380.147 24.1411C378.335 24.1411 377.182 25.4235 376.688 27.9882H370.829C371.441 25.0235 372.712 22.8 374.641 21.3176C376.594 19.8117 378.829 19.0588 381.347 19.0588C383.794 19.0588 385.606 19.6117 386.782 20.7176C387.982 21.8235 388.582 23.2823 388.582 25.0941C388.582 25.6588 388.535 26.1764 388.441 26.647C388.018 29.047 386.771 31.2823 384.7 33.3529C382.653 35.4235 380.112 37.4941 377.077 39.5647H386.606L385.724 44.4705H368.006L368.782 39.9882L370.159 39ZM393.075 31.9764C393.757 28.0705 395.075 24.9764 397.028 22.6941C399.004 20.3882 401.734 19.2353 405.216 19.2353C408.016 19.2353 410.063 20 411.357 21.5294C412.675 23.0353 413.334 25.1411 413.334 27.847C413.334 28.9529 413.193 30.3294 412.91 31.9764C412.228 35.8823 410.898 38.9882 408.922 41.2941C406.946 43.5764 404.216 44.7176 400.734 44.7176C397.934 44.7176 395.887 43.9647 394.593 42.4588C393.322 40.9294 392.687 38.8117 392.687 36.1058C392.687 34.8588 392.816 33.4823 393.075 31.9764ZM406.946 31.9764C407.204 30.5176 407.334 29.3764 407.334 28.5529C407.334 27.3764 407.098 26.4705 406.628 25.8352C406.157 25.2 405.357 24.8823 404.228 24.8823C402.604 24.8823 401.416 25.5058 400.663 26.7529C399.934 28 399.381 29.7411 399.004 31.9764C398.746 33.4353 398.616 34.5764 398.616 35.4C398.616 36.5764 398.851 37.4823 399.322 38.1176C399.793 38.7529 400.593 39.0705 401.722 39.0705C403.346 39.0705 404.522 38.447 405.251 37.2C406.004 35.9529 406.569 34.2117 406.946 31.9764ZM418.287 39C420.852 37.1647 422.899 35.647 424.428 34.447C425.958 33.247 427.275 32.0235 428.381 30.7764C429.511 29.5058 430.169 28.2941 430.358 27.1411C430.428 26.8117 430.464 26.5058 430.464 26.2235C430.464 25.5411 430.275 25.0235 429.899 24.6705C429.546 24.3176 429.005 24.1411 428.275 24.1411C426.464 24.1411 425.311 25.4235 424.816 27.9882H418.958C419.569 25.0235 420.84 22.8 422.769 21.3176C424.722 19.8117 426.958 19.0588 429.475 19.0588C431.922 19.0588 433.734 19.6117 434.911 20.7176C436.111 21.8235 436.711 23.2823 436.711 25.0941C436.711 25.6588 436.664 26.1764 436.569 26.647C436.146 29.047 434.899 31.2823 432.828 33.3529C430.781 35.4235 428.24 37.4941 425.205 39.5647H434.734L433.852 44.4705H416.134L416.911 39.9882L418.287 39ZM442.403 26.3294C442.944 23.8117 444.109 21.8705 445.897 20.5058C447.685 19.1411 449.909 18.4588 452.568 18.4588C454.897 18.4588 456.685 18.9882 457.933 20.047C459.18 21.1058 459.803 22.4823 459.803 24.1764C459.803 24.6 459.768 25.0235 459.697 25.447C459.415 27 458.803 28.2705 457.862 29.2588C456.921 30.2235 455.897 30.8823 454.791 31.2353V31.3764C455.85 31.7529 456.674 32.3411 457.262 33.1411C457.85 33.9176 458.144 34.9058 458.144 36.1058C458.144 36.6235 458.097 37.1176 458.003 37.5882C457.603 39.8 456.533 41.6 454.791 42.9882C453.05 44.3529 450.862 45.0353 448.227 45.0353C445.709 45.0353 443.721 44.4823 442.262 43.3764C440.827 42.2705 440.109 40.5882 440.109 38.3294C440.109 38.0235 440.156 37.4705 440.25 36.6705H446.109C446.062 37.047 446.038 37.3058 446.038 37.447C446.038 38.2705 446.274 38.9058 446.744 39.3529C447.215 39.8 447.921 40.0235 448.862 40.0235C449.921 40.0235 450.768 39.6823 451.403 39C452.038 38.3176 452.356 37.447 452.356 36.3882C452.356 35.5176 452.027 34.8941 451.368 34.5176C450.733 34.1176 449.721 33.9176 448.333 33.9176H447.203L448.085 29.0117H449.215C451.874 29.0117 453.38 28.0705 453.733 26.1882C453.78 25.9058 453.803 25.6941 453.803 25.5529C453.803 24.8941 453.603 24.3882 453.203 24.0352C452.827 23.6823 452.274 23.5058 451.544 23.5058C450.65 23.5058 449.933 23.7764 449.391 24.3176C448.85 24.8588 448.474 25.5294 448.262 26.3294H442.403Z" fill="white"></path> <defs> <linearGradient id="paint0_linear_199_27466" x1="292.493" y1="60" x2="290.438" y2="-18.5506" gradientUnits="userSpaceOnUse"> <stop stop-color="#8C4BFF"></stop> <stop offset="1" stop-color="#C54BFF" stop-opacity="0.79"></stop> </linearGradient> </defs> </svg> 