<?xml version="1.0"?>
<svg width="121" height="119" viewBox="0 0 121 119" fill="none" xmlns="http://www.w3.org/2000/svg"> <path d="M42.9087 56.124L70.6494 33.2144L106.128 39.1844L78.3877 62.094L42.9087 56.124Z" fill="url(#paint0_linear_205_35284)"></path> <path d="M116.402 78.5205L106.136 39.3477L106.079 39.1328L78.3442 61.9977L88.8601 101.244L116.402 78.5205Z" fill="url(#paint1_linear_205_35284)"></path> <path d="M53.6345 95.2935L42.9387 56.2359L42.8811 56.021L78.3325 61.9552L88.8484 101.201L53.6345 95.2935Z" fill="url(#paint2_linear_205_35284)"></path> <path d="M3.86279 40.0308L31.6035 17.1211L67.0825 23.0911L39.3418 46.0008L3.86279 40.0308Z" fill="url(#paint3_linear_205_35284)"></path> <path d="M77.3565 62.4273L67.0906 23.2545L67.033 23.0396L39.2983 45.9044L49.8142 85.1504L77.3565 62.4273Z" fill="url(#paint4_linear_205_35284)"></path> <path d="M14.5886 79.2003L3.89277 40.1427L3.83518 39.9277L39.2866 45.862L49.8025 85.1079L14.5886 79.2003Z" fill="url(#paint5_linear_205_35284)"></path> <defs> <linearGradient id="paint0_linear_205_35284" x1="69.99" y1="29.961" x2="79.895" y2="66.927" gradientUnits="userSpaceOnUse"> <stop stop-color="#C193FF"></stop> <stop offset="1" stop-color="#EDDBFF"></stop> </linearGradient> <linearGradient id="paint1_linear_205_35284" x1="86.8464" y1="30.9722" x2="111.033" y2="121.238" gradientUnits="userSpaceOnUse"> <stop stop-color="#AD78FF"></stop> <stop offset="1" stop-color="#C193FF"></stop> </linearGradient> <linearGradient id="paint2_linear_205_35284" x1="47.189" y1="31.6937" x2="59.0286" y2="116.284" gradientUnits="userSpaceOnUse"> <stop stop-color="#C193FF"></stop> <stop offset="1" stop-color="#8C4BFF"></stop> </linearGradient> <linearGradient id="paint3_linear_205_35284" x1="30.9441" y1="13.8677" x2="40.8491" y2="50.8337" gradientUnits="userSpaceOnUse"> <stop stop-color="#C193FF"></stop> <stop offset="1" stop-color="#EDDBFF"></stop> </linearGradient> <linearGradient id="paint4_linear_205_35284" x1="47.8005" y1="14.879" x2="71.9872" y2="105.145" gradientUnits="userSpaceOnUse"> <stop stop-color="#AD78FF"></stop> <stop offset="1" stop-color="#C193FF"></stop> </linearGradient> <linearGradient id="paint5_linear_205_35284" x1="8.1431" y1="15.6004" x2="19.9827" y2="100.191" gradientUnits="userSpaceOnUse"> <stop stop-color="#C193FF"></stop> <stop offset="1" stop-color="#8C4BFF"></stop> </linearGradient> </defs> </svg> 