<?xml version="1.0"?>
<svg width="145" height="143" viewBox="0 0 145 143" fill="none" xmlns="http://www.w3.org/2000/svg"> <g filter="url(#filter0_f_199_22366)"> <path d="M25.293 24.926L66.9482 17.9168L99.5181 44.8146L57.8629 51.8239L25.293 24.926Z" fill="url(#paint0_linear_199_22366)"></path> <path d="M86.8718 90.8426L99.4295 44.9858L99.4971 44.7334L57.8743 51.7007L45.5277 97.7786L86.8718 90.8426Z" fill="url(#paint1_linear_199_22366)"></path> <path d="M13.2044 71.0493L25.2575 25.0572L25.3251 24.8049L57.8879 51.6502L45.5414 97.7281L13.2044 71.0493Z" fill="url(#paint2_linear_199_22366)"></path> <path d="M57.6689 51.4509L99.3242 44.4417L131.894 71.3395L90.2388 78.3488L57.6689 51.4509Z" fill="url(#paint3_linear_199_22366)"></path> <path d="M119.248 117.368L131.806 71.5107L131.873 71.2583L90.2503 78.2256L77.9037 124.304L119.248 117.368Z" fill="url(#paint4_linear_199_22366)"></path> <path d="M45.5804 97.5742L57.6335 51.5821L57.7011 51.3298L90.2639 78.1751L77.9174 124.253L45.5804 97.5742Z" fill="url(#paint5_linear_199_22366)"></path> </g> <defs> <filter id="filter0_f_199_22366" x="0.462891" y="0" width="143.927" height="142.14" filterUnits="userSpaceOnUse" color-interpolation-filters="sRGB"> <feFlood flood-opacity="0" result="BackgroundImageFix"></feFlood> <feBlend mode="normal" in="SourceGraphic" in2="BackgroundImageFix" result="shape"></feBlend> <feGaussianBlur stdDeviation="4" result="effect1_foregroundBlur_199_22366"></feGaussianBlur> </filter> <linearGradient id="paint0_linear_199_22366" x1="68.1876" y1="14.2217" x2="56.5583" y2="57.6228" gradientUnits="userSpaceOnUse"> <stop stop-color="#61B270"></stop> <stop offset="1" stop-color="#DDF8DA"></stop> </linearGradient> <linearGradient id="paint1_linear_199_22366" x1="84.7325" y1="25.1456" x2="56.3353" y2="131.125" gradientUnits="userSpaceOnUse"> <stop stop-color="#61B270"></stop> <stop offset="1" stop-color="#89D890"></stop> </linearGradient> <linearGradient id="paint2_linear_199_22366" x1="43.9865" y1="2.59814" x2="6.36663" y2="95.559" gradientUnits="userSpaceOnUse"> <stop stop-color="#89D890"></stop> <stop offset="1" stop-color="#328048"></stop> </linearGradient> <linearGradient id="paint3_linear_199_22366" x1="100.564" y1="40.7466" x2="88.9343" y2="84.1477" gradientUnits="userSpaceOnUse"> <stop stop-color="#61B270"></stop> <stop offset="1" stop-color="#DDF8DA"></stop> </linearGradient> <linearGradient id="paint4_linear_199_22366" x1="117.108" y1="51.6705" x2="88.7113" y2="157.65" gradientUnits="userSpaceOnUse"> <stop stop-color="#61B270"></stop> <stop offset="1" stop-color="#89D890"></stop> </linearGradient> <linearGradient id="paint5_linear_199_22366" x1="76.3625" y1="29.123" x2="38.7426" y2="122.084" gradientUnits="userSpaceOnUse"> <stop stop-color="#89D890"></stop> <stop offset="1" stop-color="#328048"></stop> </linearGradient> </defs> </svg> 