<?xml version="1.0"?>
<svg width="149" height="150" viewBox="0 0 149 150" fill="none" xmlns="http://www.w3.org/2000/svg"> <g filter="url(#filter0_f_199_32030)"> <path d="M39.4951 51.0369L75.6384 23.7499L119.927 33.2055L83.7841 60.4925L39.4951 51.0369Z" fill="url(#paint0_linear_199_32030)"></path> <path d="M130.687 83.2373L119.928 33.4118L119.868 33.1384L83.7343 60.3694L94.8038 110.301L130.687 83.2373Z" fill="url(#paint1_linear_199_32030)"></path> <path d="M50.8321 100.883L39.526 51.179L39.4654 50.9056L83.7216 60.3147L94.7911 110.246L50.8321 100.883Z" fill="url(#paint2_linear_199_32030)"></path> <path d="M18.3916 67.0422L54.5349 39.7552L98.8238 49.2108L62.6805 76.4978L18.3916 67.0422Z" fill="url(#paint3_linear_199_32030)"></path> <path d="M109.584 99.2427L98.8247 49.4172L98.7641 49.1437L62.6308 76.3747L73.7003 126.306L109.584 99.2427Z" fill="url(#paint4_linear_199_32030)"></path> <path d="M29.7286 116.889L18.4225 67.1844L18.3619 66.911L62.6181 76.32L73.6876 126.251L29.7286 116.889Z" fill="url(#paint5_linear_199_32030)"></path> </g> <defs> <filter id="filter0_f_199_32030" x="0.325195" y="0.873291" width="148.648" height="148.232" filterUnits="userSpaceOnUse" color-interpolation-filters="sRGB"> <feFlood flood-opacity="0" result="BackgroundImageFix"></feFlood> <feBlend mode="normal" in="SourceGraphic" in2="BackgroundImageFix" result="shape"></feBlend> <feGaussianBlur stdDeviation="7" result="effect1_foregroundBlur_199_32030"></feGaussianBlur> </filter> <linearGradient id="paint0_linear_199_32030" x1="74.9878" y1="19.6224" x2="85.4142" y2="66.6529" gradientUnits="userSpaceOnUse"> <stop stop-color="#65C9E7"></stop> <stop offset="1" stop-color="#CCF6FB"></stop> </linearGradient> <linearGradient id="paint1_linear_199_32030" x1="96.1298" y1="21.82" x2="121.59" y2="136.662" gradientUnits="userSpaceOnUse"> <stop stop-color="#3EA4CF"></stop> <stop offset="1" stop-color="#65C9E7"></stop> </linearGradient> <linearGradient id="paint2_linear_199_32030" x1="46.2186" y1="20.5492" x2="56.4629" y2="127.576" gradientUnits="userSpaceOnUse"> <stop stop-color="#65C9E7"></stop> <stop offset="1" stop-color="#0C75AF"></stop> </linearGradient> <linearGradient id="paint3_linear_199_32030" x1="53.8843" y1="35.6277" x2="64.3107" y2="82.6583" gradientUnits="userSpaceOnUse"> <stop stop-color="#65C9E7"></stop> <stop offset="1" stop-color="#CCF6FB"></stop> </linearGradient> <linearGradient id="paint4_linear_199_32030" x1="75.0263" y1="37.8254" x2="100.486" y2="152.667" gradientUnits="userSpaceOnUse"> <stop stop-color="#3EA4CF"></stop> <stop offset="1" stop-color="#65C9E7"></stop> </linearGradient> <linearGradient id="paint5_linear_199_32030" x1="25.1151" y1="36.5546" x2="35.3594" y2="143.582" gradientUnits="userSpaceOnUse"> <stop stop-color="#65C9E7"></stop> <stop offset="1" stop-color="#0C75AF"></stop> </linearGradient> </defs> </svg> 