<?xml version="1.0"?>
<svg width="222" height="192" viewBox="0 0 222 192" fill="none" xmlns="http://www.w3.org/2000/svg"> <g filter="url(#filter0_f_199_22384)"> <path d="M84.2461 91.3396L126.428 56.5039L180.376 65.5817L138.194 100.417L84.2461 91.3396Z" fill="url(#paint0_linear_199_22384)"></path> <path d="M195.998 125.396L180.388 65.8307L180.3 65.5039L138.128 100.271L154.118 159.947L195.998 125.396Z" fill="url(#paint1_linear_199_22384)"></path> <path d="M100.555 150.899L84.2914 91.5097L84.2038 91.1829L138.11 100.206L154.1 159.882L100.555 150.899Z" fill="url(#paint2_linear_199_22384)"></path> <path d="M24.874 66.8689L67.0556 32.0332L121.004 41.111L78.8222 75.9467L24.874 66.8689Z" fill="url(#paint3_linear_199_22384)"></path> <path d="M136.626 100.925L121.016 41.36L120.928 41.0332L78.7555 75.8007L94.7457 135.477L136.626 100.925Z" fill="url(#paint4_linear_199_22384)"></path> <path d="M41.183 126.429L24.9193 67.039L24.8318 66.7122L78.738 75.7356L94.7281 135.412L41.183 126.429Z" fill="url(#paint5_linear_199_22384)"></path> </g> <defs> <filter id="filter0_f_199_22384" x="0" y="0.203613" width="221.121" height="191.483" filterUnits="userSpaceOnUse" color-interpolation-filters="sRGB"> <feFlood flood-opacity="0" result="BackgroundImageFix"></feFlood> <feBlend mode="normal" in="SourceGraphic" in2="BackgroundImageFix" result="shape"></feBlend> <feGaussianBlur stdDeviation="9.5" result="effect1_foregroundBlur_199_22384"></feGaussianBlur> </filter> <linearGradient id="paint0_linear_199_22384" x1="125.425" y1="51.557" x2="140.486" y2="107.766" gradientUnits="userSpaceOnUse"> <stop stop-color="#C193FF"></stop> <stop offset="1" stop-color="#EDDBFF"></stop> </linearGradient> <linearGradient id="paint1_linear_199_22384" x1="151.056" y1="53.0952" x2="187.833" y2="190.35" gradientUnits="userSpaceOnUse"> <stop stop-color="#AD78FF"></stop> <stop offset="1" stop-color="#C193FF"></stop> </linearGradient> <linearGradient id="paint2_linear_199_22384" x1="90.7543" y1="54.1916" x2="108.757" y2="182.817" gradientUnits="userSpaceOnUse"> <stop stop-color="#C193FF"></stop> <stop offset="1" stop-color="#8C4BFF"></stop> </linearGradient> <linearGradient id="paint3_linear_199_22384" x1="66.0529" y1="27.0863" x2="81.1142" y2="83.2955" gradientUnits="userSpaceOnUse"> <stop stop-color="#C193FF"></stop> <stop offset="1" stop-color="#EDDBFF"></stop> </linearGradient> <linearGradient id="paint4_linear_199_22384" x1="91.6838" y1="28.6245" x2="128.461" y2="165.88" gradientUnits="userSpaceOnUse"> <stop stop-color="#AD78FF"></stop> <stop offset="1" stop-color="#C193FF"></stop> </linearGradient> <linearGradient id="paint5_linear_199_22384" x1="31.3823" y1="29.7209" x2="49.3851" y2="158.347" gradientUnits="userSpaceOnUse"> <stop stop-color="#C193FF"></stop> <stop offset="1" stop-color="#8C4BFF"></stop> </linearGradient> </defs> </svg> 