<?xml version="1.0"?>
<svg width="1920" height="1080" viewBox="0 0 1920 1080" fill="none" xmlns="http://www.w3.org/2000/svg"> <g clip-path="url(#clip0_207_35804)"> <g clip-path="url(#clip1_207_35804)"> <rect width="1920" height="1080" fill="#0E0128"></rect> <g clip-path="url(#clip2_207_35804)"> <rect width="1961.27" height="1083.24" transform="translate(-31.3301)" fill="#111121"></rect> <g opacity="0.8"> <g filter="url(#filter0_dd_207_35804)"> <path d="M8364.02 2348.7L1074.37 -379.257" stroke="#B7D8FF" stroke-width="2.80366"></path> <path d="M7980.35 2348.7L1074.37 -379.257" stroke="#B7D8FF" stroke-width="2.80366"></path> <path d="M-1611.29 2348.7L1074.37 -379.257" stroke="#B7D8FF" stroke-width="2.80366"></path> <path d="M3760.03 2348.7L1074.37 -379.257" stroke="#B7D8FF" stroke-width="2.80366"></path> <path d="M-1227.62 2348.7L1074.37 -379.257" stroke="#B7D8FF" stroke-width="2.80366"></path> <path d="M3376.36 2348.7L1074.37 -379.257" stroke="#B7D8FF" stroke-width="2.80366"></path> <path d="M-76.625 2348.7L1074.37 -379.257" stroke="#B7D8FF" stroke-width="2.80366"></path> <path d="M2225.37 2348.7L1074.37 -379.257" stroke="#B7D8FF" stroke-width="2.80366"></path> <path d="M307.95 2348.7L1075.28 -379.257" stroke="#B7D8FF" stroke-width="2.80366"></path> <path d="M1841.7 2348.7L1074.37 -379.257" stroke="#B7D8FF" stroke-width="2.80366"></path> <path d="M689.793 2348.7L1073.46 -379.257" stroke="#B7D8FF" stroke-width="2.80366"></path> <path d="M1074.37 2348.7V-379.257" stroke="#B7D8FF" stroke-width="2.80366"></path> <path d="M1458.04 2348.7L1074.37 -379.257" stroke="#B7D8FF" stroke-width="2.80366"></path> <path d="M-843.958 2348.7L1074.37 -379.257" stroke="#B7D8FF" stroke-width="2.80366"></path> <path d="M2992.7 2348.7L1074.37 -379.257" stroke="#B7D8FF" stroke-width="2.80366"></path> <path d="M-460.291 2348.7L1074.37 -379.257" stroke="#B7D8FF" stroke-width="2.80366"></path> <path d="M2609.03 2348.7L1074.37 -379.257" stroke="#B7D8FF" stroke-width="2.80366"></path> <path d="M-2378.62 2348.7L1074.37 -379.257" stroke="#B7D8FF" stroke-width="2.80366"></path> <path d="M4527.36 2348.7L1074.37 -379.257" stroke="#B7D8FF" stroke-width="2.80366"></path> <path d="M-1994.95 2348.7L1074.37 -379.257" stroke="#B7D8FF" stroke-width="2.80366"></path> <path d="M4143.69 2348.7L1074.37 -379.257" stroke="#B7D8FF" stroke-width="2.80366"></path> <path d="M-3145.95 2348.7L1074.37 -379.257" stroke="#B7D8FF" stroke-width="2.80366"></path> <path d="M5294.69 2348.7L1074.37 -379.257" stroke="#B7D8FF" stroke-width="2.80366"></path> <path d="M-2762.29 2348.7L1074.37 -379.257" stroke="#B7D8FF" stroke-width="2.80366"></path> <path d="M4911.03 2348.7L1074.37 -379.257" stroke="#B7D8FF" stroke-width="2.80366"></path> <path d="M-3913.28 2348.7L1074.37 -379.257" stroke="#B7D8FF" stroke-width="2.80366"></path> <path d="M6062.02 2348.7L1074.37 -379.257" stroke="#B7D8FF" stroke-width="2.80366"></path> <path d="M-3529.62 2348.7L1074.37 -379.257" stroke="#B7D8FF" stroke-width="2.80366"></path> <path d="M5678.36 2348.7L1074.37 -379.257" stroke="#B7D8FF" stroke-width="2.80366"></path> <path d="M-4680.61 2348.7L1074.37 -379.257" stroke="#B7D8FF" stroke-width="2.80366"></path> <path d="M6829.36 2348.7L1074.38 -379.257" stroke="#B7D8FF" stroke-width="2.80366"></path> <path d="M-4296.95 2348.7L1074.37 -379.257" stroke="#B7D8FF" stroke-width="2.80366"></path> <path d="M6445.69 2348.7L1074.37 -379.257" stroke="#B7D8FF" stroke-width="2.80366"></path> <path d="M7596.68 2348.7L1074.37 -379.257" stroke="#B7D8FF" stroke-width="2.80366"></path> <path d="M-5064.28 2348.7L1074.37 -379.257" stroke="#B7D8FF" stroke-width="2.80366"></path> <path d="M7213.02 2348.7L1074.37 -379.257" stroke="#B7D8FF" stroke-width="2.80366"></path> <path d="M-5639.78 1053.57H8939.51" stroke="#B7D8FF" stroke-width="2.80366"></path> <path d="M-5639.78 1024.88H8939.51" stroke="#B7D8FF" stroke-width="2.80366"></path> <path d="M-5639.78 997.153H8939.51" stroke="#B7D8FF" stroke-width="2.80366"></path> <path d="M-5639.78 970.381H8939.51" stroke="#B7D8FF" stroke-width="2.80366"></path> <path d="M-5639.78 944.564H8939.51" stroke="#B7D8FF" stroke-width="2.80366"></path> <path d="M-5639.78 919.704H8939.51" stroke="#B7D8FF" stroke-width="2.80366"></path> <path d="M-5639.78 895.799H8939.51" stroke="#B7D8FF" stroke-width="2.80366"></path> <path d="M-5639.78 872.851H8939.51" stroke="#B7D8FF" stroke-width="2.80366"></path> <path d="M-5639.78 850.858H8939.51" stroke="#B7D8FF" stroke-width="2.80366"></path> <path d="M-5639.78 829.823H8939.51" stroke="#B7D8FF" stroke-width="2.80366"></path> <path d="M-5639.78 809.744H8939.51" stroke="#B7D8FF" stroke-width="2.80366"></path> <path d="M-5639.78 790.62H8939.51" stroke="#B7D8FF" stroke-width="2.80366"></path> <path d="M-5639.78 772.453H8939.51" stroke="#B7D8FF" stroke-width="2.80366"></path> <path d="M-5639.78 755.242H8939.51" stroke="#B7D8FF" stroke-width="2.80366"></path> <path d="M-5639.78 738.987H8939.51" stroke="#B7D8FF" stroke-width="2.80366"></path> <path d="M-5639.78 723.688H8939.51" stroke="#B7D8FF" stroke-width="2.80366"></path> <path d="M-5639.78 709.347H8939.51" stroke="#B7D8FF" stroke-width="2.80366"></path> <path d="M-5639.78 695.959H8939.51" stroke="#B7D8FF" stroke-width="2.80366"></path> <path d="M-5639.78 683.529H8939.51" stroke="#B7D8FF" stroke-width="2.80366"></path> <path d="M-5639.78 672.056H8939.51" stroke="#B7D8FF" stroke-width="2.80366"></path> <path d="M-5639.78 661.537H8939.51" stroke="#B7D8FF" stroke-width="2.80366"></path> <path d="M-5639.78 651.976H8939.51" stroke="#B7D8FF" stroke-width="2.80366"></path> <path d="M-5639.78 643.37H8939.51" stroke="#B7D8FF" stroke-width="2.80366"></path> <path d="M-5639.78 635.72H8939.51" stroke="#B7D8FF" stroke-width="2.80366"></path> <path d="M-5639.78 629.027H8939.51" stroke="#B7D8FF" stroke-width="2.80366"></path> <path d="M-5639.78 623.29H8939.51" stroke="#B7D8FF" stroke-width="2.80366"></path> <path d="M-5639.78 618.509H8939.51" stroke="#B7D8FF" stroke-width="2.80366"></path> <path d="M-5639.78 614.684H8939.51" stroke="#B7D8FF" stroke-width="2.80366"></path> <path d="M-5639.78 611.816H8939.51" stroke="#B7D8FF" stroke-width="2.80366"></path> <path d="M-5639.78 609.903H8939.51" stroke="#B7D8FF" stroke-width="2.80366"></path> <path d="M-5639.78 608.948H8939.51" stroke="#B7D8FF" stroke-width="2.80366"></path> </g> <rect width="2248.11" height="1261.65" transform="matrix(1 0 0 -1 -40.6572 1132.22)" fill="url(#paint0_linear_207_35804)"></rect> <rect width="2320.4" height="2499.97" transform="matrix(-1 -8.74228e-08 -8.74228e-08 1 2243.6 221.546)" fill="url(#paint1_linear_207_35804)" fill-opacity="0.2"></rect> <rect width="2248.11" height="2498.81" transform="matrix(-1 -8.74228e-08 -8.74228e-08 1 2207.45 696.121)" fill="url(#paint2_linear_207_35804)"></rect> <rect x="-31.3301" y="440.76" width="1961.27" height="151.584" fill="url(#paint3_linear_207_35804)"></rect> </g> <g clip-path="url(#clip3_207_35804)"> <g filter="url(#filter1_dd_207_35804)"> <path d="M-4965.58 -1194.02L1097.9 1075.08" stroke="#B7D8FF" stroke-width="2.33206"></path> <path d="M-4646.45 -1194.02L1097.9 1075.08" stroke="#B7D8FF" stroke-width="2.33206"></path> <path d="M3331.81 -1194.02L1097.9 1075.08" stroke="#B7D8FF" stroke-width="2.33206"></path> <path d="M-1136.01 -1194.02L1097.9 1075.08" stroke="#B7D8FF" stroke-width="2.33206"></path> <path d="M3012.68 -1194.02L1097.9 1075.08" stroke="#B7D8FF" stroke-width="2.33206"></path> <path d="M-816.88 -1194.02L1097.9 1075.08" stroke="#B7D8FF" stroke-width="2.33206"></path> <path d="M2055.29 -1194.02L1097.9 1075.08" stroke="#B7D8FF" stroke-width="2.33206"></path> <path d="M140.51 -1194.02L1097.9 1075.08" stroke="#B7D8FF" stroke-width="2.33206"></path> <path d="M1736.16 -1194.02L1097.9 1075.08" stroke="#B7D8FF" stroke-width="2.33206"></path> <path d="M459.64 -1194.02L1097.9 1075.08" stroke="#B7D8FF" stroke-width="2.33206"></path> <path d="M1417.03 -1194.02L1097.9 1075.08" stroke="#B7D8FF" stroke-width="2.33206"></path> <path d="M1097.9 -1194.02L1097.9 1075.08" stroke="#B7D8FF" stroke-width="2.33206"></path> <path d="M778.77 -1194.02L1097.9 1075.08" stroke="#B7D8FF" stroke-width="2.33206"></path> <path d="M2693.55 -1194.02L1097.9 1075.08" stroke="#B7D8FF" stroke-width="2.33206"></path> <path d="M-497.75 -1194.02L1097.9 1075.08" stroke="#B7D8FF" stroke-width="2.33206"></path> <path d="M2374.42 -1194.02L1097.9 1075.08" stroke="#B7D8FF" stroke-width="2.33206"></path> <path d="M-178.621 -1194.02L1097.9 1075.08" stroke="#B7D8FF" stroke-width="2.33206"></path> <path d="M3970.07 -1194.02L1097.9 1075.08" stroke="#B7D8FF" stroke-width="2.33206"></path> <path d="M-1774.27 -1194.02L1097.9 1075.08" stroke="#B7D8FF" stroke-width="2.33206"></path> <path d="M3650.94 -1194.02L1097.9 1075.08" stroke="#B7D8FF" stroke-width="2.33206"></path> <path d="M-1455.14 -1194.02L1097.9 1075.08" stroke="#B7D8FF" stroke-width="2.33206"></path> <path d="M4608.33 -1194.02L1097.9 1075.08" stroke="#B7D8FF" stroke-width="2.33206"></path> <path d="M-2412.53 -1194.02L1097.9 1075.08" stroke="#B7D8FF" stroke-width="2.33206"></path> <path d="M4289.2 -1194.02L1097.9 1075.08" stroke="#B7D8FF" stroke-width="2.33206"></path> <path d="M-2093.41 -1194.02L1097.9 1075.08" stroke="#B7D8FF" stroke-width="2.33206"></path> <path d="M5246.59 -1194.02L1097.9 1075.08" stroke="#B7D8FF" stroke-width="2.33206"></path> <path d="M-3050.79 -1194.02L1097.9 1075.08" stroke="#B7D8FF" stroke-width="2.33206"></path> <path d="M4927.46 -1194.02L1097.9 1075.08" stroke="#B7D8FF" stroke-width="2.33206"></path> <path d="M-2731.66 -1194.02L1097.9 1075.08" stroke="#B7D8FF" stroke-width="2.33206"></path> <path d="M5884.86 -1194.02L1097.9 1075.08" stroke="#B7D8FF" stroke-width="2.33206"></path> <path d="M-3689.06 -1194.02L1097.9 1075.08" stroke="#B7D8FF" stroke-width="2.33206"></path> <path d="M5565.72 -1194.02L1097.9 1075.08" stroke="#B7D8FF" stroke-width="2.33206"></path> <path d="M-3369.92 -1194.02L1097.9 1075.08" stroke="#B7D8FF" stroke-width="2.33206"></path> <path d="M-4327.31 -1194.02L1097.9 1075.08" stroke="#B7D8FF" stroke-width="2.33206"></path> <path d="M6203.99 -1194.02L1097.9 1075.08" stroke="#B7D8FF" stroke-width="2.33206"></path> <path d="M-4008.18 -1194.02L1097.9 1075.08" stroke="#B7D8FF" stroke-width="2.33206"></path> <path d="M6682.68 14.4985L-5444.27 14.4975" stroke="#B7D8FF" stroke-width="2.33206"></path> <path d="M6682.68 33.5874L-5444.27 33.5863" stroke="#B7D8FF" stroke-width="2.33206"></path> <path d="M6682.68 51.8804L-5444.27 51.8793" stroke="#B7D8FF" stroke-width="2.33206"></path> <path d="M6682.68 69.3774L-5444.27 69.3764" stroke="#B7D8FF" stroke-width="2.33206"></path> <path d="M6682.68 86.0791L-5444.27 86.078" stroke="#B7D8FF" stroke-width="2.33206"></path> <path d="M6682.68 101.987L-5444.27 101.986" stroke="#B7D8FF" stroke-width="2.33206"></path> <path d="M6682.68 117.098L-5444.27 117.097" stroke="#B7D8FF" stroke-width="2.33206"></path> <path d="M6682.68 131.413L-5444.27 131.412" stroke="#B7D8FF" stroke-width="2.33206"></path> <path d="M6682.68 144.934L-5444.27 144.933" stroke="#B7D8FF" stroke-width="2.33206"></path> <path d="M6682.68 157.66L-5444.27 157.659" stroke="#B7D8FF" stroke-width="2.33206"></path> <path d="M6682.68 169.589L-5444.27 169.588" stroke="#B7D8FF" stroke-width="2.33206"></path> <path d="M6682.68 180.724L-5444.27 180.723" stroke="#B7D8FF" stroke-width="2.33206"></path> <path d="M6682.68 191.063L-5444.27 191.062" stroke="#B7D8FF" stroke-width="2.33206"></path> <path d="M6682.68 200.607L-5444.27 200.606" stroke="#B7D8FF" stroke-width="2.33206"></path> <path d="M6682.68 209.356L-5444.27 209.355" stroke="#B7D8FF" stroke-width="2.33206"></path> <path d="M6682.68 217.309L-5444.27 217.308" stroke="#B7D8FF" stroke-width="2.33206"></path> <path d="M6682.68 224.468L-5444.27 224.467" stroke="#B7D8FF" stroke-width="2.33206"></path> <path d="M6682.68 230.831L-5444.27 230.83" stroke="#B7D8FF" stroke-width="2.33206"></path> <path d="M6682.68 236.398L-5444.27 236.397" stroke="#B7D8FF" stroke-width="2.33206"></path> <path d="M6682.68 241.17L-5444.27 241.169" stroke="#B7D8FF" stroke-width="2.33206"></path> <path d="M6682.68 245.146L-5444.27 245.145" stroke="#B7D8FF" stroke-width="2.33206"></path> <path d="M6682.68 248.329L-5444.27 248.328" stroke="#B7D8FF" stroke-width="2.33206"></path> <path d="M6682.68 250.714L-5444.27 250.713" stroke="#B7D8FF" stroke-width="2.33206"></path> <path d="M6682.68 252.305L-5444.27 252.304" stroke="#B7D8FF" stroke-width="2.33206"></path> <path d="M6682.68 253.1L-5444.27 253.099" stroke="#B7D8FF" stroke-width="2.33206"></path> </g> <rect width="1961.27" height="1049.43" transform="matrix(-1 -8.74228e-08 -8.74228e-08 1 1929.94 -181.901)" fill="url(#paint4_linear_207_35804)"></rect> <rect width="1961.27" height="2079.04" transform="matrix(1 1.74846e-07 1.74846e-07 -1 -31.3301 180.735)" fill="url(#paint5_linear_207_35804)"></rect> <rect width="1961.27" height="2079.04" transform="matrix(1 1.74846e-07 1.74846e-07 -1 -31.3301 574.854)" fill="url(#paint6_linear_207_35804)" fill-opacity="0.2"></rect> </g> <rect x="-31.3301" y="-6.02393" width="1961.27" height="446.59" fill="url(#paint7_linear_207_35804)"></rect> <rect x="-31.3301" y="496.536" width="1961.27" height="586.514" fill="url(#paint8_linear_207_35804)"></rect> </g> <rect width="778.554" height="410.425" fill="url(#paint9_linear_207_35804)"></rect> </g> <path d="M1762.52 801.812L1837.31 740.045L1932.97 756.14L1858.17 817.908L1762.52 801.812Z" fill="url(#paint10_linear_207_35804)"></path> <path d="M1960.67 862.197L1932.99 756.582L1932.83 756.003L1858.06 817.65L1886.41 923.462L1960.67 862.197Z" fill="url(#paint11_linear_207_35804)"></path> <path d="M1791.44 907.419L1762.6 802.114L1762.44 801.535L1858.02 817.534L1886.38 923.346L1791.44 907.419Z" fill="url(#paint12_linear_207_35804)"></path> <path d="M1657.25 758.423L1732.04 696.655L1827.69 712.751L1752.9 774.519L1657.25 758.423Z" fill="url(#paint13_linear_207_35804)"></path> <path d="M1855.39 818.808L1827.72 713.193L1827.56 712.614L1752.78 774.261L1781.14 880.073L1855.39 818.808Z" fill="url(#paint14_linear_207_35804)"></path> <path d="M1686.16 864.029L1657.33 758.725L1657.17 758.145L1752.75 774.145L1781.1 879.957L1686.16 864.029Z" fill="url(#paint15_linear_207_35804)"></path> <g opacity="0.9"> <path d="M12.2764 212.367L86.4917 147.735L183.935 161.52L109.72 226.151L12.2764 212.367Z" fill="url(#paint16_linear_207_35804)"></path> <path d="M214.846 268.349L183.969 161.968L183.796 161.384L109.594 225.893L141.16 332.456L214.846 268.349Z" fill="url(#paint17_linear_207_35804)"></path> <path d="M44.4116 318.707L12.3677 212.671L12.1948 212.088L109.56 225.776L141.126 332.339L44.4116 318.707Z" fill="url(#paint18_linear_207_35804)"></path> <path d="M-61.5176 276.12L12.6978 211.488L110.141 225.272L35.9257 289.904L-61.5176 276.12Z" fill="url(#paint19_linear_207_35804)"></path> <path d="M141.052 332.101L110.175 225.72L110.002 225.137L35.8003 289.646L67.3658 396.209L141.052 332.101Z" fill="url(#paint20_linear_207_35804)"></path> <path d="M-29.3823 382.459L-61.4263 276.424L-61.5991 275.84L35.7661 289.528L67.3316 396.092L-29.3823 382.459Z" fill="url(#paint21_linear_207_35804)"></path> <path d="M108.882 225.647L183.097 161.015L280.541 174.799L206.325 239.431L108.882 225.647Z" fill="url(#paint22_linear_207_35804)"></path> <path d="M311.452 281.629L280.575 175.247L280.402 174.664L206.2 239.173L237.765 345.736L311.452 281.629Z" fill="url(#paint23_linear_207_35804)"></path> <path d="M141.017 331.986L108.973 225.951L108.8 225.367L206.166 239.056L237.731 345.619L141.017 331.986Z" fill="url(#paint24_linear_207_35804)"></path> </g> <g filter="url(#filter2_f_207_35804)"> <path d="M225.495 810.037L261.638 782.75L305.927 792.205L269.784 819.492L225.495 810.037Z" fill="url(#paint25_linear_207_35804)"></path> <path d="M316.687 842.237L305.928 792.412L305.868 792.138L269.734 819.369L280.804 869.301L316.687 842.237Z" fill="url(#paint26_linear_207_35804)"></path> <path d="M236.832 859.883L225.526 810.179L225.465 809.906L269.722 819.315L280.791 869.246L236.832 859.883Z" fill="url(#paint27_linear_207_35804)"></path> <path d="M204.392 826.042L240.535 798.755L284.824 808.211L248.681 835.498L204.392 826.042Z" fill="url(#paint28_linear_207_35804)"></path> <path d="M295.584 858.243L284.825 808.417L284.764 808.144L248.631 835.375L259.7 885.306L295.584 858.243Z" fill="url(#paint29_linear_207_35804)"></path> <path d="M215.729 875.889L204.423 826.184L204.362 825.911L248.618 835.32L259.688 885.251L215.729 875.889Z" fill="url(#paint30_linear_207_35804)"></path> </g> <g filter="url(#filter3_f_207_35804)"> <path d="M1598.29 247.926L1639.95 240.917L1672.52 267.814L1630.86 274.824L1598.29 247.926Z" fill="url(#paint31_linear_207_35804)"></path> <path d="M1659.87 313.843L1672.43 267.986L1672.5 267.733L1630.87 274.701L1618.53 320.779L1659.87 313.843Z" fill="url(#paint32_linear_207_35804)"></path> <path d="M1586.2 294.05L1598.26 248.057L1598.33 247.805L1630.89 274.65L1618.54 320.728L1586.2 294.05Z" fill="url(#paint33_linear_207_35804)"></path> <path d="M1630.67 274.451L1672.32 267.441L1704.89 294.339L1663.24 301.349L1630.67 274.451Z" fill="url(#paint34_linear_207_35804)"></path> <path d="M1692.25 340.368L1704.81 294.511L1704.87 294.258L1663.25 301.226L1650.9 347.304L1692.25 340.368Z" fill="url(#paint35_linear_207_35804)"></path> <path d="M1618.58 320.574L1630.63 274.582L1630.7 274.33L1663.26 301.175L1650.92 347.253L1618.58 320.574Z" fill="url(#paint36_linear_207_35804)"></path> </g> <path d="M1532.66 1006.19L1500.86 974.495C1498.38 972.028 1498.38 967.967 1500.86 965.499L1532.66 933.805C1535.14 931.338 1539.22 931.338 1541.69 933.805L1573.5 965.499C1575.98 967.967 1575.98 972.028 1573.5 974.495L1541.69 1006.19C1541.07 1006.81 1540.35 1007.27 1539.6 1007.58C1539.58 1007.58 1534.83 1007.6 1534.83 1007.6C1534.03 1007.29 1533.28 1006.81 1532.66 1006.19Z" fill="#3DD33D"></path> <path d="M1558.49 956.929C1556.4 956.929 1554.67 958.651 1554.67 960.733C1554.67 962.404 1555.78 963.895 1557.35 964.383V971.452C1557.35 975.462 1554.82 977.672 1549.15 978.572C1548.37 977.081 1546.75 976.13 1544.2 975.744H1544.17C1542.16 975.487 1540.64 974.896 1539.53 973.997V972.12C1540.61 971.169 1542.13 970.578 1544.22 970.321H1544.25C1547.83 969.781 1549.66 968.085 1549.66 965.334V961.196C1551.32 960.784 1552.58 959.294 1552.58 957.494C1552.58 955.387 1550.85 953.664 1548.76 953.664C1546.67 953.664 1544.94 955.387 1544.94 957.52C1544.94 959.345 1546.26 960.887 1547.96 961.247V965.36C1547.96 967.262 1546.78 968.239 1543.99 968.676C1542.18 968.881 1540.71 969.344 1539.55 970.064V957.571C1540.95 956.749 1541.87 955.258 1541.87 953.562C1541.87 950.991 1539.78 948.883 1537.18 948.883C1534.6 948.883 1532.48 950.965 1532.48 953.562C1532.48 955.284 1533.41 956.775 1534.81 957.571V968.239C1533.75 967.725 1532.48 967.365 1530.99 967.185C1527.51 966.671 1527.07 965.18 1527.07 963.92V961.016C1528.74 960.63 1530.03 959.114 1530.03 957.289C1530.03 955.207 1528.31 953.484 1526.22 953.484C1524.13 953.484 1522.4 955.181 1522.4 957.263C1522.4 959.088 1523.69 960.579 1525.36 960.99V963.895C1525.36 966.645 1527.17 968.316 1530.76 968.83C1532.48 969.087 1533.8 969.473 1534.81 970.167V976.156C1532.41 974.639 1529.39 973.637 1525.62 973.174C1519.82 972.3 1517.24 970.115 1517.24 966.028V964.409C1518.76 963.895 1519.84 962.481 1519.84 960.784C1519.84 958.702 1518.12 956.98 1516.03 956.98C1513.94 956.98 1512.21 958.702 1512.21 960.784C1512.21 962.455 1513.29 963.895 1514.81 964.409V966.028C1514.81 969.01 1515.92 971.349 1518.14 972.968C1519.82 974.228 1522.17 975.05 1525.29 975.513H1525.31C1529.49 976.053 1532.59 977.235 1534.83 979.086V1007.67C1536.35 1008.26 1538.08 1008.23 1539.6 1007.64V994.869C1540.69 993.943 1542.18 993.378 1544.25 993.121H1544.27C1547.86 992.581 1549.69 990.884 1549.69 988.134V987.517C1550.8 987.157 1551.63 986.103 1551.63 984.895C1551.63 983.687 1550.8 982.608 1549.69 982.273V980.937C1552.63 980.448 1554.88 979.626 1556.5 978.418C1558.72 976.798 1559.83 974.459 1559.83 971.478V964.383C1561.22 963.843 1562.28 962.43 1562.28 960.759C1562.28 959.756 1561.89 958.805 1561.2 958.06C1560.47 957.34 1559.52 956.929 1558.49 956.929ZM1546.31 957.52C1546.31 956.183 1547.39 955.104 1548.71 955.104C1550.05 955.104 1551.11 956.183 1551.11 957.52C1551.11 958.857 1550.03 959.911 1548.71 959.911C1547.42 959.911 1546.31 958.805 1546.31 957.52ZM1526.16 959.653C1524.85 959.653 1523.76 958.574 1523.76 957.263C1523.76 955.926 1524.85 954.872 1526.16 954.872C1527.48 954.872 1528.56 955.952 1528.56 957.263C1528.56 958.574 1527.45 959.653 1526.16 959.653ZM1515.97 963.124C1514.66 963.124 1513.58 962.07 1513.58 960.733C1513.58 959.396 1514.66 958.343 1515.97 958.343C1517.29 958.343 1518.37 959.422 1518.37 960.733C1518.37 962.044 1517.26 963.124 1515.97 963.124ZM1537.13 956.775C1535.32 956.775 1533.85 955.309 1533.85 953.51C1533.85 951.685 1535.32 950.22 1537.13 950.22C1538.93 950.22 1540.4 951.685 1540.4 953.484C1540.4 955.284 1538.93 956.775 1537.13 956.775ZM1539.5 976.053C1540.69 976.721 1542.13 977.184 1543.91 977.415C1545.56 977.672 1546.67 978.109 1547.27 978.855C1544.17 979.42 1541.56 980.371 1539.5 981.734V976.053ZM1547.91 982.273C1546.8 982.633 1545.98 983.687 1545.98 984.895C1545.98 986.155 1546.8 987.183 1547.91 987.517V988.134C1547.88 990.036 1546.72 991.013 1543.94 991.45C1542.16 991.656 1540.71 992.118 1539.55 992.812V984.741C1541.56 982.967 1544.3 981.811 1547.91 981.194V982.273ZM1558.49 963.149C1557.15 963.149 1556.09 962.07 1556.09 960.759C1556.09 959.448 1557.17 958.368 1558.49 958.368C1559.13 958.368 1559.75 958.625 1560.22 959.062C1560.68 959.525 1560.89 960.116 1560.89 960.733C1560.89 962.07 1559.8 963.149 1558.49 963.149Z" fill="white"></path> <path d="M1597.83 987.27H1585.36L1591.12 951.441H1603.36C1606.85 951.441 1609.75 952.176 1612.05 953.645C1614.37 955.115 1616 957.22 1616.95 959.961C1617.9 962.69 1618.07 965.95 1617.46 969.74C1616.87 973.403 1615.7 976.546 1613.95 979.17C1612.2 981.783 1609.95 983.789 1607.22 985.188C1604.49 986.576 1601.36 987.27 1597.83 987.27ZM1593.75 980.78H1598.26C1600.44 980.78 1602.35 980.36 1603.98 979.52C1605.63 978.68 1606.98 977.386 1608.03 975.636C1609.1 973.887 1609.85 971.647 1610.29 968.918C1610.71 966.329 1610.68 964.23 1610.2 962.62C1609.74 960.999 1608.84 959.815 1607.51 959.069C1606.18 958.311 1604.42 957.931 1602.25 957.931H1597.42L1593.75 980.78Z" fill="white"></path> <path d="M1631.74 987.795C1629.07 987.795 1626.86 987.235 1625.11 986.116C1623.36 984.984 1622.13 983.386 1621.42 981.322C1620.72 979.246 1620.6 976.791 1621.06 973.957C1621.51 971.193 1622.42 968.767 1623.79 966.679C1625.17 964.591 1626.9 962.964 1628.98 961.798C1631.06 960.632 1633.37 960.048 1635.93 960.048C1637.64 960.048 1639.2 960.334 1640.59 960.906C1641.99 961.465 1643.15 962.317 1644.08 963.46C1645 964.591 1645.64 966.008 1645.97 967.711C1646.33 969.414 1646.32 971.408 1645.96 973.694L1645.64 975.741H1623.67L1624.37 971.123H1639.55C1639.72 970.05 1639.65 969.099 1639.35 968.271C1639.04 967.443 1638.54 966.796 1637.82 966.329C1637.11 965.851 1636.24 965.612 1635.2 965.612C1634.13 965.612 1633.14 965.88 1632.21 966.416C1631.29 966.953 1630.51 967.659 1629.87 968.533C1629.25 969.396 1628.85 970.335 1628.67 971.35L1627.88 975.934C1627.65 977.345 1627.69 978.517 1628.01 979.45C1628.34 980.383 1628.9 981.083 1629.71 981.549C1630.51 982.004 1631.52 982.232 1632.76 982.232C1633.56 982.232 1634.31 982.115 1635.01 981.882C1635.72 981.649 1636.35 981.305 1636.91 980.85C1637.46 980.383 1637.91 979.806 1638.26 979.118L1644.86 979.573C1644.25 981.229 1643.32 982.675 1642.08 983.911C1640.83 985.136 1639.34 986.092 1637.59 986.78C1635.85 987.457 1633.9 987.795 1631.74 987.795Z" fill="white"></path> <path d="M1676.42 960.398L1662.98 987.27H1654.85L1650.08 960.398H1657.44L1659.74 979.625H1660.02L1668.51 960.398H1676.42Z" fill="white"></path> <path d="M1675.91 987.27L1681.67 951.441H1695.37C1697.99 951.441 1700.14 951.96 1701.83 952.998C1703.52 954.024 1704.71 955.453 1705.38 957.284C1706.07 959.104 1706.23 961.203 1705.86 963.582C1705.47 965.973 1704.64 968.078 1703.35 969.898C1702.07 971.706 1700.41 973.117 1698.37 974.132C1696.32 975.146 1693.96 975.654 1691.28 975.654H1682.56L1683.52 969.583H1691.06C1692.49 969.583 1693.7 969.332 1694.71 968.831C1695.72 968.318 1696.53 967.612 1697.13 966.714C1697.73 965.804 1698.12 964.76 1698.3 963.582C1698.49 962.381 1698.43 961.337 1698.11 960.451C1697.8 959.564 1697.22 958.876 1696.37 958.386C1695.53 957.885 1694.41 957.634 1693 957.634H1688.05L1683.25 987.27H1675.91Z" fill="white"></path> <path d="M1706.81 987.27L1712.57 951.441H1726.27C1728.89 951.441 1731.05 951.919 1732.74 952.875C1734.45 953.832 1735.65 955.191 1736.33 956.952C1737.03 958.701 1737.2 960.766 1736.83 963.145C1736.44 965.524 1735.61 967.565 1734.33 969.268C1733.07 970.971 1731.42 972.283 1729.39 973.204C1727.36 974.114 1725.02 974.569 1722.35 974.569H1713.18L1714.2 968.481H1722.17C1723.57 968.481 1724.76 968.283 1725.76 967.886C1726.75 967.489 1727.54 966.895 1728.11 966.102C1728.7 965.308 1729.09 964.323 1729.27 963.145C1729.46 961.944 1729.39 960.941 1729.06 960.136C1728.74 959.319 1728.14 958.701 1727.28 958.281C1726.43 957.85 1725.3 957.634 1723.89 957.634H1718.95L1714.15 987.27H1706.81ZM1728.17 970.965L1734.18 987.27H1726.08L1720.25 970.965H1728.17Z" fill="white"></path> <path d="M1770.53 974.568C1769.6 974.877 1769.07 975.618 1768.97 976.855C1768.63 981.506 1767.84 985.383 1766.61 988.486C1765.57 991.1 1763.64 993.084 1760.85 994.503C1757.44 996.128 1755.12 996.399 1753.79 995.209C1752.46 994.019 1751.67 991.019 1751.35 986.233L1751.48 982.219L1751.78 973.468L1752.23 964.74C1752.19 964.611 1752.17 964.547 1752.21 964.462L1752.32 963.93C1752.54 962.651 1752.97 961.375 1753.59 960.037C1754.62 958.064 1756.15 956.566 1758.14 955.693C1759.39 955.067 1760.64 954.868 1761.83 954.968C1763.45 955.073 1764.35 955.767 1764.48 957.071C1764.61 958.589 1765.38 959.324 1766.85 959.192C1768.37 959.188 1769.08 958.386 1768.97 956.932C1768.67 953.982 1767.23 951.979 1764.53 951.028C1762.14 950.188 1759.55 950.264 1756.77 951.256C1752.34 952.933 1749.43 956.592 1748.1 962.278C1747.92 963.044 1747.78 965.221 1747.61 968.891L1746.98 982.358C1746.54 992.432 1748.5 998.306 1752.93 999.961C1755.65 1000.97 1758.78 1000.65 1762.19 999.025C1765.35 997.482 1767.73 995.418 1769.39 992.812C1771.48 989.57 1772.75 984.822 1773.34 978.53L1777.26 977.232C1778.7 976.758 1779.14 975.76 1778.68 974.281C1778.22 972.802 1777.32 972.321 1775.89 972.795L1770.53 974.568ZM1788.33 960.028C1790.12 958.512 1791.57 958.316 1792.8 959.399C1792.99 959.55 1793.08 960.512 1793.12 962.2C1793.14 962.264 1793.18 962.393 1793.14 962.478L1793.08 962.712C1791.16 963.628 1788.63 964.538 1785.43 965.524C1785.83 963.052 1786.82 961.164 1788.33 960.028ZM1796.8 976.935C1796.79 976.871 1796.79 976.871 1796.79 976.871L1796.92 973.99C1796.9 974.139 1796.96 974.118 1796.96 973.905C1797.1 970.81 1797.15 967.885 1797.23 965.238C1800.54 963.292 1803.09 960.888 1804.94 958.006C1805.68 956.84 1805.42 956.005 1804.18 955.349C1802.95 954.694 1802 954.938 1801.26 956.104C1800.23 957.651 1798.89 959.087 1797.26 960.263C1797 957.868 1795.98 956.148 1794.11 955.207C1791.42 953.83 1788.62 954.33 1785.72 956.709C1782.69 959.128 1781.16 963.039 1780.99 968.482C1780.99 969.123 1781.31 969.724 1781.93 970.159C1782.52 970.529 1783.1 970.622 1783.72 970.415C1787.83 969.269 1790.95 968.238 1793.06 967.324L1792.98 969.48C1792.94 971.337 1792.81 973.364 1792.73 975.52C1792.51 978.571 1791.9 981.04 1791.05 982.952C1789.78 985.713 1787.99 986.802 1785.72 986.134C1784.97 985.954 1784.57 985.095 1784.52 983.622C1784.45 983.151 1784.54 982.554 1784.67 981.872L1784.75 980.57C1784.8 977.646 1784.85 975.362 1784.95 973.697C1785 972.331 1784.37 971.619 1783.02 971.71C1781.62 971.821 1780.86 972.495 1780.75 973.882C1780.47 977.872 1780.45 981.566 1780.62 984.984C1780.74 987.783 1782.27 989.616 1785.19 990.42C1787.77 991.198 1790.3 990.289 1792.8 987.692C1795.06 985.455 1796.36 981.905 1796.82 977C1796.82 977 1796.82 977 1796.8 976.935ZM1823.21 972.736C1822.87 973.842 1822.15 974.645 1821.05 975.081C1820.2 975.434 1819.04 975.889 1817.58 976.299L1818.03 966.439C1818.21 962.833 1818.33 959.673 1818.36 956.898C1818.42 953.546 1818.24 951.408 1817.71 950.377C1816.86 948.744 1815.53 947.767 1813.58 947.488C1811.93 947.255 1810.25 947.598 1808.53 948.453C1807.51 948.931 1806.61 949.583 1805.86 950.471C1805.26 949.887 1804.52 949.707 1803.59 950.017C1802.65 950.326 1802.11 951.002 1802.09 952.07C1801.91 959.008 1801.59 969.467 1801.12 983.448C1801.08 984.878 1801.78 985.57 1803.21 985.523C1804.62 985.412 1805.29 984.693 1805.34 983.328L1805.6 973.316C1805.81 968.92 1805.89 965.632 1805.96 963.412C1805.96 963.199 1806.02 963.178 1805.98 963.263C1806.24 956.796 1808.02 953.016 1811.43 951.818C1812.73 951.386 1813.58 951.673 1813.94 952.617C1814.12 953.196 1814.17 954.242 1814.19 955.866C1814.13 961.204 1813.88 969.016 1813.29 979.28C1813.26 980.283 1813.67 980.929 1814.63 981.175C1815.05 981.394 1815.52 981.378 1816.08 981.192C1820.9 979.67 1823.85 978.552 1824.81 977.88C1826.79 976.516 1827.67 973.601 1827.59 969.158C1827.57 967.749 1826.87 967.057 1825.53 967.148C1824.1 967.195 1823.37 967.933 1823.45 969.322C1823.46 970.881 1823.4 972.034 1823.21 972.736ZM1828.55 930.767C1826.85 932.604 1825.74 935.879 1825.19 940.528L1824.79 943.214C1824.72 943.235 1824.72 943.235 1824.72 943.235C1820.91 944 1818.67 944.956 1818.03 946.23C1817.4 947.503 1817.74 948.383 1818.97 949.038C1820.21 949.693 1821.1 949.469 1821.73 948.195C1821.63 948.301 1821.77 948.324 1822.08 948.221C1822.52 948.077 1823.29 947.894 1824.37 947.608L1824.49 947.567C1824.57 947.61 1824.57 947.61 1824.57 947.61L1824.32 954.996C1824.22 958.646 1824.15 961.079 1824.06 962.317C1824.02 963.747 1823.93 965.903 1823.92 968.742L1823.71 975.125C1823.55 980.141 1823.19 984.3 1822.76 987.563C1822.37 990.953 1822.1 992.957 1821.95 993.575C1821.34 995.831 1820.15 997.29 1818.42 997.931C1817.14 998.428 1816.73 999.342 1817.15 1000.69C1817.57 1002.04 1818.39 1002.48 1819.68 1001.98C1822.46 1000.99 1824.41 998.857 1825.54 995.646C1826.33 993.542 1826.89 990.452 1827.18 986.313C1827.31 986.058 1827.37 985.824 1827.37 985.61C1827.92 979.403 1830.23 974.242 1834.35 970.041C1835.5 968.881 1836.95 967.766 1838.74 966.677C1839.42 966.237 1839.96 965.987 1840.38 965.779C1841.61 965.302 1841.99 964.325 1841.57 962.974C1841.21 961.603 1840.39 961.166 1839.1 961.664C1834.55 963.595 1830.81 966.818 1827.91 971.395C1828.02 968.45 1828.02 966.251 1828.08 964.884C1828.37 957.841 1828.6 951.95 1828.84 947.191C1828.82 947.127 1828.84 946.978 1828.82 946.7C1828.88 946.68 1828.95 946.659 1829.09 946.682C1829.22 946.641 1829.34 946.599 1829.43 946.643C1833.36 945.836 1835.55 944.474 1836.11 942.517C1836.6 941.22 1836.15 940.446 1834.75 940.13C1833.41 939.793 1832.52 940.231 1832.17 941.551C1832.24 941.317 1832.21 941.253 1832.03 941.315C1832.03 941.315 1831.97 941.335 1831.86 941.441C1831.76 941.546 1831.63 941.587 1831.57 941.608C1831.22 941.796 1830.57 941.938 1829.74 942.141L1829.06 942.368C1829.25 939.68 1829.71 937.4 1830.35 935.7C1831.25 933.49 1833.43 932.128 1836.88 931.486C1838.18 931.267 1838.6 930.417 1838.18 929.067C1837.77 927.717 1836.9 927.151 1835.6 927.37C1832.55 927.954 1830.16 929.099 1828.55 930.767Z" fill="#37CE6C"></path> </g> <defs> <filter id="filter0_dd_207_35804" x="-5709.87" y="-450.662" width="14719.5" height="2870.77" filterUnits="userSpaceOnUse" color-interpolation-filters="sRGB"> <feFlood flood-opacity="0" result="BackgroundImageFix"></feFlood> <feColorMatrix in="SourceAlpha" type="matrix" values="0 0 0 0 0 0 0 0 0 0 0 0 0 0 0 0 0 0 127 0" result="hardAlpha"></feColorMatrix> <feOffset></feOffset> <feGaussianBlur stdDeviation="7.00915"></feGaussianBlur> <feColorMatrix type="matrix" values="0 0 0 0 0.717647 0 0 0 0 0.847059 0 0 0 0 1 0 0 0 1 0"></feColorMatrix> <feBlend mode="normal" in2="BackgroundImageFix" result="effect1_dropShadow_207_35804"></feBlend> <feColorMatrix in="SourceAlpha" type="matrix" values="0 0 0 0 0 0 0 0 0 0 0 0 0 0 0 0 0 0 127 0" result="hardAlpha"></feColorMatrix> <feOffset></feOffset> <feGaussianBlur stdDeviation="35.0457"></feGaussianBlur> <feColorMatrix type="matrix" values="0 0 0 0 0.717647 0 0 0 0 0.847059 0 0 0 0 1 0 0 0 1 0"></feColorMatrix> <feBlend mode="normal" in2="effect1_dropShadow_207_35804" result="effect2_dropShadow_207_35804"></feBlend> <feBlend mode="normal" in="SourceGraphic" in2="effect2_dropShadow_207_35804" result="shape"></feBlend> </filter> <filter id="filter1_dd_207_35804" x="-5502.57" y="-1253.41" width="12243.6" height="2387.89" filterUnits="userSpaceOnUse" color-interpolation-filters="sRGB"> <feFlood flood-opacity="0" result="BackgroundImageFix"></feFlood> <feColorMatrix in="SourceAlpha" type="matrix" values="0 0 0 0 0 0 0 0 0 0 0 0 0 0 0 0 0 0 127 0" result="hardAlpha"></feColorMatrix> <feOffset></feOffset> <feGaussianBlur stdDeviation="5.83016"></feGaussianBlur> <feColorMatrix type="matrix" values="0 0 0 0 0.717647 0 0 0 0 0.847059 0 0 0 0 1 0 0 0 1 0"></feColorMatrix> <feBlend mode="normal" in2="BackgroundImageFix" result="effect1_dropShadow_207_35804"></feBlend> <feColorMatrix in="SourceAlpha" type="matrix" values="0 0 0 0 0 0 0 0 0 0 0 0 0 0 0 0 0 0 127 0" result="hardAlpha"></feColorMatrix> <feOffset></feOffset> <feGaussianBlur stdDeviation="29.1508"></feGaussianBlur> <feColorMatrix type="matrix" values="0 0 0 0 0.717647 0 0 0 0 0.847059 0 0 0 0 1 0 0 0 1 0"></feColorMatrix> <feBlend mode="normal" in2="effect1_dropShadow_207_35804" result="effect2_dropShadow_207_35804"></feBlend> <feBlend mode="normal" in="SourceGraphic" in2="effect2_dropShadow_207_35804" result="shape"></feBlend> </filter> <filter id="filter2_f_207_35804" x="186.325" y="759.874" width="148.648" height="148.232" filterUnits="userSpaceOnUse" color-interpolation-filters="sRGB"> <feFlood flood-opacity="0" result="BackgroundImageFix"></feFlood> <feBlend mode="normal" in="SourceGraphic" in2="BackgroundImageFix" result="shape"></feBlend> <feGaussianBlur stdDeviation="7" result="effect1_foregroundBlur_207_35804"></feGaussianBlur> </filter> <filter id="filter3_f_207_35804" x="1573.46" y="223" width="143.927" height="142.14" filterUnits="userSpaceOnUse" color-interpolation-filters="sRGB"> <feFlood flood-opacity="0" result="BackgroundImageFix"></feFlood> <feBlend mode="normal" in="SourceGraphic" in2="BackgroundImageFix" result="shape"></feBlend> <feGaussianBlur stdDeviation="4" result="effect1_foregroundBlur_207_35804"></feGaussianBlur> </filter> <linearGradient id="paint0_linear_207_35804" x1="1124.05" y1="-237.61" x2="1124.05" y2="1261.65" gradientUnits="userSpaceOnUse"> <stop offset="0.149515" stop-opacity="0"></stop> <stop offset="0.515209" stop-color="#111121"></stop> </linearGradient> <linearGradient id="paint1_linear_207_35804" x1="1160.2" y1="0" x2="1160.2" y2="2499.97" gradientUnits="userSpaceOnUse"> <stop stop-color="#00A3FF" stop-opacity="0"></stop> <stop offset="0.416667" stop-color="#1A83FF"></stop> </linearGradient> <linearGradient id="paint2_linear_207_35804" x1="1124.05" y1="0" x2="1124.05" y2="2498.81" gradientUnits="userSpaceOnUse"> <stop stop-color="#5200FF" stop-opacity="0"></stop> <stop offset="0.416667" stop-color="#631AFF"></stop> </linearGradient> <linearGradient id="paint3_linear_207_35804" x1="949.303" y1="444.899" x2="949.303" y2="592.344" gradientUnits="userSpaceOnUse"> <stop stop-color="#111121"></stop> <stop offset="1" stop-color="#111527"></stop> </linearGradient> <linearGradient id="paint4_linear_207_35804" x1="980.633" y1="-197.642" x2="980.633" y2="1049.43" gradientUnits="userSpaceOnUse"> <stop offset="0.149515" stop-opacity="0"></stop> <stop offset="0.515209" stop-color="#111528"></stop> <stop offset="0.651042" stop-color="#0A0D1A"></stop> </linearGradient> <linearGradient id="paint5_linear_207_35804" x1="980.633" y1="0" x2="980.633" y2="2079.04" gradientUnits="userSpaceOnUse"> <stop stop-color="#5200FF" stop-opacity="0"></stop> <stop offset="0.416667" stop-color="#631AFF"></stop> </linearGradient> <linearGradient id="paint6_linear_207_35804" x1="980.633" y1="0" x2="980.633" y2="2079.04" gradientUnits="userSpaceOnUse"> <stop stop-color="#00A3FF" stop-opacity="0"></stop> <stop offset="0.416667" stop-color="#1A83FF"></stop> </linearGradient> <linearGradient id="paint7_linear_207_35804" x1="949.303" y1="-6.02393" x2="949.303" y2="440.566" gradientUnits="userSpaceOnUse"> <stop stop-color="#111121" stop-opacity="0.75"></stop> <stop offset="1" stop-color="#111121"></stop> </linearGradient> <linearGradient id="paint8_linear_207_35804" x1="949.303" y1="496.536" x2="949.303" y2="1186.24" gradientUnits="userSpaceOnUse"> <stop stop-color="#111223"></stop> <stop offset="1" stop-color="#121222" stop-opacity="0.28"></stop> </linearGradient> <linearGradient id="paint9_linear_207_35804" x1="180.148" y1="132.37" x2="390.06" y2="365.779" gradientUnits="userSpaceOnUse"> <stop stop-color="#111121"></stop> <stop offset="1" stop-color="#111121" stop-opacity="0"></stop> </linearGradient> <linearGradient id="paint10_linear_207_35804" x1="1835.53" y1="731.273" x2="1862.24" y2="830.938" gradientUnits="userSpaceOnUse"> <stop stop-color="#C193FF"></stop> <stop offset="1" stop-color="#EDDBFF"></stop> </linearGradient> <linearGradient id="paint11_linear_207_35804" x1="1880.98" y1="734.001" x2="1946.19" y2="977.37" gradientUnits="userSpaceOnUse"> <stop stop-color="#AD78FF"></stop> <stop offset="1" stop-color="#C193FF"></stop> </linearGradient> <linearGradient id="paint12_linear_207_35804" x1="1774.06" y1="735.945" x2="1805.98" y2="964.012" gradientUnits="userSpaceOnUse"> <stop stop-color="#C193FF"></stop> <stop offset="1" stop-color="#8C4BFF"></stop> </linearGradient> <linearGradient id="paint13_linear_207_35804" x1="1730.26" y1="687.884" x2="1756.97" y2="787.549" gradientUnits="userSpaceOnUse"> <stop stop-color="#C193FF"></stop> <stop offset="1" stop-color="#EDDBFF"></stop> </linearGradient> <linearGradient id="paint14_linear_207_35804" x1="1775.71" y1="690.612" x2="1840.92" y2="933.98" gradientUnits="userSpaceOnUse"> <stop stop-color="#AD78FF"></stop> <stop offset="1" stop-color="#C193FF"></stop> </linearGradient> <linearGradient id="paint15_linear_207_35804" x1="1668.79" y1="692.556" x2="1700.71" y2="920.623" gradientUnits="userSpaceOnUse"> <stop stop-color="#C193FF"></stop> <stop offset="1" stop-color="#8C4BFF"></stop> </linearGradient> <linearGradient id="paint16_linear_207_35804" x1="84.4557" y1="138.886" x2="114.187" y2="239.259" gradientUnits="userSpaceOnUse"> <stop stop-color="#E8A95F"></stop> <stop offset="1" stop-color="#FDF0D5"></stop> </linearGradient> <linearGradient id="paint17_linear_207_35804" x1="130.622" y1="140.446" x2="203.223" y2="385.543" gradientUnits="userSpaceOnUse"> <stop stop-color="#E8A95F"></stop> <stop offset="1" stop-color="#F3C481"></stop> </linearGradient> <linearGradient id="paint18_linear_207_35804" x1="22.2327" y1="145.257" x2="60.6646" y2="375.719" gradientUnits="userSpaceOnUse"> <stop stop-color="#F3C481"></stop> <stop offset="1" stop-color="#D9822F"></stop> </linearGradient> <linearGradient id="paint19_linear_207_35804" x1="10.6617" y1="202.639" x2="40.3935" y2="303.012" gradientUnits="userSpaceOnUse"> <stop stop-color="#E8A95F"></stop> <stop offset="1" stop-color="#FDF0D5"></stop> </linearGradient> <linearGradient id="paint20_linear_207_35804" x1="56.8278" y1="204.199" x2="129.429" y2="449.295" gradientUnits="userSpaceOnUse"> <stop stop-color="#E8A95F"></stop> <stop offset="1" stop-color="#F3C481"></stop> </linearGradient> <linearGradient id="paint21_linear_207_35804" x1="-51.5612" y1="209.009" x2="-13.1294" y2="439.471" gradientUnits="userSpaceOnUse"> <stop stop-color="#F3C481"></stop> <stop offset="1" stop-color="#D9822F"></stop> </linearGradient> <linearGradient id="paint22_linear_207_35804" x1="181.061" y1="152.166" x2="210.793" y2="252.539" gradientUnits="userSpaceOnUse"> <stop stop-color="#E8A95F"></stop> <stop offset="1" stop-color="#FDF0D5"></stop> </linearGradient> <linearGradient id="paint23_linear_207_35804" x1="227.227" y1="153.726" x2="299.828" y2="398.823" gradientUnits="userSpaceOnUse"> <stop stop-color="#E8A95F"></stop> <stop offset="1" stop-color="#F3C481"></stop> </linearGradient> <linearGradient id="paint24_linear_207_35804" x1="118.838" y1="158.537" x2="157.27" y2="388.998" gradientUnits="userSpaceOnUse"> <stop stop-color="#F3C481"></stop> <stop offset="1" stop-color="#D9822F"></stop> </linearGradient> <linearGradient id="paint25_linear_207_35804" x1="260.988" y1="778.622" x2="271.414" y2="825.653" gradientUnits="userSpaceOnUse"> <stop stop-color="#65C9E7"></stop> <stop offset="1" stop-color="#CCF6FB"></stop> </linearGradient> <linearGradient id="paint26_linear_207_35804" x1="282.13" y1="780.82" x2="307.59" y2="895.662" gradientUnits="userSpaceOnUse"> <stop stop-color="#3EA4CF"></stop> <stop offset="1" stop-color="#65C9E7"></stop> </linearGradient> <linearGradient id="paint27_linear_207_35804" x1="232.219" y1="779.549" x2="242.463" y2="886.576" gradientUnits="userSpaceOnUse"> <stop stop-color="#65C9E7"></stop> <stop offset="1" stop-color="#0C75AF"></stop> </linearGradient> <linearGradient id="paint28_linear_207_35804" x1="239.884" y1="794.628" x2="250.311" y2="841.658" gradientUnits="userSpaceOnUse"> <stop stop-color="#65C9E7"></stop> <stop offset="1" stop-color="#CCF6FB"></stop> </linearGradient> <linearGradient id="paint29_linear_207_35804" x1="261.026" y1="796.825" x2="286.486" y2="911.667" gradientUnits="userSpaceOnUse"> <stop stop-color="#3EA4CF"></stop> <stop offset="1" stop-color="#65C9E7"></stop> </linearGradient> <linearGradient id="paint30_linear_207_35804" x1="211.115" y1="795.555" x2="221.359" y2="902.582" gradientUnits="userSpaceOnUse"> <stop stop-color="#65C9E7"></stop> <stop offset="1" stop-color="#0C75AF"></stop> </linearGradient> <linearGradient id="paint31_linear_207_35804" x1="1641.19" y1="237.221" x2="1629.56" y2="280.623" gradientUnits="userSpaceOnUse"> <stop stop-color="#61B270"></stop> <stop offset="1" stop-color="#DDF8DA"></stop> </linearGradient> <linearGradient id="paint32_linear_207_35804" x1="1657.73" y1="248.146" x2="1629.34" y2="354.125" gradientUnits="userSpaceOnUse"> <stop stop-color="#61B270"></stop> <stop offset="1" stop-color="#89D890"></stop> </linearGradient> <linearGradient id="paint33_linear_207_35804" x1="1616.99" y1="225.598" x2="1579.37" y2="318.559" gradientUnits="userSpaceOnUse"> <stop stop-color="#89D890"></stop> <stop offset="1" stop-color="#328048"></stop> </linearGradient> <linearGradient id="paint34_linear_207_35804" x1="1673.56" y1="263.746" x2="1661.93" y2="307.147" gradientUnits="userSpaceOnUse"> <stop stop-color="#61B270"></stop> <stop offset="1" stop-color="#DDF8DA"></stop> </linearGradient> <linearGradient id="paint35_linear_207_35804" x1="1690.11" y1="274.671" x2="1661.71" y2="380.65" gradientUnits="userSpaceOnUse"> <stop stop-color="#61B270"></stop> <stop offset="1" stop-color="#89D890"></stop> </linearGradient> <linearGradient id="paint36_linear_207_35804" x1="1649.36" y1="252.123" x2="1611.74" y2="345.084" gradientUnits="userSpaceOnUse"> <stop stop-color="#89D890"></stop> <stop offset="1" stop-color="#328048"></stop> </linearGradient> <clipPath id="clip0_207_35804"> <rect width="1920" height="1080" fill="white"></rect> </clipPath> <clipPath id="clip1_207_35804"> <rect width="1920" height="1080" fill="white"></rect> </clipPath> <clipPath id="clip2_207_35804"> <rect width="1961.27" height="1083.24" fill="white" transform="translate(-31.3301)"></rect> </clipPath> <clipPath id="clip3_207_35804"> <rect width="1961.27" height="616.831" fill="white" transform="translate(1929.94 434.93) rotate(-180)"></rect> </clipPath> </defs> </svg> 