<svg width="666" height="363" viewBox="0 0 666 363" fill="none" xmlns="http://www.w3.org/2000/svg">
  <g id="Ticket">
    <g id="ticket-container">
      <g id="border">
        <mask id="path-1-outside-1_40_6300" maskUnits="userSpaceOnUse" x="0" y="0" width="666" height="363"
          fill="black">
          <rect fill="white" width="666" height="363" />
          <path fill-rule="evenodd" clip-rule="evenodd"
            d="M6 28C6 15.8497 15.8497 6 28 6H638C650.15 6 660 15.8497 660 28V132.741C640.661 140.482 627 159.396 627 181.5C627 203.604 640.661 222.518 660 230.259V335C660 347.15 650.15 357 638 357H28C15.8497 357 6 347.15 6 335V230.259C25.3394 222.518 39 203.604 39 181.5C39 159.396 25.3394 140.482 6 132.741V28Z" />
        </mask>
        <path fill-rule="evenodd" clip-rule="evenodd"
          d="M6 28C6 15.8497 15.8497 6 28 6H638C650.15 6 660 15.8497 660 28V132.741C640.661 140.482 627 159.396 627 181.5C627 203.604 640.661 222.518 660 230.259V335C660 347.15 650.15 357 638 357H28C15.8497 357 6 347.15 6 335V230.259C25.3394 222.518 39 203.604 39 181.5C39 159.396 25.3394 140.482 6 132.741V28Z"
          fill="#212134" />
        <path
          d="M660 132.741L662.23 138.311L666 136.802V132.741H660ZM660 230.259H666V226.198L662.23 224.689L660 230.259ZM6 230.259L3.77028 224.689L0 226.198V230.259H6ZM6 132.741H0V136.802L3.77029 138.311L6 132.741ZM28 0C12.536 0 0 12.536 0 28H12C12 19.1634 19.1634 12 28 12V0ZM638 0H28V12H638V0ZM666 28C666 12.536 653.464 0 638 0V12C646.837 12 654 19.1634 654 28H666ZM666 132.741V28H654V132.741H666ZM633 181.5C633 161.931 645.09 145.172 662.23 138.311L657.77 127.17C636.231 135.792 621 156.86 621 181.5H633ZM662.23 224.689C645.09 217.828 633 201.069 633 181.5H621C621 206.14 636.231 227.208 657.77 235.83L662.23 224.689ZM666 335V230.259H654V335H666ZM638 363C653.464 363 666 350.464 666 335H654C654 343.837 646.837 351 638 351V363ZM28 363H638V351H28V363ZM0 335C0 350.464 12.536 363 28 363V351C19.1634 351 12 343.837 12 335H0ZM0 230.259V335H12V230.259H0ZM33 181.5C33 201.069 20.9103 217.828 3.77028 224.689L8.22972 235.83C29.7685 227.208 45 206.14 45 181.5H33ZM3.77029 138.311C20.9103 145.172 33 161.931 33 181.5H45C45 156.86 29.7685 135.792 8.22971 127.17L3.77029 138.311ZM0 28V132.741H12V28H0Z"
          fill="url(#paint0_linear_40_6300)" mask="url(#path-1-outside-1_40_6300)" />
      </g>
      <path id="divider" d="M508 10.5V352" stroke="#4A4A6A" stroke-width="3" stroke-dasharray="6 6" />
      <g id="Frame 48095615">
        <text id="number" transform="translate(598 43.5) rotate(90)" fill="white" xml:space="preserve"
          style="white-space: pre" font-family="Poppins" font-size="40" font-weight="bold" letter-spacing="0.105em">
          <tspan x="0.1586" y="44">N&#xb0; 5638096</tspan>
        </text>
      </g>
    </g>
    <g id="event-container">
      <rect id="logo" x="72" y="181" width="350" height="104" fill="#D9D9D9" />
      <g id="date">
        <text fill="#7E7E97" xml:space="preserve" style="white-space: pre" font-family="Poppins" font-size="22"
          font-weight="600" letter-spacing="2px">
          <tspan x="141.101" y="309.2">de</tspan>
          <tspan x="291.556" y="309.2">de</tspan>
        </text>
        <text fill="#C0C0CF" xml:space="preserve" style="white-space: pre" font-family="Poppins" font-size="22"
          font-weight="600" letter-spacing="2px">
          <tspan x="133.858" y="309.2"> </tspan>
          <tspan x="173.589" y="309.2"> </tspan>
          <tspan x="284.313" y="309.2"> </tspan>
          <tspan x="324.044" y="309.2"> </tspan>
        </text>
        <text fill="white" xml:space="preserve" style="white-space: pre" font-family="Poppins" font-size="22"
          font-weight="600" letter-spacing="2px">
          <tspan x="104.593" y="309.2">22</tspan>
          <tspan x="180.831" y="309.2">outubro</tspan>
          <tspan x="331.286" y="309.2">2022</tspan>
        </text>
      </g>
    </g>
    <g id="member-container">
      <g id="identify">
        <text id="name" fill="white" xml:space="preserve" style="white-space: pre" font-family="Poppins" font-size="22"
          font-weight="600" letter-spacing="0em">
          <tspan x="187" y="80.2">Nome da pessoa</tspan>
        </text>
        <g id="github">
          <g id="github.com/pessoa">
            <text fill="#7E7E97" xml:space="preserve" style="white-space: pre" font-family="Poppins" font-size="20"
              letter-spacing="0em">
              <tspan x="223" y="122">github.com/</tspan>
            </text>
            <text fill="white" xml:space="preserve" style="white-space: pre" font-family="Poppins" font-size="20"
              letter-spacing="0em">
              <tspan x="347.082" y="122">pessoa</tspan>
            </text>
          </g>
          <path id="Github" fill-rule="evenodd" clip-rule="evenodd"
            d="M198.999 103.5C192.373 103.5 187 108.894 187 115.548C187 120.87 190.438 125.386 195.207 126.979C195.807 127.09 196.026 126.718 196.026 126.399C196.026 126.113 196.016 125.355 196.01 124.35C192.671 125.078 191.967 122.735 191.967 122.735C191.422 121.343 190.635 120.973 190.635 120.973C189.546 120.225 190.718 120.24 190.718 120.24C191.921 120.325 192.555 121.482 192.555 121.482C193.626 123.323 195.364 122.791 196.048 122.482C196.157 121.704 196.467 121.173 196.81 120.872C194.145 120.568 191.344 119.535 191.344 114.918C191.344 113.603 191.811 112.527 192.579 111.685C192.456 111.38 192.044 110.156 192.696 108.497C192.696 108.497 193.704 108.173 195.996 109.732C196.954 109.464 197.98 109.331 199.001 109.326C200.02 109.331 201.047 109.464 202.005 109.732C204.296 108.173 205.302 108.497 205.302 108.497C205.956 110.156 205.544 111.38 205.421 111.685C206.19 112.527 206.655 113.603 206.655 114.918C206.655 119.546 203.849 120.565 201.176 120.863C201.606 121.235 201.99 121.97 201.99 123.094C201.99 124.704 201.975 126.003 201.975 126.399C201.975 126.721 202.191 127.096 202.8 126.978C207.565 125.381 211 120.869 211 115.548C211 108.894 205.627 103.5 198.999 103.5Z"
            fill="white" />
        </g>
      </g>
      <g id="avatar">
        <rect id="photo" x="80" y="46" width="92" height="92" rx="46" stroke="url(#paint1_linear_40_6300)"
          stroke-width="4" />
      </g>
    </g>
  </g>
  <defs>
    <linearGradient id="paint0_linear_40_6300" x1="583.5" y1="6.00001" x2="23.5" y2="217.5"
      gradientUnits="userSpaceOnUse">
      <stop stop-color="#36CC69" />
      <stop offset="0.54634" stop-color="#4BFFB3" />
      <stop offset="1" stop-color="#2DC27A" />
    </linearGradient>
    <linearGradient id="paint1_linear_40_6300" x1="126" y1="46" x2="126" y2="138" gradientUnits="userSpaceOnUse">
      <stop stop-color="#151524" />
      <stop offset="1" stop-color="#212134" />
    </linearGradient>
  </defs>
</svg>
