<svg viewBox="0 0 1280 1281" fill="none" xmlns="http://www.w3.org/2000/svg">
  <path d="M445.626 379.07C431.878 392.473 402.772 422.093 396.334 433.352C386.274 433.352 371.185 432.346 349.054 428.326C354.084 419.279 383.257 389.122 399.352 382.085C415.447 379.07 442.609 379.07 445.626 379.07Z" fill="white"/>
  <path d="M388.286 454.461L445.626 458.482C427.184 483.613 388.488 545.936 381.245 594.187C369.978 584.537 349.054 563.36 340 553.978C345.03 534.209 361.729 486.628 388.286 454.461Z" fill="white"/>
  <path d="M478.823 435.362C506.32 441.728 562.52 455.064 567.348 457.477C573.384 454.461 616.641 389.122 618.653 387.112C620.664 385.101 655.873 388.117 669.957 393.143C677.2 386.709 695.106 367.007 703.154 357.96C695.441 356.285 670.762 353.537 633.742 355.95C626.7 358.965 610.94 371.698 609.599 374.044C585.456 371.028 536.767 366.203 535.157 367.007C533.145 368.012 484.859 425.31 478.823 435.362Z" fill="white"/>
  <path d="M479.829 466.524C490.224 466.524 522.482 469.942 568.354 483.613C560.307 496.68 514.032 573.077 489.889 671.589C473.793 665.557 443.211 643.442 409.412 616.302C432.549 537.894 450.656 504.722 479.829 466.524Z" fill="white"/>
  <path d="M408.406 644.448C424.836 658.856 463.734 690.085 487.877 699.735C479.829 722.855 466.752 770.1 466.752 784.173C465.947 787.39 475.135 794.225 479.829 797.241C478.153 818.351 474.598 860.771 473.793 861.575C472.787 862.58 419.471 809.304 418.465 805.283C417.661 802.066 416.789 768.425 416.453 752.006L400.358 736.928C401.699 713.138 405.187 661.335 408.406 644.448Z" fill="white"/>
  <path d="M494.919 813.325C492.907 826.392 489.285 856.348 490.895 871.627C512.02 895.753 588.474 918.873 591.491 917.867C594.509 916.862 621.67 896.758 633.742 875.648C621.67 872.632 524.092 839.46 494.919 813.325Z" fill="white"/>
  <path d="M517.05 708.782C510.344 725.535 497.132 766.28 497.937 795.231C517.05 810.309 611.611 855.544 643.802 861.575C657.483 849.512 685.717 808.969 698.124 790.205C657.215 776.802 563.727 741.753 517.05 708.782Z" fill="white"/>
  <path d="M789.667 592.176C777.595 628.699 744.599 715.818 709.189 772.111C674.987 762.058 570.366 723.86 523.086 686.667C532.139 653.495 563.324 571.067 605.575 507.738C649.837 520.806 752.446 554.983 789.667 592.176Z" fill="white"/>
  <path d="M612.617 491.654C649.837 503.047 738.765 535.482 796.708 574.082C801.738 561.014 814.816 502.712 816.828 486.628C805.762 477.581 741.38 437.372 668.951 418.273C650.441 431.944 623.682 472.89 612.617 491.654Z" fill="white"/>
  <path d="M820.852 467.529C821.522 448.095 822.662 409.025 821.858 408.221C820.852 407.216 773.571 369.018 716.231 362.986C698.526 379.874 682.028 396.829 675.993 403.195C705.615 410.902 776.059 434.759 820.852 468.534C821.656 468.534 821.187 467.864 820.852 467.529Z" fill="white"/>
  <path d="M836.947 480.597C838.288 461.833 840.971 424.104 840.971 423.299C840.971 422.294 887.245 465.519 890.263 472.555C891.068 479.793 891.269 509.078 891.269 522.816C879.533 512.764 852.238 490.247 836.947 480.597Z" fill="white"/>
  <path d="M891.269 547.947C890.263 570.732 887.245 619.116 883.222 630.375C875.979 624.745 831.917 595.862 810.792 582.124C815.822 568.051 827.29 531.26 832.923 496.68C841.776 503.114 875.509 533.538 891.269 547.947Z" fill="white"/>
  <path d="M909.377 507.738V545.936C916.754 553.978 931.91 570.866 933.52 574.082C933.52 564.03 920.442 520.806 909.377 507.738Z" fill="white"/>
  <path d="M901.329 646.458L939.556 682.646C939.891 659.526 940.36 612.683 939.556 610.27C938.55 607.255 919.436 575.088 909.377 568.051C910.383 587.15 902.335 643.442 901.329 646.458Z" fill="white"/>
  <path d="M829.905 804.278C844.995 781.158 878.795 720.442 893.281 662.542C906.158 673.8 926.813 694.039 935.532 702.75C928.825 727.881 910.584 783.972 891.269 807.293C878.192 808.298 845.33 805.953 829.905 804.278Z" fill="white"/>
  <path d="M816.828 821.366C804.086 838.12 777.394 872.431 772.565 875.648C779.607 876.653 823.87 872.632 824.876 872.632C825.881 872.632 867.126 836.445 877.186 825.387C868.132 825.387 819.846 821.366 816.828 821.366Z" fill="white"/>
  <path d="M722.267 919.878C730.65 912.506 747.617 897.361 748.422 895.753H790.673C777.93 903.166 746.41 918.369 722.267 919.878Z" fill="white"/>
  <path d="M613.623 925.909C627.371 912.841 655.068 886.303 655.873 884.695C658.891 884.695 696.112 894.747 726.291 895.753C711 910.228 692.423 921.888 685.046 925.909H613.623Z" fill="white"/>
  <path d="M798.72 817.345C787.655 830.748 761.902 861.173 747.416 875.648C733.333 878.664 671.969 869.617 667.945 866.601C670.963 860.57 691.082 836.445 714.219 795.231C728.303 802.267 790.673 816.34 798.72 817.345Z" fill="white"/>
  <path d="M808.78 801.262C794.697 798.916 758.482 791.21 726.291 779.147C741.38 751.001 777.595 689.683 806.768 596.197C827.692 611.476 862.432 637.411 877.186 648.469C869.809 677.62 845.8 748.991 808.78 801.262Z" fill="white"/>
  <path d="M366.155 606.249L398.346 634.395C395.328 646.123 389.494 674.604 390.298 694.709C387.079 692.296 372.862 674.269 366.155 665.557V606.249Z" fill="white"/>
</svg>
