<svg width="1280" height="1280" viewBox="0 0 1280 1280" fill="none" xmlns="http://www.w3.org/2000/svg">
  <path d="M426.189 352.477C411.066 367.22 379.049 399.802 371.967 412.187C360.902 412.187 344.303 411.081 319.959 406.658C325.492 396.706 357.582 363.534 375.287 355.794C392.992 352.477 422.869 352.477 426.189 352.477Z" fill="white"/>
  <path d="M363.115 435.407L426.189 439.83C405.902 467.474 363.336 536.03 355.369 589.105C342.976 578.49 319.959 555.196 310 544.876C315.533 523.129 333.902 470.791 363.115 435.407Z" fill="white"/>
  <path d="M462.706 414.398C492.952 421.401 554.772 436.071 560.083 438.725C566.722 435.407 614.305 363.534 616.518 361.323C618.731 359.111 657.461 362.428 672.952 367.957C680.92 360.88 700.617 339.208 709.469 329.256C700.985 327.413 673.838 324.391 633.116 327.045C625.37 330.362 608.034 344.368 606.559 346.948C580.001 343.631 526.444 338.323 524.673 339.208C522.46 340.314 469.345 403.341 462.706 414.398Z" fill="white"/>
  <path d="M463.812 448.676C475.247 448.676 510.73 452.436 561.19 467.474C552.337 481.848 501.435 565.885 474.878 674.247C457.173 667.613 423.532 643.287 386.353 613.432C411.804 527.184 431.722 490.694 463.812 448.676Z" fill="white"/>
  <path d="M385.246 644.392C403.32 660.241 446.107 694.593 472.665 705.208C463.812 730.64 449.427 782.61 449.427 798.09C448.542 801.629 458.648 809.148 463.812 812.465C461.968 835.686 458.058 882.348 457.173 883.233C456.066 884.338 397.418 825.734 396.312 821.311C395.427 817.773 394.468 780.767 394.099 762.707L376.394 746.121C377.869 719.951 381.705 662.969 385.246 644.392Z" fill="white"/>
  <path d="M480.411 830.157C478.197 844.532 474.214 877.483 475.984 894.29C499.222 920.828 583.321 946.26 586.641 945.154C589.96 944.048 619.837 921.934 633.116 898.713C619.837 895.396 512.501 858.906 480.411 830.157Z" fill="white"/>
  <path d="M504.755 715.16C497.378 733.589 482.845 778.408 483.73 810.254C504.755 826.84 608.772 876.598 644.182 883.233C659.231 869.964 690.289 825.365 703.936 804.725C658.936 789.982 556.1 751.428 504.755 715.16Z" fill="white"/>
  <path d="M804.633 586.894C791.355 627.069 755.059 722.9 716.108 784.822C678.485 773.764 563.403 731.746 511.394 690.834C521.353 654.344 555.657 563.673 602.132 494.012C650.821 508.386 763.691 545.981 804.633 586.894Z" fill="white"/>
  <path d="M609.878 476.32C650.821 488.852 748.641 524.53 812.379 566.991C817.912 552.616 832.297 488.483 834.511 470.791C822.338 460.839 751.518 416.61 671.846 395.601C651.485 410.639 622.051 455.679 609.878 476.32Z" fill="white"/>
  <path d="M838.937 449.782C839.675 428.404 840.929 385.428 840.043 384.543C838.937 383.437 786.928 341.419 723.854 334.785C704.379 353.361 686.231 372.011 679.592 379.015C712.177 387.492 789.665 413.735 838.937 450.888C839.822 450.888 839.306 450.151 838.937 449.782Z" fill="white"/>
  <path d="M856.642 464.157C858.117 443.516 861.068 402.014 861.068 401.129C861.068 400.024 911.97 447.57 915.29 455.311C916.175 463.272 916.396 495.486 916.396 510.598C903.486 499.54 873.462 474.772 856.642 464.157Z" fill="white"/>
  <path d="M916.396 538.241C915.29 563.305 911.97 616.528 907.544 628.912C899.576 622.72 851.109 590.948 827.871 575.836C833.404 560.356 846.019 519.886 852.216 481.848C861.953 488.925 899.06 522.392 916.396 538.241Z" fill="white"/>
  <path d="M936.314 494.012V536.03C944.429 544.876 961.101 563.452 962.872 566.991C962.872 555.933 948.487 508.386 936.314 494.012Z" fill="white"/>
  <path d="M927.462 646.604L969.511 686.411C969.88 660.979 970.396 609.451 969.511 606.797C968.405 603.48 947.38 568.096 936.314 560.356C937.421 581.365 928.568 643.287 927.462 646.604Z" fill="white"/>
  <path d="M848.896 820.205C865.494 794.773 902.675 727.986 918.609 664.296C932.773 676.68 955.495 698.942 965.085 708.525C957.708 736.169 937.642 797.869 916.396 823.523C902.011 824.628 865.863 822.048 848.896 820.205Z" fill="white"/>
  <path d="M834.511 839.003C820.494 857.432 791.133 895.175 785.822 898.713C793.568 899.819 842.257 895.396 843.363 895.396C844.47 895.396 889.839 855.589 900.904 843.426C890.945 843.426 837.83 839.003 834.511 839.003Z" fill="white"/>
  <path d="M730.494 947.366C739.715 939.257 758.379 922.597 759.264 920.828H805.74C791.724 928.982 757.051 945.706 730.494 947.366Z" fill="white"/>
  <path d="M610.985 954C626.108 939.625 656.575 910.434 657.461 908.665C660.78 908.665 701.723 919.722 734.92 920.828C718.1 936.75 697.666 949.577 689.551 954H610.985Z" fill="white"/>
  <path d="M814.592 834.58C802.42 849.323 774.092 882.79 758.158 898.713C742.666 902.03 675.166 892.079 670.739 888.761C674.059 882.127 696.19 855.589 721.641 810.254C737.133 817.994 805.74 833.474 814.592 834.58Z" fill="white"/>
  <path d="M825.658 816.888C810.166 814.308 770.33 805.831 734.92 792.562C751.518 761.601 791.355 694.151 823.445 591.317C846.461 608.124 884.675 636.652 900.904 648.815C892.79 680.882 866.38 759.39 825.658 816.888Z" fill="white"/>
  <path d="M338.771 602.374L374.181 633.335C370.861 646.235 364.443 677.565 365.328 699.68C361.787 697.026 346.148 677.196 338.771 667.613V602.374Z" fill="white"/>
</svg>
