<svg viewBox="0 0 512 512" fill="none" xmlns="http://www.w3.org/2000/svg">
  <g clip-path="url(#clip0_543_33138)">
    <path
      d="M159.974 265.441C159.974 307.201 137.06 308.279 138.69 335.932C140.505 366.555 164.44 366.626 164.44 387.679C164.44 408.725 142.429 432.325 161.929 454.991C247.67 454.991 256.037 454.991 256.037 454.991V199.622L159.974 265.441Z"
      fill="#262421" />
    <path
      d="M352.023 264.058C352.023 305.818 374.94 306.897 373.306 334.549C371.496 365.172 347.56 365.243 347.56 386.296C347.56 407.342 369.568 430.942 350.071 453.608C264.327 453.608 255.959 453.608 255.959 453.608V198.243L352.023 264.058Z"
      fill="#262421" />
    <path
      d="M256.002 327.306C313.885 327.306 360.808 280.077 360.808 221.817C360.808 163.557 313.885 116.328 256.002 116.328C198.119 116.328 151.196 163.557 151.196 221.817C151.196 280.077 198.119 327.306 256.002 327.306Z"
      fill="#262421" />
    <path d="M284.885 299.215H227.119V395.891H284.885V299.215Z" fill="#F1C9A5" />
    <path d="M284.885 299.215H256.002V395.891H284.885V299.215Z" fill="#E4B692" />
    <path opacity="0.1"
      d="M227.119 344.013C232.314 358.927 253.279 367.475 268.677 367.475C274.247 367.475 279.669 366.541 284.885 364.833V299.215H227.119V344.013Z"
      fill="#DDAC8C" />
    <path
      d="M330.27 238.213C330.27 177.829 297.019 143.493 256.002 143.493C214.985 143.493 181.734 177.829 181.734 238.213C181.734 298.596 214.985 347.553 256.002 347.553C297.016 347.553 330.27 298.6 330.27 238.213Z"
      fill="#F1C9A5" />
    <path
      d="M330.27 238.213C330.27 177.829 297.019 143.493 256.002 143.493V347.553C297.016 347.553 330.27 298.6 330.27 238.213Z"
      fill="#E4B692" />
    <path
      d="M318.964 280.079C305.5 278.579 296.411 263.163 298.692 245.661C300.945 228.144 313.694 215.14 327.165 216.629C340.622 218.122 349.696 233.53 347.426 251.047C345.166 268.564 332.427 281.557 318.964 280.079Z"
      fill="#E4B692" />
    <path
      d="M165.105 251.047C162.831 233.53 171.909 218.118 185.359 216.629C198.833 215.14 211.586 228.144 213.846 245.661C216.116 263.163 207.02 278.583 193.567 280.079C180.1 281.557 167.361 268.564 165.105 251.047Z"
      fill="#F1C9A5" />
    <path
      d="M378.601 413.567C362.099 382.328 256.002 362.725 256.002 362.725C256.002 362.725 149.905 382.328 133.403 413.567C121.205 456.918 111.002 512 111.002 512H256.002H401.001C401.001 512 394.109 452.939 378.601 413.567Z"
      fill="#F1C9A5" />
    <path
      d="M256.002 362.725C256.002 362.725 362.099 382.328 378.601 413.567C394.112 452.939 401.001 512 401.001 512H256.002V362.725Z"
      fill="#E4B692" />
    <path
      d="M336.399 231.398C336.399 231.218 336.409 231.044 336.409 230.867C336.409 184.026 304.697 134.595 260.309 134.595C215.922 134.595 175.676 184.022 175.676 230.864C175.676 231.044 175.686 231.218 175.686 231.394H336.399V231.398Z"
      fill="url(#paint0_linear_543_33138)" />
    <path
      d="M401.001 512C401.001 512 394.112 452.939 378.601 413.567C369.551 396.432 333.566 382.813 302.897 373.996L255.892 410.889L206.999 374.604C176.814 383.435 142.245 396.828 133.403 413.57C121.205 456.922 111.002 512.004 111.002 512.004H256.002H401.001V512Z"
      fill="#4CAF50" />
  </g>
  <defs>
    <linearGradient id="paint0_linear_543_33138" x1="256.043" y1="134.595" x2="256.043" y2="231.398"
      gradientUnits="userSpaceOnUse">
      <stop stop-color="#262421" />
      <stop offset="0.192708" stop-color="#262421" />
      <stop offset="0.546875" stop-color="#262421" />
      <stop offset="1" stop-color="#262421" stop-opacity="0.96" />
    </linearGradient>
    <clipPath id="clip0_543_33138">
      <rect width="512" height="512" fill="white" />
    </clipPath>
  </defs>
</svg>
