<svg width="666" height="363" viewBox="0 0 666 363" fill="none" xmlns="http://www.w3.org/2000/svg">
<mask id="path-1-outside-1_241_28863" maskUnits="userSpaceOnUse" x="0" y="0" width="666" height="363" fill="black">
<rect fill="white" width="666" height="363"/>
<path fill-rule="evenodd" clip-rule="evenodd" d="M6 28C6 15.8497 15.8497 6 28 6H638C650.15 6 660 15.8497 660 28V132.741C640.661 140.482 627 159.396 627 181.5C627 203.604 640.661 222.518 660 230.259V335C660 347.15 650.15 357 638 357H28C15.8497 357 6 347.15 6 335V230.259C25.3394 222.518 39 203.604 39 181.5C39 159.396 25.3394 140.482 6 132.741V28Z"/>
</mask>
<path fill-rule="evenodd" clip-rule="evenodd" d="M6 28C6 15.8497 15.8497 6 28 6H638C650.15 6 660 15.8497 660 28V132.741C640.661 140.482 627 159.396 627 181.5C627 203.604 640.661 222.518 660 230.259V335C660 347.15 650.15 357 638 357H28C15.8497 357 6 347.15 6 335V230.259C25.3394 222.518 39 203.604 39 181.5C39 159.396 25.3394 140.482 6 132.741V28Z" fill="#212134"/>
<path d="M660 132.741L662.23 138.311L666 136.802V132.741H660ZM660 230.259H666V226.198L662.23 224.689L660 230.259ZM6 230.259L3.77028 224.689L0 226.198V230.259H6ZM6 132.741H0V136.802L3.77029 138.311L6 132.741ZM28 0C12.536 0 0 12.536 0 28H12C12 19.1634 19.1634 12 28 12V0ZM638 0H28V12H638V0ZM666 28C666 12.536 653.464 0 638 0V12C646.837 12 654 19.1634 654 28H666ZM666 132.741V28H654V132.741H666ZM633 181.5C633 161.931 645.09 145.172 662.23 138.311L657.77 127.17C636.231 135.792 621 156.86 621 181.5H633ZM662.23 224.689C645.09 217.828 633 201.069 633 181.5H621C621 206.14 636.231 227.208 657.77 235.83L662.23 224.689ZM666 335V230.259H654V335H666ZM638 363C653.464 363 666 350.464 666 335H654C654 343.837 646.837 351 638 351V363ZM28 363H638V351H28V363ZM0 335C0 350.464 12.536 363 28 363V351C19.1634 351 12 343.837 12 335H0ZM0 230.259V335H12V230.259H0ZM33 181.5C33 201.069 20.9103 217.828 3.77028 224.689L8.22972 235.83C29.7685 227.208 45 206.14 45 181.5H33ZM3.77029 138.311C20.9103 145.172 33 161.931 33 181.5H45C45 156.86 29.7685 135.792 8.22971 127.17L3.77029 138.311ZM0 28V132.741H12V28H0Z" fill="url(#paint0_linear_241_28863)" mask="url(#path-1-outside-1_241_28863)"/>
<path d="M508 10.5V352" stroke="#4A4A6A" stroke-width="3" stroke-dasharray="6 6"/>
<defs>
<linearGradient id="paint0_linear_241_28863" x1="583.5" y1="6.00001" x2="23.5" y2="217.5" gradientUnits="userSpaceOnUse">
<stop stop-color="#36CC69"/>
<stop offset="0.54634" stop-color="#4BFFB3"/>
<stop offset="1" stop-color="#2DC27A"/>
</linearGradient>
</defs>
</svg>
