<svg width="1280" height="1281" viewBox="0 0 1280 1281" fill="none" xmlns="http://www.w3.org/2000/svg">
  <path d="M606.242 614.839L440.842 474.839C434.086 469.186 426.168 465.089 417.651 462.841C409.133 460.592 400.225 460.247 391.559 461.829C382.893 463.412 374.681 466.883 367.508 471.996C360.335 477.11 354.375 483.74 350.053 491.417C345.731 499.093 343.153 507.627 342.501 516.412C341.848 525.197 343.139 534.018 346.28 542.248C349.421 550.479 354.336 557.916 360.676 564.033C367.016 570.149 374.624 574.795 382.962 577.64H383.562L385.122 578.119L593.762 641.679C595.276 642.226 596.872 642.511 598.482 642.519C601.726 642.503 604.876 641.429 607.455 639.461C610.034 637.493 611.902 634.738 612.774 631.613C613.647 628.489 613.478 625.165 612.292 622.145C611.106 619.126 608.968 616.575 606.202 614.88L606.242 614.839Z" fill="url(#paint0_linear_720_47747)"/>
  <path d="M639.399 383.722C639.447 375.848 637.359 368.108 633.359 361.327C629.358 354.545 623.594 348.974 616.68 345.207C609.766 341.44 601.959 339.618 594.092 339.934C586.224 340.25 578.589 342.692 571.999 347.002L369.999 469.642C363.131 474.118 357.253 479.955 352.728 486.792C348.203 493.629 345.127 501.32 343.69 509.392C342.254 517.463 342.486 525.744 344.374 533.722C346.261 541.7 349.764 549.207 354.666 555.779C359.567 562.351 365.764 567.849 372.873 571.933C379.981 576.017 387.852 578.601 395.998 579.525C404.144 580.449 412.393 579.694 420.237 577.306C428.08 574.918 435.35 570.949 441.599 565.642L622.679 418.082L624.119 416.882C628.906 412.782 632.749 407.697 635.387 401.973C638.024 396.25 639.393 390.024 639.399 383.722V383.722Z" fill="url(#paint1_linear_720_47747)"/>
  <path d="M933.158 647.999L626.678 352.839C622.528 348.674 617.58 345.391 612.13 343.186C606.679 340.982 600.84 339.901 594.962 340.009C589.083 340.118 583.288 341.412 577.922 343.816C572.557 346.22 567.733 349.683 563.739 353.998C559.745 358.312 556.664 363.389 554.682 368.924C552.699 374.459 551.855 380.337 552.2 386.207C552.546 392.076 554.074 397.814 556.692 403.078C559.311 408.342 562.966 413.023 567.438 416.839L567.998 417.319L893.598 691.639C897.894 695.243 903.13 697.544 908.69 698.274C914.25 699.003 919.902 698.129 924.982 695.755C930.063 693.381 934.359 689.605 937.366 684.872C940.374 680.14 941.967 674.646 941.958 669.039C941.958 665.124 941.18 661.248 939.669 657.636C938.158 654.024 935.945 650.748 933.158 647.999Z" fill="url(#paint2_linear_720_47747)"/>
  <path d="M941.999 669.162C942.039 663.722 940.568 658.377 937.751 653.723C934.934 649.069 930.881 645.288 926.043 642.8C921.205 640.313 915.771 639.216 910.347 639.633C904.923 640.05 899.72 641.964 895.319 645.162L524.479 826.362C517.085 830.077 510.539 835.282 505.253 841.649C499.967 848.016 496.056 855.408 493.764 863.36C491.473 871.312 490.851 879.652 491.938 887.855C493.025 896.059 495.797 903.949 500.08 911.03C504.363 918.11 510.065 924.228 516.827 928.999C523.588 933.77 531.264 937.091 539.371 938.752C547.477 940.414 555.84 940.38 563.934 938.654C572.027 936.928 579.676 933.546 586.399 928.722L929.319 693.362C933.233 690.655 936.432 687.039 938.641 682.824C940.85 678.609 942.002 673.921 941.999 669.162V669.162Z" fill="url(#paint3_linear_720_47747)"/>
  <path d="M520 520H760V760H520V520Z" fill="black"/>
  <path d="M546.121 715.002H636.121V730.002H546.121V715.002Z" fill="white"/>
  <path d="M542.363 581.88L549.043 575.56C549.679 576.563 550.543 577.402 551.565 578.006C552.587 578.611 553.738 578.966 554.923 579.04C557.483 579.04 559.163 577.24 559.163 573.76V550.08H569.483V573.84C569.638 575.753 569.39 577.678 568.756 579.489C568.122 581.301 567.116 582.96 565.803 584.36C564.447 585.684 562.838 586.721 561.071 587.409C559.305 588.096 557.418 588.42 555.523 588.36C552.963 588.463 550.418 587.924 548.12 586.793C545.821 585.661 543.842 583.972 542.363 581.88V581.88Z" fill="white"/>
  <path d="M574.12 550.08H604.24V558.84H584.24V564.56H602.2V572.56H584.4V578.52H604.4V587.32H574L574.12 550.08Z" fill="white"/>
  <path d="M618.923 559.16H607.723V550.08H640.563V559.16H629.323V587.52H618.923V559.16Z" fill="white"/>
  <path d="M546.523 602.32H564.203C566.039 602.169 567.886 602.385 569.637 602.955C571.388 603.525 573.009 604.438 574.403 605.64C575.199 606.437 575.825 607.386 576.244 608.431C576.663 609.476 576.867 610.595 576.843 611.72C576.873 613.545 576.33 615.334 575.289 616.834C574.249 618.334 572.764 619.469 571.043 620.08C573.172 620.47 575.09 621.607 576.454 623.287C577.818 624.966 578.538 627.077 578.483 629.24C578.483 636 573.243 640 564.283 640H546.523V602.32ZM566.523 613.88C566.523 611.8 564.843 610.68 561.803 610.68H556.643V617.24H561.643C564.763 617.24 566.603 616.16 566.603 614L566.523 613.88ZM562.923 624.52H556.643V631.44H563.123C566.323 631.44 568.083 630.2 568.083 628C568.003 625.88 566.483 624.52 563.003 624.52H562.923Z" fill="white"/>
  <path d="M581.803 602.32H598.403C600.6 602.141 602.811 602.403 604.906 603.09C607.001 603.777 608.938 604.875 610.603 606.32C611.726 607.468 612.6 608.834 613.171 610.334C613.742 611.835 613.998 613.437 613.923 615.04C613.995 617.53 613.29 619.981 611.907 622.052C610.524 624.123 608.53 625.713 606.203 626.6L615.163 640H603.163L595.603 628.64H592.123V640H581.723L581.803 602.32ZM597.803 620.32C601.283 620.32 603.403 618.6 603.403 615.84C603.403 612.84 601.203 611.32 597.763 611.32H592.203V620.4L597.803 620.32Z" fill="white"/>
  <path d="M628.364 602.037H638.364L654.364 639.797H643.204L640.524 633.037H626.004L623.324 639.997H612.484L628.364 602.037ZM637.484 624.957L633.284 614.357L629.044 624.957H637.484Z" fill="white"/>
  <path d="M656.004 602.201H666.404V639.681H656.004V602.201Z" fill="white"/>
  <path d="M670.242 602.201H680.002L693.482 622.201V602.201H703.762V639.681H694.682L680.562 619.121V639.681H670.242V602.201Z" fill="white"/>
  <path d="M705.484 634.119L711.244 627.199C714.618 630.019 718.848 631.613 723.244 631.719C726.084 631.719 727.564 630.719 727.564 629.119C727.564 627.479 726.364 626.679 721.204 625.479C713.204 623.639 707.084 621.479 707.084 613.759C707.084 606.799 712.604 601.759 721.604 601.759C727.168 601.55 732.625 603.322 737.004 606.759L732.004 613.879C728.979 611.592 725.315 610.306 721.524 610.199C719.004 610.199 717.764 611.199 717.764 612.599C717.764 614.319 719.044 615.079 724.284 616.239C732.884 618.119 738.204 620.919 738.204 627.919C738.204 635.559 732.164 639.919 723.084 639.919C716.708 640.19 710.45 638.128 705.484 634.119V634.119Z" fill="white"/>
  <defs>
    <linearGradient id="paint0_linear_720_47747" x1="410.562" y1="524.639" x2="611.082" y2="622.159" gradientUnits="userSpaceOnUse">
      <stop offset="0.21" stop-color="#FE2857"/>
      <stop offset="1" stop-color="#293896"/>
    </linearGradient>
    <linearGradient id="paint1_linear_720_47747" x1="349.519" y1="559.442" x2="611.799" y2="364.922" gradientUnits="userSpaceOnUse">
      <stop stop-color="#FE2857"/>
      <stop offset="0.01" stop-color="#FE2857"/>
      <stop offset="0.86" stop-color="#FF318C"/>
    </linearGradient>
    <linearGradient id="paint2_linear_720_47747" x1="576.678" y1="366.319" x2="921.078" y2="679.039" gradientUnits="userSpaceOnUse">
      <stop offset="0.02" stop-color="#FF318C"/>
      <stop offset="0.21" stop-color="#FE2857"/>
      <stop offset="0.86" stop-color="#FDB60D"/>
    </linearGradient>
    <linearGradient id="paint3_linear_720_47747" x1="901.839" y1="639.202" x2="500.279" y2="915.602" gradientUnits="userSpaceOnUse">
      <stop offset="0.01" stop-color="#FDB60D"/>
      <stop offset="0.86" stop-color="#FCF84A"/>
    </linearGradient>
  </defs>
</svg>
