<svg width="48" height="48" viewBox="0 0 48 48" fill="none" xmlns="http://www.w3.org/2000/svg">
  <g clip-path="url(#clip0_1417_89)">
    <rect width="48" height="48" rx="24" fill="#00FE00" />
    <path d="M47.9339 6.39551L6.52734 47.934H17.9339L47.9339 17.9999V6.39551Z" fill="#00EF03" />
    <path d="M47.9339 19.2527V30.7252L30.5603 47.934H19.2197L47.9339 19.2527Z" fill="#00EF03" />
    <path d="M47.9339 31.6153V43.3516L42.9889 47.934H31.6482L47.9339 31.6153Z" fill="#00EF03" />
    <path
      d="M31.2883 19.7786L23.9933 15.5121L16.6984 19.7786V28.1959L23.9933 32.4496L31.2883 28.1959V19.7786Z"
      fill="white" />
    <path
      d="M31.2883 15.7562V10.7958L23.9933 6.59351L8.9668 15.2679V32.6938L13.2564 35.1868V17.7867L23.9933 11.5925L31.2883 15.7562Z"
      fill="white" />
    <path
      d="M34.7046 12.8262V30.1878L23.9933 36.3948L16.6984 32.1797V37.1273L23.9933 41.4067L39.0327 32.6938V15.2679L34.7046 12.8262Z"
      fill="white" />
  </g>
  <defs>
    <clipPath id="clip0_1417_89">
      <rect width="48" height="48" rx="24" fill="white" />
    </clipPath>
  </defs>
</svg>