<svg width="48" height="48" viewBox="0 0 48 48" fill="none" xmlns="http://www.w3.org/2000/svg">
  <rect width="48" height="48" rx="24" fill="#212121" fill-opacity="0.3" />
  <path fill-rule="evenodd" clip-rule="evenodd"
    d="M31.4234 46.8288C29.0858 47.5891 26.5911 48.0001 24.0009 48.0001C21.409 48.0001 18.9127 47.5885 16.5737 46.8272C17.6542 46.9567 18.0534 46.2533 18.0534 45.6459C18.0534 45.3815 18.0489 44.9151 18.0429 44.2912C18.0359 43.5693 18.0269 42.6365 18.0204 41.5616C11.3439 43.013 9.93541 38.3419 9.93541 38.3419C8.84491 35.5681 7.27141 34.8295 7.27141 34.8295C5.09191 33.3388 7.43641 33.3691 7.43641 33.3691C9.84391 33.5388 11.1114 35.8443 11.1114 35.8443C13.2534 39.5144 16.7289 38.4548 18.0969 37.8391C18.3144 36.2872 18.9354 35.2287 19.6209 34.6284C14.2914 34.0221 8.68891 31.9626 8.68891 22.7598C8.68891 20.1373 9.62341 17.9941 11.1594 16.3143C10.9119 15.7065 10.0884 13.2658 11.3934 9.95894C11.3934 9.95894 13.4094 9.31342 17.9934 12.4206C19.9089 11.8876 21.9609 11.6223 24.0024 11.6114C26.0409 11.6219 28.0944 11.8876 30.0114 12.4206C34.5924 9.31342 36.6039 9.95894 36.6039 9.95894C37.9134 13.2658 37.0899 15.7065 36.8424 16.3143C38.3814 17.9941 39.3099 20.1373 39.3099 22.7598C39.3099 31.985 33.6984 34.0161 28.3524 34.6104C29.2134 35.352 29.9814 36.8168 29.9814 39.058C29.9814 41.205 29.968 43.074 29.9591 44.3125C29.9547 44.9262 29.9514 45.3851 29.9514 45.6463C29.9514 46.2564 30.341 46.9614 31.4234 46.8288Z"
    fill="url(#paint0_linear_978_74760)" />
  <defs>
    <linearGradient id="paint0_linear_978_74760" x1="22.8268" y1="9.90332" x2="22.8268" y2="48.0001"
      gradientUnits="userSpaceOnUse">
      <stop stop-color="#1DEA1D" />
      <stop offset="1" stop-color="#6FDB95" />
    </linearGradient>
  </defs>
</svg>