<svg width="48" height="48" viewBox="0 0 48 48" fill="none" xmlns="http://www.w3.org/2000/svg">
  <g clip-path="url(#clip0_1414_42)">
    <rect width="48" height="48" rx="24" fill="#262626" />
    <path
      d="M19.0013 24C19.0013 21.2387 21.2392 18.9996 24.0005 18.9996C26.7618 18.9996 29.0009 21.2387 29.0009 24C29.0009 26.7613 26.7618 29.0004 24.0005 29.0004C21.2392 29.0004 19.0013 26.7613 19.0013 24ZM16.2982 24C16.2982 28.254 19.7465 31.7023 24.0005 31.7023C28.2545 31.7023 31.7028 28.254 31.7028 24C31.7028 19.746 28.2545 16.2977 24.0005 16.2977C19.7465 16.2977 16.2982 19.746 16.2982 24ZM30.2077 15.9923C30.2076 16.3483 30.313 16.6963 30.5107 16.9924C30.7083 17.2885 30.9894 17.5193 31.3182 17.6557C31.6471 17.7921 32.009 17.8279 32.3582 17.7586C32.7074 17.6892 33.0282 17.5179 33.28 17.2663C33.5318 17.0147 33.7034 16.694 33.773 16.3449C33.8426 15.9957 33.8071 15.6338 33.671 15.3048C33.5349 14.9759 33.3043 14.6947 33.0084 14.4968C32.7124 14.2989 32.3645 14.1931 32.0084 14.193H32.0077C31.5305 14.1932 31.0729 14.3828 30.7354 14.7202C30.3979 15.0576 30.2081 15.5151 30.2077 15.9923ZM17.9405 36.2096C16.478 36.143 15.6832 35.8994 15.1549 35.6936C14.4546 35.421 13.9549 35.0963 13.4296 34.5716C12.9042 34.047 12.579 33.5478 12.3076 32.8475C12.1016 32.3195 11.858 31.5244 11.7916 30.0619C11.7188 28.4808 11.7043 28.0058 11.7043 24.0001C11.7043 19.9944 11.72 19.5208 11.7916 17.9383C11.8582 16.4759 12.1036 15.6823 12.3076 15.1528C12.5802 14.4524 12.9049 13.9528 13.4296 13.4274C13.9542 12.902 14.4534 12.5768 15.1549 12.3054C15.6829 12.0995 16.478 11.8559 17.9405 11.7894C19.5216 11.7167 19.9966 11.7022 24.0005 11.7022C28.0044 11.7022 28.4798 11.7179 30.0623 11.7894C31.5247 11.856 32.3183 12.1014 32.8478 12.3054C33.5482 12.5768 34.0478 12.9028 34.5732 13.4274C35.0986 13.952 35.4226 14.4524 35.6952 15.1528C35.9011 15.6808 36.1447 16.4759 36.2112 17.9383C36.2839 19.5208 36.2984 19.9944 36.2984 24.0001C36.2984 28.0058 36.2839 28.4795 36.2112 30.0619C36.1446 31.5244 35.8998 32.3192 35.6952 32.8475C35.4226 33.5478 35.0978 34.0475 34.5732 34.5716C34.0486 35.0958 33.5482 35.421 32.8478 35.6936C32.3198 35.8996 31.5247 36.1432 30.0623 36.2096C28.4812 36.2824 28.0062 36.2969 24.0005 36.2969C19.9948 36.2969 19.5211 36.2824 17.9405 36.2096ZM17.8163 9.09084C16.2194 9.16356 15.1283 9.41676 14.1754 9.78756C13.1885 10.1705 12.353 10.6842 11.5182 11.5177C10.6834 12.3512 10.171 13.188 9.78805 14.1749C9.41725 15.1284 9.16405 16.219 9.09133 17.8158C9.01741 19.4152 9.00049 19.9265 9.00049 24C9.00049 28.0735 9.01741 28.5848 9.09133 30.1842C9.16405 31.7812 9.41725 32.8716 9.78805 33.8251C10.171 34.8114 10.6835 35.6491 11.5182 36.4823C12.3529 37.3154 13.1885 37.8284 14.1754 38.2124C15.1301 38.5832 16.2194 38.8364 17.8163 38.9092C19.4165 38.9819 19.927 39 24.0005 39C28.074 39 28.5853 38.9831 30.1847 38.9092C31.7816 38.8364 32.8721 38.5832 33.8256 38.2124C34.8119 37.8284 35.6479 37.3158 36.4828 36.4823C37.3176 35.6488 37.8289 34.8114 38.2129 33.8251C38.5837 32.8716 38.8381 31.781 38.9096 30.1842C38.9824 28.5836 38.9993 28.0735 38.9993 24C38.9993 19.9265 38.9824 19.4152 38.9096 17.8158C38.8369 16.2188 38.5837 15.1278 38.2129 14.1749C37.8289 13.1886 37.3163 12.3526 36.4828 11.5177C35.6492 10.6829 34.8119 10.1705 33.8268 9.78756C32.8721 9.41676 31.7815 9.16236 30.1859 9.09084C28.5865 9.01812 28.0752 9 24.0017 9C19.9282 9 19.4165 9.01692 17.8163 9.09084Z"
      fill="white" />
  </g>
  <defs>
    <clipPath id="clip0_1414_42">
      <rect width="48" height="48" fill="white" />
    </clipPath>
  </defs>
</svg>