<svg width="48" height="48" viewBox="0 0 48 48" fill="none" xmlns="http://www.w3.org/2000/svg">
  <mask id="mask0_1000_72716" style="mask-type:luminance" maskUnits="userSpaceOnUse" x="0" y="0"
    width="48" height="48">
    <path
      d="M48 24C48 10.7452 37.2548 0 24 0C10.7452 0 0 10.7452 0 24C0 37.2548 10.7452 48 24 48C37.2548 48 48 37.2548 48 24Z"
      fill="white" />
  </mask>
  <g mask="url(#mask0_1000_72716)">
    <path
      d="M48 24C48 10.7452 37.2548 0 24 0C10.7452 0 0 10.7452 0 24C0 37.2548 10.7452 48 24 48C37.2548 48 48 37.2548 48 24Z"
      fill="black" fill-opacity="0.3" />
    <path
      d="M17 12.9667L22 17.8V12H26V17.8L32 12.9667L35 16.8333L28 21.6667H36V25.5333H28L34 31.3333L31 34.2333L24 27.4667L17 34.2333L14 31.3333L20 25.5333H12V21.6667H20L14 15.8667L17 12.9667Z"
      fill="url(#paint0_linear_1000_72716)" />
    <path d="M22 41V33.2667L24 31.3333L26 33.2667V41H22Z" fill="url(#paint1_linear_1000_72716)" />
  </g>
  <defs>
    <linearGradient id="paint0_linear_1000_72716" x1="24" y1="12" x2="24" y2="41"
      gradientUnits="userSpaceOnUse">
      <stop stop-color="#1DEA1D" />
      <stop offset="1" stop-color="#6FDB95" />
    </linearGradient>
    <linearGradient id="paint1_linear_1000_72716" x1="24" y1="12" x2="24" y2="41"
      gradientUnits="userSpaceOnUse">
      <stop stop-color="#1DEA1D" />
      <stop offset="1" stop-color="#6FDB95" />
    </linearGradient>
  </defs>
</svg>