<svg width="48" height="48" viewBox="0 0 48 48" fill="none" xmlns="http://www.w3.org/2000/svg">
  <rect width="48" height="48" rx="24" fill="#212121" fill-opacity="0.3" />
  <path fill-rule="evenodd" clip-rule="evenodd"
    d="M35.7379 14.1401C37.0229 14.486 38.0361 15.4992 38.3821 16.7842C39.0246 19.1318 38.9999 24.0247 38.9999 24.0247C38.9999 24.0247 38.9999 28.8929 38.3821 31.2405C38.0361 32.5255 37.0229 33.5387 35.7379 33.8846C33.3903 34.5024 23.9999 34.5024 23.9999 34.5024C23.9999 34.5024 14.6342 34.5024 12.2619 33.8599C10.9769 33.5139 9.96375 32.5008 9.61779 31.2158C9 28.8929 9 24 9 24C9 24 9 19.1318 9.61779 16.7842C9.96375 15.4992 11.0016 14.4613 12.2619 14.1153C14.6095 13.4976 23.9999 13.4976 23.9999 13.4976C23.9999 13.4976 33.3903 13.4976 35.7379 14.1401ZM28.8167 23.999L21.0078 28.4965V19.5015L28.8167 23.999Z"
    fill="url(#paint0_linear_978_74750)" />
  <defs>
    <linearGradient id="paint0_linear_978_74750" x1="24" y1="13.4976" x2="24" y2="34.5024"
      gradientUnits="userSpaceOnUse">
      <stop stop-color="#1DEA1D" />
      <stop offset="1" stop-color="#6FDB95" />
    </linearGradient>
  </defs>
</svg>